<?xml version="1.0" encoding="utf-8"?>
<!-- Generator: Adobe Illustrator 19.2.1, SVG Export Plug-In . SVG Version: 6.00 Build 0)  -->
<svg version="1.1" id="Layer_1" xmlns="http://www.w3.org/2000/svg" xmlns:xlink="http://www.w3.org/1999/xlink" x="0px" y="0px"
	 width="100px" height="100px" viewBox="0 0 100 100" style="enable-background:new 0 0 100 100;" xml:space="preserve">
<style type="text/css">
	.st0{fill:#FFCD3D;}
</style>
<g>
	<rect y="0" width="100" height="100"/>
	<rect x="8.5" y="47.2" class="st0" width="5.8" height="5.9"/>
	<rect x="15.9" y="47.2" class="st0" width="5.8" height="5.9"/>
	<rect x="23.4" y="47.2" class="st0" width="5.8" height="5.9"/>
	<path class="st0" d="M34.7,53.9v-7.7h2.1c0.5,0,1,0.2,1.2,0.5c0.4,0.4,0.4,0.8,0.4,1.2V49c0,0.4,0,0.9-0.4,1.3
		c-0.2,0.2-0.6,0.4-1.1,0.4c-0.3,0-0.6,0-0.9,0v3.2H34.7z M36.6,49.5L36.6,49.5c0.2,0,0.3,0,0.4-0.2c0,0,0-0.2,0-0.6v-0.8
		c0-0.2,0-0.4-0.1-0.5c-0.1-0.1-0.3-0.2-0.5-0.2H36v2.3H36.6z"/>
	<path class="st0" d="M41.5,53.9c-0.2-0.3-0.2-0.6-0.2-0.9v-1.7c0-0.2,0-0.5-0.2-0.6c-0.1-0.1-0.3-0.1-0.4-0.1h-0.5v3.4H39v-7.7H41
		c0.7,0,1.1,0.2,1.3,0.5c0.2,0.3,0.3,0.7,0.3,1.1v0.9c0,0.3,0,0.6-0.3,0.9c-0.1,0.1-0.3,0.3-0.6,0.3v0c0.1,0,0.3,0.1,0.5,0.3
		c0.4,0.3,0.4,0.7,0.4,1v1.7c0,0.7,0,0.9,0.3,1v0H41.5z M40.8,49.3L40.8,49.3c0.1,0,0.3,0,0.5-0.1c0.1-0.1,0.2-0.3,0.2-0.5v-0.8
		c0-0.3-0.1-0.4-0.1-0.5c-0.1-0.1-0.3-0.2-0.4-0.2h-0.7v2.1H40.8z"/>
	<path class="st0" d="M47.2,52.2c0,0.4,0,0.9-0.6,1.4c-0.4,0.4-1,0.5-1.4,0.5c-0.4,0-1-0.1-1.4-0.5c-0.5-0.4-0.5-0.9-0.5-1.4v-4.3
		c0-0.4,0-0.9,0.5-1.4c0.4-0.4,1-0.4,1.4-0.4c0.4,0,1,0.1,1.4,0.4c0.5,0.4,0.6,0.9,0.6,1.4V52.2z M44.6,52.1L44.6,52.1
		c0,0.2,0,0.4,0.1,0.6c0.1,0.2,0.4,0.2,0.5,0.2c0.1,0,0.4,0,0.6-0.2c0.1-0.1,0.1-0.4,0.1-0.6v-4.2c0-0.2,0-0.4-0.1-0.5
		c-0.1-0.2-0.4-0.3-0.6-0.3c-0.1,0-0.4,0-0.5,0.3c-0.1,0.1-0.1,0.3-0.1,0.5V52.1z"/>
	<path class="st0" d="M50.4,50.6h-0.7v-1.1h2v4.3h-1v-0.7h0c0,0.2-0.2,0.4-0.3,0.6C50,54,49.7,54,49.5,54c-0.5,0-0.8-0.1-1.1-0.5
		c-0.4-0.4-0.4-0.8-0.4-1.3v-4.4c0-0.6,0.1-1.1,0.6-1.4c0.4-0.3,0.9-0.4,1.3-0.4c0.6,0,1.1,0.1,1.5,0.5c0.2,0.2,0.4,0.6,0.4,1.3v0.8
		h-1.3v-0.7c0-0.2,0-0.4-0.1-0.6c-0.1-0.1-0.2-0.2-0.5-0.2c-0.1,0-0.3,0-0.5,0.2c-0.1,0.2-0.1,0.4-0.1,0.6v4.2c0,0.2,0,0.4,0.1,0.6
		c0.1,0.1,0.3,0.2,0.6,0.2c0.3,0,0.4-0.1,0.4-0.2c0.1-0.1,0.1-0.2,0.1-0.5V50.6z"/>
	<path class="st0" d="M55,53.9c-0.2-0.3-0.2-0.6-0.2-0.9v-1.7c0-0.2,0-0.5-0.2-0.6c-0.1-0.1-0.3-0.1-0.4-0.1h-0.5v3.4h-1.3v-7.7h2.1
		c0.7,0,1.1,0.2,1.3,0.5c0.3,0.3,0.3,0.7,0.3,1.1v0.9c0,0.3,0,0.6-0.3,0.9c-0.1,0.1-0.3,0.3-0.6,0.3v0c0.1,0,0.3,0.1,0.5,0.3
		c0.3,0.3,0.4,0.7,0.4,1v1.7c0,0.7,0,0.9,0.4,1v0H55z M54.3,49.3L54.3,49.3c0.1,0,0.3,0,0.4-0.1c0.2-0.1,0.2-0.3,0.2-0.5v-0.8
		c0-0.3,0-0.4-0.1-0.5c-0.1-0.1-0.3-0.2-0.4-0.2h-0.7v2.1H54.3z"/>
	<polygon class="st0" points="56.9,46.1 60.1,46.1 60.1,47.2 58.1,47.2 58.1,49.1 59.6,49.1 59.6,50.2 58.1,50.2 58.1,52.8 
		60.3,52.8 60.3,53.9 56.9,53.9 	"/>
	<path class="st0" d="M61.9,51.3V52c0,0.4,0,0.5,0.1,0.6c0.1,0.3,0.4,0.3,0.6,0.3c0.1,0,0.4,0,0.5-0.1c0.1-0.1,0.1-0.4,0.1-0.5v-0.5
		c0-0.3-0.1-0.6-0.4-0.9l-1.3-1.2c-0.2-0.2-0.4-0.4-0.5-0.6c-0.2-0.3-0.3-0.7-0.3-1v-0.6c0-0.4,0.2-0.7,0.4-1
		c0.4-0.4,1.1-0.4,1.4-0.4c0.4,0,1,0.1,1.4,0.5c0.4,0.4,0.4,0.9,0.4,1.2v0.8h-1.3v-0.6c0-0.2,0-0.4-0.1-0.6
		c-0.1-0.1-0.3-0.2-0.4-0.2c-0.1,0-0.3,0.1-0.4,0.2c-0.1,0.1-0.1,0.3-0.1,0.4V48c0,0.3,0.1,0.4,0.3,0.6l1.3,1.2
		c0.4,0.4,0.8,0.8,0.8,1.7v0.8c0,0.4,0,0.8-0.4,1.2c-0.4,0.4-0.9,0.4-1.4,0.4c-0.4,0-0.8-0.1-1.3-0.4c-0.6-0.4-0.7-1-0.7-1.4v-1
		H61.9z"/>
	<path class="st0" d="M66.2,51.3V52c0,0.4,0,0.5,0.1,0.6c0.1,0.3,0.4,0.3,0.6,0.3c0.1,0,0.4,0,0.5-0.1s0.1-0.4,0.1-0.5v-0.5
		c0-0.3-0.1-0.6-0.4-0.9l-1.3-1.2c-0.2-0.2-0.4-0.4-0.5-0.6c-0.2-0.3-0.3-0.7-0.3-1v-0.6c0-0.4,0.2-0.7,0.4-1
		c0.4-0.4,1.2-0.4,1.5-0.4c0.4,0,1,0.1,1.4,0.5c0.4,0.4,0.4,0.9,0.4,1.2v0.8h-1.3v-0.6c0-0.2,0-0.4-0.1-0.6
		c-0.1-0.1-0.3-0.2-0.4-0.2c-0.1,0-0.3,0.1-0.4,0.2c-0.1,0.1-0.1,0.3-0.1,0.4V48c0,0.3,0.1,0.4,0.3,0.6l1.3,1.2
		c0.4,0.4,0.9,0.8,0.9,1.7v0.8c0,0.4,0,0.8-0.4,1.2c-0.4,0.4-0.9,0.4-1.4,0.4c-0.4,0-0.9-0.1-1.3-0.4c-0.6-0.4-0.7-1-0.7-1.4v-1
		H66.2z"/>
	<rect x="69.4" y="46.1" class="st0" width="1.3" height="7.7"/>
	<path class="st0" d="M75.2,52.2c0,0.4,0,0.9-0.5,1.4c-0.4,0.4-1,0.5-1.4,0.5c-0.4,0-1-0.1-1.4-0.5c-0.5-0.4-0.5-0.9-0.5-1.4v-4.3
		c0-0.4,0-0.9,0.5-1.4c0.4-0.4,1-0.4,1.4-0.4c0.4,0,1,0.1,1.4,0.4c0.5,0.4,0.5,0.9,0.5,1.4V52.2z M72.6,52.1L72.6,52.1
		c0,0.2,0,0.4,0.1,0.6c0.2,0.2,0.4,0.2,0.6,0.2c0.1,0,0.4,0,0.6-0.2c0.1-0.1,0.1-0.4,0.1-0.6v-4.2c0-0.2,0-0.4-0.1-0.5
		c-0.1-0.2-0.4-0.3-0.6-0.3c-0.1,0-0.4,0-0.6,0.3c-0.1,0.1-0.1,0.3-0.1,0.5V52.1z"/>
	<polygon class="st0" points="78.4,53.9 77.1,49.3 77.1,49.3 77.1,50.2 77.1,53.9 75.9,53.9 75.9,46.1 77.3,46.1 78.5,50.5 
		78.6,50.5 78.5,49.7 78.5,46.1 79.8,46.1 79.8,53.9 	"/>
	<path class="st0" d="M86.8,52.3c0,0.4-0.1,0.8-0.5,1.2C86.1,53.8,85.6,54,85,54c-0.5,0-1-0.2-1.4-0.5C83.1,53,83,52.5,83,52v-4.2
		c0-0.5,0.1-0.9,0.5-1.3C84,46.1,84.4,46,85,46c0.6,0,1,0.2,1.3,0.4c0.5,0.4,0.6,1,0.6,1.4v0.8h-1.3v-1c0-0.2,0-0.3-0.1-0.5
		c-0.1-0.1-0.3-0.2-0.4-0.2c-0.2,0-0.4,0.1-0.5,0.2c-0.2,0.1-0.2,0.4-0.2,0.6v4.3c0,0.2,0,0.4,0.1,0.6c0.2,0.2,0.4,0.2,0.5,0.2
		c0.2,0,0.4,0,0.5-0.2c0.1-0.1,0.1-0.3,0.1-0.5v-1.3h1.3V52.3z"/>
	<path class="st0" d="M90.3,53.9L90,52.5h-1.4l-0.2,1.4h-1.3l1.4-7.7h1.5l1.4,7.7H90.3z M89.9,51.4L89.9,51.4l-0.5-3.1h0l-0.5,3.1
		H89.9z"/>
</g>
</svg>
