<?xml version="1.0" encoding="utf-8"?>
<!-- Generator: Adobe Illustrator 19.2.1, SVG Export Plug-In . SVG Version: 6.00 Build 0)  -->
<svg version="1.1" id="Layer_1" xmlns="http://www.w3.org/2000/svg" xmlns:xlink="http://www.w3.org/1999/xlink" x="0px" y="0px"
	 width="130px" height="85px" viewBox="0 0 130 85" style="enable-background:new 0 0 130 85;" xml:space="preserve">
<style type="text/css">
	.st0{fill:#FFFFFF;}
	.st1{fill:#0C3F86;}
</style>
<g>
	<path class="st0" d="M124.4,41c0,0,1.6-3.3,0-7.3c-1.6-4-5.7-4.1-5.7-4.1s5.4-19-15.6-26C82.1-3.4,74,6.3,74,6.3s0.5-2.2-3-3.6
		s-6,0.6-6,0.6S60.1-3,47,1.9C33.8,6.8,33.8,15.3,33.8,15.3s-16-6.5-25.5,7S5.7,44,5.7,44S0.3,44.2,0,50.8c-0.3,6.7,4.9,8.4,4.9,8.4
		s-3.3,9.2,6.3,13.9c14.7,7.3,20.6-0.5,20.6-0.5s2.7,3.5,7.4,3.6c4.7,0.2,7.4-3.5,7.4-3.5S48.2,87,71.5,84.8
		c23.2-2.2,23.2-13.3,23.2-13.3s1.1,2.5,7.6,2.7c6.5,0.2,6-5.1,6-5.1s9.6,5.5,18.3-6.7C135.3,50.2,124.4,41,124.4,41z M119,33
		c1.2,0.6,2,0.8,2.9,2.6c0.7,1.5,0.6,2.8,0.3,3.8c-0.6,2.2-2.6,3.4-2.6,3.4s1.4-1.2,1.9-3.5c0.2-0.8,0.2-1.4-0.1-2.6
		c-0.5-2-1.5-2.4-2.7-3.1c-1.8-0.9-4-0.2-4-0.2S117.2,32.1,119,33z M7.6,33.4c0.6-3.1,1.6-6.6,5.5-10.3c4.7-4.5,9.3-5.1,13.2-5
		c6.2,0.1,10.6,3.1,10.6,3.1s-5-2.2-11.1-2c-4.2,0.1-8.9,1.2-12.9,5.9c-2.5,3-3.4,5.8-4.1,8.3C7,40.4,10.3,45,10.3,45
		S6.2,40.4,7.6,33.4z M107.4,66.6c0,0,0.5,5.1-5.9,5c-6.4-0.2-7.4-2.6-7.4-2.6s0,10.9-22.8,13C48.6,84.2,47,70.4,47,70.4
		s-2.6,3.6-7.3,3.4c-4.6-0.2-7.3-3.6-7.3-3.6s-6.8,7.7-19.6,1.7c-6.2-2.9-7.4-9.1-7.2-12.2c0.6,3.3,2.1,6.9,6.1,8.7
		c11.7,5.3,17.2-2.4,17.2-2.4s5,4.9,9.6,5.1c4.6,0.2,9.5-4.2,9.5-4.2s2.2,7.8,25.1,7.2c12.2-0.3,15.6-9.5,15.6-9.5s2.5,2.1,6,2.1
		c4.9,0,5.7-4,5.7-4s17.4,7.6,25.6-2.6C117.6,70.8,107.4,66.6,107.4,66.6z"/>
	<g>
		<g>
			<path class="st1" d="M46.2,42.6c-7.8,0.6-12.7-4-13.5-10.7c-0.9-7.5,4.1-12.7,11.7-13.2c2.8-0.2,7.6,0.2,7.8,3.4
				c0,0.7-0.1,2.2-2.6,2.3c-1.5,0-8.7-0.4-8.2,6.4c0.5,5.7,4.9,5.7,8.3,5.5c3-0.2,3.2,1.2,3.2,2C53,41.7,48.2,42.4,46.2,42.6z"/>
			<path class="st1" d="M80,42.5c-7.2-0.4-13.2-3.9-13.2-12.6c0-0.4,0.2-2.7,0.5-3.8c0.8-3.1,6.7-10.7,10.9-15.1
				c1.6-1.7,3.8-2.4,6.3-2.3c1,0.1,3.1,0,3.8,1.3c1.1,2.1-4.3,5.1-4.5,7.8c0,0.7-0.4,1.5,1.2,2.1c2.3,0.9,10.9,2.2,9.8,11.8
				C93.8,39.6,86.6,42.8,80,42.5z M80.8,25.6c-3.7-0.2-5.6,2.6-5.7,5c-0.1,2.1,1.6,5.3,5.2,5.5c3,0.2,5.5-2.2,5.7-5
				C86.1,28.1,84.4,25.8,80.8,25.6z"/>
		</g>
		<g>
			<path class="st1" d="M37.3,57.2c-2.6,0.3-1.7-3.6-3.3-3.4c-1.4,0.2-0.7,3.8-2.9,4c-2.3,0.3-2.2-3.4-3.8-3.2
				c-1.4,0.2,0.1,3.8-2.3,4.1c-1.1,0.2-1.5-0.5-1.7-1.2c0-0.2-0.1-1.2-0.1-1.8c0.1-1.9,0.1-3.7,0.2-5.6c0-0.2,0.1-0.6,0.2-0.8
				c0.4-0.5,1.3-0.7,1.7-0.8c0.7-0.1,1.6,0,1.9,0.2c0.3,0.2,0.7,0.7,0.9,1c0.1,0.1,1.3,2.9,2.2,2.8c1.1-0.1,1.4-2.9,1.4-2.9
				c0.2-0.5,0.2-1.2,0.8-1.7c0.4-0.3,1.1-0.5,1.6-0.6c1.2-0.1,1.8,0.2,2.1,0.9c0.6,1.8,1.2,3.5,1.7,5.3c0.2,0.6,0.5,1.9,0.6,2.1
				C38.7,56.6,38,57.1,37.3,57.2z"/>
			<path class="st1" d="M47.7,52c-1.1,0.1-2.9,0-3.2,0c-0.3,0-2.3,0-2.2,1.4c0.1,1.1,1.5,1.5,2.3,1.4c1.5-0.1,2.1-1.4,3.3-1.5
				c0.7,0,1.1,0.3,1.2,0.8c0.1,2-2.9,2.5-4.3,2.6c-3.3,0.3-5.9-1.3-6.2-4.8c-0.3-3.2,1.8-5.7,5.3-6c4-0.3,5.9,2.3,6,4.1
				C49.9,51.6,48.6,52,47.7,52z M43.9,48c-1,0.1-1.7,0.7-1.6,1.6c0.1,1,1.3,1,1.9,0.9c0.6,0,1.8-0.2,1.7-1.3
				C45.8,48.5,44.9,48,43.9,48z"/>
			<path class="st1" d="M56,56.2c-3.3,0.1-5.3-2.1-5.5-5.1c-0.2-3.4,2-5.6,5.1-5.7c1.2,0,3.1,0.2,3.2,1.6c0,0.3,0,1-1.1,1
				c-0.6,0-3.6-0.3-3.5,2.8c0.1,2.6,2,2.6,3.4,2.6c1.3,0,1.3,0.6,1.3,0.9C58.9,55.9,56.9,56.1,56,56.2z"/>
			<path class="st1" d="M67.4,55.7c-2,0-1.3-2-2.6-2.1c-1.3,0-1.4,2-3.8,2.1c-0.4,0-1.2-0.1-1.3-1c0-0.9,1.3-1.6,1.3-2.4
				c0-1.1-1.7-0.9-1.8-3.4c-0.1-3.2,4.4-3.2,5.7-3.2c2.8,0,4.3,0.4,4.3,1.8c0,2.3-0.1,4.5-0.1,6.8C69.1,55.4,68.3,55.7,67.4,55.7z
				 M64.2,47.9c-0.6,0-1.4,0.3-1.4,1.2c0,0.6,0.5,1.2,1.4,1.2c0.9,0,1.3-0.6,1.3-1.2C65.5,48.3,64.9,47.9,64.2,47.9z"/>
			<path class="st1" d="M80.8,59.2c-1.2-0.1-1.2-0.7-1.6-2.1C79,56.5,78.5,56,77.5,56c-1.9-0.1-3.9-0.2-5.8-0.2
				c-0.6,0-1.4-0.8-1.4-1.4c0-2.4,0.1-4.9,0.1-7.3c0-1,1.1-1.3,1.8-1.2c0.7,0,1.8,0.3,1.8,1.5c-0.1,1.6-0.1,3.1-0.2,4.7
				c0,1.1,1,1.7,1.8,1.7c0.5,0,1.9-0.3,1.9-1.4c0.1-1.6,0.2-3.2,0.2-4.8c0.1-1.1,0.9-1.5,1.9-1.4c0.5,0,1.7,0.3,1.7,1.2
				c-0.1,1.4-0.2,2.9-0.3,4.3c-0.2,2.8,1.5,1.6,1.3,5.1C82.3,57.6,82.3,59.3,80.8,59.2z"/>
			<path class="st1" d="M91.7,52.8c-1.1-0.1-2.9-0.5-3.1-0.5c-0.3,0-2.3-0.3-2.4,1c-0.1,1.1,1.2,1.7,2,1.8c1.5,0.1,2.3-1,3.5-0.9
				c0.7,0.1,1.1,0.5,1,1c-0.2,2-3.3,2-4.7,1.9c-3.3-0.3-5.6-2.2-5.4-5.8c0.2-3.2,2.7-5.3,6.2-5c4,0.4,5.4,3.3,5.2,5.1
				C93.9,52.7,92.5,52.9,91.7,52.8z M88.6,48.2c-1-0.1-1.8,0.5-1.9,1.3c-0.1,1,1.1,1.2,1.7,1.2c0.6,0,1.8,0.1,1.9-1
				C90.4,49,89.6,48.3,88.6,48.2z"/>
			<path class="st1" d="M98.6,57.9c-1.4-0.2-4.3-0.3-4.1-2.3c0.2-2.1,0.5-4.2,0.7-6.2c0.2-1.8,2.1-1.6,4.5-1.3
				c1.4,0.2,5.5,0.6,5.1,3.1c-0.2,1.3-0.8,1.4-0.9,2.1c-0.2,1,0.9,1.7,0.6,3.1C104.2,58.9,100.5,58.1,98.6,57.9z M99.7,53.7
				c-0.7-0.1-1.3,0.2-1.4,1c-0.1,0.6,0.2,1.2,1.1,1.3c0.5,0.1,1.3-0.1,1.4-1C100.9,54.4,100.5,53.8,99.7,53.7z M100.2,49.9
				c-0.4-0.1-1.2,0.1-1.2,0.8c-0.1,0.5,0.3,1,1,1.1c0.5,0.1,1.1-0.2,1.2-0.8C101.2,50.5,100.7,50,100.2,49.9z"/>
		</g>
	</g>
</g>
</svg>
