<?xml version="1.0" encoding="utf-8"?>
<!-- Generator: Adobe Illustrator 21.1.0, SVG Export Plug-In . SVG Version: 6.00 Build 0)  -->
<svg version="1.1" id="Layer_1" xmlns="http://www.w3.org/2000/svg" xmlns:xlink="http://www.w3.org/1999/xlink" x="0px" y="0px"
	 viewBox="0 0 238 29" style="enable-background:new 0 0 238 29;" xml:space="preserve">
<style type="text/css">
	.st0{fill:#FFFFFF;}
</style>
<g>
	<path class="st0" d="M11.7,21.9H1.9c-1.1,0-1.9-1.2-1.9-2V2.8c0-1.7,1.1-2.3,2.1-2.3h8.6c2.5,0,5.7,1.8,5.7,5.1
		c0,2.7-1.6,3.5-1.6,4.7c0,1.6,2.9,2.2,2.9,5.8C17.7,18.9,15.4,21.9,11.7,21.9z M8.1,4.3c-1.5,0-2.5,1-2.5,2.4c0,1.4,1,2.4,2.5,2.4
		c0.9,0,3-0.5,3-2.4C11.1,5,9.2,4.3,8.1,4.3z M8.4,12.9c-1.6,0-2.8,0.6-2.8,2.6c0,1.6,0.9,2.6,2.8,2.6c1.2,0,3.5-0.5,3.5-2.6
		C11.9,13.5,9.8,12.9,8.4,12.9z"/>
	<path class="st0" d="M31.7,21.9c-4.1,0-4.6-4.5-6.5-4.5c-2.3,0-0.1,4.5-3.7,4.5c-1.1,0-2.4-0.5-2.4-2V9.3c0-1.6,1.7-1.9,2.4-1.9
		c3.8,0,1.6,4,3.8,4c1.7,0,2-4,6-4c0.7,0,2,0.1,2,1.6c0,1.2-3.4,3.6-3.4,5.3c0,2.2,4.1,3.7,4.1,6.3C33.9,22,32.2,21.9,31.7,21.9z"/>
	<path class="st0" d="M46.3,17.4l-4.5,8.9c-1,1.9-1.8,2.2-3.3,2.2c-0.9,0-2-0.1-2-1.4c0-1.4,2.8-4.8,2.8-7.1c0-0.3-0.1-1-0.3-1.4
		c-0.7-1.5-5.3-8.5-5.3-9.8c0-1.2,1.4-1.4,2.2-1.4c4.4,0,4.1,6.3,6.5,6.3c3,0,1.7-6.3,6-6.3c1.1,0,1.9,0.2,1.9,1.4
		C50.3,9.8,46.4,17.1,46.3,17.4z"/>
	<path class="st0" d="M57.6,22.4c-4.8,0-7.4-3.4-7.4-7.7c0-4.9,3.1-7.9,7.4-7.9c1.6,0,4.3,0.4,4.3,2.5c0,0.5-0.1,1.4-1.6,1.4
		c-0.8,0-4.9-0.6-5,3.8c0,3.7,2.6,3.9,4.7,3.9c1.8,0,1.9,0.9,1.9,1.4C61.8,22.1,58.8,22.4,57.6,22.4z"/>
	<path class="st0" d="M75.8,21.9c-4.4,0-0.4-6.1-5.4-6.1c-3,0-2.6,2.5-3,4.7c-0.1,0.4-0.5,0.9-0.9,1.2c-0.4,0.2-1.1,0.3-1.4,0.3
		c-1.1,0-2.4-0.5-2.4-2V9.3c0-1.4,1.4-1.9,2.4-1.9c4.4,0,0.5,5.3,5.3,5.3c5,0,1.1-5.3,5.3-5.3c1.1,0,2.5,0.1,2.5,2.1v10.1
		C78.2,21,76.9,21.9,75.8,21.9z"/>
	<path class="st0" d="M94.2,21.9c-0.7,0-1.9-0.5-2.7-0.5c-1.9,0-3,1-5,1c-4.9,0-6.8-4.3-6.8-7.8s2.3-7.8,7-7.8c2.5,0,3.2,1,5.1,1
		c1.1,0,1.7-0.4,2.6-0.4c0.4,0,0.9,0,1.4,0.6c0.3,0.3,0.5,0.7,0.5,1v11.1C96.3,21.5,94.9,21.9,94.2,21.9z M88.4,10.9
		c-1.9,0-3.5,1.6-3.5,3.7c0,2,1.1,3.7,3.5,3.7c1.8,0,3.3-1.4,3.3-3.7C91.7,13,90.7,10.9,88.4,10.9z"/>
	<path class="st0" d="M109.2,21.9c-2.8,0-1.9-2.9-3.7-2.9c-1.9,0-2,2.9-5.4,2.9c-0.6,0-1.8-0.2-1.8-1.4c0-1.2,1.9-2.3,1.9-3.4
		c0-1.6-2.4-1.3-2.4-5c0-4.7,6.2-4.6,7.9-4.6c3.9,0,5.9,0.5,5.9,2.6v9.8C111.6,21.4,110.5,21.9,109.2,21.9z M104.7,10.7
		c-0.9,0-1.9,0.5-1.9,1.7c0,0.8,0.7,1.7,1.9,1.7s1.8-0.8,1.8-1.7C106.5,11.3,105.7,10.7,104.7,10.7z"/>
	<path class="st0" d="M133.4,21.9c-4.4,0-0.4-6.1-5.4-6.1c-3,0-2.6,2.5-3,4.7c-0.1,0.4-0.5,0.9-0.9,1.2c-0.4,0.2-1.1,0.3-1.4,0.3
		c-1.1,0-2.4-0.5-2.4-2V9.3c0-1.4,1.4-1.9,2.4-1.9c4.4,0,0.5,5.3,5.3,5.3c5,0,1-5.3,5.3-5.3c1.1,0,2.5,0.1,2.5,2.1v10.1
		C135.8,21,134.5,21.9,133.4,21.9z"/>
	<path class="st0" d="M145.9,22.4c-6,0-8.7-3.7-8.7-7.8c0-4.1,2.7-7.8,8.7-7.8c6,0,8.7,3.7,8.7,7.8
		C154.6,18.8,151.9,22.4,145.9,22.4z M145.9,10.6c-2.1,0-3.2,1.6-3.2,4c0,2.4,1.1,4,3.2,4c2.1,0,3.2-1.6,3.2-4
		C149.2,12.2,148,10.6,145.9,10.6z"/>
	<path class="st0" d="M162,21.9c-2,0-6.1,0.4-6.1-2.6v-9.1c0-2.6,2.6-2.7,5.9-2.7c2,0,7.5-0.2,7.5,3.4c0,1.8-0.8,2.2-0.8,3.1
		c0,1.5,1.5,2.3,1.5,4.2C170.1,22.2,164.7,21.9,162,21.9z M162.8,15.7c-0.9,0-1.8,0.5-1.8,1.6c0,0.8,0.5,1.7,1.8,1.7
		c0.7,0,1.8-0.4,1.8-1.7C164.6,16.5,163.8,15.7,162.8,15.7z M162.7,10.2c-0.6,0-1.6,0.3-1.6,1.4c0,0.8,0.6,1.4,1.6,1.4
		c0.7,0,1.5-0.5,1.5-1.4C164.2,10.8,163.4,10.2,162.7,10.2z"/>
	<path class="st0" d="M184.8,21.9c-0.3,0-1.4-0.2-1.8-0.6c-0.3-0.2-0.6-0.9-0.6-1.3c-0.1-0.8,0-4-1.4-4c-0.9,0-2.2,2-2.6,2.8
		c-1.4,2.6-2.6,3.1-4.3,3.1c-1.4,0-2.7-0.8-2.7-2.3v-10c0-1.6,1.2-2.1,2.5-2.1c4.1,0,1,5.6,3.6,5.6c1.1,0,1.4-0.8,2.3-2
		c2.1-2.9,2.4-3.6,4.6-3.6c1.3,0,2.7,0.7,2.7,2.2v10C187.2,21,185.9,21.9,184.8,21.9z"/>
	<path class="st0" d="M202.2,21.9c-4.4,0-0.4-6.1-5.4-6.1c-3,0-2.6,2.5-3,4.7c-0.1,0.4-0.5,0.9-0.9,1.2c-0.4,0.2-1.1,0.3-1.4,0.3
		c-1.1,0-2.4-0.5-2.4-2V9.3c0-1.4,1.4-1.9,2.4-1.9c4.4,0,0.5,5.3,5.3,5.3c5,0,1-5.3,5.3-5.3c1.1,0,2.5,0.1,2.5,2.1v10.1
		C204.7,21,203.4,21.9,202.2,21.9z"/>
	<path class="st0" d="M219.3,21.9c-4.1,0-4.6-4.5-6.5-4.5c-2.3,0-0.1,4.5-3.7,4.5c-1.1,0-2.4-0.5-2.4-2V9.3c0-1.6,1.7-1.9,2.4-1.9
		c3.8,0,1.6,4,3.8,4c1.7,0,2-4,6-4c0.7,0,2,0.1,2,1.6c0,1.2-3.4,3.6-3.4,5.3c0,2.2,4.1,3.7,4.1,6.3C221.5,22,219.8,21.9,219.3,21.9z
		"/>
	<path class="st0" d="M235.9,21.9c-0.7,0-1.9-0.5-2.7-0.5c-1.9,0-3,1-5,1c-4.9,0-6.8-4.3-6.8-7.8s2.3-7.8,7-7.8c2.5,0,3.2,1,5.1,1
		c1.1,0,1.7-0.4,2.6-0.4c0.4,0,0.9,0,1.4,0.6c0.3,0.3,0.5,0.7,0.5,1v11.1C238,21.5,236.6,21.9,235.9,21.9z M230.1,10.9
		c-1.9,0-3.5,1.6-3.5,3.7c0,2,1.1,3.7,3.5,3.7c1.8,0,3.3-1.4,3.3-3.7C233.4,13,232.4,10.9,230.1,10.9z"/>
</g>
</svg>
