<?xml version="1.0" encoding="utf-8"?>
<!-- Generator: Adobe Illustrator 21.1.0, SVG Export Plug-In . SVG Version: 6.00 Build 0)  -->
<svg version="1.1" id="Layer_1" xmlns="http://www.w3.org/2000/svg" xmlns:xlink="http://www.w3.org/1999/xlink" x="0px" y="0px"
	 viewBox="0 0 238 25" style="enable-background:new 0 0 238 25;" xml:space="preserve">
<style type="text/css">
	.st0{fill:#FFFFFF;}
</style>
<g>
	<g>
		<path class="st0" d="M16.2,24.9c-2.5,0-1.6-2.3-3-3.6c-0.7-0.7-2.4-0.6-4.1-0.6c-0.3,0-2.2-0.1-3.1,0.2c-2.8,0.6-1,4-4,4
			c-2.2,0-2-2.6-2-3.6c0-0.3,0.1-1.9,0.3-2.7c0-0.2,0.3-0.7,0.5-0.9c3.4-2.8,2.1-6.5,2.6-9C3.4,8.4,3.7,7.7,4,7.6
			c1.2-0.7,2.6-0.7,4.2-0.7H11c3.5,0,4.9,0.7,4.9,2.9v5.5c0,1.2,1.5,2.3,1.9,3.5c0.3,0.8,0.3,2.3,0.3,2.6
			C18.2,22.7,18.2,24.9,16.2,24.9z M9.4,9.9c-2.2,0-2.1,2.5-2.1,3.7c0,0.8-0.3,2-0.3,2.2c0,1.1,0.7,1.8,2,1.8c2.5,0,2.6-1.9,2.6-3.8
			C11.6,13,11.8,9.9,9.4,9.9z"/>
		<path class="st0" d="M31.5,20.7c-1,0-2.3-0.8-2.3-1.9v-6.4c0-1.4-0.6-2.5-2.1-2.5c-1.7,0-2,1.9-2,2.5v4.3c0,2.1-1.2,3.2-2.5,3.8
			c-0.7,0.3-2,0.4-2.3,0.4c-1.2,0-2.5-0.4-2.5-1.7c0-1.8,2.8-2.1,2.8-5.1V8.9c0-1.6,1.2-2.1,2.4-2.1h8.4c1,0,2.4,0.5,2.4,2v9.7
			C33.9,20,32.6,20.7,31.5,20.7z"/>
		<path class="st0" d="M46.3,20.7c-2.7,0-1.8-2.8-3.6-2.8c-1.8,0-1.9,2.8-5.2,2.8c-0.6,0-1.7-0.2-1.7-1.4c0-1.2,1.8-2.3,1.8-3.3
			c0-1.6-2.3-1.2-2.3-4.8c0-4.5,6-4.4,7.6-4.4c3.7,0,5.7,0.5,5.7,2.5v9.4C48.6,20.3,47.5,20.7,46.3,20.7z M41.9,10
			c-0.8,0-1.8,0.5-1.8,1.6c0,0.8,0.7,1.7,1.8,1.7c1.2,0,1.7-0.8,1.7-1.7C43.6,10.5,42.9,10,41.9,10z"/>
	</g>
	<g>
		<path class="st0" d="M62.8,21.2c-4.6,0-7.1-3.2-7.1-7.4c0-4.7,3-7.6,7.1-7.6c1.5,0,4.1,0.4,4.1,2.4c0,0.4-0.1,1.4-1.5,1.4
			c-0.8,0-4.7-0.6-4.8,3.7c0,3.6,2.5,3.8,4.5,3.8c1.7,0,1.8,0.9,1.8,1.4C66.8,20.9,63.9,21.2,62.8,21.2z"/>
		<path class="st0" d="M80.5,20.7c-1,0-2.3-0.8-2.3-1.9v-6.4c0-1.4-0.6-2.5-2.1-2.5c-1.7,0-2,1.9-2,2.5v4.3c0,2.1-1.2,3.2-2.5,3.8
			c-0.7,0.3-2,0.4-2.3,0.4c-1.2,0-2.5-0.4-2.5-1.7c0-1.8,2.8-2.1,2.8-5.1V8.9c0-1.6,1.2-2.1,2.4-2.1h8.4c1,0,2.4,0.5,2.4,2v9.7
			C82.9,20,81.6,20.7,80.5,20.7z"/>
		<path class="st0" d="M98.2,20.7c-0.7,0-1.8-0.5-2.6-0.5c-1.8,0-2.9,1-4.8,1c-4.7,0-6.5-4.2-6.5-7.5s2.2-7.5,6.7-7.5
			c2.4,0,3,1,4.9,1c1.1,0,1.7-0.4,2.5-0.4c0.4,0,0.9,0,1.4,0.5c0.3,0.3,0.4,0.7,0.4,1v10.7C100.3,20.4,99,20.7,98.2,20.7z
			 M92.7,10.2c-1.8,0-3.3,1.5-3.3,3.6c0,1.9,1,3.6,3.3,3.6c1.8,0,3.2-1.3,3.2-3.6C95.9,12.2,94.9,10.2,92.7,10.2z"/>
		<path class="st0" d="M116.9,24.9c-2.5,0-1.6-2.3-3-3.6c-0.7-0.7-2.4-0.6-4.1-0.6c-0.3,0-2.2-0.1-3.1,0.2c-2.8,0.6-1,4-4,4
			c-2.2,0-2-2.6-2-3.6c0-0.3,0.1-1.9,0.3-2.7c0-0.2,0.3-0.7,0.5-0.9c3.4-2.8,2.1-6.5,2.6-9c0.1-0.3,0.3-0.9,0.6-1.1
			c1.2-0.7,2.6-0.7,4.2-0.7h2.9c3.5,0,4.9,0.7,4.9,2.9v5.5c0,1.2,1.5,2.3,1.9,3.5c0.3,0.8,0.3,2.3,0.3,2.6
			C118.9,22.7,118.9,24.9,116.9,24.9z M110.1,9.9c-2.2,0-2.1,2.5-2.1,3.7c0,0.8-0.3,2-0.3,2.2c0,1.1,0.7,1.8,2,1.8
			c2.5,0,2.6-1.9,2.6-3.8C112.3,13,112.5,9.9,110.1,9.9z"/>
		<path class="st0" d="M131.4,20.7c-3.9,0-4.4-4.3-6.2-4.3c-2.2,0-0.1,4.3-3.6,4.3c-1.1,0-2.3-0.4-2.3-1.9V8.7
			c0-1.5,1.6-1.8,2.3-1.8c3.6,0,1.6,3.8,3.6,3.8c1.6,0,2-3.8,5.8-3.8c0.7,0,1.9,0.1,1.9,1.6c0,1.2-3.3,3.5-3.3,5.1
			c0,2.1,3.9,3.6,3.9,6C133.6,20.8,131.9,20.7,131.4,20.7z"/>
		<path class="st0" d="M147,20.7c-0.3,0-1.3-0.2-1.7-0.5c-0.3-0.2-0.6-0.9-0.6-1.2c-0.1-0.7,0-3.9-1.3-3.9c-0.8,0-2.1,2-2.5,2.7
			c-1.3,2.5-2.5,3-4.1,3c-1.4,0-2.6-0.8-2.6-2.2V8.9c0-1.5,1.2-2.1,2.4-2.1c3.9,0,1,5.4,3.5,5.4c1,0,1.3-0.8,2.2-1.9
			c2.1-2.8,2.3-3.5,4.5-3.5c1.3,0,2.6,0.7,2.6,2.1v9.6C149.3,19.9,148.1,20.7,147,20.7z"/>
		<path class="st0" d="M162.2,20.7c-3.3,0-3.1-3.4-4.9-3.4c-1.8,0-1.9,3.4-5.2,3.4c-0.5,0-2-0.1-2-1.2c0-1.4,3.4-4.4,3.4-6.3
			c0-1.8-3.1-3.9-3.1-5.4c0-1,1.1-1,1.9-1c3.2,0,3,2.3,4.9,2.3c1.9,0,1.4-2.3,4.6-2.3c0.8,0,1.9,0.1,1.9,1c0,1.5-3.1,3.6-3.1,5.4
			c0,1.9,3.4,4.9,3.4,6.3C164.2,20.6,162.7,20.7,162.2,20.7z"/>
		<path class="st0" d="M178.5,21.2c-4.6,0-7.1-3.2-7.1-7.4c0-4.7,3-7.6,7.1-7.6c1.5,0,4.1,0.4,4.1,2.4c0,0.4-0.1,1.4-1.5,1.4
			c-0.8,0-4.7-0.6-4.8,3.7c0,3.6,2.5,3.8,4.5,3.8c1.7,0,1.8,0.9,1.8,1.4C182.5,20.9,179.7,21.2,178.5,21.2z"/>
		<path class="st0" d="M196.1,20.7c-4.2,0-0.4-5.9-5.2-5.9c-2.9,0-2.5,2.4-2.9,4.5c-0.1,0.4-0.5,0.9-0.8,1.1c-0.3,0.2-1,0.3-1.3,0.3
			c-1.1,0-2.3-0.5-2.3-1.9V8.7c0-1.3,1.3-1.8,2.3-1.8c4.3,0,0.5,5.1,5.1,5.1c4.8,0,1-5.1,5.1-5.1c1.1,0,2.4,0.1,2.4,2v9.7
			C198.4,19.9,197.1,20.7,196.1,20.7z"/>
		<path class="st0" d="M208.1,21.3c-5.8,0-8.4-3.5-8.4-7.5c0-3.9,2.6-7.5,8.4-7.5c5.8,0,8.4,3.6,8.4,7.5
			C216.5,17.7,213.9,21.3,208.1,21.3z M208.1,9.9c-2,0-3.1,1.6-3.1,3.8c0,2.3,1.1,3.9,3.1,3.9c2,0,3.1-1.6,3.1-3.9
			C211.2,11.5,210.1,9.9,208.1,9.9z"/>
		<path class="st0" d="M223.6,20.7c-1.9,0-5.9,0.3-5.9-2.5V9.5c0-2.5,2.5-2.6,5.7-2.6c1.9,0,7.2-0.2,7.2,3.3c0,1.8-0.8,2.1-0.8,3
			c0,1.4,1.5,2.2,1.5,4.1C231.4,21.1,226.2,20.7,223.6,20.7z M224.4,14.8c-0.9,0-1.7,0.5-1.7,1.6c0,0.8,0.5,1.6,1.7,1.6
			c0.7,0,1.7-0.4,1.7-1.6C226.1,15.5,225.4,14.8,224.4,14.8z M224.3,9.5c-0.6,0-1.5,0.3-1.5,1.4c0,0.7,0.6,1.4,1.5,1.4
			c0.7,0,1.5-0.4,1.5-1.4C225.7,10,225,9.5,224.3,9.5z"/>
		<path class="st0" d="M235.4,14.2c-1.4,0-2.3-1.4-2.3-2.3V2.3c0-1.4,1.5-2.3,2.4-2.3c1.3,0,2.5,1,2.5,2.4v9.4
			C238,13.2,236.8,14.3,235.4,14.2z M235.5,21.3c-1.6,0-2.5-1.2-2.5-2.5c0-1.6,1.2-2.5,2.3-2.5c1.8,0,2.6,1.3,2.6,2.5
			C238,20.2,236.9,21.3,235.5,21.3z"/>
	</g>
</g>
</svg>
