<?xml version="1.0" standalone="no"?>
<!DOCTYPE svg PUBLIC "-//W3C//DTD SVG 1.1//EN" "http://www.w3.org/Graphics/SVG/1.1/DTD/svg11.dtd" >
<svg xmlns="http://www.w3.org/2000/svg" xmlns:xlink="http://www.w3.org/1999/xlink" version="1.1">
<metadata>
Created by FontForge 20170731 at Thu Oct 28 18:46:27 2004
 By Aleksey,,,
Copyright (C) 1993; Type Market Ltd. Moscow, 119136, Box 20; phone:(095)142-77-12
</metadata>
<defs>
<font id="HeliosCondLight" horiz-adv-x="426" >
  <font-face 
    font-family="HeliosCondLight"
    font-weight="400"
    font-stretch="normal"
    units-per-em="1000"
    panose-1="2 0 5 6 4 0 0 2 0 4"
    ascent="800"
    descent="-200"
    x-height="530"
    cap-height="720"
    bbox="-38 -190 960 907"
    underline-thickness="58"
    underline-position="-206"
    unicode-range="U+0020-2122"
  />
<missing-glyph horiz-adv-x="500" 
 />
    <glyph glyph-name=".notdef" horiz-adv-x="500" 
 />
    <glyph glyph-name=".notdef" horiz-adv-x="500" 
 />
    <glyph glyph-name=".null" horiz-adv-x="0" 
 />
    <glyph glyph-name="nonmarkingreturn" horiz-adv-x="333" 
 />
    <glyph glyph-name="space" unicode=" " horiz-adv-x="213" 
 />
    <glyph glyph-name="space" unicode="&#xa0;" horiz-adv-x="213" 
 />
    <glyph glyph-name="exclam" unicode="!" horiz-adv-x="214" 
d="M128 168h-38q-1 35 -5.5 109.5t-6.5 131.5t-2 109v189h67v-191q0 -52 -2.5 -110t-6.5 -128.5t-6 -109.5zM76 84h67v-84h-67v84z" />
    <glyph glyph-name="quotedbl" unicode="&#x22;" horiz-adv-x="297" 
d="M70 504v216h50v-216h-50zM177 504v216h50v-216h-50z" />
    <glyph glyph-name="numbersign" unicode="#" 
d="M47 0l61 239h-96l15 49h93l33 126h-96l15 49h92l62 251h47l-64 -251h67l63 251h45l-63 -251h93l-15 -49h-88l-33 -126h91l-15 -49h-87l-60 -239h-48l62 239h-68l-61 -239h-45zM165 288h67l33 126h-66z" />
    <glyph glyph-name="dollar" unicode="$" 
d="M389 502h-56q0 46 -22.5 83.5t-70.5 47.5v-267q77 -31 115 -68q54 -50 54 -128q0 -79 -45 -127t-124 -57v-79h-45v79q-92 11 -128 66t-36 150h57q0 -155 107 -166v286q-75 33 -115.5 77t-40.5 116q0 18 5 39.5t19 50.5t48.5 50.5t83.5 26.5v65h45v-60q149 -31 149 -185z
M195 386v247q-95 -14 -95 -123q0 -38 24 -72t71 -52zM240 302v-267q52 2 81 40.5t29 93.5q0 88 -110 133z" />
    <glyph glyph-name="percent" unicode="%" horiz-adv-x="656" 
d="M158 -15l292 726h42l-292 -726h-42zM492 343q126 0 126 -167q0 -82 -28 -129t-100 -47q-73 0 -99.5 44t-26.5 126q0 173 128 173zM492 301q-74 0 -74 -130q0 -65 13.5 -97t58.5 -32q46 0 60 32t14 97q0 25 -2 43t-8.5 40.5t-22 34.5t-39.5 12zM161 698q126 0 126 -167
q0 -82 -28 -129t-100 -47q-73 0 -99.5 44t-26.5 126q0 173 128 173zM161 656q-74 0 -74 -130q0 -65 13.5 -97t58.5 -32q46 0 60 32t14 97q0 25 -2 43t-8.5 40.5t-22 34.5t-39.5 12z" />
    <glyph glyph-name="ampersand" unicode="&#x26;" horiz-adv-x="586" 
d="M334 609q0 80 -74 80q-35 0 -54 -19.5t-19 -55.5q0 -71 62 -156q38 26 61.5 66t23.5 85zM470 128l80 -128h-68l-49 73q-27 -40 -75 -61.5t-101 -21.5q-91 0 -144 54t-53 149q0 73 38.5 125.5t107.5 102.5q-27 40 -39.5 61.5t-24 56.5t-11.5 73q0 62 36.5 97t96.5 35
q58 0 95 -34.5t37 -93.5q0 -64 -30 -111t-86 -89l150 -234q26 62 26 154h62q0 -45 -13.5 -106.5t-34.5 -101.5zM399 121l-167 254q-56 -42 -82.5 -83.5t-26.5 -104.5q0 -64 37 -103t99 -39q93 0 140 76z" />
    <glyph glyph-name="quotesingle" unicode="'" horiz-adv-x="190" 
d="M70 504v216h50v-216h-50z" />
    <glyph glyph-name="parenleft" unicode="(" horiz-adv-x="267" 
d="M189 737h45q-122 -186 -122 -450q0 -277 122 -471h-45q-139 212 -139 470q0 259 139 451z" />
    <glyph glyph-name="parenright" unicode=")" horiz-adv-x="267" 
d="M78 -184h-45q122 187 122 449q0 258 -115 462q-1 1 -7 10h45q139 -211 139 -458q0 -273 -139 -463z" />
    <glyph glyph-name="asterisk" unicode="*" horiz-adv-x="373" 
d="M150 569l-104 36l13 40l108 -40v109h42v-109l107 40l12 -43l-105 -35l70 -100l-35 -23l-72 102l-74 -102l-33 26z" />
    <glyph glyph-name="plus" unicode="+" 
d="M189 211h-169v49h169v210h49v-210h169v-49h-169v-211h-49v211z" />
    <glyph glyph-name="comma" unicode="," horiz-adv-x="214" 
d="M74 84h67v-84q0 -29 -2 -48t-8 -39.5t-20.5 -31.5t-36.5 -12v36q30 6 30 95h-30v84z" />
    <glyph glyph-name="hyphen" unicode="-" horiz-adv-x="289" 
d="M269 258h-249v56h249v-56z" />
    <glyph glyph-name="hyphen" unicode="&#x2010;" horiz-adv-x="289" 
d="M269 258h-249v56h249v-56z" />
    <glyph glyph-name="hyphen" unicode="&#xad;" horiz-adv-x="289" 
d="M269 258h-249v56h249v-56z" />
    <glyph glyph-name="period" unicode="." horiz-adv-x="214" 
d="M74 84h67v-84h-67v84z" />
    <glyph glyph-name="slash" unicode="/" horiz-adv-x="266" 
d="M-10 -90l234 810h53l-235 -810h-52z" />
    <glyph glyph-name="zero" unicode="0" 
d="M36 349q0 49 2 87t8 83t18.5 77.5t31.5 60.5t48.5 42.5t68.5 14.5q38 0 67.5 -14.5t48.5 -42.5t31.5 -61t18.5 -77t8.5 -83t2.5 -87q0 -51 -1.5 -87t-7 -82t-17.5 -77.5t-31 -60t-49.5 -42.5t-70.5 -14q-39 0 -69 14.5t-49 42.5t-31 60t-18 76.5t-8 82.5t-2 87zM98 349
q0 -164 27.5 -237.5t87.5 -73.5t87.5 73t27.5 238q0 166 -27.5 239.5t-87.5 73.5t-87.5 -73.5t-27.5 -239.5z" />
    <glyph glyph-name="one" unicode="1" horiz-adv-x="425" 
d="M57 537v46q77 0 117 28t48 103h50v-714h-62v549q-73 -12 -153 -12z" />
    <glyph glyph-name="two" unicode="2" horiz-adv-x="425" 
d="M98 502h-60q0 95 42.5 153.5t129.5 58.5q76 0 122.5 -51t46.5 -138q0 -37 -12.5 -74.5t-28.5 -65.5t-45.5 -63.5t-50 -55.5t-57 -55t-51.5 -50q-13 -12 -26 -39.5t-13 -63.5h284v-58h-347v50q0 25 5.5 47.5t10.5 36.5t22 36t23.5 29.5t33.5 34.5l35 35l38.5 38.5t36 36.5
t27 30.5t24 34t15 33t12 41.5t2.5 46q0 55 -30 94t-83 39q-106 0 -106 -160z" />
    <glyph glyph-name="three" unicode="3" horiz-adv-x="425" 
d="M144 338v52h19q143 0 143 143q0 55 -24 92t-77 37q-96 0 -103 -140h-56q0 81 41 136.5t120 55.5q82 0 121.5 -51t39.5 -135q0 -15 -3 -31.5t-12 -42t-32 -48.5t-57 -37q123 -29 123 -181q0 -55 -16.5 -95.5t-37.5 -60t-49.5 -31t-44.5 -13.5t-32 -2q-177 0 -177 200h59
q0 -148 116 -148q61 0 90 43.5t29 107.5q0 59 -32.5 104t-105.5 45h-42z" />
    <glyph glyph-name="four" unicode="4" 
d="M273 714h59v-470h63v-52h-63v-192h-62v192h-243v57zM83 244h187v358h-2z" />
    <glyph glyph-name="five" unicode="5" 
d="M87 701h267v-58h-215l-27 -218q36 36 99 36q91 0 131 -66t40 -164q0 -67 -16.5 -119.5t-60 -89t-109.5 -36.5q-163 0 -170 184h62q8 -132 107 -132q47 0 76 30.5t39 71.5t10 93q0 176 -123 176q-33 0 -59 -18.5t-40 -50.5h-52z" />
    <glyph glyph-name="six" unicode="6" horiz-adv-x="425" 
d="M217 399q-63 0 -89 -47.5t-26 -116.5q0 -32 5 -63t16.5 -63t36 -51.5t58.5 -19.5q43 0 70.5 33t36 71t8.5 80q0 45 -8 81t-35.5 66t-72.5 30zM221 -14q-40 0 -71.5 15t-50.5 42.5t-31.5 58t-18 71.5t-7.5 71.5t-2 67.5q0 41 1 73.5t5.5 76.5t12 77t22 67.5t34 56.5
t49 36.5t66.5 14.5q68 0 109.5 -43t41.5 -115h-58q-7 106 -98 106q-40 0 -66 -33.5t-36 -77.5q-17 -69 -21 -168h2q52 68 126 68q37 0 66.5 -14.5t47.5 -37t30 -53t16.5 -60t4.5 -60.5q0 -41 -7.5 -78.5t-25 -76t-54 -62t-87.5 -23.5z" />
    <glyph glyph-name="seven" unicode="7" horiz-adv-x="425" 
d="M48 643v58h347v-57q-207 -294 -226 -644h-62q7 158 67.5 337t157.5 306h-284z" />
    <glyph glyph-name="eight" unicode="8" 
d="M214 349q-117 0 -117 -152q0 -159 116 -159q117 0 117 160q0 75 -30 113t-86 38zM212 662q-94 0 -94 -132q0 -129 95 -129q50 0 73 38t23 91q0 132 -97 132zM136 381q-78 30 -78 160q0 76 40 124.5t116 48.5t115.5 -48t39.5 -125q0 -130 -78 -160q58 -32 80 -78.5
t22 -110.5q0 -206 -179 -206q-180 0 -180 206q0 64 22 110.5t80 78.5z" />
    <glyph glyph-name="nine" unicode="9" 
d="M212 662q-43 0 -69.5 -33.5t-34 -71t-7.5 -80.5q0 -177 112 -177q114 0 114 164q0 33 -5 63.5t-16.5 63t-35.5 52t-58 19.5zM212 714q40 0 70.5 -14.5t49 -41.5t31 -57t17.5 -70t7 -70t2 -67q0 -64 -2.5 -111.5t-9.5 -97t-20.5 -83.5t-33.5 -61.5t-51 -41t-71 -13.5
q-67 0 -108 43t-41 114h58q7 -105 98 -105q40 0 66 33.5t36 76.5q17 71 17 168h-2q-49 -68 -122 -68q-46 0 -79.5 21t-51 56t-25.5 72t-8 76q0 41 7.5 78.5t24.5 76.5t53.5 62.5t87.5 23.5z" />
    <glyph glyph-name="colon" unicode=":" horiz-adv-x="214" 
d="M74 500h67v-84h-67v84zM74 84h67v-84h-67v84z" />
    <glyph glyph-name="semicolon" unicode=";" horiz-adv-x="214" 
d="M74 84h67v-84q0 -29 -2 -48t-8 -39.5t-20.5 -31.5t-36.5 -12v36q30 6 30 95h-30v84zM74 499h67v-84h-67v84z" />
    <glyph glyph-name="semicolon" unicode="&#x37e;" horiz-adv-x="214" 
d="M74 84h67v-84q0 -29 -2 -48t-8 -39.5t-20.5 -31.5t-36.5 -12v36q30 6 30 95h-30v84zM74 499h67v-84h-67v84z" />
    <glyph glyph-name="less" unicode="&#x3c;" 
d="M18 214v42l391 225v-54l-339 -187v-5l339 -193v-54z" />
    <glyph glyph-name="equal" unicode="=" 
d="M20 345h387v-49h-387v49zM20 175h387v-49h-387v49z" />
    <glyph glyph-name="greater" unicode="&#x3e;" 
d="M409 256v-42l-391 -225v54l339 187v5l-339 193v54z" />
    <glyph glyph-name="question" unicode="?" horiz-adv-x="373" 
d="M81 515h-59q0 36 6.5 68t23 65t51 52.5t84.5 19.5q68 0 115 -43.5t47 -127.5q0 -48 -17 -91t-67 -107q-42 -53 -55 -87.5t-13 -99.5h-53q0 71 15.5 114.5t58.5 100.5q24 32 37 52.5t24 51t11 62.5q0 55 -25.5 89t-72.5 34q-66 0 -88.5 -40t-22.5 -113zM138 84h67v-84h-67
v84z" />
    <glyph glyph-name="at" unicode="@" horiz-adv-x="768" 
d="M414 541q-74 0 -132 -82.5t-58 -158.5q0 -53 27 -84.5t69 -31.5q48 0 81.5 24.5t45.5 59.5q57 169 57 187q0 36 -23.5 61t-66.5 25zM527 519l14 47h53q-8 -26 -26 -79t-31 -92t-27 -82t-21.5 -69t-7.5 -33q0 -36 40 -36q58 0 116 81.5t58 170.5q0 117 -88 191t-206 74
q-137 0 -232.5 -99.5t-95.5 -236.5q0 -134 98 -230.5t232 -96.5q77 0 151 38t122 102h51q-47 -86 -135.5 -136t-188.5 -50q-160 0 -269 111t-109 270q0 155 111.5 264.5t267.5 109.5q139 0 239 -88t100 -228q0 -65 -30 -131.5t-84.5 -112t-117.5 -45.5q-30 0 -52 13.5
t-24 41.5q-53 -48 -129 -48q-61 0 -95.5 42t-34.5 106q0 69 28 136t84.5 114.5t126.5 47.5q37 0 67.5 -17t44.5 -50z" />
    <glyph glyph-name="A" unicode="A" horiz-adv-x="480" 
d="M144 277h192l-95 364h-2zM204 720h72l193 -720h-63l-57 222h-218l-59 -222h-60z" />
    <glyph glyph-name="B" unicode="B" horiz-adv-x="492" 
d="M128 665v-260h89q65 0 104 29t39 108q0 38 -12 64t-35 38t-46.5 16.5t-55.5 4.5h-83zM128 350v-295h102q150 0 150 153q0 142 -150 142h-102zM66 0v720h170q84 0 135 -44t51 -132q0 -127 -98 -164q118 -32 118 -173q0 -207 -219 -207h-157z" />
    <glyph glyph-name="C" unicode="C" horiz-adv-x="521" 
d="M404 244h62q0 -114 -50.5 -187.5t-152.5 -73.5q-46 0 -81.5 14.5t-57.5 43.5t-36.5 62.5t-21 83t-9 92t-2.5 101.5q0 53 3.5 95t16 93.5t34 86t61.5 58.5t95 24q93 0 145 -64t52 -160h-64q-4 73 -36 121t-99 48q-32 0 -56.5 -13t-40 -38.5t-26 -54t-15 -67.5t-6.5 -71
t-2 -72q0 -45 2 -79.5t7 -75t15.5 -69.5t27 -53.5t42 -37.5t59.5 -13q38 0 65.5 19.5t42 52t20.5 65.5t6 69z" />
    <glyph glyph-name="D" unicode="D" horiz-adv-x="531" 
d="M128 665v-610h95q52 0 88.5 18.5t56 45.5t30.5 73.5t13.5 85.5t2.5 98q0 150 -39 219.5t-136 69.5h-111zM66 0v720h158q49 0 88.5 -12.5t65.5 -31.5t45 -48.5t29 -57t15.5 -63t7 -61t1.5 -57.5q0 -76 -4 -127.5t-19.5 -105.5t-42.5 -85t-75.5 -51t-116.5 -20h-152z" />
    <glyph glyph-name="E" unicode="E" horiz-adv-x="430" 
d="M66 0v720h331v-55h-269v-252h240v-55h-240v-303h269v-55h-331z" />
    <glyph glyph-name="F" unicode="F" horiz-adv-x="430" 
d="M128 358v-358h-62v720h331v-55h-269v-252h240v-55h-240z" />
    <glyph glyph-name="G" unicode="G" horiz-adv-x="534" 
d="M412 303h-155v55h217v-358h-50l-6 74q-54 -91 -158 -91q-46 0 -81.5 16t-57 47.5t-35.5 66t-20.5 84t-8.5 87.5t-2 90q0 55 3.5 98t16.5 95.5t35.5 87t64.5 58.5t100 24q86 0 135 -60.5t54 -153.5h-60q-20 159 -133 159q-35 0 -61 -12t-42.5 -36.5t-27 -51.5t-15.5 -67.5
t-6.5 -74t-1.5 -80.5q0 -35 1 -59.5t5 -67t13.5 -72.5t25 -60.5t42 -46.5t61.5 -16q28 0 50.5 10t37.5 24t26 38.5t16.5 44.5t9.5 51.5t5 49t2 47.5z" />
    <glyph glyph-name="H" unicode="H" horiz-adv-x="534" 
d="M128 720v-307h278v307h62v-720h-62v358h-278v-358h-62v720h62z" />
    <glyph glyph-name="I" unicode="I" horiz-adv-x="214" 
d="M138 720v-720h-62v720h62z" />
    <glyph glyph-name="J" unicode="J" horiz-adv-x="378" 
d="M20 210h62v-15q0 -36 2 -56.5t9.5 -47.5t27 -40t50.5 -13q35 0 53.5 19.5t22 41.5t3.5 58v563h62v-567q0 -170 -147 -170q-75 0 -110 50t-35 127v50z" />
    <glyph glyph-name="K" unicode="K" horiz-adv-x="481" 
d="M128 720v-360l262 360h72l-213 -291l224 -429h-68l-196 378l-81 -105v-273h-62v720h62z" />
    <glyph glyph-name="L" unicode="L" horiz-adv-x="421" 
d="M128 720v-665h267v-55h-329v720h62z" />
    <glyph glyph-name="M" unicode="M" horiz-adv-x="685" 
d="M66 720h104l171 -628h2l175 628h101v-720h-62v658h-2l-178 -658h-67l-180 658h-2v-658h-62v720z" />
    <glyph glyph-name="N" unicode="N" horiz-adv-x="538" 
d="M66 720h77l265 -618h2v618h62v-720h-75l-267 616h-2v-616h-62v720z" />
    <glyph glyph-name="O" unicode="O" horiz-adv-x="533" 
d="M266 -17q-55 0 -95 22.5t-62 56.5t-34.5 87t-16 100.5t-3.5 111.5q0 48 2.5 87t9.5 85t22 80t37.5 63.5t58 45t81.5 15.5q48 0 84.5 -15.5t59 -45.5t37 -63t21 -80.5t8.5 -84.5t2 -87q0 -53 -2 -92t-9 -86.5t-21.5 -80t-37 -61.5t-58.5 -43.5t-84 -14.5zM266 38
q33 0 58 11.5t41 35t26.5 51t15.5 67t7 75t2 83.5q0 42 -1.5 74.5t-6.5 72t-15.5 68.5t-26.5 54.5t-41.5 38.5t-58.5 13q-39 0 -67 -19t-43.5 -48t-24.5 -74.5t-11.5 -85.5t-2.5 -94q0 -55 2.5 -95.5t11.5 -86t24.5 -74.5t43.5 -48t67 -19z" />
    <glyph glyph-name="P" unicode="P" horiz-adv-x="480" 
d="M128 326v-326h-62v720h163q93 0 150 -45.5t57 -148.5q0 -97 -52 -148.5t-150 -51.5h-106zM128 665v-284h81q83 0 124 31t41 111q0 76 -39 109t-116 33h-91z" />
    <glyph glyph-name="Q" unicode="Q" horiz-adv-x="533" 
d="M271 121l35 44l73 -60q37 84 37 256q0 57 -3 100t-12.5 86.5t-25.5 71.5t-43.5 45.5t-64.5 17.5q-39 0 -67.5 -19t-44 -48t-24.5 -74t-11.5 -85.5t-2.5 -94.5q0 -68 4.5 -117t19 -100.5t46 -78.5t79.5 -27q46 0 78 25zM427 66l79 -65l-34 -42l-80 65q-47 -41 -125 -41
q-42 0 -75 13t-54.5 32.5t-37.5 51.5t-24.5 62t-13.5 72t-6 73.5t-1 73.5q0 60 3.5 106t16.5 99.5t35 88.5t62 58.5t95 23.5q48 0 84.5 -16t59 -47t36.5 -64.5t20.5 -81t8.5 -82.5t2 -83q0 -216 -51 -297z" />
    <glyph glyph-name="R" unicode="R" horiz-adv-x="483" 
d="M128 339v-339h-62v720h170q191 0 191 -186q0 -59 -27.5 -109t-78.5 -58v-2q58 -15 77 -57t19 -119q0 -146 33 -180v-9h-68q-19 42 -24 86t-5 126q0 61 -34 94t-87 33h-104zM128 665v-271h110q127 0 127 137q0 73 -34 103.5t-109 30.5h-94z" />
    <glyph glyph-name="S" unicode="S" horiz-adv-x="480" 
d="M426 546h-60q0 63 -32 99.5t-92 36.5q-59 0 -91.5 -39t-32.5 -101q0 -59 28 -87.5t96 -53.5q109 -39 156.5 -87.5t47.5 -128.5q0 -93 -56 -147.5t-151 -54.5t-146.5 61.5t-51.5 159.5h62q0 -74 32.5 -120t102.5 -46q66 0 105.5 39t39.5 106q0 20 -4 37t-9 29t-16.5 23.5
t-19.5 18t-25.5 15.5t-26 12.5t-30.5 12t-30 11.5q-84 33 -125 75t-41 122q0 89 50 143.5t137 54.5q84 0 133.5 -52t49.5 -139z" />
    <glyph glyph-name="T" unicode="T" 
d="M244 665v-665h-62v665h-163v55h388v-55h-163z" />
    <glyph glyph-name="U" unicode="U" horiz-adv-x="534" 
d="M71 720h62v-523q0 -82 27.5 -120.5t103.5 -38.5q78 0 107.5 42t29.5 123v517h62v-500q0 -115 -43.5 -176t-153.5 -61q-195 0 -195 207v530z" />
    <glyph glyph-name="V" unicode="V" horiz-adv-x="480" 
d="M13 720h66l161 -638h2l165 638h61l-192 -720h-70z" />
    <glyph glyph-name="W" unicode="W" horiz-adv-x="694" 
d="M17 720h63l110 -608h1l119 608h72l118 -611h2l115 611h60l-142 -720h-70l-120 616h-2l-117 -616h-70z" />
    <glyph glyph-name="X" unicode="X" horiz-adv-x="480" 
d="M26 720h70l143 -289l147 289h69l-179 -348l187 -372h-68l-156 313l-155 -313h-67l186 372z" />
    <glyph glyph-name="Y" unicode="Y" horiz-adv-x="479" 
d="M18 720h69l152 -343l157 343h66l-192 -414v-306h-62v306z" />
    <glyph glyph-name="Z" unicode="Z" 
d="M46 720h348v-54l-297 -611h297v-55h-361v58l294 607h-281v55z" />
    <glyph glyph-name="bracketleft" unicode="[" horiz-adv-x="267" 
d="M71 738h147v-45h-91v-748h93v-45h-149v838z" />
    <glyph glyph-name="backslash" unicode="\" horiz-adv-x="214" 
d="M-38 720h52l238 -720h-52z" />
    <glyph glyph-name="bracketright" unicode="]" horiz-adv-x="267" 
d="M49 738h147v-838h-149v45h93v748h-91v45z" />
    <glyph glyph-name="asciicircum" unicode="^" 
d="M193 720h39l130 -394h-45l-106 322l-103 -322h-45z" />
    <glyph glyph-name="underscore" unicode="_" horiz-adv-x="480" 
d="M0 -60h480v-56h-480v56z" />
    <glyph glyph-name="grave" unicode="`" horiz-adv-x="320" 
d="M220 582h-49l-132 133h75z" />
    <glyph glyph-name="a" unicode="a" horiz-adv-x="389" 
d="M276 285q-15 -7 -50.5 -23.5t-55.5 -26.5q-42 -20 -57.5 -42.5t-15.5 -65.5q0 -92 73 -92q32 0 54 14t32.5 37.5t15 47t4.5 49.5v102zM370 37v-40q-13 -6 -36 -6q-45 0 -55 53h-1q-40 -58 -117 -58q-68 0 -94 36t-26 105q0 107 86 146l112 50q22 10 29.5 27.5t7.5 57.5
q0 42 -21.5 64t-59.5 22q-16 0 -28.5 -2.5t-21 -9t-14 -11t-9.5 -17t-5.5 -17t-4 -21t-3.5 -19.5h-54q0 146 142 146q71 0 103 -36t32 -109v-325q0 -24 6 -29.5t32 -6.5z" />
    <glyph glyph-name="b" unicode="b" horiz-adv-x="424" 
d="M221 494q-36 0 -59.5 -21t-32.5 -59t-12 -68t-3 -71q0 -48 3 -82.5t12.5 -74.5t31.5 -61.5t56 -21.5q28 0 48.5 13t32 34t19 54t9.5 65t2 74q0 219 -107 219zM114 50v-50h-56v720h56v-234h2q51 57 119 57q149 0 149 -276q0 -51 -4.5 -91t-18.5 -88t-47 -75t-83 -27
q-79 0 -115 64h-2z" />
    <glyph glyph-name="c" unicode="c" horiz-adv-x="385" 
d="M293 175h56q0 -84 -35 -136.5t-112 -52.5q-32 0 -58 10t-42.5 24.5t-28.5 39t-18.5 46.5t-10 54t-4 53.5t-0.5 53.5q0 41 2.5 73t12 72.5t25.5 67t47 45t73 18.5q68 0 106 -49t38 -121h-55q0 49 -24.5 85t-68.5 36q-33 0 -54 -19.5t-30.5 -57.5t-12.5 -73t-3 -87
q0 -50 3.5 -84t14 -68.5t33 -52t56.5 -17.5q22 0 38.5 10t25 22.5t14.5 34.5t8 36t4 37z" />
    <glyph glyph-name="d" unicode="d" horiz-adv-x="424" 
d="M203 494q-36 0 -59.5 -21t-32.5 -59t-12 -68t-3 -71q0 -48 3 -82.5t12.5 -74.5t31.5 -61.5t56 -21.5q28 0 48.5 13t32 34t19 54t9.5 65t2 74q0 219 -107 219zM310 720h56v-720h-56v50h-2q-32 -64 -115 -64q-34 0 -60.5 13t-42.5 37t-27 50t-15.5 61t-6 61.5t-1.5 58.5
q0 276 155 276q69 0 113 -57h2v234z" />
    <glyph glyph-name="e" unicode="e" horiz-adv-x="390" 
d="M345 267h-249q0 -56 3 -91.5t12.5 -71t30.5 -52.5t54 -17q28 0 47 11.5t28 34t12.5 42t5.5 49.5h56q0 -77 -37.5 -131.5t-112.5 -54.5q-36 0 -63 12t-43 36t-26.5 48.5t-15 60t-6 60.5t-1.5 59q0 28 0.5 49.5t4 52.5t9.5 54t17.5 48t27 40.5t40 26t54.5 10.5
q44 0 75.5 -20t47 -54t22.5 -70.5t7 -77.5v-54zM96 316h193q0 178 -97 178q-96 0 -96 -178z" />
    <glyph glyph-name="f" unicode="f" horiz-adv-x="215" 
d="M199 718v-48q-10 2 -16 2q-30 0 -41 -12.5t-11 -42.5v-87h66v-49h-66v-481h-56v481h-56v49h56v58q0 75 19.5 104t83.5 29q12 0 21 -3z" />
    <glyph glyph-name="g" unicode="g" horiz-adv-x="422" 
d="M309 482v48h55v-518q0 -93 -37.5 -143t-126.5 -50q-61 0 -102.5 30.5t-44.5 89.5h57q2 -34 29 -52.5t62 -18.5q37 0 59.5 11t33 36.5t13 51t2.5 71.5h-4q-41 -52 -112 -52q-51 0 -84 25.5t-47 72t-18 85t-4 91.5q0 32 1.5 56.5t5.5 61t14 62.5t26 51.5t42 38.5t61 13
q76 0 117 -61h2zM202 494q-36 0 -59.5 -21t-32.5 -59t-12 -68t-3 -71q0 -48 3 -82.5t12.5 -74.5t31.5 -61.5t56 -21.5q28 0 48.5 13t32 34t19 54t9.5 65t2 74q0 219 -107 219z" />
    <glyph glyph-name="h" unicode="h" horiz-adv-x="422" 
d="M114 720v-246q19 32 50 50.5t65 18.5q38 0 64.5 -10.5t40 -24t21 -38t8.5 -41.5t1 -45v-384h-56v373q0 28 -2.5 46t-10 37t-25 28.5t-44.5 9.5q-41 0 -76.5 -28t-35.5 -69v-397h-56v720h56z" />
    <glyph glyph-name="i" unicode="i" horiz-adv-x="206" 
d="M131 530v-530h-56v530h56zM75 720h56v-90h-56v90z" />
    <glyph glyph-name="j" unicode="j" horiz-adv-x="214" 
d="M85 530h56v-595q0 -64 -23.5 -91t-96.5 -27v49q41 0 52.5 17t11.5 54v593zM85 720h56v-90h-56v90z" />
    <glyph glyph-name="k" unicode="k" horiz-adv-x="372" 
d="M114 720v-440l172 250h70l-144 -198l147 -332h-59l-128 276l-58 -82v-194h-56v720h56z" />
    <glyph glyph-name="l" unicode="l" horiz-adv-x="206" 
d="M131 720v-720h-56v720h56z" />
    <glyph glyph-name="m" unicode="m" horiz-adv-x="646" 
d="M114 530v-52h2q16 28 47 46.5t65 18.5q39 0 63.5 -12t47.5 -47h2q42 59 125 59q67 0 94.5 -37.5t27.5 -105.5v-400h-56v406q0 88 -73 88q-49 0 -78.5 -28.5t-29.5 -78.5v-387h-56v383q0 54 -15 82.5t-64 28.5q-36 0 -69 -29.5t-33 -73.5v-391h-56v530h56z" />
    <glyph glyph-name="n" unicode="n" horiz-adv-x="422" 
d="M114 530v-56q19 32 50 50.5t65 18.5q38 0 64.5 -10.5t40 -24t21 -38t8.5 -41.5t1 -45v-384h-56v373q0 28 -2.5 46t-10 37t-25 28.5t-44.5 9.5q-41 0 -76.5 -28t-35.5 -69v-397h-56v530h56z" />
    <glyph glyph-name="o" unicode="o" horiz-adv-x="413" 
d="M205 -14q-36 0 -64 12t-45.5 34t-29 47.5t-17 59.5t-7.5 62.5t-2 63.5q0 41 2.5 74.5t13 73.5t27.5 66.5t49 45t76 18.5q53 0 88 -25.5t50.5 -71t21 -87t5.5 -94.5q0 -42 -2.5 -75.5t-13 -73.5t-27.5 -67t-49 -45t-76 -18zM204 35q37 0 61 19.5t34.5 57t14 71.5t3.5 82
q0 229 -111 229q-110 0 -110 -229q0 -48 3.5 -82t13.5 -71t33 -57t58 -20z" />
    <glyph glyph-name="p" unicode="p" horiz-adv-x="425" 
d="M115 44v-227h-56v713h54v-48h2q16 27 44 44t62 17q164 0 164 -262q0 -50 -2.5 -87t-12.5 -78.5t-26.5 -68t-46.5 -44t-71 -17.5q-70 0 -111 58zM222 494q-36 0 -59.5 -21t-32.5 -59t-12 -68t-3 -71q0 -48 3 -82.5t12.5 -74.5t31.5 -61.5t56 -21.5q28 0 48.5 13t32 34
t19 54t9.5 65t2 74q0 219 -107 219z" />
    <glyph glyph-name="q" unicode="q" horiz-adv-x="423" 
d="M365 530v-713h-56v227q-39 -58 -111 -58q-36 0 -63.5 12t-44 35t-27.5 48t-15.5 60t-6 61t-1.5 61t1.5 62t6.5 62t16.5 60.5t28.5 48.5t45 35t65 12q63 0 106 -61v48h56zM202 494q-36 0 -59.5 -21t-32.5 -59t-12 -68t-3 -71q0 -48 3 -82.5t12.5 -74.5t31.5 -61.5
t56 -21.5q28 0 48.5 13t32 34t19 54t9.5 65t2 74q0 219 -107 219z" />
    <glyph glyph-name="r" unicode="r" horiz-adv-x="259" 
d="M114 530v-61q22 43 49.5 59t75.5 16v-59q-62 0 -93.5 -36.5t-31.5 -100.5v-348h-56v530h56z" />
    <glyph glyph-name="s" unicode="s" horiz-adv-x="387" 
d="M330 395h-55q0 44 -24 71.5t-67 27.5q-78 0 -78 -84q0 -52 81 -89q39 -18 61 -30.5t47.5 -34t37 -51.5t11.5 -69q0 -71 -39.5 -110.5t-108.5 -39.5q-77 0 -116.5 40.5t-39.5 116.5h55q8 -108 102 -108q42 0 66.5 28t24.5 71q0 49 -30.5 77t-81.5 50q-126 53 -126 147
q0 63 35 99t101 36q68 0 106 -39.5t38 -108.5z" />
    <glyph glyph-name="t" unicode="t" horiz-adv-x="213" 
d="M193 40v-48q-33 -5 -51 -5q-34 0 -56 21.5t-22 62.5v409h-48v49h48v155h55v-155h74v-49h-74v-396q0 -25 11 -36.5t36 -11.5q11 0 27 4z" />
    <glyph glyph-name="u" unicode="u" horiz-adv-x="423" 
d="M58 530h56v-402q0 -51 20 -72t70 -21q39 0 72 30.5t33 73.5v391h56v-530h-56v52l-2 -2q-29 -36 -58.5 -50t-72.5 -14q-118 0 -118 144v400z" />
    <glyph glyph-name="v" unicode="v" horiz-adv-x="373" 
d="M16 530h60l111 -429h2l112 429h57l-140 -530h-61z" />
    <glyph glyph-name="w" unicode="w" horiz-adv-x="534" 
d="M11 530h55l87 -422h2l81 422h62l83 -422h2l86 422h54l-115 -530h-58l-82 417h-2l-82 -417h-61z" />
    <glyph glyph-name="x" unicode="x" horiz-adv-x="373" 
d="M22 530h62l101 -205l103 205h64l-132 -253l141 -277h-63l-113 225l-112 -225h-61l139 277z" />
    <glyph glyph-name="y" unicode="y" horiz-adv-x="373" 
d="M15 530h59l109 -429h2l115 429h57l-167 -607q-30 -107 -118 -107q-32 0 -46 4v49q10 -2 31 -2q14 0 25 3t19 7t15 13.5t10.5 15.5t8 20.5t6.5 21t5.5 25t5.5 25.5z" />
    <glyph glyph-name="z" unicode="z" horiz-adv-x="319" 
d="M28 530h269v-52l-220 -429h225v-49h-285v53l222 428h-211v49z" />
    <glyph glyph-name="braceleft" unicode="{" horiz-adv-x="337" 
d="M266 735q-45 -19 -60.5 -44t-15.5 -64v-169q0 -56 -17 -87t-70 -47v-2q50 -9 68.5 -37.5t18.5 -82.5v-182q0 -40 15 -64t61 -44v-2q-82 0 -111.5 31t-29.5 97v191q0 81 -78 93v2q48 13 63 36.5t15 64.5v168q0 81 29.5 112.5t111.5 31.5v-2z" />
    <glyph glyph-name="bar" unicode="|" horiz-adv-x="214" 
d="M82 720h50v-720h-50v720z" />
    <glyph glyph-name="braceright" unicode="}" horiz-adv-x="336" 
d="M71 738q69 0 105 -25.5t36 -102.5v-190q0 -36 18.5 -62.5t59.5 -31.5v-2q-47 -12 -62.5 -35.5t-15.5 -62.5v-171q0 -80 -28.5 -112t-112.5 -32v2q45 19 60.5 44t15.5 64v170q0 55 17 86t70 47v2q-50 9 -68.5 37.5t-18.5 82.5v182q0 40 -15 64t-61 44v2z" />
    <glyph glyph-name="asciitilde" unicode="~" 
d="M52 172l-32 33q50 83 109 83q30 0 91.5 -25.5t77.5 -25.5q42 0 77 59l32 -32q-47 -78 -109 -78q-27 0 -87.5 25.5t-80.5 25.5q-10 0 -20 -4t-16.5 -8t-14 -13.5t-10.5 -13.5t-9.5 -14.5t-7.5 -11.5z" />
    <glyph glyph-name="currency" unicode="&#xa4;" horiz-adv-x="442" 
d="M8 100l37 36q-41 60 -41 128q0 72 41 131l-37 37l45 45l38 -36q56 42 133 42q65 0 127 -42l37 36l45 -45l-37 -37q41 -61 41 -135q0 -63 -41 -124l37 -36l-45 -46l-37 37q-59 -43 -135 -43q-64 0 -125 43l-38 -37zM375 267q0 62 -45 108t-107 46q-67 0 -112 -44.5
t-45 -111.5q0 -62 45.5 -108.5t107.5 -46.5q65 0 110.5 45.5t45.5 111.5z" />
    <glyph glyph-name="brokenbar" unicode="&#xa6;" horiz-adv-x="214" 
d="M82 288h50v-288h-50v288zM82 720h50v-288h-50v288z" />
    <glyph glyph-name="section" unicode="&#xa7;" 
d="M365 575h-53q-3 51 -26.5 85.5t-71.5 34.5q-42 0 -68 -21.5t-26 -62.5q0 -40 15 -66t48 -49l108 -73q111 -76 111 -172q0 -81 -90 -135q53 -47 53 -115q0 -64 -42 -103t-108 -39q-71 0 -111.5 45.5t-40.5 118.5h52q0 -56 26 -88t72 -32t72.5 28.5t26.5 65.5
q0 40 -44 82.5t-130 104.5q-59 42 -86 78.5t-27 83.5t23.5 78.5t68.5 59.5q-29 32 -40.5 57t-11.5 63q0 61 43.5 97.5t105.5 36.5q69 0 108.5 -46t42.5 -117zM150 458q-35 -15 -56 -43.5t-21 -65.5q0 -35 13.5 -56t44.5 -43l148 -105q32 15 53.5 43t21.5 61q0 38 -18.5 63.5
t-54.5 50.5z" />
    <glyph glyph-name="copyright" unicode="&#xa9;" horiz-adv-x="768" 
d="M385 -17q-153 0 -261 110.5t-108 267.5q0 155 108 265.5t261 110.5q152 0 259.5 -110.5t107.5 -265.5q0 -157 -107.5 -267.5t-259.5 -110.5zM385 28q133 0 227.5 97.5t94.5 235.5q0 137 -94 234t-228 97t-228.5 -97t-94.5 -234q0 -138 94.5 -235.5t228.5 -97.5zM518 292
h53q-7 -65 -56 -105.5t-114 -40.5q-91 0 -147 62t-56 156q0 95 55 156.5t146 61.5q67 0 114.5 -38.5t57.5 -104.5h-53q-7 43 -40.5 70.5t-78.5 27.5q-70 0 -108.5 -49t-38.5 -123q0 -71 40.5 -122.5t108.5 -51.5q45 0 78.5 27.5t38.5 73.5z" />
    <glyph glyph-name="guillemotleft" unicode="&#xab;" horiz-adv-x="480" 
d="M215 395v-57l-97 -78l97 -76v-59l-135 101v68zM394 395v-57l-97 -78l97 -76v-59l-135 101v68z" />
    <glyph glyph-name="logicalnot" unicode="&#xac;" 
d="M20 260h387v-242h-49v193h-338v49z" />
    <glyph glyph-name="registered" unicode="&#xae;" horiz-adv-x="768" 
d="M385 -17q-153 0 -261 110.5t-108 267.5q0 155 108 265.5t261 110.5q152 0 259.5 -110.5t107.5 -265.5q0 -157 -107.5 -267.5t-259.5 -110.5zM385 28q133 0 227.5 97.5t94.5 235.5q0 137 -94 234t-228 97t-228.5 -97t-94.5 -234q0 -138 94.5 -235.5t228.5 -97.5zM249 150
v422h178q70 0 108 -25.5t38 -86.5q0 -59 -35.5 -87t-93.5 -28l123 -195h-59l-117 195h-92v-195h-50zM299 534v-149h118q105 0 105 76q0 44 -29 58.5t-77 14.5h-117z" />
    <glyph glyph-name="degree" unicode="&#xb0;" horiz-adv-x="384" 
d="M337 570q0 -60 -42.5 -102t-101.5 -42q-60 0 -102 42t-42 102q0 59 42 101.5t102 42.5q59 0 101.5 -42.5t42.5 -101.5zM299 570q0 44 -31.5 75t-75.5 31t-74.5 -31t-30.5 -75t31 -75t75 -31t75 31t31 75z" />
    <glyph glyph-name="plusminus" unicode="&#xb1;" 
d="M189 302h-169v49h169v162h49v-162h169v-49h-169v-163h-49v163zM20 92h387v-49h-387v49z" />
    <glyph glyph-name="mu" unicode="&#xb5;" horiz-adv-x="423" 
d="M114 10v-200h-56v720h56v-401q0 -50 21 -71.5t72 -21.5q37 0 69.5 29t32.5 79v386h56v-530h-56v47q-48 -60 -132 -60q-38 0 -63 23z" />
    <glyph glyph-name="mu" unicode="&#x3bc;" horiz-adv-x="423" 
d="M114 10v-200h-56v720h56v-401q0 -50 21 -71.5t72 -21.5q37 0 69.5 29t32.5 79v386h56v-530h-56v47q-48 -60 -132 -60q-38 0 -63 23z" />
    <glyph glyph-name="paragraph" unicode="&#xb6;" horiz-adv-x="541" 
d="M425 720v-832h-55v767h-95v-767h-55v463q-73 0 -121 53.5t-48 128.5q0 95 54.5 141t144.5 46h175z" />
    <glyph glyph-name="periodcentered" unicode="&#xb7;" horiz-adv-x="214" 
d="M74 277h67v-84h-67v84z" />
    <glyph glyph-name="periodcentered" unicode="&#x22c5;" horiz-adv-x="214" 
d="M74 277h67v-84h-67v84z" />
    <glyph glyph-name="periodcentered" unicode="&#x2219;" horiz-adv-x="214" 
d="M74 277h67v-84h-67v84z" />
    <glyph glyph-name="guillemotright" unicode="&#xbb;" horiz-adv-x="480" 
d="M265 395l135 -101v-68l-135 -101v59l97 76l-97 78v57zM86 395l135 -101v-68l-135 -101v59l97 76l-97 78v57z" />
    <glyph glyph-name="afii10023" unicode="&#x401;" horiz-adv-x="430" 
d="M66 0v720h331v-55h-269v-252h240v-55h-240v-303h269v-55h-331zM117 783v98h62v-98h-62zM269 783v98h62v-98h-62z" />
    <glyph glyph-name="afii10051" unicode="&#x402;" horiz-adv-x="610" 
d="M244 665v-278q51 12 127 12q91 0 137.5 -54t46.5 -141q0 -107 -52 -155.5t-173 -48.5v55q86 0 124.5 35.5t38.5 111.5q0 63 -31.5 102.5t-99.5 39.5t-118 -13v-331h-62v665h-163v55h388v-55h-163z" />
    <glyph glyph-name="afii10052" unicode="&#x403;" horiz-adv-x="430" 
d="M66 720h331v-55h-269v-665h-62v720zM258 907h85l-143 -140h-54z" />
    <glyph glyph-name="afii10053" unicode="&#x404;" horiz-adv-x="521" 
d="M404 244h62q0 -114 -50.5 -187.5t-152.5 -73.5q-46 0 -81.5 14.5t-57.5 43.5t-36.5 62.5t-21 83t-9 92t-2.5 101.5q0 53 3.5 95t16 93.5t34 86t61.5 58.5t95 24q93 0 144.5 -64t51.5 -160h-63q-4 73 -36 121t-99 48q-43 0 -73 -23.5t-45 -65t-21.5 -85t-6.5 -95.5h192
v-55h-192q0 -69 5.5 -119t20.5 -99.5t47 -75.5t80 -26q38 0 65.5 19t42 51.5t20.5 66t6 69.5z" />
    <glyph glyph-name="afii10054" unicode="&#x405;" horiz-adv-x="480" 
d="M426 546h-60q0 63 -32 99.5t-92 36.5q-59 0 -91.5 -39t-32.5 -101q0 -59 28 -87.5t96 -53.5q109 -39 156.5 -87.5t47.5 -128.5q0 -93 -56 -147.5t-151 -54.5t-146.5 61.5t-51.5 159.5h62q0 -74 32.5 -120t102.5 -46q66 0 105.5 39t39.5 106q0 20 -4 37t-9 29t-16.5 23.5
t-19.5 18t-25.5 15.5t-26 12.5t-30.5 12t-30 11.5q-84 33 -125 75t-41 122q0 89 50 143.5t137 54.5q84 0 133.5 -52t49.5 -139z" />
    <glyph glyph-name="afii10055" unicode="&#x406;" horiz-adv-x="214" 
d="M138 720v-720h-62v720h62z" />
    <glyph glyph-name="afii10056" unicode="&#x407;" horiz-adv-x="214" 
d="M138 720v-720h-62v720h62zM0 783v98h62v-98h-62zM152 783v98h62v-98h-62z" />
    <glyph glyph-name="afii10057" unicode="&#x408;" horiz-adv-x="378" 
d="M20 210h62v-15q0 -36 2 -56.5t9.5 -47.5t27 -40t50.5 -13q35 0 53.5 19.5t22 41.5t3.5 58v563h62v-567q0 -170 -147 -170q-75 0 -110 50t-35 127v50z" />
    <glyph glyph-name="afii10058" unicode="&#x409;" horiz-adv-x="859" 
d="M132 720h364v-307h109q96 0 147.5 -55.5t51.5 -153.5q0 -105 -53 -154.5t-142 -49.5h-175v665h-240v-331q0 -173 -28 -257t-97 -84q-34 0 -54 6v55q21 -6 45 -6q72 0 72 307v365zM496 358v-303h95q151 0 151 147q0 82 -41 119t-121 37h-84z" />
    <glyph glyph-name="afii10059" unicode="&#x40a;" horiz-adv-x="831" 
d="M128 720v-307h278v307h62v-307h109q96 0 147.5 -55.5t51.5 -153.5q0 -105 -53 -154.5t-142 -49.5h-175v358h-278v-358h-62v720h62zM468 358v-303h95q151 0 151 147q0 82 -41 119t-121 37h-84z" />
    <glyph glyph-name="afii10060" unicode="&#x40b;" horiz-adv-x="612" 
d="M244 665v-278q68 12 162 12q151 0 151 -151v-248h-62v250q0 54 -24 73.5t-83 19.5q-82 0 -144 -12v-331h-62v665h-163v55h388v-55h-163z" />
    <glyph glyph-name="afii10061" unicode="&#x40c;" horiz-adv-x="481" 
d="M128 720v-360l262 360h72l-213 -291l224 -429h-68l-196 378l-81 -105v-273h-62v720h62zM302 907h85l-143 -140h-54z" />
    <glyph glyph-name="afii10062" unicode="&#x40e;" horiz-adv-x="493" 
d="M4 720h67l179 -492l164 492h67l-222 -628q-17 -50 -46 -75t-63 -25q-31 0 -52 7v54q15 -6 40 -6q43 0 60 47l20 55zM131 893h36q6 -39 31 -60t62 -21q36 0 61.5 21t32.5 60h33q-6 -61 -41.5 -93.5t-90.5 -32.5q-52 0 -85 33.5t-39 92.5z" />
    <glyph glyph-name="afii10145" unicode="&#x40f;" horiz-adv-x="536" 
d="M128 720v-665h280v665h62v-720h-172v-153h-60v153h-172v720h62z" />
    <glyph glyph-name="afii10017" unicode="&#x410;" horiz-adv-x="480" 
d="M144 277h192l-95 364h-2zM204 720h72l193 -720h-63l-57 222h-218l-59 -222h-60z" />
    <glyph glyph-name="afii10018" unicode="&#x411;" horiz-adv-x="491" 
d="M66 720h335v-55h-273v-252h109q96 0 147.5 -55.5t51.5 -153.5q0 -105 -53 -154.5t-142 -49.5h-175v720zM128 358v-303h95q151 0 151 147q0 82 -41 119t-121 37h-84z" />
    <glyph glyph-name="afii10019" unicode="&#x412;" horiz-adv-x="492" 
d="M128 665v-260h89q65 0 104 29t39 108q0 38 -12 64t-35 38t-46.5 16.5t-55.5 4.5h-83zM128 350v-295h102q150 0 150 153q0 142 -150 142h-102zM66 0v720h170q84 0 135 -44t51 -132q0 -127 -98 -164q118 -32 118 -173q0 -207 -219 -207h-157z" />
    <glyph glyph-name="afii10020" unicode="&#x413;" horiz-adv-x="430" 
d="M66 720h331v-55h-269v-665h-62v720z" />
    <glyph glyph-name="afii10021" unicode="&#x414;" horiz-adv-x="595" 
d="M157 720h351v-665h51v-208h-60v153h-408v-153h-60v208h45q46 79 63.5 164.5t17.5 247.5v253zM446 665h-227v-215q0 -270 -76 -395h303v610z" />
    <glyph glyph-name="afii10022" unicode="&#x415;" horiz-adv-x="430" 
d="M66 0v720h331v-55h-269v-252h240v-55h-240v-303h269v-55h-331z" />
    <glyph glyph-name="afii10024" unicode="&#x416;" horiz-adv-x="768" 
d="M353 720h62v-360l262 360h72l-213 -291l224 -429h-68l-196 378l-81 -105v-273h-62v273l-81 105l-196 -378h-68l224 429l-213 291h72l262 -360v360z" />
    <glyph glyph-name="afii10025" unicode="&#x417;" horiz-adv-x="496" 
d="M118 554h-59q0 68 46.5 125.5t137.5 57.5q85 0 131.5 -53t46.5 -141q0 -62 -30.5 -105t-76.5 -58q55 -13 91 -60.5t36 -126.5q0 -109 -57.5 -159.5t-142.5 -50.5q-94 0 -147.5 58.5t-53.5 162.5h62q4 -90 39.5 -128t99.5 -38q138 0 138 145q0 85 -44 130t-113 45h-43v55
h47q133 0 133 135q0 63 -34.5 98.5t-85.5 35.5q-58 0 -87 -37t-34 -91z" />
    <glyph glyph-name="afii10026" unicode="&#x418;" horiz-adv-x="538" 
d="M128 720v-618h2l265 618h77v-720h-62v616h-2l-267 -616h-75v720h62z" />
    <glyph glyph-name="afii10027" unicode="&#x419;" horiz-adv-x="538" 
d="M128 720v-618h2l265 618h77v-720h-62v616h-2l-267 -616h-75v720h62zM140 893h36q6 -39 31 -60t62 -21q36 0 61.5 21t32.5 60h33q-6 -61 -41.5 -93.5t-90.5 -32.5q-52 0 -85 33.5t-39 92.5z" />
    <glyph glyph-name="afii10028" unicode="&#x41a;" horiz-adv-x="481" 
d="M128 720v-360l262 360h72l-213 -291l224 -429h-68l-196 378l-81 -105v-273h-62v720h62z" />
    <glyph glyph-name="afii10029" unicode="&#x41b;" horiz-adv-x="562" 
d="M132 720h364v-720h-62v665h-240v-331q0 -173 -28 -257t-97 -84q-34 0 -54 6v55q21 -6 45 -6q72 0 72 307v365z" />
    <glyph glyph-name="afii10030" unicode="&#x41c;" horiz-adv-x="685" 
d="M66 720h104l171 -628h2l175 628h101v-720h-62v658h-2l-178 -658h-67l-180 658h-2v-658h-62v720z" />
    <glyph glyph-name="afii10031" unicode="&#x41d;" horiz-adv-x="534" 
d="M128 720v-307h278v307h62v-720h-62v358h-278v-358h-62v720h62z" />
    <glyph glyph-name="afii10032" unicode="&#x41e;" horiz-adv-x="533" 
d="M266 -17q-55 0 -95 22.5t-62 56.5t-34.5 87t-16 100.5t-3.5 111.5q0 48 2.5 87t9.5 85t22 80t37.5 63.5t58 45t81.5 15.5q48 0 84.5 -15.5t59 -45.5t37 -63t21 -80.5t8.5 -84.5t2 -87q0 -53 -2 -92t-9 -86.5t-21.5 -80t-37 -61.5t-58.5 -43.5t-84 -14.5zM266 38
q33 0 58 11.5t41 35t26.5 51t15.5 67t7 75t2 83.5q0 42 -1.5 74.5t-6.5 72t-15.5 68.5t-26.5 54.5t-41.5 38.5t-58.5 13q-39 0 -67 -19t-43.5 -48t-24.5 -74.5t-11.5 -85.5t-2.5 -94q0 -55 2.5 -95.5t11.5 -86t24.5 -74.5t43.5 -48t67 -19z" />
    <glyph glyph-name="afii10033" unicode="&#x41f;" horiz-adv-x="534" 
d="M66 720h402v-720h-62v665h-278v-665h-62v720z" />
    <glyph glyph-name="afii10034" unicode="&#x420;" horiz-adv-x="480" 
d="M128 326v-326h-62v720h163q93 0 150 -45.5t57 -148.5q0 -97 -52 -148.5t-150 -51.5h-106zM128 665v-284h81q83 0 124 31t41 111q0 76 -39 109t-116 33h-91z" />
    <glyph glyph-name="afii10035" unicode="&#x421;" horiz-adv-x="521" 
d="M404 244h62q0 -114 -50.5 -187.5t-152.5 -73.5q-46 0 -81.5 14.5t-57.5 43.5t-36.5 62.5t-21 83t-9 92t-2.5 101.5q0 53 3.5 95t16 93.5t34 86t61.5 58.5t95 24q93 0 145 -64t52 -160h-64q-4 73 -36 121t-99 48q-32 0 -56.5 -13t-40 -38.5t-26 -54t-15 -67.5t-6.5 -71
t-2 -72q0 -45 2 -79.5t7 -75t15.5 -69.5t27 -53.5t42 -37.5t59.5 -13q38 0 65.5 19.5t42 52t20.5 65.5t6 69z" />
    <glyph glyph-name="afii10036" unicode="&#x422;" 
d="M244 665v-665h-62v665h-163v55h388v-55h-163z" />
    <glyph glyph-name="afii10037" unicode="&#x423;" horiz-adv-x="493" 
d="M4 720h67l179 -492l164 492h67l-222 -628q-17 -50 -46 -75t-63 -25q-31 0 -52 7v54q15 -6 40 -6q43 0 60 47l20 55z" />
    <glyph glyph-name="afii10038" unicode="&#x424;" horiz-adv-x="691" 
d="M375 586v-448h20q87 0 140 54.5t53 171.5q0 113 -55 167.5t-138 54.5h-20zM313 720h62v-79h22q107 0 180 -69t73 -202q0 -142 -70 -214.5t-181 -72.5h-24v-83h-62v83h-24q-111 0 -181 72.5t-70 214.5q0 133 73 202t180 69h22v79zM313 138v448h-20q-83 0 -138 -54.5
t-55 -167.5q0 -117 53 -171.5t140 -54.5h20z" />
    <glyph glyph-name="afii10039" unicode="&#x425;" horiz-adv-x="480" 
d="M26 720h70l143 -289l147 289h69l-179 -348l187 -372h-68l-156 313l-155 -313h-67l186 372z" />
    <glyph glyph-name="afii10040" unicode="&#x426;" horiz-adv-x="549" 
d="M128 720v-665h280v665h62v-665h53v-208h-60v153h-397v720h62z" />
    <glyph glyph-name="afii10041" unicode="&#x427;" horiz-adv-x="496" 
d="M55 720h62v-226q0 -54 24 -73.5t83 -19.5q82 0 144 12v307h62v-720h-62v357q-68 -12 -162 -12q-151 0 -151 151v224z" />
    <glyph glyph-name="afii10042" unicode="&#x428;" horiz-adv-x="796" 
d="M128 720v-665h239v665h62v-665h239v665h62v-720h-664v720h62z" />
    <glyph glyph-name="afii10043" unicode="&#x429;" horiz-adv-x="809" 
d="M128 720v-665h239v665h62v-665h239v665h62v-665h53v-208h-60v153h-657v720h62z" />
    <glyph glyph-name="afii10044" unicode="&#x42a;" horiz-adv-x="556" 
d="M-12 720h205v-307h109q96 0 147.5 -55.5t51.5 -153.5q0 -105 -53 -154.5t-142 -49.5h-175v665h-143v55zM193 358v-303h95q151 0 151 147q0 82 -41 119t-121 37h-84z" />
    <glyph glyph-name="afii10045" unicode="&#x42b;" horiz-adv-x="658" 
d="M128 720v-307h109q96 0 147.5 -55.5t51.5 -153.5q0 -105 -53 -154.5t-142 -49.5h-175v720h62zM128 358v-303h95q151 0 151 147q0 82 -41 119t-121 37h-84zM592 720v-720h-62v720h62z" />
    <glyph glyph-name="afii10046" unicode="&#x42c;" horiz-adv-x="491" 
d="M128 720v-307h109q96 0 147.5 -55.5t51.5 -153.5q0 -105 -53 -154.5t-142 -49.5h-175v720h62zM128 358v-303h95q151 0 151 147q0 82 -41 119t-121 37h-84z" />
    <glyph glyph-name="afii10047" unicode="&#x42d;" horiz-adv-x="521" 
d="M123 513h-63q0 96 53.5 160t146.5 64q39 0 70.5 -12.5t53 -32t37 -49.5t24 -60t13.5 -68t6.5 -68t1.5 -67q0 -59 -2.5 -101.5t-9 -92t-21 -83t-36.5 -62.5t-57.5 -43.5t-81.5 -14.5q-102 0 -152.5 73.5t-50.5 187.5h62q0 -36 6 -69t20.5 -65.5t42 -52t65.5 -19.5
q48 0 80 25.5t47 74.5t20.5 99.5t5.5 120.5h-192v55h192q0 53 -6.5 98t-22 85t-45.5 63t-72 23q-67 0 -99 -48t-36 -121z" />
    <glyph glyph-name="afii10048" unicode="&#x42e;" horiz-adv-x="721" 
d="M128 720v-307h115q3 69 12.5 120.5t31.5 101t64 76t103 26.5q48 0 84.5 -15.5t59 -45.5t37 -63t21 -80.5t8.5 -84.5t2 -87q0 -53 -2 -92t-9 -86.5t-21.5 -80t-37 -61.5t-58.5 -43.5t-84 -14.5q-54 0 -93.5 21.5t-61.5 54.5t-35 85t-17 100.5t-4 113.5h-115v-358h-62v720
h62zM454 38q33 0 58 11.5t41 35t26.5 51t15.5 67t7 75t2 83.5q0 42 -1.5 74.5t-6.5 72t-15.5 68.5t-26.5 54.5t-41.5 38.5t-58.5 13q-39 0 -67 -19t-43.5 -48t-24.5 -74.5t-11.5 -85.5t-2.5 -94q0 -55 2.5 -95.5t11.5 -86t24.5 -74.5t43.5 -48t67 -19z" />
    <glyph glyph-name="afii10049" unicode="&#x42f;" horiz-adv-x="491" 
d="M363 317h-97l-167 -317h-74l171 321q-68 15 -104.5 65t-36.5 130q0 105 53 154.5t142 49.5h175v-720h-62v317zM363 372v293h-95q-151 0 -151 -146q0 -81 41.5 -114t123.5 -33h81z" />
    <glyph glyph-name="afii10065" unicode="&#x430;" horiz-adv-x="389" 
d="M276 285q-15 -7 -50.5 -23.5t-55.5 -26.5q-42 -20 -57.5 -42.5t-15.5 -65.5q0 -92 73 -92q32 0 54 14t32.5 37.5t15 47t4.5 49.5v102zM370 37v-40q-13 -6 -36 -6q-45 0 -55 53h-1q-40 -58 -117 -58q-68 0 -94 36t-26 105q0 107 86 146l112 50q22 10 29.5 27.5t7.5 57.5
q0 42 -21.5 64t-59.5 22q-16 0 -28.5 -2.5t-21 -9t-14 -11t-9.5 -17t-5.5 -17t-4 -21t-3.5 -19.5h-54q0 146 142 146q71 0 103 -36t32 -109v-325q0 -24 6 -29.5t32 -6.5z" />
    <glyph glyph-name="afii10066" unicode="&#x431;" horiz-adv-x="415" 
d="M92 439h1q14 36 46 62t67 26q86 0 126.5 -60.5t40.5 -209.5q0 -141 -41.5 -206t-126.5 -65t-125 68t-40 235q0 138 20.5 217.5t56 113t100.5 51.5q46 13 62 22.5t25 26.5h46q-12 -38 -36.5 -56t-86.5 -37q-60 -18 -92 -58.5t-43 -129.5zM204 35q54 0 83.5 48.5
t29.5 173.5q0 122 -28.5 171.5t-83.5 49.5q-50 0 -79.5 -58.5t-29.5 -162.5q0 -125 27 -173.5t81 -48.5z" />
    <glyph glyph-name="afii10067" unicode="&#x432;" horiz-adv-x="404" 
d="M114 481v-175h79q48 0 70 20t22 65q0 90 -92 90h-79zM114 257v-208h98q42 0 68.5 24.5t26.5 74.5q0 53 -27.5 81t-76.5 28h-89zM58 0v530h140q69 0 106 -36t37 -94q0 -48 -21 -77.5t-54 -38.5q45 -16 71 -45.5t26 -90.5q0 -67 -36 -107.5t-97 -40.5h-172z" />
    <glyph glyph-name="afii10068" unicode="&#x433;" horiz-adv-x="315" 
d="M58 530h247v-49h-191v-481h-56v530z" />
    <glyph glyph-name="afii10069" unicode="&#x434;" horiz-adv-x="470" 
d="M135 530h266v-481h46v-191h-52v142h-317v-142h-52v191h40q36 62 52.5 134t16.5 195v152zM345 481h-154v-125q0 -184 -66 -307h220v432z" />
    <glyph glyph-name="afii10070" unicode="&#x435;" horiz-adv-x="390" 
d="M345 267h-249q0 -56 3 -91.5t12.5 -71t30.5 -52.5t54 -17q28 0 47 11.5t28 34t12.5 42t5.5 49.5h56q0 -77 -37.5 -131.5t-112.5 -54.5q-36 0 -63 12t-43 36t-26.5 48.5t-15 60t-6 60.5t-1.5 59q0 28 0.5 49.5t4 52.5t9.5 54t17.5 48t27 40.5t40 26t54.5 10.5
q44 0 75.5 -20t47 -54t22.5 -70.5t7 -77.5v-54zM96 316h193q0 178 -97 178q-96 0 -96 -178z" />
    <glyph glyph-name="afii10072" unicode="&#x436;" horiz-adv-x="564" 
d="M250 530h56v-250l172 250h70l-144 -198l147 -332h-59l-128 276l-58 -82v-194h-56v194l-58 82l-128 -276h-59l147 332l-144 198h70l172 -250v250z" />
    <glyph glyph-name="afii10073" unicode="&#x437;" horiz-adv-x="395" 
d="M153 257v49h34q44 0 70 25t26 73q0 42 -23 66t-65 24q-38 0 -63.5 -25.5t-28.5 -73.5h-53q4 64 43 106t104 42t103.5 -36t38.5 -95q0 -102 -85 -128q43 -12 73 -47t30 -91q0 -77 -43.5 -118.5t-113.5 -41.5q-154 0 -161 157h55q3 -57 27.5 -82.5t73.5 -25.5q45 0 75.5 28
t30.5 84q0 49 -33 79.5t-87 30.5h-28z" />
    <glyph glyph-name="afii10074" unicode="&#x438;" horiz-adv-x="432" 
d="M303 530h71v-530h-56v349q0 79 12 137h-1q-14 -42 -38 -101l-163 -385h-70v530h56v-356q0 -79 -12 -137h1q14 42 38 101z" />
    <glyph glyph-name="afii10075" unicode="&#x439;" horiz-adv-x="432" 
d="M303 530h71v-530h-56v349q0 79 12 137h-1q-14 -42 -38 -101l-163 -385h-70v530h56v-356q0 -79 -12 -137h1q14 42 38 101zM103 690h31q6 -34 28.5 -52.5t54.5 -18.5q69 0 83 71h29q-5 -54 -36.5 -82t-80.5 -28q-46 0 -75 29.5t-34 80.5z" />
    <glyph glyph-name="afii10076" unicode="&#x43a;" horiz-adv-x="372" 
d="M114 530v-250l172 250h70l-144 -198l147 -332h-59l-128 276l-58 -82v-194h-56v530h56z" />
    <glyph glyph-name="afii10077" unicode="&#x43b;" horiz-adv-x="438" 
d="M104 530h276v-530h-56v481h-164v-248q0 -94 -13.5 -148.5t-34.5 -72.5t-53 -18q-31 0 -45 5v48q18 -4 32 -4q21 0 32.5 13.5t18.5 61.5t7 139v273z" />
    <glyph glyph-name="afii10078" unicode="&#x43c;" horiz-adv-x="541" 
d="M58 530h91l88 -327q24 -84 34 -149h1q4 46 32 149l89 327h90v-530h-56v314q0 109 8 195h-1q-1 -3 -139 -509h-49q-128 475 -141 509h-1q10 -100 10 -195v-314h-56v530z" />
    <glyph glyph-name="afii10079" unicode="&#x43d;" horiz-adv-x="418" 
d="M114 530v-224h190v224h56v-530h-56v257h-190v-257h-56v530h56z" />
    <glyph glyph-name="afii10080" unicode="&#x43e;" horiz-adv-x="413" 
d="M205 -14q-36 0 -64 12t-45.5 34t-29 47.5t-17 59.5t-7.5 62.5t-2 63.5q0 41 2.5 74.5t13 73.5t27.5 66.5t49 45t76 18.5q53 0 88 -25.5t50.5 -71t21 -87t5.5 -94.5q0 -42 -2.5 -75.5t-13 -73.5t-27.5 -67t-49 -45t-76 -18zM204 35q37 0 61 19.5t34.5 57t14 71.5t3.5 82
q0 229 -111 229q-110 0 -110 -229q0 -48 3.5 -82t13.5 -71t33 -57t58 -20z" />
    <glyph glyph-name="afii10081" unicode="&#x43f;" horiz-adv-x="418" 
d="M58 530h302v-530h-56v481h-190v-481h-56v530z" />
    <glyph glyph-name="afii10082" unicode="&#x440;" horiz-adv-x="425" 
d="M115 44v-227h-56v713h54v-48h2q16 27 44 44t62 17q164 0 164 -262q0 -50 -2.5 -87t-12.5 -78.5t-26.5 -68t-46.5 -44t-71 -17.5q-70 0 -111 58zM222 494q-36 0 -59.5 -21t-32.5 -59t-12 -68t-3 -71q0 -48 3 -82.5t12.5 -74.5t31.5 -61.5t56 -21.5q28 0 48.5 13t32 34
t19 54t9.5 65t2 74q0 219 -107 219z" />
    <glyph glyph-name="afii10083" unicode="&#x441;" horiz-adv-x="385" 
d="M293 175h56q0 -84 -35 -136.5t-112 -52.5q-32 0 -58 10t-42.5 24.5t-28.5 39t-18.5 46.5t-10 54t-4 53.5t-0.5 53.5q0 41 2.5 73t12 72.5t25.5 67t47 45t73 18.5q68 0 106 -49t38 -121h-55q0 49 -24.5 85t-68.5 36q-33 0 -54 -19.5t-30.5 -57.5t-12.5 -73t-3 -87
q0 -50 3.5 -84t14 -68.5t33 -52t56.5 -17.5q22 0 38.5 10t25 22.5t14.5 34.5t8 36t4 37z" />
    <glyph glyph-name="afii10084" unicode="&#x442;" horiz-adv-x="325" 
d="M8 530h310v-49h-127v-481h-56v481h-127v49z" />
    <glyph glyph-name="afii10085" unicode="&#x443;" horiz-adv-x="373" 
d="M15 530h59l109 -429h2l115 429h57l-167 -607q-30 -107 -118 -107q-32 0 -46 4v49q10 -2 31 -2q14 0 25 3t19 7t15 13.5t10.5 15.5t8 20.5t6.5 21t5.5 25t5.5 25.5z" />
    <glyph glyph-name="afii10086" unicode="&#x444;" horiz-adv-x="638" 
d="M444 494q-56 0 -76.5 -56.5t-20.5 -172.5q0 -49 3.5 -85t12.5 -71.5t29 -54.5t50 -19q33 0 54 18.5t30.5 54t12.5 69t3 82.5q0 52 -3.5 89t-13 73t-30 54.5t-51.5 18.5zM291 720h56v-238q15 26 40.5 43.5t55.5 17.5q49 0 81.5 -22.5t47.5 -64.5t20.5 -84.5t5.5 -101.5
q0 -50 -3 -87t-12 -76t-24.5 -64t-43 -41t-65.5 -16q-75 0 -103 67v-236h-56v236q-30 -67 -102 -67q-47 0 -78 22.5t-45.5 65.5t-20 88t-5.5 108q0 58 5.5 101t21 85t48 64.5t81.5 22.5q30 0 55 -17.5t40 -43.5v238zM194 494q-31 0 -51.5 -18.5t-30 -54.5t-13 -73t-3.5 -89
q0 -49 3 -82.5t12.5 -69t30.5 -54t54 -18.5q30 0 50 19t29 54.5t12.5 71.5t3.5 85q0 116 -20.5 172.5t-76.5 56.5z" />
    <glyph glyph-name="afii10087" unicode="&#x445;" horiz-adv-x="373" 
d="M22 530h62l101 -205l103 205h64l-132 -253l141 -277h-63l-113 225l-112 -225h-61l139 277z" />
    <glyph glyph-name="afii10088" unicode="&#x446;" 
d="M114 530v-481h190v481h56v-481h46v-191h-52v142h-296v530h56z" />
    <glyph glyph-name="afii10089" unicode="&#x447;" horiz-adv-x="402" 
d="M50 530h56v-127q0 -104 83 -104q65 0 99 14v217h56v-530h-56v265q-44 -15 -111 -15q-127 0 -127 162v118z" />
    <glyph glyph-name="afii10090" unicode="&#x448;" horiz-adv-x="626" 
d="M114 530v-481h171v481h56v-481h171v481h56v-530h-510v530h56z" />
    <glyph glyph-name="afii10091" unicode="&#x449;" horiz-adv-x="634" 
d="M114 530v-481h171v481h56v-481h171v481h56v-481h46v-191h-52v142h-504v530h56z" />
    <glyph glyph-name="afii10092" unicode="&#x44a;" horiz-adv-x="446" 
d="M157 257v-208h96q97 0 97 105q0 103 -99 103h-94zM-3 530h160v-224h106q69 0 106 -40t37 -112q0 -71 -36.5 -112.5t-106.5 -41.5h-162v481h-104v49z" />
    <glyph glyph-name="afii10093" unicode="&#x44b;" horiz-adv-x="556" 
d="M114 257v-208h96q97 0 97 105q0 103 -99 103h-94zM114 530v-224h106q69 0 106 -40t37 -112q0 -71 -36.5 -112.5t-106.5 -41.5h-162v530h56zM498 530v-530h-56v530h56z" />
    <glyph glyph-name="afii10094" unicode="&#x44c;" horiz-adv-x="403" 
d="M114 257v-208h96q97 0 97 105q0 103 -99 103h-94zM114 530v-224h106q69 0 106 -40t37 -112q0 -71 -36.5 -112.5t-106.5 -41.5h-162v530h56z" />
    <glyph glyph-name="afii10095" unicode="&#x44d;" horiz-adv-x="385" 
d="M92 175q0 -140 94 -140q23 0 40 7.5t28.5 23t18.5 34t10.5 46t4.5 52t1 59.5h-131v49h131q0 82 -24.5 135t-75.5 53q-46 0 -69.5 -34.5t-23.5 -86.5h-55q3 78 41 124t109 46q35 0 61.5 -12t42.5 -35t26.5 -48t15.5 -59.5t6.5 -61t1.5 -60.5q0 -33 -0.5 -53.5t-3.5 -53.5
t-9 -54t-18 -46t-28.5 -39.5t-42 -24.5t-57.5 -10q-78 0 -114 54t-36 135h56z" />
    <glyph glyph-name="afii10096" unicode="&#x44e;" horiz-adv-x="586" 
d="M116 306h100q2 37 6.5 67.5t16 63t29 55t47 37t68.5 14.5q53 0 88 -25.5t50.5 -71t21 -87t5.5 -94.5q0 -42 -2.5 -75.5t-13 -73.5t-27.5 -67t-49 -45t-76 -18q-165 0 -165 271h-99v-257h-56v530h56v-224zM379 35q37 0 61 20t34.5 58t14 71.5t3.5 80.5q0 229 -111 229
q-110 0 -110 -229q0 -47 3 -80.5t13 -71.5t33 -58t59 -20z" />
    <glyph glyph-name="afii10097" unicode="&#x44f;" horiz-adv-x="403" 
d="M289 273v208h-96q-97 0 -97 -105q0 -103 99 -103h94zM289 224h-85l-120 -224h-66l124 228q-46 9 -74 47.5t-28 100.5q0 71 36.5 112.5t106.5 41.5h162v-530h-56v224z" />
    <glyph glyph-name="afii10071" unicode="&#x451;" horiz-adv-x="390" 
d="M345 267h-249q0 -56 3 -91.5t12.5 -71t30.5 -52.5t54 -17q28 0 47 11.5t28 34t12.5 42t5.5 49.5h56q0 -77 -37.5 -131.5t-112.5 -54.5q-36 0 -63 12t-43 36t-26.5 48.5t-15 60t-6 60.5t-1.5 59q0 28 0.5 49.5t4 52.5t9.5 54t17.5 48t27 40.5t40 26t54.5 10.5
q44 0 75.5 -20t47 -54t22.5 -70.5t7 -77.5v-54zM96 316h193q0 178 -97 178q-96 0 -96 -178zM96 720h56v-90h-56v90zM240 720h56v-90h-56v90z" />
    <glyph glyph-name="afii10099" unicode="&#x452;" horiz-adv-x="422" 
d="M58 720h56v-65h130v-49h-130v-132q19 32 50 50.5t65 18.5q38 0 64.5 -10.5t40 -24t21 -38t8.5 -41.5t1 -45v-124q0 -89 -2 -146t-8.5 -109.5t-17.5 -82.5t-30 -54t-46 -35t-65 -16v49q26 5 44.5 16t31 35t20 52.5t11.5 80.5t5 105t1 140v78q0 28 -2.5 46t-10 37t-25 28.5
t-44.5 9.5q-41 0 -76.5 -28t-35.5 -69v-397h-56v606h-52v49h52v65z" />
    <glyph glyph-name="afii10100" unicode="&#x453;" horiz-adv-x="315" 
d="M58 530h247v-49h-191v-481h-56v530zM226 705h72l-124 -125h-49z" />
    <glyph glyph-name="afii10101" unicode="&#x454;" horiz-adv-x="385" 
d="M344 373h-55q0 51 -25 86t-68 35q-100 0 -100 -188h131v-49h-131q0 -47 3 -80t13 -69t33 -54.5t58 -18.5q90 0 90 140h56q0 -82 -35 -135.5t-112 -53.5q-32 0 -58 10t-42.5 24.5t-28.5 39t-18.5 46.5t-10 54t-4 53.5t-0.5 53.5q0 41 2.5 73t12 72.5t25.5 67t47 45
t73 18.5q68 0 106 -49.5t38 -120.5z" />
    <glyph glyph-name="afii10102" unicode="&#x455;" horiz-adv-x="387" 
d="M330 395h-55q0 44 -24 71.5t-67 27.5q-78 0 -78 -84q0 -52 81 -89q39 -18 61 -30.5t47.5 -34t37 -51.5t11.5 -69q0 -71 -39.5 -110.5t-108.5 -39.5q-77 0 -116.5 40.5t-39.5 116.5h55q8 -108 102 -108q42 0 66.5 28t24.5 71q0 49 -30.5 77t-81.5 50q-126 53 -126 147
q0 63 35 99t101 36q68 0 106 -39.5t38 -108.5z" />
    <glyph glyph-name="afii10103" unicode="&#x456;" horiz-adv-x="206" 
d="M131 530v-530h-56v530h56zM75 720h56v-90h-56v90z" />
    <glyph glyph-name="afii10104" unicode="&#x457;" horiz-adv-x="206" 
d="M131 530v-530h-56v530h56zM3 720h56v-90h-56v90zM147 720h56v-90h-56v90z" />
    <glyph glyph-name="afii10105" unicode="&#x458;" horiz-adv-x="214" 
d="M85 530h56v-595q0 -64 -23.5 -91t-96.5 -27v49q41 0 52.5 17t11.5 54v593zM85 720h56v-90h-56v90z" />
    <glyph glyph-name="afii10106" unicode="&#x459;" horiz-adv-x="669" 
d="M104 530h276v-224h106q69 0 106 -40t37 -112q0 -71 -36.5 -112.5t-106.5 -41.5h-162v481h-164v-248q0 -94 -13.5 -148.5t-34.5 -72.5t-53 -18q-31 0 -45 5v48q18 -4 32 -4q21 0 32.5 13.5t18.5 61.5t7 139v273zM380 257v-208h96q97 0 97 105q0 103 -99 103h-94z" />
    <glyph glyph-name="afii10107" unicode="&#x45a;" horiz-adv-x="649" 
d="M114 530v-224h190v224h56v-224h106q69 0 106 -40t37 -112q0 -71 -36.5 -112.5t-106.5 -41.5h-162v257h-190v-257h-56v530h56zM360 257v-208h96q97 0 97 105q0 103 -99 103h-94z" />
    <glyph glyph-name="afii10108" unicode="&#x45b;" horiz-adv-x="422" 
d="M58 720h56v-65h130v-49h-130v-132q19 32 50 50.5t65 18.5q38 0 64.5 -10.5t40 -24t21 -38t8.5 -41.5t1 -45v-384h-56v373q0 28 -2.5 46t-10 37t-25 28.5t-44.5 9.5q-41 0 -76.5 -28t-35.5 -69v-397h-56v606h-52v49h52v65z" />
    <glyph glyph-name="afii10109" unicode="&#x45c;" horiz-adv-x="372" 
d="M114 530v-250l172 250h70l-144 -198l147 -332h-59l-128 276l-58 -82v-194h-56v530h56zM246 705h72l-124 -125h-49z" />
    <glyph glyph-name="afii10110" unicode="&#x45e;" horiz-adv-x="373" 
d="M15 530h59l109 -429h2l115 429h57l-167 -607q-30 -107 -118 -107q-32 0 -46 4v49q10 -2 31 -2q14 0 25 3t19 7t15 13.5t10.5 15.5t8 20.5t6.5 21t5.5 25t5.5 25.5zM93 690h31q6 -34 28.5 -52.5t54.5 -18.5q69 0 83 71h29q-5 -54 -36.5 -82t-80.5 -28q-46 0 -75 29.5
t-34 80.5z" />
    <glyph glyph-name="afii10193" unicode="&#x45f;" horiz-adv-x="418" 
d="M114 530v-481h190v481h56v-530h-125v-142h-52v142h-125v530h56z" />
    <glyph glyph-name="afii10050" unicode="&#x490;" horiz-adv-x="430" 
d="M128 665v-665h-62v720h269v92h62v-147h-269z" />
    <glyph glyph-name="afii10098" unicode="&#x491;" horiz-adv-x="315" 
d="M58 530h191v89h56v-138h-191v-481h-56v530z" />
    <glyph glyph-name="endash" unicode="&#x2013;" horiz-adv-x="480" 
d="M0 260h480v-49h-480v49z" />
    <glyph glyph-name="emdash" unicode="&#x2014;" horiz-adv-x="960" 
d="M0 260h960v-49h-960v49z" />
    <glyph glyph-name="quoteleft" unicode="&#x2018;" horiz-adv-x="154" 
d="M107 505h-67v84q0 29 2 48t8 39.5t20.5 31.5t36.5 12v-36q-30 -6 -30 -95h30v-84z" />
    <glyph glyph-name="quoteright" unicode="&#x2019;" horiz-adv-x="154" 
d="M47 720h67v-84q0 -29 -2 -48t-8 -39.5t-20.5 -31.5t-36.5 -12v36q30 6 30 95h-30v84z" />
    <glyph glyph-name="quotesinglbase" unicode="&#x201a;" horiz-adv-x="214" 
d="M74 84h67v-84q0 -29 -2 -48t-8 -39.5t-20.5 -31.5t-36.5 -12v36q30 6 30 95h-30v84z" />
    <glyph glyph-name="quotedblleft" unicode="&#x201c;" horiz-adv-x="320" 
d="M148 505h-67v84q0 29 2 48t8 39.5t20.5 31.5t36.5 12v-36q-30 -6 -30 -95h30v-84zM273 505h-67v84q0 29 2 48t8 39.5t20.5 31.5t36.5 12v-36q-30 -6 -30 -95h30v-84z" />
    <glyph glyph-name="quotedblright" unicode="&#x201d;" horiz-adv-x="320" 
d="M172 720h67v-84q0 -29 -2 -48t-8 -39.5t-20.5 -31.5t-36.5 -12v36q30 6 30 95h-30v84zM47 720h67v-84q0 -29 -2 -48t-8 -39.5t-20.5 -31.5t-36.5 -12v36q30 6 30 95h-30v84z" />
    <glyph glyph-name="quotedblbase" unicode="&#x201e;" horiz-adv-x="316" 
d="M187 84h67v-84q0 -29 -2 -48t-8 -39.5t-20.5 -31.5t-36.5 -12v36q30 6 30 95h-30v84zM62 84h67v-84q0 -29 -2 -48t-8 -39.5t-20.5 -31.5t-36.5 -12v36q30 6 30 95h-30v84z" />
    <glyph glyph-name="dagger" unicode="&#x2020;" 
d="M242 517h153v-48h-153v-581h-56v581h-155v48h155v221h56v-221z" />
    <glyph glyph-name="daggerdbl" unicode="&#x2021;" 
d="M311 356v-40h-133q11 -38 11 -79q0 -119 -71 -183q54 9 67 9q29 0 67 -12.5t64 -12.5q36 0 74 24l21 -45q-38 -31 -101 -31q-18 0 -77 16.5t-79 16.5q-44 0 -98 -39l-32 36q56 48 82.5 93.5t26.5 111.5q0 51 -15 95h-100v40h85q-49 107 -49 193q0 67 46 113t113 46
q94 0 137.5 -57.5t43.5 -150.5h-58q0 38 -9.5 71t-36.5 59t-69 26q-53 0 -81 -33t-28 -87q0 -18 3 -36t9.5 -39.5t11 -33.5t15 -38t13.5 -33h147z" />
    <glyph glyph-name="bullet" unicode="&#x2022;" horiz-adv-x="408" 
d="M330 252q0 -51 -37.5 -88t-89.5 -37q-51 0 -88 37t-37 88q0 52 37 89.5t88 37.5q53 0 90 -37.5t37 -89.5z" />
    <glyph glyph-name="ellipsis" unicode="&#x2026;" horiz-adv-x="960" 
d="M127 84h67v-84h-67v84zM447 84h67v-84h-67v84zM767 84h67v-84h-67v84z" />
    <glyph glyph-name="perthousand" unicode="&#x2030;" horiz-adv-x="960" 
d="M158 -15l292 726h42l-292 -726h-42zM492 343q126 0 126 -167q0 -82 -28 -129t-100 -47q-73 0 -99.5 44t-26.5 126q0 173 128 173zM492 301q-74 0 -74 -130q0 -65 13.5 -97t58.5 -32q46 0 60 32t14 97q0 25 -2 43t-8.5 40.5t-22 34.5t-39.5 12zM802 343q126 0 126 -167
q0 -82 -28 -129t-100 -47q-73 0 -99.5 44t-26.5 126q0 173 128 173zM802 301q-74 0 -74 -130q0 -65 13.5 -97t58.5 -32q46 0 60 32t14 97q0 25 -2 43t-8.5 40.5t-22 34.5t-39.5 12zM161 698q126 0 126 -167q0 -82 -28 -129t-100 -47q-73 0 -99.5 44t-26.5 126q0 173 128 173
zM161 656q-74 0 -74 -130q0 -65 13.5 -97t58.5 -32q46 0 60 32t14 97q0 25 -2 43t-8.5 40.5t-22 34.5t-39.5 12z" />
    <glyph glyph-name="guilsinglleft" unicode="&#x2039;" horiz-adv-x="320" 
d="M222 395v-57l-97 -78l97 -76v-59l-135 101v68z" />
    <glyph glyph-name="guilsinglright" unicode="&#x203a;" horiz-adv-x="320" 
d="M98 395l135 -101v-68l-135 -101v59l97 76l-97 78v57z" />
    <glyph glyph-name="afii61352" unicode="&#x2116;" horiz-adv-x="767" 
d="M638 516q34 0 57 -14t33.5 -40t14.5 -51t4 -58q0 -35 -4 -60.5t-14.5 -51.5t-33.5 -39.5t-57 -13.5q-35 0 -58 13.5t-33.5 40t-13.5 51t-3 60.5q0 34 3.5 58t13.5 50.5t33 40.5t58 14zM638 486q-69 0 -69 -134q0 -28 2 -48t8.5 -41.5t21.5 -33t37 -11.5q23 0 38 11.5
t21.5 34t8.5 42t2 47.5q0 133 -70 133zM546 128h184v-30h-184v30zM66 720h77l265 -618h2v618h62v-720h-75l-267 616h-2v-616h-62v720z" />
    <glyph glyph-name="trademark" unicode="&#x2122;" horiz-adv-x="694" 
d="M324 720h84l72 -286h2l75 286h83v-405h-49v356h-1l-91 -356h-35l-90 356h-1v-356h-49v405zM55 720h226v-49h-89v-356h-49v356h-88v49z" />
    <glyph glyph-name="hyphenminus" horiz-adv-x="289" 
d="M269 258h-249v56h249v-56z" />
    <glyph glyph-name="nbspace" horiz-adv-x="213" 
 />
    </font>
</defs>
</svg>
