<?xml version="1.0" standalone="no"?>
<!DOCTYPE svg PUBLIC "-//W3C//DTD SVG 1.1//EN" "http://www.w3.org/Graphics/SVG/1.1/DTD/svg11.dtd" >
<svg xmlns="http://www.w3.org/2000/svg" xmlns:xlink="http://www.w3.org/1999/xlink" version="1.1">
<metadata>
Created by FontForge 20170731 at Tue Jul 19 20:50:08 2005
 By Aleksey,,,
Copyright (c) ParaType, Inc., 2005. All rights reserved.
</metadata>
<defs>
<font id="ReformaGroteskBold" horiz-adv-x="340" >
  <font-face 
    font-family="Reforma Grotesk Bold"
    font-weight="400"
    font-stretch="normal"
    units-per-em="1000"
    panose-1="4 5 7 4 3 11 2 2 2 2"
    ascent="800"
    descent="-200"
    x-height="512"
    cap-height="700"
    bbox="-318 -226 1000 928"
    underline-thickness="50"
    underline-position="-200"
    unicode-range="U+0020-F6E2"
  />
<missing-glyph horiz-adv-x="233" 
 />
    <glyph glyph-name="fi" unicode="fi" horiz-adv-x="409" 
d="M174 0h-128v422h-40v90h40v86q0 54 19 77q22 25 72 25h78v-94h-12q-16 0 -23 -9q-6 -7 -6 -35v-50h205v-512h-128v422h-77v-422zM379 572h-128v128h128v-128z" />
    <glyph glyph-name="fl" unicode="fl" horiz-adv-x="409" 
d="M174 0h-128v422h-40v90h40v86q0 54 19 77q22 25 72 25h78v-94h-12q-16 0 -23 -9q-6 -7 -6 -35v-50h77v188h128v-700h-128v422h-77v-422z" />
    <glyph glyph-name="afii10017.var.accented" unicode="&#x410;`" horiz-adv-x="384" 
d="M374 0h-143l-8 89h-62l-8 -89h-143l67 700h232zM165 187h54l-24 406h-4zM69 730l-18 48l244 109l37 -98z" />
    <glyph glyph-name="afii10022.var.accented" unicode="&#x415;`" horiz-adv-x="369" 
d="M35 0v700h313v-98h-175v-168h132v-98h-132v-238h191v-98h-329zM61 730l-18 48l244 109l37 -98z" />
    <glyph glyph-name="afii10026.var.accented" unicode="&#x418;`" horiz-adv-x="418" 
d="M383 0h-138v328l4 51l-76 -272v-107h-138v700h138v-322l-4 -57l76 270v109h138v-700zM86 730l-18 48l244 109l37 -98z" />
    <glyph glyph-name="afii10032.var.accented" unicode="&#x41e;`" horiz-adv-x="412" 
d="M380 546v-392q0 -40 -8.5 -69t-37.5 -54q-46 -41 -128 -41q-83 0 -128 41q-46 42 -46 123v392q0 81 46 123q45 41 128 41q82 0 128 -41q29 -25 37.5 -54t8.5 -69zM242 151v398q0 23 -4 35q-8 21 -32 21t-32 -21q-4 -12 -4 -35v-398q0 -23 4 -35q8 -21 32 -21t32 21
q4 12 4 35zM83 730l-18 48l244 109l37 -98z" />
    <glyph glyph-name="afii10037.var.accented" unicode="&#x423;`" horiz-adv-x="395" 
d="M29 0v98h23q35 0 53 14q21 16 28 52l13 67l-141 469h133l65 -224l55 224h132l-139 -569q-1 -5 -4 -18t-4.5 -18.5t-5 -16t-6.5 -16t-8 -14t-12 -14.5t-15 -12q-15 -11 -34.5 -16t-31 -5.5t-39.5 -0.5h-62zM74 730l-18 48l244 109l37 -98z" />
    <glyph glyph-name="afii10045.var.accented" unicode="&#x42b;`" horiz-adv-x="597" 
d="M173 700v-291h72q86 0 121 -54q17 -27 17 -81v-146q0 -53 -21 -83q-32 -45 -84 -45h-243v700h138zM173 98h35q25 0 33 21q4 10 4 45v81q0 30 -8 45q-12 21 -37 21h-27v-213zM424 0v700h138v-700h-138zM175 730l-18 48l244 109l37 -98z" />
    <glyph glyph-name="afii10047.var.accented" unicode="&#x42d;`" horiz-adv-x="405" 
d="M25 498v48q0 40 8.5 69t37.5 54q46 41 128 41q83 0 128 -41q46 -42 46 -123v-392q0 -81 -46 -123q-45 -41 -128 -41q-82 0 -128 41q-29 25 -37.5 54t-8.5 69v95h138v-98q0 -23 4 -35q8 -21 32 -21t32 21q4 12 4 35v173h-136v98h136v127q0 23 -4 35q-8 21 -32 21t-32 -21
q-4 -12 -4 -35v-51h-138zM79 730l-18 48l244 109l37 -98z" />
    <glyph glyph-name="afii10048.var.accented" unicode="&#x42e;`" horiz-adv-x="614" 
d="M582 546v-392q0 -40 -8.5 -69t-37.5 -54q-46 -41 -128 -41q-83 0 -128 41q-46 42 -46 123v179h-61v-333h-138v700h138v-269h61v115q0 81 46 123q45 41 128 41q82 0 128 -41q29 -25 37.5 -54t8.5 -69zM444 151v398q0 23 -4 35q-8 21 -32 21t-32 -21q-4 -12 -4 -35v-398
q0 -23 4 -35q8 -21 32 -21t32 21q4 12 4 35zM184 730l-18 48l244 109l37 -98z" />
    <glyph glyph-name="afii10049.var.accented" unicode="&#x42f;`" horiz-adv-x="416" 
d="M5 0v7q22 6 28.5 24t6.5 68v150q0 66 35 89q20 13 48 21v6q-36 8 -57 19q-34 19 -34 64v139q0 44 19 70q31 43 98 43h232v-700h-138v306h-19q-25 0 -36 -12q-10 -11 -10 -47v-164q0 -52 -19 -83h-154zM243 411v191h-37q-22 0 -31 -16q-5 -9 -5 -35v-90q0 -25 13 -40
q10 -10 31 -10h29zM85 730l-18 48l244 109l37 -98z" />
    <glyph glyph-name="afii10065.var.accented" unicode="&#x430;`" horiz-adv-x="356" 
d="M331 0h-108l-14 38q-14 -21 -31 -33q-22 -15 -58 -15q-56 0 -83 37q-22 30 -22 87v24q0 79 58 124q38 30 130 60v69q0 20 -4 28q-6 13 -23 13t-23 -13q-4 -8 -4 -28v-46h-124v50q0 56 28 86q39 41 123 41q83 0 123 -41q32 -33 32 -92v-389zM203 127v121q-34 -12 -49 -40
q-11 -19 -11 -55v-30q0 -25 5 -37q9 -16 25 -16q17 0 25 15q5 10 5 42zM105 546l-35 47l148 148l68 -80z" />
    <glyph glyph-name="afii10070.var.accented" unicode="&#x435;`" horiz-adv-x="360" 
d="M335 160v-43q0 -48 -32 -85q-39 -42 -123 -42q-75 0 -114 40q-41 42 -41 118v210q0 81 35 119q42 45 119 45q76 0 119 -45q18 -18 26.5 -41.5t9.5 -36.5t1 -41v-130h-182v-114q0 -10 7 -21q7 -9 22 -9q17 0 23 9q6 8 6 24v43h124zM207 308v83q0 16 -5 26q-7 11 -23 11
q-14 0 -21 -11q-5 -8 -5 -27v-82h54zM107 546l-35 47l148 148l68 -80z" />
    <glyph glyph-name="afii10074.var.accented" unicode="&#x438;`" horiz-adv-x="370" 
d="M340 0h-128v163l3 57l-57 -101v-119h-128v512h128v-152l-3 -48l57 94v106h128v-512zM112 546l-35 47l148 148l68 -80z" />
    <glyph glyph-name="afii10080.var.accented" unicode="&#x43e;`" horiz-adv-x="360" 
d="M153 390v-268q0 -20 5 -27q7 -11 22 -11t22 11q5 7 5 27v268q0 20 -5 27q-7 11 -22 11t-22 -11q-5 -7 -5 -27zM335 375v-238q0 -70 -34 -105q-40 -42 -121 -42t-121 42q-34 35 -34 105v238q0 70 34 105q40 42 121 42t121 -42q34 -35 34 -105zM107 546l-35 47l148 148
l68 -80z" />
    <glyph glyph-name="afii10085.var.accented" unicode="&#x443;`" horiz-adv-x="348" 
d="M19 -148v90h52q36 0 49 24q11 20 2 55l-118 491h128l44 -270h4l36 270h128l-103 -538q-10 -55 -43 -87q-17 -16 -35.5 -24t-32.5 -9.5t-39 -1.5h-72zM101 546l-35 47l148 148l68 -80z" />
    <glyph glyph-name="afii10093.var.accented" unicode="&#x44b;`" horiz-adv-x="534" 
d="M504 0h-128v512h128v-512zM30 0v512h128v-163h71q57 0 88 -29q14 -13 21 -32t7.5 -31.5t0.5 -38.5v-109q0 -37 -9 -55.5t-28 -31.5q-7 -5 -13.5 -8.5t-11.5 -5.5t-12 -4t-11 -2.5t-11.5 -1t-10.5 -0.5h-11h-10h-188zM158 90h24q20 0 29 13q7 9 7 40v62q0 31 -5 38
q-7 16 -29 16h-26v-169zM194 546l-35 47l148 148l68 -80z" />
    <glyph glyph-name="afii10095.var.accented" unicode="&#x44d;`" horiz-adv-x="355" 
d="M330 383v-252q0 -26 -2 -43t-14 -39t-35 -36q-35 -23 -104 -23q-67 0 -104 26q-51 35 -51 107v62h124v-59q0 -15 5 -30q7 -12 24 -12q16 0 23 11q6 10 6 32v108h-119v84h119v71q0 20 -5 27q-8 11 -24 11q-17 0 -24 -11q-5 -7 -5 -27v-23h-120v28q0 68 54 102q38 25 98 25
q63 0 102 -26q52 -34 52 -113zM104 546l-35 47l148 148l68 -80z" />
    <glyph glyph-name="afii10096.var.accented" unicode="&#x44e;`" horiz-adv-x="540" 
d="M515 385v-258q0 -21 -1 -32.5t-9 -30.5t-24 -34q-42 -40 -118 -40t-118 40q-16 15 -24 34t-9 30.5t-1 32.5v104h-65v-231h-116v500h116v-179h65v64q0 21 1 32.5t9 30.5t24 34q42 40 118 40t118 -40q16 -15 24 -34t9 -30.5t1 -32.5zM327 383v-254q0 -19 5 -29
q9 -16 31 -16t31 16q5 10 5 29v254q0 19 -5 29q-9 16 -31 16t-31 -16q-5 -10 -5 -29zM197 546l-35 47l148 148l68 -80z" />
    <glyph glyph-name="afii10097.var.accented" unicode="&#x44f;`" horiz-adv-x="366" 
d="M336 0h-128v201h-17q-14 0 -21.5 -9t-8 -16.5t-0.5 -20.5v-99q0 -39 -22 -56h-131v2q14 18 18 27q7 14 7 51v85q0 40 19 61q16 17 39 25q-33 12 -47 27q-22 22 -22 67v60q0 52 40 82q33 25 86 25h188v-512zM208 291v131h-19q-20 0 -29 -8q-10 -10 -10 -32v-31
q0 -23 5 -35q10 -25 30 -25h23zM110 546l-35 47l148 148l68 -80z" />
    <glyph glyph-name=".notdef" horiz-adv-x="233" 
 />
    <glyph glyph-name=".notdef" horiz-adv-x="233" 
 />
    <glyph glyph-name=".null" horiz-adv-x="0" 
 />
    <glyph glyph-name="nonmarkingreturn" horiz-adv-x="333" 
 />
    <glyph glyph-name="space" unicode=" " horiz-adv-x="233" 
 />
    <glyph glyph-name="space" unicode="&#xa0;" horiz-adv-x="233" 
 />
    <glyph glyph-name="exclam" unicode="!" horiz-adv-x="232" 
d="M150 193h-68l-52 507h172zM47 0v148h138v-148h-138z" />
    <glyph glyph-name="quotedbl" unicode="&#x22;" horiz-adv-x="358" 
d="M123 462h-67l-26 126v112h119v-112zM302 462h-67l-26 126v112h119v-112z" />
    <glyph glyph-name="numbersign" unicode="#" horiz-adv-x="612" 
d="M347 0h-98l66 222h-104l-67 -222h-97l65 223h-107l28 89h105l36 120h-106l28 92h106l54 176h97l-53 -176h104l54 176h99l-55 -176h105l-28 -92h-105l-36 -120h107l-25 -89h-108zM340 312l37 120h-105l-37 -120h105z" />
    <glyph glyph-name="dollar" unicode="$" horiz-adv-x="398" 
d="M25 222h138v-52q0 -45 6 -59q9 -23 32 -23q14 0 20.5 4.5t9.5 17.5q4 17 4 46v27q0 35 -9.5 55t-31.5 41l-95 91q-30 29 -50 70q-20 42 -20 103v27q0 58 41 99q31 31 76 38v67h110v-67q45 -11 73 -38q44 -42 44 -121v-58h-134v42q0 55 -7 66q-8 14 -28 14q-17 0 -27 -13
q-10 -12 -10 -40v-16q0 -46 42 -86l80 -77q43 -41 55 -60q29 -45 29 -123v-40q0 -27 -1 -41.5t-11.5 -40.5t-30.5 -45q-30 -29 -74 -33v-73h-110v73q-29 6 -57 25q-23 16 -37 35t-19.5 41t-6.5 35t-1 35v54z" />
    <glyph glyph-name="percent" unicode="%" horiz-adv-x="703" 
d="M281 562v-66v-6q0 -64 -26 -93q-35 -39 -104 -39t-104 39q-13 15 -19.5 34.5t-7 29.5t-0.5 35v66q0 25 0.5 35t7 29.5t19.5 34.5q35 39 104 39t104 -39q13 -14 19 -34t6.5 -30t0.5 -35zM121 587v-116q0 -20 5 -28q7 -12 25 -12q15 0 24 12q6 9 6 28v116q0 19 -6 28
q-9 12 -24 12q-18 0 -25 -12q-5 -8 -5 -28zM245 0h-89l300 700h90zM683 205v-66q0 -25 -0.5 -35t-7 -29.5t-19.5 -34.5q-35 -39 -104 -39t-104 39q-13 14 -19 34t-6.5 30t-0.5 35v66v6q0 64 26 93q35 39 104 39t104 -39q13 -15 19.5 -34.5t7 -29.5t0.5 -35zM522 230v-116
q0 -19 6 -28q9 -12 24 -12q18 0 25 12q5 8 5 28v116q0 20 -5 28q-7 12 -25 12q-15 0 -24 -12q-6 -9 -6 -28z" />
    <glyph glyph-name="ampersand" unicode="&#x26;" horiz-adv-x="512" 
d="M507 0h-145l-17 28q-22 -28 -84 -28h-78q-29 0 -42.5 1t-39.5 10.5t-43 28.5q-33 36 -33 108v60q0 36 8.5 62.5t34.5 57.5l43 51l-36 58q-39 64 -39 123v24q0 61 45 94q42 32 132 32q87 0 128 -35q42 -35 42 -93v-32q0 -75 -41 -128l-52 -66l52 -89v84h129v-120
q0 -70 -30 -115zM277 129l-88 137l-15 -19q-11 -13 -11 -56v-33q0 -27 13.5 -43.5t37.5 -16.5h20q31 0 43 31zM212 462l13 20q20 30 20 61v28q0 22 -9 32q-8 9 -23 9q-20 0 -29 -9q-10 -9 -10 -30v-23q0 -17 15 -47z" />
    <glyph glyph-name="quotesingle" unicode="'" horiz-adv-x="179" 
d="M123 462h-67l-26 126v112h119v-112z" />
    <glyph glyph-name="parenleft" unicode="(" horiz-adv-x="247" 
d="M237 -85v-75q-102 -8 -159 59q-46 53 -46 144v463q0 90 46 144q57 68 159 60v-75q-46 -1 -67 -33q-15 -22 -15 -104v-436q0 -91 15 -114q21 -32 67 -33z" />
    <glyph glyph-name="parenright" unicode=")" horiz-adv-x="247" 
d="M10 -160v75q46 1 67 33q15 23 15 114v436q0 82 -15 104q-21 32 -67 33v75q102 8 159 -60q46 -54 46 -144v-463q0 -91 -46 -144q-57 -67 -159 -59z" />
    <glyph glyph-name="asterisk" unicode="*" horiz-adv-x="336" 
d="M205 700l-17 -98l94 48l24 -72l-105 -12l77 -69l-65 -43l-45 89l-46 -89l-64 44l77 68l-105 13l25 71l93 -48l-20 98h77z" />
    <glyph glyph-name="plus" unicode="+" horiz-adv-x="572" 
d="M248 106v208h-208v76h208v208h76v-208h208v-76h-208v-208h-76z" />
    <glyph glyph-name="comma" unicode="," horiz-adv-x="216" 
d="M99 -132h-83l88 132h-66v148h148v-148z" />
    <glyph glyph-name="hyphen" unicode="-" horiz-adv-x="248" 
d="M10 215v83h228v-83h-228z" />
    <glyph glyph-name="period" unicode="." horiz-adv-x="198" 
d="M30 0v148h138v-148h-138z" />
    <glyph glyph-name="slash" unicode="/" horiz-adv-x="470" 
d="M112 -160h-107l353 860h107z" />
    <glyph glyph-name="zero" unicode="0" horiz-adv-x="420" 
d="M388 527v-369q0 -95 -60 -138q-40 -30 -118 -30t-118 30q-60 43 -60 138v369q0 94 48 139q47 44 130 44t130 -44q48 -45 48 -139zM170 547v-397q0 -30 9 -46q10 -16 31 -16t31 16q9 16 9 46v397q0 35 -6 45q-9 20 -34 20t-34 -20q-6 -10 -6 -45z" />
    <glyph glyph-name="one" unicode="1" horiz-adv-x="295" 
d="M260 0h-138v446q-25 -34 -72 -52l-47 70q60 54 93 110q32 53 49 126h115v-700z" />
    <glyph glyph-name="two" unicode="2" horiz-adv-x="406" 
d="M372 0h-352q-8 105 43 193q30 51 75 98q55 60 58 64q47 65 47 120v48q0 44 -6 58q-9 21 -35 21q-21 0 -31 -21q-8 -16 -8 -60v-72h-138v63q0 71 18 108q17 33 57 56.5t102 23.5q113 0 155 -74q24 -40 24 -103v-34q0 -75 -14 -115q-17 -49 -64 -100q-22 -23 -57 -53
l-42 -39q-37 -38 -37 -84h205v-98z" />
    <glyph glyph-name="three" unicode="3" horiz-adv-x="408" 
d="M20 230h138v-58q0 -44 7 -61q9 -23 35 -23q27 0 35 22q5 12 5 54v95q0 39 -10 52q-15 18 -51 18h-30v98h33q53 0 53 56v68q0 33 -6 45q-8 16 -30 16q-20 0 -29 -15q-7 -13 -7 -43v-49h-138v45q0 63 27 100q44 60 148 60q103 0 146 -55q27 -35 27 -90v-55q0 -43 -4 -65
t-20 -42q-14 -18 -34 -28q39 -16 53 -69q10 -38 10 -90v-57q0 -68 -22 -103q-40 -66 -157 -66q-111 0 -152 62q-27 41 -27 99v79z" />
    <glyph glyph-name="four" unicode="4" horiz-adv-x="407" 
d="M337 0h-138v128h-189v93l204 479h123v-478h55v-94h-55v-128zM199 222v238l-92 -238h92z" />
    <glyph glyph-name="five" unicode="5" horiz-adv-x="406" 
d="M25 203h138v-53q0 -28 8 -43q10 -19 32 -19q24 0 33 16q7 13 7 45v155q0 31 -8 46q-10 17 -32 17q-21 0 -31 -18q-7 -14 -7 -35v-20h-119v406h311v-94h-192v-191q12 17 33 30q28 16 64 16q52 0 84 -34q35 -38 35 -143v-122q0 -65 -19 -100q-40 -72 -155 -72
q-114 0 -157 75q-25 43 -25 107v31z" />
    <glyph glyph-name="six" unicode="6" horiz-adv-x="418" 
d="M388 251v-89q0 -65 -19 -100q-39 -72 -158 -72q-110 0 -153 75q-18 31 -22 62t-4 92v290q0 106 36 147q47 54 142 54q93 0 138 -51q34 -38 34 -117v-47h-138v51q0 37 -6 49q-8 17 -31 17q-21 0 -30 -17q-7 -14 -7 -49v-166q15 17 30 25q29 16 66 16q55 0 87 -34
q35 -38 35 -136zM170 245v-95q0 -28 6 -43q8 -19 34 -19q23 0 32 16q8 15 8 46v99q0 30 -8 46q-10 17 -32 17q-21 0 -32 -16q-8 -13 -8 -51z" />
    <glyph glyph-name="seven" unicode="7" horiz-adv-x="329" 
d="M199 0h-138q-3 122 19 238q28 145 76 256q19 45 55 108h-196v98h304v-102q-27 -52 -43 -99q-45 -125 -66 -308q-12 -96 -11 -191z" />
    <glyph glyph-name="eight" unicode="8" horiz-adv-x="406" 
d="M381 252v-99q0 -57 -31 -104q-23 -34 -58 -46.5t-87 -12.5q-56 0 -91 12.5t-58 46.5q-31 46 -31 104v99q0 44 15 76t46 52q-14 12 -27 27q-27 34 -27 82v66q0 83 50 121q45 34 121 34t121 -34q50 -38 50 -121v-66q0 -48 -27 -82q-13 -15 -27 -27q31 -20 46 -52t15 -76z
M163 244v-93q0 -32 9 -46q10 -17 31 -17t31 17q9 14 9 46v93q0 40 -8 61q-10 22 -32 27q-22 -5 -32 -27q-8 -21 -8 -61zM167 563v-81q0 -20 7 -35q8 -17 29 -17t29 17q7 15 7 35v81q0 22 -6 34q-7 15 -30 15q-19 0 -29 -15q-7 -11 -7 -34z" />
    <glyph glyph-name="nine" unicode="9" horiz-adv-x="413" 
d="M381 525v-348q0 -80 -21 -116q-41 -71 -152 -71q-113 0 -154 63q-25 39 -25 99v47h138v-63q0 -25 8 -35q9 -13 30 -13q22 0 31 13q7 10 7 35v162q-35 -38 -101 -38q-46 0 -78 28q-24 21 -31.5 49.5t-7.5 76.5v133q0 83 45 123q44 40 132 40q85 0 130 -37q31 -26 40 -60.5
t9 -87.5zM243 422v142q0 24 -7 34q-10 14 -33 14q-21 0 -32 -14q-8 -11 -8 -34v-142q0 -24 8 -34q10 -15 32 -15q23 0 33 17q7 13 7 32z" />
    <glyph glyph-name="colon" unicode=":" horiz-adv-x="198" 
d="M30 0v148h138v-148h-138zM30 364v148h138v-148h-138z" />
    <glyph glyph-name="semicolon" unicode=";" horiz-adv-x="206" 
d="M38 364v148h138v-148h-138zM89 -132h-73l88 132h-66v148h138v-148z" />
    <glyph glyph-name="semicolon" unicode="&#x37e;" horiz-adv-x="206" 
d="M38 364v148h138v-148h-138zM89 -132h-73l88 132h-66v148h138v-148z" />
    <glyph glyph-name="less" unicode="&#x3c;" horiz-adv-x="420" 
d="M380 212v-76l-340 179v60l340 179v-76l-257 -133z" />
    <glyph glyph-name="equal" unicode="=" horiz-adv-x="572" 
d="M40 381v76h492v-76h-492zM40 234v76h492v-76h-492z" />
    <glyph glyph-name="greater" unicode="&#x3e;" horiz-adv-x="420" 
d="M40 212v-76l340 179v60l-340 179v-76l257 -133z" />
    <glyph glyph-name="question" unicode="?" horiz-adv-x="380" 
d="M237 193h-123v68q0 10 1.5 20t2.5 17.5t5 17t6 14t7.5 14t7.5 12t9 12.5t8 12l50 72q16 24 16 70v49q0 21 -5 31q-8 16 -31 16q-21 0 -31 -16q-7 -12 -7 -44v-71h-138v66q0 72 38 112q43 45 140 45q100 0 142 -51q30 -37 30 -102v-45q0 -54 -22 -89q-8 -13 -25.5 -32.5
t-29.5 -35.5q-51 -68 -51 -118v-44zM107 0v148h137v-148h-137z" />
    <glyph glyph-name="at" unicode="@" horiz-adv-x="625" 
d="M593 0h-403q-61 0 -106 30q-52 35 -52 100v423q0 72 47 109q49 38 121 38h255q62 0 102 -40q36 -36 36 -97v-311q0 -49 -25 -84q-28 -38 -86 -38h-69q-48 0 -58 40q-6 -19 -23 -32q-22 -18 -57 -18q-52 0 -73 36q-13 22 -13 67v259q0 37 16 63q22 34 72 34q21 0 47 -18
q17 -12 28 -31v41h94v-357q0 -22 28 -22q12 0 22.5 9.5t10.5 29.5v318q0 50 -28 70q-21 16 -72 16h-188q-63 0 -87 -39q-14 -21 -14 -77v-362q0 -49 31 -71q30 -21 76 -21h368v-65zM282 467v-223q0 -20 4 -31q6 -18 26 -18q22 0 31 20q7 15 7 42v186q0 32 -6 42
q-9 16 -29 16q-15 0 -23 -7q-10 -9 -10 -27z" />
    <glyph glyph-name="A" unicode="A" horiz-adv-x="384" 
d="M374 0h-143l-8 89h-62l-8 -89h-143l67 700h232zM165 187h54l-24 406h-4z" />
    <glyph glyph-name="B" unicode="B" horiz-adv-x="406" 
d="M30 0v700h246q54 0 83 -37q23 -31 23 -85v-87q0 -48 -15 -72t-45 -33q30 -7 47 -31q17 -25 17 -76v-156q0 -48 -21 -77q-33 -46 -105 -46h-230zM168 98h43q25 0 33 21q4 12 4 53v93q0 30 -8 45q-12 21 -37 21h-35v-233zM168 429h37q20 0 31 18q8 14 8 43v66q0 23 -9 34
q-11 12 -31 12h-36v-173z" />
    <glyph glyph-name="C" unicode="C" horiz-adv-x="405" 
d="M380 479h-138v70q0 23 -4 35q-8 21 -32 21t-32 -21q-4 -12 -4 -35v-398q0 -23 4 -35q8 -21 32 -21t32 21q4 12 4 35v110h138v-107q0 -40 -8.5 -69t-37.5 -54q-46 -41 -128 -41q-83 0 -128 41q-46 42 -46 123v392q0 81 46 123q45 41 128 41q82 0 128 -41q29 -25 37.5 -54
t8.5 -69v-67z" />
    <glyph glyph-name="D" unicode="D" horiz-adv-x="415" 
d="M35 0v700h218q55 0 91 -34q39 -39 39 -124v-374q0 -77 -42 -124q-41 -44 -115 -44h-191zM173 95h28q11 0 20 6.5t12.5 11.5t4.5 8q7 16 7 46v372q0 35 -7 46q-10 17 -32 17h-33v-507z" />
    <glyph glyph-name="E" unicode="E" horiz-adv-x="369" 
d="M35 0v700h313v-98h-175v-168h132v-98h-132v-238h191v-98h-329z" />
    <glyph glyph-name="F" unicode="F" horiz-adv-x="339" 
d="M173 0h-138v700h301v-98h-163v-178h129v-98h-129v-326z" />
    <glyph glyph-name="G" unicode="G" horiz-adv-x="412" 
d="M380 479h-138v70q0 23 -4 35q-8 21 -32 21t-32 -21q-4 -12 -4 -35v-398q0 -23 4 -35q8 -21 32 -21t32 21q4 12 4 35v94h-40v94h178v-185q0 -40 -8.5 -69t-37.5 -54q-46 -41 -128 -41q-83 0 -128 41q-46 42 -46 123v392q0 81 46 123q45 41 128 41q82 0 128 -41
q29 -25 37.5 -54t8.5 -69v-67z" />
    <glyph glyph-name="H" unicode="H" horiz-adv-x="418" 
d="M245 336h-72v-336h-138v700h138v-269h72v269h138v-700h-138v336z" />
    <glyph glyph-name="I" unicode="I" horiz-adv-x="208" 
d="M35 0v700h138v-700h-138z" />
    <glyph glyph-name="J" unicode="J" horiz-adv-x="285" 
d="M5 0v98h56q37 0 45 11q6 9 6 33v558h138v-567q0 -54 -21 -84q-35 -49 -117 -49h-107z" />
    <glyph glyph-name="K" unicode="K" horiz-adv-x="403" 
d="M173 0h-138v700h138v-297h5l75 297h136l-92 -331l96 -369h-140l-75 338h-5v-338z" />
    <glyph glyph-name="L" unicode="L" horiz-adv-x="364" 
d="M359 0h-324v700h138v-602h186v-98z" />
    <glyph glyph-name="M" unicode="M" horiz-adv-x="564" 
d="M321 0h-78l-72 347h-4l6 -93v-254h-138v700h170l75 -401h4l75 401h170v-700h-138v254l6 93h-4z" />
    <glyph glyph-name="N" unicode="N" horiz-adv-x="414" 
d="M379 0h-122l-98 363h-3l7 -80v-283h-128v700h122l98 -375h4l-8 74v301h128v-700z" />
    <glyph glyph-name="O" unicode="O" horiz-adv-x="412" 
d="M380 546v-392q0 -40 -8.5 -69t-37.5 -54q-46 -41 -128 -41q-83 0 -128 41q-46 42 -46 123v392q0 81 46 123q45 41 128 41q82 0 128 -41q29 -25 37.5 -54t8.5 -69zM242 151v398q0 23 -4 35q-8 21 -32 21t-32 -21q-4 -12 -4 -35v-398q0 -23 4 -35q8 -21 32 -21t32 21
q4 12 4 35z" />
    <glyph glyph-name="P" unicode="P" horiz-adv-x="398" 
d="M173 0h-138v700h209q75 0 112 -42q27 -31 27 -111v-105q0 -84 -28 -116q-32 -35 -117 -37q-39 -2 -65 5v-294zM173 392h34q24 0 33 20q5 12 5 49v79q0 34 -8 47q-9 15 -28 15h-36v-210z" />
    <glyph glyph-name="Q" unicode="Q" horiz-adv-x="412" 
d="M260 -5v-10q0 -17 4 -24q5 -7 24 -7h75v-94h-116h-13.5h-15t-12.5 1.5t-14 4t-11 7.5t-11 12q-11 16 -11 65v44q-50 8 -81 37q-46 42 -46 123v392q0 81 46 123q45 41 128 41q82 0 128 -41q29 -25 37.5 -54t8.5 -69v-392q0 -40 -9 -69t-37 -54q-28 -24 -74 -36zM242 151
v398q0 23 -4 35q-8 21 -32 21t-32 -21q-4 -12 -4 -35v-398q0 -23 4 -35q8 -21 32 -21t32 21q4 12 4 35z" />
    <glyph glyph-name="R" unicode="R" horiz-adv-x="422" 
d="M412 0h-154q-19 30 -19 83v167q0 35 -10 45q-11 11 -36 11h-19v-306h-139l1 700h232q65 0 98 -44q19 -26 19 -69v-142q0 -42 -34 -61q-21 -11 -57 -19v-6q28 -8 48 -21q17 -12 25.5 -31.5t9 -28t0.5 -29.5v-150q0 -50 6.5 -68t28.5 -24v-7zM174 411h29q21 0 31 10
q13 13 13 45v81q0 22 -6 37q-9 18 -34 18h-33v-191z" />
    <glyph glyph-name="S" unicode="S" horiz-adv-x="388" 
d="M20 222h138v-52q0 -45 6 -59q10 -23 33 -23q22 0 29 21q4 11 4 47v27q0 35 -9.5 55t-31.5 41l-95 91q-31 29 -48 62q-22 43 -22 111v27q0 58 41 99q42 41 131 41q85 0 128 -41q21 -19 31 -44.5t11.5 -42.5t1.5 -49v-43h-134v42q0 55 -7 66q-8 14 -28 14q-17 0 -27 -13
q-10 -12 -10 -40v-16q0 -46 42 -86l80 -77q43 -41 55 -60q29 -45 29 -123v-40q0 -28 -1 -42.5t-11.5 -39.5t-30.5 -45q-41 -40 -120 -40q-70 0 -119 32q-40 26 -53 62t-13 84v54z" />
    <glyph glyph-name="T" unicode="T" horiz-adv-x="320" 
d="M229 0h-138v602h-86v98h310v-98h-86v-602z" />
    <glyph glyph-name="U" unicode="U" horiz-adv-x="414" 
d="M381 700v-546q0 -89 -55 -131q-44 -33 -119 -33t-118 33q-56 42 -56 132v545h138v-550q0 -26 6 -44q8 -18 30 -18t30 18q6 18 6 44v550h138z" />
    <glyph glyph-name="V" unicode="V" horiz-adv-x="400" 
d="M290 0h-179l-107 700h142l54 -454l54 454h142z" />
    <glyph glyph-name="W" unicode="W" horiz-adv-x="562" 
d="M486 0h-167l-38 345l-38 -345h-167l-66 700h138l30 -412v-40h7l5 55l60 397h62l60 -397l5 -55h7v40l30 412h138z" />
    <glyph glyph-name="X" unicode="X" horiz-adv-x="416" 
d="M406 0h-145l-44 158l-7 41h-4l-7 -41l-44 -158h-145l128 377l-106 323h134l40 -145h4l40 145h134l-106 -322z" />
    <glyph glyph-name="Y" unicode="Y" horiz-adv-x="396" 
d="M267 0h-138v308l-119 392h138l50 -218l5 28l45 190h138l-119 -392v-308z" />
    <glyph glyph-name="Z" unicode="Z" horiz-adv-x="367" 
d="M347 0h-332v110l200 492h-165v98h297v-103l-200 -499h200v-98z" />
    <glyph glyph-name="bracketleft" unicode="[" horiz-adv-x="285" 
d="M275 -150h-240v850h240v-94h-117v-662h117v-94z" />
    <glyph glyph-name="backslash" unicode="\" horiz-adv-x="470" 
d="M358 -160l-353 860h107l353 -860h-107z" />
    <glyph glyph-name="bracketright" unicode="]" horiz-adv-x="285" 
d="M10 -150v94h117v662h-117v94h240v-850h-240z" />
    <glyph glyph-name="asciicircum" unicode="^" horiz-adv-x="474" 
d="M10 391v84l227 225l227 -225v-84l-227 184z" />
    <glyph glyph-name="underscore" unicode="_" horiz-adv-x="492" 
d="M0 315v76h492v-76h-492z" />
    <glyph glyph-name="grave" unicode="`" 
d="M243 546l-181 115l68 80l148 -148z" />
    <glyph glyph-name="a" unicode="a" horiz-adv-x="356" 
d="M331 0h-108l-14 38q-14 -21 -31 -33q-22 -15 -58 -15q-56 0 -83 37q-22 30 -22 87v24q0 79 58 124q38 30 130 60v69q0 20 -4 28q-6 13 -23 13t-23 -13q-4 -8 -4 -28v-46h-124v50q0 56 28 86q39 41 123 41q83 0 123 -41q32 -33 32 -92v-389zM203 127v121q-34 -12 -49 -40
q-11 -19 -11 -55v-30q0 -25 5 -37q9 -16 25 -16q17 0 25 15q5 10 5 42z" />
    <glyph glyph-name="b" unicode="b" horiz-adv-x="365" 
d="M158 700v-244q14 24 29 39q29 27 67 27q41 0 65 -31q21 -27 21 -79v-306q0 -65 -31 -94q-23 -22 -63 -22q-27 0 -50 18q-10 7 -23 25l-22 -33h-121v700h128zM158 360v-222q0 -37 9 -50q8 -11 19 -11q15 0 21 13q5 10 5 46v239q0 28 -3 43q-3 19 -21 19q-17 0 -25 -27
q-5 -22 -5 -50z" />
    <glyph glyph-name="c" unicode="c" horiz-adv-x="351" 
d="M331 196v-42q0 -73 -13 -99q-31 -65 -136 -65q-100 0 -137 64q-20 35 -20 106v207q0 67 25 101q39 54 128 54q91 0 128 -54q25 -35 25 -118v-35h-124v61q0 30 -6 41q-7 11 -21 11t-21 -11q-6 -11 -6 -41v-234q0 -34 6 -45q7 -13 23 -13t23 12q6 11 6 46v54h120z" />
    <glyph glyph-name="d" unicode="d" horiz-adv-x="365" 
d="M207 700h128v-700h-128v55q-8 -22 -24 -38q-27 -27 -64 -27q-40 0 -65 25q-14 14 -21 32.5t-7.5 30.5t-0.5 37v287q0 61 21 89q23 31 65 31q41 0 68 -28q11 -10 28 -38v244zM207 133v231q0 24 -5 46q-6 27 -25 27q-13 0 -19 -15q-5 -13 -5 -39v-245q0 -38 6 -48
q7 -13 20 -13t19 11q9 16 9 45z" />
    <glyph glyph-name="e" unicode="e" horiz-adv-x="360" 
d="M335 160v-43q0 -48 -32 -85q-39 -42 -123 -42q-75 0 -114 40q-41 42 -41 118v210q0 81 35 119q42 45 119 45q76 0 119 -45q18 -18 26.5 -41.5t9.5 -36.5t1 -41v-130h-182v-114q0 -10 7 -21q7 -9 22 -9q17 0 23 9q6 8 6 24v43h124zM207 308v83q0 16 -5 26q-7 11 -23 11
q-14 0 -21 -11q-5 -8 -5 -27v-82h54z" />
    <glyph glyph-name="f" unicode="f" horiz-adv-x="221" 
d="M174 0h-128v422h-40v90h40v86q0 54 19 77q22 25 72 25h78v-94h-12q-16 0 -23 -9q-6 -7 -6 -35v-50h40v-90h-40v-422z" />
    <glyph glyph-name="g" unicode="g" horiz-adv-x="365" 
d="M25 13h128v-13q0 -17 5 -25q8 -11 22 -11q15 0 22 11q5 9 5 25v114h-3q-9 -27 -27 -44q-23 -22 -63 -22q-47 0 -70 34q-19 27 -19 80v252q0 67 42 93q23 15 54 15q37 0 61 -26q20 -20 30 -57h3v70h120v-476q0 -74 -28 -106q-37 -43 -120 -43q-88 0 -129 43q-28 31 -33 86
zM153 376v-182q0 -27 4 -39q7 -15 23 -15q17 0 23 24q4 15 4 46v157q0 27 -7 43q-8 19 -24 19q-14 0 -19 -15q-4 -10 -4 -38z" />
    <glyph glyph-name="h" unicode="h" horiz-adv-x="365" 
d="M340 0h-128v385q0 31 -5 38q-6 11 -18 11q-16 0 -24 -18q-7 -14 -7 -39v-377h-128v700h128v-246q17 28 42 47q28 21 62 21t55 -23q23 -24 23 -98v-401z" />
    <glyph glyph-name="i" unicode="i" horiz-adv-x="188" 
d="M158 0h-128v512h128v-512zM158 572h-128v128h128v-128z" />
    <glyph glyph-name="j" unicode="j" horiz-adv-x="188" 
d="M-63 -148v90h61q32 0 32 37v533h128v-552q0 -56 -19 -79q-24 -29 -83 -29h-119zM158 572h-128v128h128v-128z" />
    <glyph glyph-name="k" unicode="k" horiz-adv-x="364" 
d="M359 0h-128l-71 234h-2v-234h-128v700h128v-382h3l68 194h128l-88 -244z" />
    <glyph glyph-name="l" unicode="l" horiz-adv-x="188" 
d="M158 0h-128v700h128v-700z" />
    <glyph glyph-name="m" unicode="m" horiz-adv-x="547" 
d="M522 0h-128v382q0 24 -3 36q-4 16 -19 16q-16 0 -25 -15q-7 -12 -7 -42v-377h-128v380q0 25 -2 35q-3 19 -20 19q-16 0 -23 -15q-9 -16 -9 -42v-377h-128v512h121v-54h3q7 23 26 39q28 25 64 25q40 0 66 -25q17 -16 24 -39q14 24 30 39q29 25 69 25q42 0 67 -25
q22 -23 22 -76v-421z" />
    <glyph glyph-name="n" unicode="n" horiz-adv-x="365" 
d="M340 0h-128v385q0 31 -5 39q-6 10 -21 10t-23 -18q-5 -12 -5 -31v-385h-128v512h121l3 -48q16 27 40 42q25 16 59 16q36 0 61 -23q26 -26 26 -102v-397z" />
    <glyph glyph-name="o" unicode="o" horiz-adv-x="360" 
d="M153 390v-268q0 -20 5 -27q7 -11 22 -11t22 11q5 7 5 27v268q0 20 -5 27q-7 11 -22 11t-22 -11q-5 -7 -5 -27zM335 375v-238q0 -70 -34 -105q-40 -42 -121 -42t-121 42q-34 35 -34 105v238q0 70 34 105q40 42 121 42t121 -42q34 -35 34 -105z" />
    <glyph glyph-name="p" unicode="p" horiz-adv-x="365" 
d="M158 -150h-128v662h128v-55q9 17 27 37q26 28 69 28q32 0 58 -27q28 -29 28 -82v-299q0 -66 -21 -93q-24 -31 -65 -31q-42 0 -68 28q-15 15 -28 38v-206zM158 384v-232q0 -31 5 -50q7 -27 21 -27q17 0 22 12q6 12 6 39v253q0 28 -3 40q-4 16 -20 16q-13 0 -22 -11
q-9 -12 -9 -40z" />
    <glyph glyph-name="q" unicode="q" horiz-adv-x="365" 
d="M207 -150v206q-20 -30 -28 -38q-26 -28 -68 -28q-41 0 -65 31q-21 28 -21 91v311q0 50 31 77q24 22 63 22q32 0 61 -27q21 -19 27 -38v55h128v-662h-128zM207 155v229q0 25 -8 38t-22 13q-13 0 -19 -13q-5 -13 -5 -43v-250q0 -27 4 -39q5 -15 20 -15q18 0 25 27
q5 22 5 53z" />
    <glyph glyph-name="r" unicode="r" horiz-adv-x="273" 
d="M158 0h-128v512h124v-52h3q15 26 33 40q26 22 60 22h15l-4 -175q-18 18 -43 18q-33 0 -47 -20q-13 -17 -13 -59v-286z" />
    <glyph glyph-name="s" unicode="s" 
d="M15 138h126l-2 -18q-1 -19 8 -30q9 -10 23 -10q18 0 24 11q5 8 5 22q0 65 -42 93l-39 26q-33 23 -44 33q-24 22 -38 52q-16 33 -16 77q0 35 13 61q12 24 35 40q40 27 105 27q61 0 100 -31q43 -34 43 -98v-14h-114v18q0 16 -6 26q-6 11 -21 11q-12 0 -19 -7q-8 -8 -8 -27
q0 -25 12 -42q8 -10 47 -38l51 -35q36 -25 53 -59q14 -29 14 -99q0 -39 -24 -78q-23 -35 -55 -47q-30 -12 -77 -12q-33 0 -69 12q-33 11 -54 36q-31 41 -31 83v17z" />
    <glyph glyph-name="t" unicode="t" horiz-adv-x="217" 
d="M207 90v-90q-6 0 -36 -3q-26 -3 -62 0q-30 5 -42 13q-15 11 -22 33q-6 23 -6 52v327h-35v90h35v188h128v-188h35v-90h-35v-297q0 -35 24 -35h16z" />
    <glyph glyph-name="u" unicode="u" horiz-adv-x="365" 
d="M25 512h128v-385q0 -23 3 -34q4 -15 19 -15q17 0 26 22q6 18 6 40v372h128v-512h-124v48l-6 3q-14 -30 -34 -45q-21 -16 -59 -16t-61 23q-26 26 -26 98v401z" />
    <glyph glyph-name="v" unicode="v" horiz-adv-x="333" 
d="M235 0h-137l-94 512h128l30 -237l4 -46h3l3 46l29 237h128z" />
    <glyph glyph-name="w" unicode="w" horiz-adv-x="492" 
d="M417 0h-130l-41 257l-41 -257h-130l-71 512h128l26 -239l2 -45l3 -1l45 285h76l45 -285l3 1l2 45l26 239h128z" />
    <glyph glyph-name="x" unicode="x" horiz-adv-x="354" 
d="M177 395l37 117h128l-93 -236l101 -276h-128l-45 144l-45 -144h-128l100 276l-92 236h128z" />
    <glyph glyph-name="y" unicode="y" horiz-adv-x="348" 
d="M19 -148v90h52q36 0 49 24q11 20 2 55l-118 491h128l44 -270h4l36 270h128l-103 -538q-10 -55 -43 -87q-17 -16 -35.5 -24t-32.5 -9.5t-39 -1.5h-72z" />
    <glyph glyph-name="z" unicode="z" horiz-adv-x="320" 
d="M305 0h-293v100l157 322h-143v90h279v-100l-157 -322h157v-90z" />
    <glyph glyph-name="braceleft" unicode="{" horiz-adv-x="320" 
d="M300 -85v-75q-100 -7 -159 59q-46 52 -46 144v113q0 36 -17 53t-46 17h-12v92h12q29 0 46 17t17 53v118q0 91 46 144q58 67 159 60v-75q-46 -1 -67 -33q-15 -22 -15 -104v-88q0 -68 -28 -101q-23 -27 -62 -37q39 -10 62 -37q28 -33 28 -101v-72q0 -91 15 -114
q21 -32 67 -33z" />
    <glyph glyph-name="bar" unicode="|" horiz-adv-x="160" 
d="M35 0v700h90v-700h-90z" />
    <glyph glyph-name="braceright" unicode="}" horiz-adv-x="320" 
d="M20 635v75q100 7 159 -59q46 -52 46 -144v-113q0 -36 17 -53t46 -17h12v-92h-12q-29 0 -46 -17t-17 -53v-118q0 -91 -46 -144q-58 -67 -159 -60v75q46 1 67 33q15 23 15 104v88q0 68 28 101q23 27 62 37q-39 10 -62 37q-28 33 -28 101v72q0 92 -15 114q-21 32 -67 33z
" />
    <glyph glyph-name="asciitilde" unicode="~" horiz-adv-x="496" 
d="M24 321l-14 97q35 35 77 52q38 15 74 15q23 0 61 -18l92 -45q27 -13 59 -7q31 4 62 32l24 22l27 -85q-24 -28 -64 -50q-33 -19 -58 -19q-30 0 -50 6q-14 4 -46 19l-79 37q-23 10 -52 10q-34 0 -56 -13q-27 -15 -57 -53z" />
    <glyph glyph-name="exclamdown" unicode="&#xa1;" horiz-adv-x="232" 
d="M150 507l52 -507h-172l52 507h68zM47 700h138v-148h-138v148z" />
    <glyph glyph-name="cent" unicode="&#xa2;" horiz-adv-x="351" 
d="M331 196v-42q0 -73 -13 -99q-10 -22 -34.5 -39.5t-56.5 -22.5v-99h-90v99q-62 9 -92 61q-20 35 -20 106v207q0 67 25 101q30 42 83 50v73h90v-73q56 -11 83 -50q25 -35 25 -118v-35h-124v61q0 30 -6 41q-7 11 -21 11t-21 -11q-6 -11 -6 -41v-234q0 -34 6 -45
q7 -13 23 -13t23 12q6 11 6 46v54h120z" />
    <glyph glyph-name="sterling" unicode="&#xa3;" horiz-adv-x="429" 
d="M419 0h-382v98h63q21 52 24 107q4 80 -18 129h-91v91h72q-22 61 -22 138q0 76 53 122q43 37 115 37q85 0 130 -39q26 -23 34.5 -47.5t8.5 -60.5v-24h-128v16q0 30 -6 41q-9 16 -27 16q-23 0 -34 -19t-8 -63q7 -67 22 -117h147v-91h-128q20 -58 18 -119q-3 -57 -24 -117
h181v-98z" />
    <glyph glyph-name="currency" unicode="&#xa4;" horiz-adv-x="486" 
d="M152 276q0 -35 24 -62.5t67 -27.5q41 0 66.5 25t25.5 65q0 44 -27.5 68t-64.5 24q-39 0 -65 -26t-26 -66zM404 73l-55 51q-41 -31 -106 -31t-106 32l-55 -52l-57 54l59 55q-25 50 -25 94q0 48 25 96l-59 55l57 54l55 -51q44 31 106 31t106 -31l55 51l57 -54l-57 -54
q24 -46 24 -97q0 -44 -24 -95l57 -54z" />
    <glyph glyph-name="yen" unicode="&#xa5;" horiz-adv-x="386" 
d="M262 0h-138v75h-109v90h109v51h-109v90h109v2l-119 392h138l50 -218l5 28l45 190h138l-119 -392v-2h109v-90h-109v-51h109v-90h-109v-75z" />
    <glyph glyph-name="brokenbar" unicode="&#xa6;" horiz-adv-x="160" 
d="M35 700h90v-270h-90v270zM125 0h-90v270h90v-270z" />
    <glyph glyph-name="section" unicode="&#xa7;" horiz-adv-x="411" 
d="M311 181l14 -13q19 -17 29 -42q10 -26 10 -65q0 -45 -26 -82q-19 -25 -53 -40q-37 -15 -89 -15q-44 0 -79 11q-36 11 -58 40q-27 36 -27 103v27h128v-53q0 -17 9 -28q10 -12 29 -12q21 0 30 13q7 7 7 38q0 34 -23 53l-133 105q-29 22 -41 47q-13 25 -13 62q0 35 13 59
q10 21 32 37q25 19 43 26l-18 18q-27 27 -40 53q-12 24 -12 69q0 25 11.5 45.5t18 26t21.5 15.5q47 31 114 31q72 0 115 -37q25 -22 33.5 -46.5t8.5 -66.5v-16h-124v41q0 19 -8 28q-9 9 -26 9q-16 0 -25 -9t-9 -28q0 -27 20 -43l143 -111q23 -18 35 -42.5t13.5 -38.5
t1.5 -36q0 -47 -26 -85q-20 -29 -49 -48zM183 281l36 -33q13 12 24 30q13 22 13 37q0 30 -16 45l-37 34q-21 -11 -35 -26q-14 -16 -14 -39t29 -48z" />
    <glyph glyph-name="dieresis" unicode="&#xa8;" 
d="M307 580h-107v120h107v-120zM140 580h-107v120h107v-120z" />
    <glyph glyph-name="copyright" unicode="&#xa9;" horiz-adv-x="614" 
d="M416 0h-218q-91 0 -136 59q-30 39 -30 112v358q0 73 30 112q45 59 136 59h218q91 0 136 -59q30 -39 30 -112v-358q0 -73 -30 -112q-45 -59 -136 -59zM112 534v-368q0 -44 15 -65q22 -31 67 -31h226q45 0 67 31q15 21 15 65v368q0 44 -15 65q-22 31 -67 31h-226
q-45 0 -67 -31q-15 -21 -15 -65zM434 291v-81q0 -48 -32 -76q-35 -32 -93 -32q-55 0 -93 33q-22 19 -28.5 39t-6.5 50v264q0 50 35 79q37 31 92 31q53 0 88 -29q37 -30 37 -88v-53h-84v60q0 21 -10 31q-11 11 -31 11t-31 -9q-12 -10 -12 -36v-270q0 -23 10 -33
q12 -12 35 -12q22 0 32 12q9 11 9 30v79h83z" />
    <glyph glyph-name="ordfeminine" unicode="&#xaa;" horiz-adv-x="215" 
d="M185 440h-51l-1 17q-11 -11 -17 -15q-13 -8 -35 -8q-25 0 -37 16q-14 17 -14 50q0 40 32 67q23 21 65 41v18q0 17 -3 21q-4 6 -16 6q-10 0 -15 -6q-4 -5 -4 -20v-15h-56v19q0 34 16 49q21 20 60 20q45 0 62 -20q14 -16 14 -53v-187zM127 512v57q-21 -12 -31 -27
q-8 -13 -8 -37q0 -12 6 -19q5 -6 14 -6q12 0 16 9q3 8 3 23z" />
    <glyph glyph-name="guillemotleft" unicode="&#xab;" horiz-adv-x="522" 
d="M278 0h-113l-155 256l155 256h113l-130 -256zM512 0h-113l-155 256l155 256h113l-130 -256z" />
    <glyph glyph-name="logicalnot" unicode="&#xac;" horiz-adv-x="492" 
d="M416 314h-416v76h492v-284h-76v208z" />
    <glyph glyph-name="registered" unicode="&#xae;" horiz-adv-x="614" 
d="M416 0h-218q-91 0 -136 59q-30 39 -30 112v358q0 73 30 112q45 59 136 59h218q91 0 136 -59q30 -39 30 -115v-355q0 -73 -30 -112q-45 -59 -136 -59zM112 534v-368q0 -44 15 -65q22 -31 67 -31h226q46 0 67 31q15 21 15 69v364q0 44 -15 65q-22 31 -67 31h-226
q-45 0 -67 -31q-15 -21 -15 -65zM449 109h-95q-13 20 -13 57v115q0 21 -12 31q-10 8 -31 8h-33v-211h-83v482h154q48 0 74 -31q21 -24 21 -61v-62q0 -37 -23 -58q-16 -15 -40 -19v-4q20 -7 31 -14q27 -18 27 -61v-104q0 -23 1 -33.5t6 -18.5t16 -11v-5zM265 392h39
q22 0 30 7q13 11 13 35v46q0 22 -7 32q-8 11 -27 11h-48v-131z" />
    <glyph glyph-name="macron" unicode="&#xaf;" 
d="M42 602v78h256v-78h-256z" />
    <glyph glyph-name="macron" unicode="&#x2c9;" 
d="M42 602v78h256v-78h-256z" />
    <glyph glyph-name="degree" unicode="&#xb0;" horiz-adv-x="274" 
d="M84 593q0 -23 15 -38t38 -15t38 15t15 38t-15 38t-38 15t-38 -15t-15 -38zM30 593q0 45 31 76t76 31t76 -31t31 -76t-31 -76t-76 -31t-76 31t-31 76z" />
    <glyph glyph-name="plusminus" unicode="&#xb1;" horiz-adv-x="572" 
d="M248 204v208h-208v76h208v208h76v-208h208v-76h-208v-208h-76zM40 60v76h492v-76h-492z" />
    <glyph glyph-name="twosuperior" unicode="&#xb2;" horiz-adv-x="250" 
d="M225 350h-205q-6 53 25 97q22 29 46 48q26 22 36 33q15 16 19.5 26.5t4.5 28.5v31q0 17 -4 25q-6 12 -24 12q-17 0 -22 -11q-4 -8 -4 -29v-46h-72v41q0 35 11 54q22 40 87 40q57 0 84 -33q18 -23 18 -69q0 -39 -9 -61q-11 -26 -38 -50q-24 -20 -35 -30l-8.5 -8.5
t-8.5 -7.5q-24 -22 -30 -42h129v-49z" />
    <glyph glyph-name="threesuperior" unicode="&#xb3;" horiz-adv-x="257" 
d="M20 465h73v-29q0 -22 5 -30q7 -12 26 -12q18 0 25 11q6 8 6 27v33q0 29 -7 37q-12 13 -46 13h-23v49h39q32 0 32 28v33q0 15 -5 23q-6 8 -21 8t-22 -7q-6 -7 -6 -22v-24h-74v26q0 27 17 46q25 30 85 30t84 -27q16 -18 16 -45v-28q0 -38 -18 -53q-13 -12 -32 -14
q36 -7 47 -35q6 -14 6 -45v-28q0 -32 -14 -52q-24 -33 -89 -33q-61 0 -88 31q-16 19 -16 59v30z" />
    <glyph glyph-name="acute" unicode="&#xb4;" 
d="M97 546l-35 47l148 148l68 -80z" />
    <glyph glyph-name="mu" unicode="&#xb5;" horiz-adv-x="374" 
d="M158 -150h-128v662h128v-366q0 -36 5 -54q6 -18 22 -18q21 0 27 23q4 13 4 47v368h128v-512h-95l-12 42q-13 -37 -35 -47q-31 -14 -44 16v-161z" />
    <glyph glyph-name="paragraph" unicode="&#xb6;" horiz-adv-x="538" 
d="M458 -150h-111v754h-65v-754h-111v422h-33q-44 0 -78 29q-22 19 -28.5 39t-6.5 52v174q0 52 16 78q33 56 120 56h372v-96h-75v-754zM171 364v240q-49 8 -49 -46v-149q0 -27 14 -38t35 -7z" />
    <glyph glyph-name="periodcentered" unicode="&#xb7;" horiz-adv-x="198" 
d="M30 181v148h138v-148h-138z" />
    <glyph glyph-name="periodcentered" unicode="&#x22c5;" horiz-adv-x="198" 
d="M30 181v148h138v-148h-138z" />
    <glyph glyph-name="periodcentered" unicode="&#x2219;" horiz-adv-x="198" 
d="M30 181v148h138v-148h-138z" />
    <glyph glyph-name="cedilla" unicode="&#xb8;" 
d="M82 -192v58q12 -3 36 -7q30 -3 36 -3q16 0 23 12q5 9 5 19q0 15 -7 24q-10 13 -32 13h-39v76h64v-32q46 3 73 -28q18 -18 18 -56q0 -33 -22 -57q-26 -27 -73 -27q-5 0 -50 3q-16 1 -32 5z" />
    <glyph glyph-name="onesuperior" unicode="&#xb9;" horiz-adv-x="172" 
d="M137 350h-72v272q-32 -11 -55 -14v43q23 6 38 14q20 11 27 35h62v-350z" />
    <glyph glyph-name="ordmasculine" unicode="&#xba;" horiz-adv-x="214" 
d="M88 627v-120q0 -14 4 -19q5 -7 15 -7t15 7q4 5 4 19v120q0 14 -4 19q-5 7 -15 7t-15 -7q-4 -5 -4 -19zM184 632v-129q0 -32 -17 -49q-19 -20 -60 -20t-60 20q-17 17 -17 49v129q0 31 17 48q20 20 60 20q39 0 60 -20q17 -16 17 -48z" />
    <glyph glyph-name="guillemotright" unicode="&#xbb;" horiz-adv-x="522" 
d="M10 0l130 256l-130 256h113l155 -256l-155 -256h-113zM244 0l130 256l-130 256h113l155 -256l-155 -256h-113z" />
    <glyph glyph-name="onequarter" unicode="&#xbc;" horiz-adv-x="501" 
d="M139 350h-74v271q-30 -12 -53 -14v43q15 3 37 14q22 13 28 36h62v-350zM443 0h-73v64h-122v47l122 239h73v-239h33v-47h-33v-64zM370 111v119l-55 -119h55zM101 0h-91l360 700h92z" />
    <glyph glyph-name="onehalf" unicode="&#xbd;" horiz-adv-x="525" 
d="M139 351h-72v271q-32 -11 -55 -14v43q23 6 38 14q21 12 27 36h62v-350zM500 0h-205q-6 53 25 97q22 29 46 48q26 22 36 33q15 16 19.5 26.5t4.5 28.5v31q0 17 -4 25q-6 12 -24 12q-16 0 -22 -11q-4 -8 -4 -29v-46h-72v41q0 35 11 54q22 40 87 40q57 0 84 -33
q18 -23 18 -69q0 -39 -9 -61q-11 -26 -38 -50q-24 -20 -35 -30l-8.5 -8.5t-8.5 -7.5q-24 -22 -30 -42h129v-49zM101 0h-91l361 700h92z" />
    <glyph glyph-name="threequarters" unicode="&#xbe;" horiz-adv-x="577" 
d="M25 465h73v-29q0 -22 5 -30q7 -12 26 -12q18 0 25 11q6 8 6 27v33q0 29 -7 37q-12 13 -46 13h-23v49h39q32 0 32 28v33q0 15 -5 23q-6 8 -21 8t-22 -7q-6 -7 -6 -22v-24h-74v26q0 27 17 46q25 30 85 30t84 -27q16 -18 16 -45v-28q0 -38 -18 -53q-13 -12 -32 -14
q36 -7 47 -35q6 -14 6 -45v-28q0 -32 -14 -52q-24 -33 -89 -33q-61 0 -88 31q-16 19 -16 59v30zM519 0h-73v64h-124v47l124 239h73v-239h33v-47h-33v-64zM446 111v119l-55 -119h55zM168 0h-91l361 700h93z" />
    <glyph glyph-name="questiondown" unicode="&#xbf;" horiz-adv-x="380" 
d="M237 517v-44q0 -50 51 -118q12 -16 29.5 -35.5t25.5 -32.5q22 -35 22 -89v-45q0 -65 -30 -102q-42 -51 -142 -51q-97 0 -140 45q-38 40 -38 112v66h138v-71q0 -32 7 -44q10 -16 31 -16q23 0 31 16q5 10 5 31v49q0 46 -16 70l-50 72q-1 2 -8 12t-9 12.5t-7.5 12t-7.5 14
t-6 14t-5 17t-2.5 17.5t-1.5 20v68h123zM107 710h137v-148h-137v148z" />
    <glyph glyph-name="Agrave" unicode="&#xc0;" horiz-adv-x="384" 
d="M374 0h-143l-8 89h-62l-8 -89h-143l67 700h232zM165 187h54l-24 406h-4zM313 730l-263 59l37 98l244 -109z" />
    <glyph glyph-name="Aacute" unicode="&#xc1;" horiz-adv-x="384" 
d="M374 0h-143l-8 89h-62l-8 -89h-143l67 700h232zM165 187h54l-24 406h-4zM68 730l-18 48l244 109l37 -98z" />
    <glyph glyph-name="Acircumflex" unicode="&#xc2;" horiz-adv-x="384" 
d="M374 0h-143l-8 89h-62l-8 -89h-143l67 700h232zM165 187h54l-24 406h-4zM48 730v60l142 89l141 -89v-60l-141 58z" />
    <glyph glyph-name="Atilde" unicode="&#xc3;" horiz-adv-x="384" 
d="M374 0h-143l-8 89h-62l-8 -89h-143l67 700h232zM165 187h54l-24 406h-4zM35 733l-9 78q23 23 48 34q21 9 49 9q18 0 40 -11l58 -29q19 -10 39 -7q21 4 40 23l15 14l17 -70q-19 -23 -42 -34q-20 -10 -37 -10q-26 0 -61 16l-52 23q-18 7 -36 7q-15 0 -33 -9
q-22 -13 -36 -34z" />
    <glyph glyph-name="Adieresis" unicode="&#xc4;" horiz-adv-x="384" 
d="M374 0h-143l-8 89h-62l-8 -89h-143l67 700h232zM165 187h54l-24 406h-4zM55 738v115h107v-115h-107zM225 738v115h107v-115h-107z" />
    <glyph glyph-name="Aring" unicode="&#xc5;" horiz-adv-x="384" 
d="M374 0h-143l-8 89h-62l-8 -89h-143l67 700h232zM165 187h54l-24 406h-4zM142 808q0 -22 15 -37.5t38 -15.5t38 15.5t15 37.5t-15 37.5t-38 15.5t-38 -15.5t-15 -37.5zM88 808q0 45 31 76t76 31t76 -31t31 -76t-31 -76t-76 -31t-76 31t-31 76z" />
    <glyph glyph-name="AE" unicode="&#xc6;" horiz-adv-x="596" 
d="M591 0h-329v89h-80l-14 -89h-138l114 700h431v-98h-175v-168h132v-98h-132v-238h191v-98zM198 187h64v406h-4z" />
    <glyph glyph-name="Ccedilla" unicode="&#xc7;" horiz-adv-x="405" 
d="M380 479h-138v70q0 23 -4 35q-8 21 -32 21t-32 -21q-4 -12 -4 -35v-398q0 -23 4 -35q8 -21 32 -21t32 21q4 12 4 35v110h138v-107q0 -40 -9 -69t-37 -54q-38 -33 -100 -40v-23q46 3 73 -28q18 -18 18 -56q0 -33 -22 -57q-26 -27 -73 -27q-5 0 -50 3q-16 1 -32 5v58
q12 -3 36 -7q30 -3 36 -3q16 0 23 12q5 9 5 19q0 15 -7 24q-10 13 -32 13h-39v68q-58 7 -92 39q-46 42 -46 123v392q0 81 46 123q45 41 128 41q82 0 128 -41q29 -25 37.5 -54t8.5 -69v-67z" />
    <glyph glyph-name="Egrave" unicode="&#xc8;" horiz-adv-x="369" 
d="M35 0v700h313v-98h-175v-168h132v-98h-132v-238h191v-98h-329zM306 730l-263 59l37 98l244 -109z" />
    <glyph glyph-name="Eacute" unicode="&#xc9;" horiz-adv-x="369" 
d="M35 0v700h313v-98h-175v-168h132v-98h-132v-238h191v-98h-329zM79 729l-18 48l244 109l37 -98z" />
    <glyph glyph-name="Ecircumflex" unicode="&#xca;" horiz-adv-x="369" 
d="M35 0v700h313v-98h-175v-168h132v-98h-132v-238h191v-98h-329zM51 732v60l142 89l141 -89v-60l-141 58z" />
    <glyph glyph-name="Edieresis" unicode="&#xcb;" horiz-adv-x="369" 
d="M35 0v700h313v-98h-175v-168h132v-98h-132v-238h191v-98h-329zM53 745v115h107v-115h-107zM223 745v115h107v-115h-107z" />
    <glyph glyph-name="Igrave" unicode="&#xcc;" horiz-adv-x="208" 
d="M35 0v700h138v-700h-138zM226 730l-263 59l37 98l244 -109z" />
    <glyph glyph-name="Iacute" unicode="&#xcd;" horiz-adv-x="208" 
d="M35 0v700h138v-700h-138zM-19 730l-18 48l244 109l37 -98z" />
    <glyph glyph-name="Icircumflex" unicode="&#xce;" horiz-adv-x="208" 
d="M35 0v700h138v-700h-138zM-39 730v60l142 89l141 -89v-60l-141 58z" />
    <glyph glyph-name="Idieresis" unicode="&#xcf;" horiz-adv-x="208" 
d="M35 0v700h138v-700h-138zM-34 744v115h107v-115h-107zM136 744v115h107v-115h-107z" />
    <glyph glyph-name="Eth" unicode="&#xd0;" horiz-adv-x="428" 
d="M48 0v335h-58v84h58v281h218q55 0 91 -34q39 -39 39 -124v-374q0 -77 -42 -124q-41 -44 -115 -44h-191zM186 95h28q11 0 20 6.5t12.5 11.5t4.5 8q7 16 7 46v372q0 32 -8 46q-10 17 -31 17h-33v-183h47v-83h-47v-241z" />
    <glyph glyph-name="Ntilde" unicode="&#xd1;" horiz-adv-x="414" 
d="M379 0h-122l-98 363h-3l7 -80v-283h-128v700h122l98 -375h4l-8 74v301h128v-700zM64 736l-9 78q23 23 48 34q21 9 49 9q18 0 40 -11l58 -29q19 -10 39 -7q21 4 40 23l15 14l17 -70q-19 -23 -42 -34q-20 -10 -37 -10q-26 0 -61 16l-52 23q-17 7 -36 7q-15 0 -33 -9
q-22 -13 -36 -34z" />
    <glyph glyph-name="Ograve" unicode="&#xd2;" horiz-adv-x="412" 
d="M380 546v-392q0 -40 -8.5 -69t-37.5 -54q-46 -41 -128 -41q-83 0 -128 41q-46 42 -46 123v392q0 81 46 123q45 41 128 41q82 0 128 -41q29 -25 37.5 -54t8.5 -69zM242 151v398q0 23 -4 35q-8 21 -32 21t-32 -21q-4 -12 -4 -35v-398q0 -23 4 -35q8 -21 32 -21t32 21
q4 12 4 35zM327 730l-263 59l37 98l244 -109z" />
    <glyph glyph-name="Oacute" unicode="&#xd3;" horiz-adv-x="412" 
d="M380 546v-392q0 -40 -8.5 -69t-37.5 -54q-46 -41 -128 -41q-83 0 -128 41q-46 42 -46 123v392q0 81 46 123q45 41 128 41q82 0 128 -41q29 -25 37.5 -54t8.5 -69zM242 151v398q0 23 -4 35q-8 21 -32 21t-32 -21q-4 -12 -4 -35v-398q0 -23 4 -35q8 -21 32 -21t32 21
q4 12 4 35zM90 730l-18 48l244 109l37 -98z" />
    <glyph glyph-name="Ocircumflex" unicode="&#xd4;" horiz-adv-x="412" 
d="M380 546v-392q0 -40 -8.5 -69t-37.5 -54q-46 -41 -128 -41q-83 0 -128 41q-46 42 -46 123v392q0 81 46 123q45 41 128 41q82 0 128 -41q29 -25 37.5 -54t8.5 -69zM242 151v398q0 23 -4 35q-8 21 -32 21t-32 -21q-4 -12 -4 -35v-398q0 -23 4 -35q8 -21 32 -21t32 21
q4 12 4 35zM62 730v60l142 89l141 -89v-60l-141 58z" />
    <glyph glyph-name="Otilde" unicode="&#xd5;" horiz-adv-x="412" 
d="M380 546v-392q0 -40 -8.5 -69t-37.5 -54q-46 -41 -128 -41q-83 0 -128 41q-46 42 -46 123v392q0 81 46 123q45 41 128 41q82 0 128 -41q29 -25 37.5 -54t8.5 -69zM242 151v398q0 23 -4 35q-8 21 -32 21t-32 -21q-4 -12 -4 -35v-398q0 -23 4 -35q8 -21 32 -21t32 21
q4 12 4 35zM64 736l-9 78q23 23 48 34q21 9 49 9q18 0 40 -11l58 -29q19 -10 39 -7q21 4 40 23l15 14l17 -70q-19 -23 -42 -34q-20 -10 -37 -10q-26 0 -61 16l-52 23q-17 7 -36 7q-15 0 -33 -9q-22 -13 -36 -34z" />
    <glyph glyph-name="Odieresis" unicode="&#xd6;" horiz-adv-x="412" 
d="M380 546v-392q0 -40 -8.5 -69t-37.5 -54q-46 -41 -128 -41q-83 0 -128 41q-46 42 -46 123v392q0 81 46 123q45 41 128 41q82 0 128 -41q29 -25 37.5 -54t8.5 -69zM242 151v398q0 23 -4 35q-8 21 -32 21t-32 -21q-4 -12 -4 -35v-398q0 -23 4 -35q8 -21 32 -21t32 21
q4 12 4 35zM69 750v115h107v-115h-107zM239 750v115h107v-115h-107z" />
    <glyph glyph-name="multiply" unicode="&#xd7;" horiz-adv-x="572" 
d="M447 149l-161 150l-161 -150l-57 54l160 150l-160 150l57 54l161 -150l161 150l57 -54l-160 -150l160 -150z" />
    <glyph glyph-name="Oslash" unicode="&#xd8;" horiz-adv-x="416" 
d="M387 546v-392q0 -40 -8.5 -69t-37.5 -54q-46 -41 -128 -41q-66 0 -112 30l-24 -55h-72l52 103q-18 32 -18 86v392q0 81 46 123q45 41 128 41q57 0 94 -21l26 55h63l-42 -90q20 -24 26.5 -47t6.5 -61zM177 227v-76q0 -23 4 -35q8 -21 32 -21t32 21q4 12 4 35v268zM177 365
l72 186q0 22 -4 33q-8 21 -32 21t-32 -21q-4 -12 -4 -35v-184z" />
    <glyph glyph-name="Ugrave" unicode="&#xd9;" horiz-adv-x="414" 
d="M381 700v-546q0 -89 -55 -131q-44 -33 -119 -33t-118 33q-56 42 -56 132v545h138v-550q0 -26 6 -44q8 -18 30 -18t30 18q6 18 6 44v550h138zM328 730l-263 59l37 98l244 -109z" />
    <glyph glyph-name="Uacute" unicode="&#xda;" horiz-adv-x="414" 
d="M381 700v-546q0 -89 -55 -131q-44 -33 -119 -33t-118 33q-56 42 -56 132v545h138v-550q0 -26 6 -44q8 -18 30 -18t30 18q6 18 6 44v550h138zM83 730l-18 48l244 109l37 -98z" />
    <glyph glyph-name="Ucircumflex" unicode="&#xdb;" horiz-adv-x="414" 
d="M381 700v-546q0 -89 -55 -131q-44 -33 -119 -33t-118 33q-56 42 -56 132v545h138v-550q0 -26 6 -44q8 -18 30 -18t30 18q6 18 6 44v550h138zM63 730v60l142 89l141 -89v-60l-141 58z" />
    <glyph glyph-name="Udieresis" unicode="&#xdc;" horiz-adv-x="414" 
d="M381 700v-546q0 -89 -55 -131q-44 -33 -119 -33t-118 33q-56 42 -56 132v545h138v-550q0 -26 6 -44q8 -18 30 -18t30 18q6 18 6 44v550h138zM70 747v115h107v-115h-107zM240 747v115h107v-115h-107z" />
    <glyph glyph-name="Yacute" unicode="&#xdd;" horiz-adv-x="396" 
d="M267 0h-138v308l-119 392h138l50 -218l5 28l45 190h138l-119 -392v-308zM87 732l-18 48l244 109l37 -98z" />
    <glyph glyph-name="Thorn" unicode="&#xde;" horiz-adv-x="408" 
d="M168 0h-138v700h138v-103h92q60 0 90 -33q28 -32 28 -99v-226q0 -67 -28 -99q-30 -33 -90 -33h-92v-107zM168 205h25q22 0 36 14q11 12 11 51v164q0 39 -11 51q-14 14 -36 14h-25v-294z" />
    <glyph glyph-name="germandbls" unicode="&#xdf;" horiz-adv-x="382" 
d="M184 25v68q6 -12 21 -12q7 0 12 3q12 9 12 55v183q0 26 -6 43q-12 28 -45 36v84q19 -3 31 12q9 12 9 47v33q0 28 -5 38q-7 13 -23 13q-14 0 -23 -12t-9 -40v-576h-128v596q0 68 57 97q35 17 102 17q65 0 103 -24q54 -34 54 -103v-38q0 -44 -25 -68q-19 -19 -52 -29
q53 -15 74 -52q14 -26 14 -69v-211q0 -23 -1 -36t-10 -32.5t-27 -33.5q-31 -24 -63 -24q-14 0 -34 6q-22 5 -38 29z" />
    <glyph glyph-name="agrave" unicode="&#xe0;" horiz-adv-x="356" 
d="M331 0h-108l-14 38q-14 -21 -31 -33q-22 -15 -58 -15q-56 0 -83 37q-22 30 -22 87v24q0 79 58 124q38 30 130 60v69q0 20 -4 28q-6 13 -23 13t-23 -13q-4 -8 -4 -28v-46h-124v50q0 56 28 86q39 41 123 41q83 0 123 -41q32 -33 32 -92v-389zM203 127v121q-34 -12 -49 -40
q-11 -19 -11 -55v-30q0 -25 5 -37q9 -16 25 -16q17 0 25 15q5 10 5 42zM251 546l-181 115l68 80l148 -148z" />
    <glyph glyph-name="aacute" unicode="&#xe1;" horiz-adv-x="356" 
d="M331 0h-108l-14 38q-14 -21 -31 -33q-22 -15 -58 -15q-56 0 -83 37q-22 30 -22 87v24q0 79 58 124q38 30 130 60v69q0 20 -4 28q-6 13 -23 13t-23 -13q-4 -8 -4 -28v-46h-124v50q0 56 28 86q39 41 123 41q83 0 123 -41q32 -33 32 -92v-389zM203 127v121q-34 -12 -49 -40
q-11 -19 -11 -55v-30q0 -25 5 -37q9 -16 25 -16q17 0 25 15q5 10 5 42zM105 546l-35 47l148 148l68 -80z" />
    <glyph glyph-name="acircumflex" unicode="&#xe2;" horiz-adv-x="356" 
d="M331 0h-108l-14 38q-14 -21 -31 -33q-22 -15 -58 -15q-56 0 -83 37q-22 30 -22 87v24q0 79 58 124q38 30 130 60v69q0 20 -4 28q-6 13 -23 13t-23 -13q-4 -8 -4 -28v-46h-124v50q0 56 28 86q39 41 123 41q83 0 123 -41q32 -33 32 -92v-389zM203 127v121q-34 -12 -49 -40
q-11 -19 -11 -55v-30q0 -25 5 -37q9 -16 25 -16q17 0 25 15q5 10 5 42zM34 551v60l142 89l141 -89v-60l-141 58z" />
    <glyph glyph-name="atilde" unicode="&#xe3;" horiz-adv-x="356" 
d="M331 0h-108l-14 38q-14 -21 -31 -33q-22 -15 -58 -15q-56 0 -83 37q-22 30 -22 87v24q0 79 58 124q38 30 130 60v69q0 20 -4 28q-6 13 -23 13t-23 -13q-4 -8 -4 -28v-46h-124v50q0 56 28 86q39 41 123 41q83 0 123 -41q32 -33 32 -92v-389zM203 127v121q-34 -12 -49 -40
q-11 -19 -11 -55v-30q0 -25 5 -37q9 -16 25 -16q17 0 25 15q5 10 5 42zM34 579l-9 78q22 22 49 34q20 9 44 9q22 0 44 -11l46 -22q31 -14 43 -14q19 0 48 24l15 13l17 -70q-18 -18 -42 -32q-20 -12 -42 -12q-11 0 -27 4q-14 4 -31 12l-40 18q-24 12 -45 12q-19 0 -34 -9
q-19 -10 -36 -34z" />
    <glyph glyph-name="adieresis" unicode="&#xe4;" horiz-adv-x="356" 
d="M331 0h-108l-14 38q-14 -21 -31 -33q-22 -15 -58 -15q-56 0 -83 37q-22 30 -22 87v24q0 79 58 124q38 30 130 60v69q0 20 -4 28q-6 13 -23 13t-23 -13q-4 -8 -4 -28v-46h-124v50q0 56 28 86q39 41 123 41q83 0 123 -41q32 -33 32 -92v-389zM203 127v121q-34 -12 -49 -40
q-11 -19 -11 -55v-30q0 -25 5 -37q9 -16 25 -16q17 0 25 15q5 10 5 42zM316 583h-107v120h107v-120zM149 583h-107v120h107v-120z" />
    <glyph glyph-name="aring" unicode="&#xe5;" horiz-adv-x="356" 
d="M331 0h-108l-14 38q-14 -21 -31 -33q-22 -15 -58 -15q-56 0 -83 37q-22 30 -22 87v24q0 79 58 124q38 30 130 60v69q0 20 -4 28q-6 13 -23 13t-23 -13q-4 -8 -4 -28v-46h-124v50q0 56 28 86q39 41 123 41q83 0 123 -41q32 -33 32 -92v-389zM203 127v121q-34 -12 -49 -40
q-11 -19 -11 -55v-30q0 -25 5 -37q9 -16 25 -16q17 0 25 15q5 10 5 42zM126 659q0 -23 15 -38t38 -15t38 15t15 38t-15 38t-38 15t-38 -15t-15 -38zM72 659q0 45 31 76t76 31t76 -31t31 -76t-31 -76t-76 -31t-76 31t-31 76z" />
    <glyph glyph-name="ae" unicode="&#xe6;" horiz-adv-x="548" 
d="M518 181v-64q0 -51 -29 -85q-36 -42 -116 -42q-31 0 -53.5 5.5t-30.5 10t-25 16.5l-14 10l-20 -13q-17 -11 -37 -18q-28 -11 -58 -11q-56 0 -83 37q-22 30 -22 87v24q0 79 58 124q38 30 130 60v69q0 20 -4 28q-6 13 -23 13t-23 -13q-4 -8 -4 -28v-46h-124v50q0 56 28 86
q39 41 123 41q56 0 92 -18q37 18 86 18q65 0 106 -33q43 -35 43 -112v-143h-172v-106q0 -23 6 -32q8 -12 24 -12q18 0 25 11q5 9 5 29v57h112zM218 127v121q-34 -12 -49 -40q-11 -19 -11 -55v-30q0 -25 5 -37q9 -16 25 -16q18 0 25 15q5 10 5 42zM398 314v77q0 20 -5 27
q-6 10 -21 10q-14 0 -21 -10q-5 -7 -5 -28v-76h52z" />
    <glyph glyph-name="ccedilla" unicode="&#xe7;" horiz-adv-x="351" 
d="M331 196v-42q0 -73 -13 -99q-12 -25 -41.5 -44t-70.5 -20v-23q46 3 73 -28q18 -18 18 -56q0 -33 -22 -57q-26 -27 -73 -27q-5 0 -50 3q-16 1 -32 5v58q12 -3 36 -7q30 -3 36 -3q16 0 23 12q5 9 5 19q0 15 -7 24q-10 13 -32 13h-39v68q-64 6 -97 63q-20 34 -20 105v207
q0 67 25 101q39 54 128 54q91 0 128 -54q25 -35 25 -118v-35h-124v61q0 30 -6 41q-7 11 -21 11t-21 -11q-6 -11 -6 -41v-234q0 -36 7 -46q8 -12 22 -12q15 0 22 12q7 13 7 46v54h120z" />
    <glyph glyph-name="egrave" unicode="&#xe8;" horiz-adv-x="360" 
d="M335 160v-43q0 -48 -32 -85q-39 -42 -123 -42q-75 0 -114 40q-41 42 -41 118v210q0 81 35 119q42 45 119 45q76 0 119 -45q18 -18 26.5 -41.5t9.5 -36.5t1 -41v-130h-182v-114q0 -10 7 -21q7 -9 22 -9q17 0 23 9q6 8 6 24v43h124zM207 308v83q0 16 -5 26q-7 11 -23 11
q-14 0 -21 -11q-5 -8 -5 -27v-82h54zM252 546l-181 115l68 80l148 -148z" />
    <glyph glyph-name="eacute" unicode="&#xe9;" horiz-adv-x="360" 
d="M335 160v-43q0 -48 -32 -85q-39 -42 -123 -42q-75 0 -114 40q-41 42 -41 118v210q0 81 35 119q42 45 119 45q76 0 119 -45q18 -18 26.5 -41.5t9.5 -36.5t1 -41v-130h-182v-114q0 -10 7 -21q7 -9 22 -9q17 0 23 9q6 8 6 24v43h124zM207 308v83q0 16 -5 26q-7 11 -23 11
q-14 0 -21 -11q-5 -8 -5 -27v-82h54zM106 546l-35 47l148 148l68 -80z" />
    <glyph glyph-name="ecircumflex" unicode="&#xea;" horiz-adv-x="360" 
d="M335 160v-43q0 -48 -32 -85q-39 -42 -123 -42q-75 0 -114 40q-41 42 -41 118v210q0 81 35 119q42 45 119 45q76 0 119 -45q18 -18 26.5 -41.5t9.5 -36.5t1 -41v-130h-182v-114q0 -10 7 -21q7 -9 22 -9q17 0 23 9q6 8 6 24v43h124zM207 308v83q0 16 -5 26q-7 11 -23 11
q-14 0 -21 -11q-5 -8 -5 -27v-82h54zM36 551v60l142 89l141 -89v-60l-141 58z" />
    <glyph glyph-name="edieresis" unicode="&#xeb;" horiz-adv-x="360" 
d="M335 160v-43q0 -48 -32 -85q-39 -42 -123 -42q-75 0 -114 40q-41 42 -41 118v210q0 81 35 119q42 45 119 45q76 0 119 -45q18 -18 26.5 -41.5t9.5 -36.5t1 -41v-130h-182v-114q0 -10 7 -21q7 -9 22 -9q17 0 23 9q6 8 6 24v43h124zM207 308v83q0 16 -5 26q-7 11 -23 11
q-14 0 -21 -11q-5 -8 -5 -27v-82h54zM318 579h-107v120h107v-120zM151 579h-107v120h107v-120z" />
    <glyph glyph-name="igrave" unicode="&#xec;" horiz-adv-x="188" 
d="M158 0h-128v512h128v-512zM167 546l-181 115l68 80l148 -148z" />
    <glyph glyph-name="iacute" unicode="&#xed;" horiz-adv-x="188" 
d="M158 0h-128v512h128v-512zM21 546l-35 47l148 148l68 -80z" />
    <glyph glyph-name="icircumflex" unicode="&#xee;" horiz-adv-x="188" 
d="M158 0h-128v512h128v-512zM-48 551v60l142 89l141 -89v-60l-141 58z" />
    <glyph glyph-name="idieresis" unicode="&#xef;" horiz-adv-x="188" 
d="M158 0h-128v512h128v-512zM231 580h-107v120h107v-120zM64 580h-107v120h107v-120z" />
    <glyph glyph-name="eth" unicode="&#xf0;" horiz-adv-x="360" 
d="M78 700h134l27 -35l70 30l20 -51l-52 -22q30 -43 43 -76q15 -39 15 -107v-322q0 -48 -32 -85q-39 -42 -123 -42q-73 0 -115 38q-40 36 -40 89v285q0 61 21 89q23 31 65 31q43 0 68 -28q8 -8 28 -38q4 50 -20 86l-28 44l-68 -28l-26 49l66 25zM207 137v227q0 24 -5 46
q-6 27 -25 27q-13 0 -19 -15q-5 -13 -5 -39v-246q0 -34 7 -44q7 -9 20 -9q14 0 20 9q7 9 7 44z" />
    <glyph glyph-name="ntilde" unicode="&#xf1;" horiz-adv-x="365" 
d="M340 0h-128v385q0 31 -5 39q-6 10 -21 10t-23 -18q-5 -12 -5 -31v-385h-128v512h121l3 -48q16 27 40 42q25 16 59 16q36 0 61 -23q26 -26 26 -102v-397zM38 579l-9 78q22 22 49 34q20 9 44 9q22 0 44 -11l46 -22q31 -14 43 -14q19 0 48 24l15 13l17 -70q-18 -18 -42 -32
q-20 -12 -42 -12q-11 0 -27 4q-14 4 -31 12l-40 18q-24 12 -45 12q-19 0 -34 -9q-19 -10 -36 -34z" />
    <glyph glyph-name="ograve" unicode="&#xf2;" horiz-adv-x="360" 
d="M153 390v-268q0 -20 5 -27q7 -11 22 -11t22 11q5 7 5 27v268q0 20 -5 27q-7 11 -22 11t-22 -11q-5 -7 -5 -27zM335 375v-238q0 -70 -34 -105q-40 -42 -121 -42t-121 42q-34 35 -34 105v238q0 70 34 105q40 42 121 42t121 -42q34 -35 34 -105zM252 546l-181 115l68 80
l148 -148z" />
    <glyph glyph-name="oacute" unicode="&#xf3;" horiz-adv-x="360" 
d="M153 390v-268q0 -20 5 -27q7 -11 22 -11t22 11q5 7 5 27v268q0 20 -5 27q-7 11 -22 11t-22 -11q-5 -7 -5 -27zM335 375v-238q0 -70 -34 -105q-40 -42 -121 -42t-121 42q-34 35 -34 105v238q0 70 34 105q40 42 121 42t121 -42q34 -35 34 -105zM106 546l-35 47l148 148
l68 -80z" />
    <glyph glyph-name="ocircumflex" unicode="&#xf4;" horiz-adv-x="360" 
d="M153 390v-268q0 -20 5 -27q7 -11 22 -11t22 11q5 7 5 27v268q0 20 -5 27q-7 11 -22 11t-22 -11q-5 -7 -5 -27zM335 375v-238q0 -70 -34 -105q-40 -42 -121 -42t-121 42q-34 35 -34 105v238q0 70 34 105q40 42 121 42t121 -42q34 -35 34 -105zM36 551v60l142 89l141 -89
v-60l-141 58z" />
    <glyph glyph-name="otilde" unicode="&#xf5;" horiz-adv-x="360" 
d="M153 390v-268q0 -20 5 -27q7 -11 22 -11t22 11q5 7 5 27v268q0 20 -5 27q-7 11 -22 11t-22 -11q-5 -7 -5 -27zM335 375v-238q0 -70 -34 -105q-40 -42 -121 -42t-121 42q-34 35 -34 105v238q0 70 34 105q40 42 121 42t121 -42q34 -35 34 -105zM36 579l-9 78q22 22 49 34
q20 9 44 9q22 0 44 -11l46 -22q31 -14 43 -14q19 0 48 24l15 13l17 -70q-18 -18 -42 -32q-20 -12 -42 -12q-11 0 -27 4q-14 4 -31 12l-40 18q-24 12 -45 12q-19 0 -34 -9q-19 -10 -36 -34z" />
    <glyph glyph-name="odieresis" unicode="&#xf6;" horiz-adv-x="360" 
d="M153 390v-268q0 -20 5 -27q7 -11 22 -11t22 11q5 7 5 27v268q0 20 -5 27q-7 11 -22 11t-22 -11q-5 -7 -5 -27zM335 375v-238q0 -70 -34 -105q-40 -42 -121 -42t-121 42q-34 35 -34 105v238q0 70 34 105q40 42 121 42t121 -42q34 -35 34 -105zM321 580h-107v120h107v-120z
M154 580h-107v120h107v-120z" />
    <glyph glyph-name="divide" unicode="&#xf7;" horiz-adv-x="572" 
d="M40 315v76h492v-76h-492zM239 134v100h94v-100h-94zM239 472v100h94v-100h-94z" />
    <glyph glyph-name="oslash" unicode="&#xf8;" horiz-adv-x="368" 
d="M42 -40h-61l59 99q-10 21 -10 54v284q0 69 49 100q38 25 108 25q59 0 106 -29l35 57h55l-57 -97q12 -24 12 -57v-284q0 -65 -39 -95q-35 -27 -113 -27q-62 0 -107 25zM156 155v-22q0 -26 5 -36q7 -13 20 -13q16 0 24 13q6 10 6 37v115zM157 236l55 94v56q0 21 -8 31
q-7 9 -20 9q-12 0 -19 -9q-8 -10 -8 -33v-148z" />
    <glyph glyph-name="ugrave" unicode="&#xf9;" horiz-adv-x="365" 
d="M25 512h128v-385q0 -23 3 -34q4 -15 19 -15q17 0 26 22q6 18 6 40v372h128v-512h-124v48l-6 3q-14 -30 -34 -45q-21 -16 -59 -16t-61 23q-26 26 -26 98v401zM255 546l-181 115l68 80l148 -148z" />
    <glyph glyph-name="uacute" unicode="&#xfa;" horiz-adv-x="365" 
d="M25 512h128v-385q0 -23 3 -34q4 -15 19 -15q17 0 26 22q6 18 6 40v372h128v-512h-124v48l-6 3q-14 -30 -34 -45q-21 -16 -59 -16t-61 23q-26 26 -26 98v401zM109 546l-35 47l148 148l68 -80z" />
    <glyph glyph-name="ucircumflex" unicode="&#xfb;" horiz-adv-x="365" 
d="M25 512h128v-385q0 -23 3 -34q4 -15 19 -15q17 0 26 22q6 18 6 40v372h128v-512h-124v48l-6 3q-14 -30 -34 -45q-21 -16 -59 -16t-61 23q-26 26 -26 98v401zM39 551v60l142 89l141 -89v-60l-141 58z" />
    <glyph glyph-name="udieresis" unicode="&#xfc;" horiz-adv-x="365" 
d="M25 512h128v-385q0 -23 3 -34q4 -15 19 -15q17 0 26 22q6 18 6 40v372h128v-512h-124v48l-6 3q-14 -30 -34 -45q-21 -16 -59 -16t-61 23q-26 26 -26 98v401zM317 578h-107v120h107v-120zM150 578h-107v120h107v-120z" />
    <glyph glyph-name="yacute" unicode="&#xfd;" horiz-adv-x="348" 
d="M19 -148v90h52q36 0 49 24q11 20 2 55l-118 491h128l44 -270h4l36 270h128l-103 -538q-10 -55 -43 -87q-17 -16 -35.5 -24t-32.5 -9.5t-39 -1.5h-72zM137 546l-35 47l148 148l68 -80z" />
    <glyph glyph-name="thorn" unicode="&#xfe;" horiz-adv-x="365" 
d="M158 -150h-128v850h128v-243q9 17 27 37q26 28 69 28q32 0 58 -27q28 -29 28 -82v-299q0 -66 -21 -93q-23 -31 -65 -31q-43 0 -68 28q-8 8 -28 38v-206zM158 384v-232q0 -31 5 -50q7 -27 21 -27q17 0 22 12q6 12 6 39v253q0 28 -3 40q-4 16 -20 16q-13 0 -22 -11
q-9 -12 -9 -40z" />
    <glyph glyph-name="ydieresis" unicode="&#xff;" horiz-adv-x="348" 
d="M19 -148v90h52q36 0 49 24q11 20 2 55l-118 491h128l44 -270h4l36 270h128l-103 -538q-10 -55 -43 -87q-17 -16 -35.5 -24t-32.5 -9.5t-39 -1.5h-72zM311 576h-107v120h107v-120zM144 576h-107v120h107v-120z" />
    <glyph glyph-name="Amacron" unicode="&#x100;" horiz-adv-x="384" 
d="M374 0h-143l-8 89h-62l-8 -89h-143l67 700h232zM165 187h54l-24 406h-4zM62 762v78h256v-78h-256z" />
    <glyph glyph-name="amacron" unicode="&#x101;" horiz-adv-x="356" 
d="M331 0h-108l-14 38q-14 -21 -31 -33q-22 -15 -58 -15q-56 0 -83 37q-22 30 -22 87v24q0 79 58 124q38 30 130 60v69q0 20 -4 28q-6 13 -23 13t-23 -13q-4 -8 -4 -28v-46h-124v50q0 56 28 86q39 41 123 41q83 0 123 -41q32 -33 32 -92v-389zM203 127v121q-34 -12 -49 -40
q-11 -19 -11 -55v-30q0 -25 5 -37q9 -16 25 -16q17 0 25 15q5 10 5 42zM49 601v78h256v-78h-256z" />
    <glyph glyph-name="Abreve" unicode="&#x102;" horiz-adv-x="384" 
d="M374 0h-143l-8 89h-62l-8 -89h-143l67 700h232zM165 187h54l-24 406h-4zM235 857h97q-2 -64 -52 -101q-38 -29 -94 -29t-94 29q-50 37 -52 101h97q-2 -25 8 -41q14 -22 42 -22q27 0 40 22q10 17 8 41z" />
    <glyph glyph-name="abreve" unicode="&#x103;" horiz-adv-x="356" 
d="M331 0h-108l-14 38q-14 -21 -31 -33q-22 -15 -58 -15q-56 0 -83 37q-22 30 -22 87v24q0 79 58 124q38 30 130 60v69q0 20 -4 28q-6 13 -23 13t-23 -13q-4 -8 -4 -28v-46h-124v50q0 56 28 86q39 41 123 41q83 0 123 -41q32 -33 32 -92v-389zM203 127v121q-34 -12 -49 -40
q-11 -19 -11 -55v-30q0 -25 5 -37q9 -16 25 -16q17 0 25 15q5 10 5 42zM229 703h97q-2 -64 -52 -101q-38 -29 -94 -29t-94 29q-50 37 -52 101h97q-2 -25 8 -41q14 -22 42 -22q27 0 40 22q10 17 8 41z" />
    <glyph glyph-name="Aogonek" unicode="&#x104;" horiz-adv-x="387" 
d="M377 0h-1q-17 -21 -40 -55q-25 -36 -25 -56q0 -16 10 -24q13 -10 45 -10h19v-55h-35q-64 0 -92 21q-30 23 -30 59q0 29 24 69q17 26 49 51h-67l-8 89h-65l-8 -89h-143l70 700h232zM169 187h49l-20 406h-4z" />
    <glyph glyph-name="aogonek" unicode="&#x105;" horiz-adv-x="356" 
d="M254 0h-31l-14 38q-14 -21 -31 -33q-22 -15 -58 -15q-56 0 -83 37q-22 30 -22 87v24q0 79 58 124q38 30 130 60v69q0 20 -4 28q-6 13 -23 13t-23 -13q-4 -8 -4 -28v-46h-124v50q0 56 28 86q39 41 123 41q83 0 123 -41q32 -33 32 -92v-389q-18 -20 -42 -55
q-25 -38 -25 -56q0 -16 10 -24q13 -10 45 -10h19v-55h-35q-64 0 -92 21q-30 23 -30 59q0 29 24 69q17 26 49 51zM203 127v121q-34 -12 -49 -40q-11 -19 -11 -55v-30q0 -25 5 -37q9 -16 25 -16q17 0 25 15q5 10 5 42z" />
    <glyph glyph-name="Cacute" unicode="&#x106;" horiz-adv-x="405" 
d="M380 479h-138v70q0 23 -4 35q-8 21 -32 21t-32 -21q-4 -12 -4 -35v-398q0 -23 4 -35q8 -21 32 -21t32 21q4 12 4 35v110h138v-107q0 -40 -8.5 -69t-37.5 -54q-46 -41 -128 -41q-83 0 -128 41q-46 42 -46 123v392q0 81 46 123q45 41 128 41q82 0 128 -41q29 -25 37.5 -54
t8.5 -69v-67zM90 730l-18 48l244 109l37 -98z" />
    <glyph glyph-name="cacute" unicode="&#x107;" horiz-adv-x="351" 
d="M331 196v-42q0 -73 -13 -99q-31 -65 -136 -65q-100 0 -137 64q-20 35 -20 106v207q0 67 25 101q39 54 128 54q91 0 128 -54q25 -35 25 -118v-35h-124v61q0 30 -6 41q-7 11 -21 11t-21 -11q-6 -11 -6 -41v-234q0 -34 6 -45q7 -13 23 -13t23 12q6 11 6 46v54h120zM102 546
l-35 47l148 148l68 -80z" />
    <glyph glyph-name="Ccircumflex" unicode="&#x108;" horiz-adv-x="405" 
d="M380 479h-138v70q0 23 -4 35q-8 21 -32 21t-32 -21q-4 -12 -4 -35v-398q0 -23 4 -35q8 -21 32 -21t32 21q4 12 4 35v110h138v-107q0 -40 -8.5 -69t-37.5 -54q-46 -41 -128 -41q-83 0 -128 41q-46 42 -46 123v392q0 81 46 123q45 41 128 41q82 0 128 -41q29 -25 37.5 -54
t8.5 -69v-67zM59 730v60l142 89l141 -89v-60l-141 58z" />
    <glyph glyph-name="ccircumflex" unicode="&#x109;" horiz-adv-x="351" 
d="M331 196v-42q0 -73 -13 -99q-31 -65 -136 -65q-100 0 -137 64q-20 35 -20 106v207q0 67 25 101q39 54 128 54q91 0 128 -54q25 -35 25 -118v-35h-124v61q0 30 -6 41q-7 11 -21 11t-21 -11q-6 -11 -6 -41v-234q0 -34 6 -45q7 -13 23 -13t23 12q6 11 6 46v54h120zM32 551
v60l142 89l141 -89v-60l-141 58z" />
    <glyph glyph-name="Ccaron" unicode="&#x10c;" horiz-adv-x="405" 
d="M380 479h-138v70q0 23 -4 35q-8 21 -32 21t-32 -21q-4 -12 -4 -35v-398q0 -23 4 -35q8 -21 32 -21t32 21q4 12 4 35v110h138v-107q0 -40 -8.5 -69t-37.5 -54q-46 -41 -128 -41q-83 0 -128 41q-46 42 -46 123v392q0 81 46 123q45 41 128 41q82 0 128 -41q29 -25 37.5 -54
t8.5 -69v-67zM59 869l142 -58l141 58v-60l-141 -89l-142 89v60z" />
    <glyph glyph-name="ccaron" unicode="&#x10d;" horiz-adv-x="351" 
d="M331 196v-42q0 -73 -13 -99q-31 -65 -136 -65q-100 0 -137 64q-20 35 -20 106v207q0 67 25 101q39 54 128 54q91 0 128 -54q25 -35 25 -118v-35h-124v61q0 30 -6 41q-7 11 -21 11t-21 -11q-6 -11 -6 -41v-234q0 -34 6 -45q7 -13 23 -13t23 12q6 11 6 46v54h120zM32 719
l142 -58l141 58v-60l-141 -89l-142 89v60z" />
    <glyph glyph-name="Dcaron" unicode="&#x10e;" horiz-adv-x="415" 
d="M35 0v700h218q55 0 91 -34q39 -39 39 -124v-374q0 -77 -42 -124q-41 -44 -115 -44h-191zM173 95h28q11 0 20 6.5t12.5 11.5t4.5 8q7 16 7 46v372q0 35 -7 46q-10 17 -32 17h-33v-507zM64 869l142 -58l141 58v-60l-141 -89l-142 89v60z" />
    <glyph glyph-name="dcaron" unicode="&#x10f;" horiz-adv-x="457" 
d="M497 700v-119l-65 -108h-54l45 117h-42v110h116zM212 700h128v-700h-128v55q-8 -22 -24 -38q-27 -27 -64 -27q-40 0 -65 25q-14 14 -21 32.5t-7.5 30.5t-0.5 37v287q0 61 21 89q24 31 65 31q42 0 68 -28q13 -13 28 -38v244zM212 133v231q0 24 -5 46q-6 27 -25 27
q-13 0 -19 -15q-5 -13 -5 -39v-245q0 -38 6 -48q6 -13 20 -13q13 0 19 11q9 16 9 45z" />
    <glyph glyph-name="Dcroat" unicode="&#x110;" horiz-adv-x="428" 
d="M48 0v335h-58v84h58v281h218q55 0 91 -34q39 -39 39 -124v-374q0 -77 -42 -124q-41 -44 -115 -44h-191zM186 95h28q11 0 20 6.5t12.5 11.5t4.5 8q7 16 7 46v372q0 32 -8 46q-10 17 -31 17h-33v-183h47v-83h-47v-241z" />
    <glyph glyph-name="dcroat" unicode="&#x111;" horiz-adv-x="366" 
d="M335 0h-128v55q-8 -22 -24 -38q-27 -27 -64 -27q-40 0 -65 25q-14 14 -21 32.5t-7.5 30.5t-0.5 37v287q0 61 21 89q23 31 65 31t68 -28q8 -8 28 -38v137h-106v69h106v38h128v-38h61v-69h-61v-593zM207 133v231q0 24 -5 46q-6 27 -25 27q-13 0 -19 -15q-5 -13 -5 -39v-245
q0 -38 6 -48q7 -13 20 -13t19 11q9 16 9 45z" />
    <glyph glyph-name="Emacron" unicode="&#x112;" horiz-adv-x="369" 
d="M35 0v700h313v-98h-175v-168h132v-98h-132v-238h191v-98h-329zM68 762v78h256v-78h-256z" />
    <glyph glyph-name="emacron" unicode="&#x113;" horiz-adv-x="360" 
d="M335 160v-43q0 -48 -32 -85q-39 -42 -123 -42q-75 0 -114 40q-41 42 -41 118v210q0 81 35 119q42 45 119 45q76 0 119 -45q18 -18 26.5 -41.5t9.5 -36.5t1 -41v-130h-182v-114q0 -10 7 -21q7 -9 22 -9q17 0 23 9q6 8 6 24v43h124zM207 308v83q0 16 -5 26q-7 11 -23 11
q-14 0 -21 -11q-5 -8 -5 -27v-82h54zM50 602v78h256v-78h-256z" />
    <glyph glyph-name="Edotaccent" unicode="&#x116;" horiz-adv-x="369" 
d="M35 0v700h313v-98h-175v-168h132v-98h-132v-238h191v-98h-329zM266 746h-139v122h139v-122z" />
    <glyph glyph-name="edotaccent" unicode="&#x117;" horiz-adv-x="360" 
d="M335 160v-43q0 -48 -32 -85q-39 -42 -123 -42q-75 0 -114 40q-41 42 -41 118v210q0 81 35 119q42 45 119 45q76 0 119 -45q18 -18 26.5 -41.5t9.5 -36.5t1 -41v-130h-182v-114q0 -10 7 -21q7 -9 22 -9q17 0 23 9q6 8 6 24v43h124zM207 308v83q0 16 -5 26q-7 11 -23 11
q-14 0 -21 -11q-5 -8 -5 -27v-82h54zM253 579h-139v122h139v-122z" />
    <glyph glyph-name="Eogonek" unicode="&#x118;" horiz-adv-x="369" 
d="M35 0v700h313v-98h-175v-168h132v-98h-132v-238h191v-98h-10q-17 -21 -40 -55q-25 -36 -25 -56q0 -16 10 -24q13 -10 45 -10h19v-55h-35q-64 0 -92 21q-30 23 -30 59q0 29 24 69q17 26 49 51h-244z" />
    <glyph glyph-name="eogonek" unicode="&#x119;" horiz-adv-x="350" 
d="M325 181v-64q0 -51 -29 -85q-23 -27 -52 -34q-18 -23 -38 -53q-25 -36 -25 -56q0 -16 10 -24q13 -10 45 -10h19v-55h-35q-64 0 -92 21q-30 23 -30 59q0 29 24 69q13 20 37 42q-61 0 -97 37q-37 38 -37 114v241q0 70 42 105q39 34 109 34q66 0 106 -33q43 -35 43 -112
v-143h-172v-106q0 -23 6 -32q8 -12 24 -12q18 0 25 11q5 9 5 29v57h112zM205 314v77q0 20 -5 27q-6 10 -21 10q-13 0 -21 -10q-5 -7 -5 -28v-76h52z" />
    <glyph glyph-name="Ecaron" unicode="&#x11a;" horiz-adv-x="369" 
d="M35 0v700h313v-98h-175v-168h132v-98h-132v-238h191v-98h-329zM45 870l142 -58l141 58v-60l-141 -89l-142 89v60z" />
    <glyph glyph-name="ecaron" unicode="&#x11b;" horiz-adv-x="360" 
d="M335 160v-43q0 -48 -32 -85q-39 -42 -123 -42q-75 0 -114 40q-41 42 -41 118v210q0 81 35 119q42 45 119 45q76 0 119 -45q18 -18 26.5 -41.5t9.5 -36.5t1 -41v-130h-182v-114q0 -10 7 -21q7 -9 22 -9q17 0 23 9q6 8 6 24v43h124zM207 308v83q0 16 -5 26q-7 11 -23 11
q-14 0 -21 -11q-5 -8 -5 -27v-82h54zM36 719l142 -58l141 58v-60l-141 -89l-142 89v60z" />
    <glyph glyph-name="Gcircumflex" unicode="&#x11c;" horiz-adv-x="412" 
d="M380 479h-138v70q0 23 -4 35q-8 21 -32 21t-32 -21q-4 -12 -4 -35v-398q0 -23 4 -35q8 -21 32 -21t32 21q4 12 4 35v94h-40v94h178v-185q0 -40 -8.5 -69t-37.5 -54q-46 -41 -128 -41q-83 0 -128 41q-46 42 -46 123v392q0 81 46 123q45 41 128 41q82 0 128 -41
q29 -25 37.5 -54t8.5 -69v-67zM62 730v60l142 89l141 -89v-60l-141 58z" />
    <glyph glyph-name="gcircumflex" unicode="&#x11d;" horiz-adv-x="365" 
d="M25 13h128v-13q0 -17 5 -25q8 -11 22 -11q15 0 22 11q5 9 5 25v114h-3q-9 -27 -27 -44q-23 -22 -63 -22q-47 0 -70 34q-19 27 -19 80v252q0 67 42 93q23 15 54 15q37 0 61 -26q20 -20 30 -57h3v70h120v-476q0 -74 -28 -106q-37 -43 -120 -43q-88 0 -129 43q-28 31 -33 86
zM153 376v-182q0 -27 4 -39q7 -15 23 -15q17 0 23 24q4 15 4 46v157q0 27 -7 43q-8 19 -24 19q-14 0 -19 -15q-4 -10 -4 -38zM39 551v60l142 89l141 -89v-60l-141 58z" />
    <glyph glyph-name="Gbreve" unicode="&#x11e;" horiz-adv-x="412" 
d="M380 479h-138v70q0 23 -4 35q-8 21 -32 21t-32 -21q-4 -12 -4 -35v-398q0 -23 4 -35q8 -21 32 -21t32 21q4 12 4 35v94h-40v94h178v-185q0 -40 -8.5 -69t-37.5 -54q-46 -41 -128 -41q-83 0 -128 41q-46 42 -46 123v392q0 81 46 123q45 41 128 41q82 0 128 -41
q29 -25 37.5 -54t8.5 -69v-67zM249 857h97q-2 -64 -52 -101q-38 -29 -94 -29t-94 29q-50 37 -52 101h97q-2 -25 8 -41q14 -22 42 -22q27 0 40 22q10 17 8 41z" />
    <glyph glyph-name="gbreve" unicode="&#x11f;" horiz-adv-x="365" 
d="M25 13h128v-13q0 -17 5 -25q8 -11 22 -11q15 0 22 11q5 9 5 25v114h-3q-9 -27 -27 -44q-23 -22 -63 -22q-47 0 -70 34q-19 27 -19 80v252q0 67 42 93q23 15 54 15q37 0 61 -26q20 -20 30 -57h3v70h120v-476q0 -74 -28 -106q-37 -43 -120 -43q-88 0 -129 43q-28 31 -33 86
zM153 376v-182q0 -27 4 -39q7 -15 23 -15q17 0 23 24q4 15 4 46v157q0 27 -7 43q-8 19 -24 19q-14 0 -19 -15q-4 -10 -4 -38zM225 700h97q-2 -64 -52 -101q-38 -29 -94 -29t-94 29q-50 37 -52 101h97q-2 -25 8 -41q14 -22 42 -22q27 0 40 22q10 17 8 41z" />
    <glyph glyph-name="Gcommaaccent" unicode="&#x122;" horiz-adv-x="412" 
d="M380 479h-138v70q0 23 -4 35q-8 21 -32 21t-32 -21q-4 -12 -4 -35v-398q0 -23 4 -35q8 -21 32 -21t32 21q4 12 4 35v94h-40v94h178v-185q0 -40 -8.5 -69t-37.5 -54q-46 -41 -128 -41q-83 0 -128 41q-46 42 -46 123v392q0 81 46 123q45 41 128 41q82 0 128 -41
q29 -25 37.5 -54t8.5 -69v-67zM253 -43v-95l-51 -86h-56l36 91h-35v90h106z" />
    <glyph glyph-name="gcommaaccent" unicode="&#x123;" horiz-adv-x="365" 
d="M25 13h128v-13q0 -17 5 -25q8 -11 22 -11q15 0 22 11q5 9 5 25v114h-3q-9 -27 -27 -44q-23 -22 -63 -22q-47 0 -70 34q-19 27 -19 80v252q0 67 42 93q23 15 54 15q37 0 61 -26q20 -20 30 -57h3v70h120v-476q0 -74 -28 -106q-37 -43 -120 -43q-88 0 -129 43q-28 31 -33 86
zM153 379v-185q0 -27 4 -39q7 -15 23 -15q17 0 23 24q4 15 4 46v157q0 27 -7 43q-8 19 -24 19q-14 0 -19 -15q-4 -12 -4 -35zM133 577v119l65 108h54l-45 -117h42v-110h-116z" />
    <glyph glyph-name="Hcircumflex" unicode="&#x124;" horiz-adv-x="418" 
d="M245 336h-72v-336h-138v700h138v-269h72v269h138v-700h-138v336zM65 730v60l142 89l141 -89v-60l-141 58z" />
    <glyph glyph-name="hcircumflex" unicode="&#x125;" horiz-adv-x="365" 
d="M340 0h-128v385q0 31 -5 38q-6 11 -18 11q-16 0 -24 -18q-7 -14 -7 -39v-377h-128v700h128v-246q17 28 42 47q28 21 62 21t55 -23q23 -24 23 -98v-401zM-52 723v60l142 89l141 -89v-60l-141 58z" />
    <glyph glyph-name="Imacron" unicode="&#x12a;" horiz-adv-x="208" 
d="M35 0v700h138v-700h-138zM-28 760v78h256v-78h-256z" />
    <glyph glyph-name="imacron" unicode="&#x12b;" horiz-adv-x="188" 
d="M158 0h-128v512h128v-512zM-34 602v78h256v-78h-256z" />
    <glyph glyph-name="Iogonek" unicode="&#x12e;" horiz-adv-x="207" 
d="M35 0v700h138v-700q-17 -21 -40 -55q-25 -36 -25 -56q0 -16 10 -24q13 -10 45 -10h19v-55h-35q-64 0 -92 21q-30 23 -30 59q0 29 24 69q17 26 49 51h-63z" />
    <glyph glyph-name="iogonek" unicode="&#x12f;" horiz-adv-x="188" 
d="M158 0h-1q-17 -21 -40 -55q-25 -36 -25 -56q0 -16 10 -24q13 -10 45 -10h19v-55h-35q-64 0 -92 21q-30 23 -30 59q0 29 24 69q17 26 49 51h-52v512h128v-512zM158 572h-128v128h128v-128z" />
    <glyph glyph-name="Idotaccent" unicode="&#x130;" horiz-adv-x="208" 
d="M35 0v700h138v-700h-138zM175 726h-139v122h139v-122z" />
    <glyph glyph-name="dotlessi" unicode="&#x131;" horiz-adv-x="188" 
d="M158 0h-128v512h128v-512z" />
    <glyph glyph-name="Jcircumflex" unicode="&#x134;" horiz-adv-x="285" 
d="M5 0v98h56q37 0 45 11q6 9 6 33v558h138v-567q0 -54 -21 -84q-35 -49 -117 -49h-107zM34 731v60l142 89l141 -89v-60l-141 58z" />
    <glyph glyph-name="jcircumflex" unicode="&#x135;" horiz-adv-x="188" 
d="M-63 -148v90h61q32 0 32 37v533h128v-552q0 -56 -19 -79q-24 -29 -83 -29h-119zM-47 551v60l142 89l141 -89v-60l-141 58z" />
    <glyph glyph-name="Kcommaaccent" unicode="&#x136;" horiz-adv-x="403" 
d="M173 0h-138v700h138v-297h5l75 297h136l-92 -331l96 -369h-140l-75 338h-5v-338zM249 -43v-95l-51 -86h-56l36 91h-35v90h106z" />
    <glyph glyph-name="kcommaaccent" unicode="&#x137;" horiz-adv-x="364" 
d="M359 0h-128l-71 234h-2v-234h-128v700h128v-382h3l68 194h128l-88 -244zM229 -43v-95l-51 -86h-56l36 91h-35v90h106z" />
    <glyph glyph-name="Lacute" unicode="&#x139;" horiz-adv-x="364" 
d="M359 0h-324v700h138v-602h186v-98zM58 730l-18 48l244 109l37 -98z" />
    <glyph glyph-name="lacute" unicode="&#x13a;" horiz-adv-x="188" 
d="M158 0h-128v700h128v-700zM21 726l-35 47l148 148l68 -80z" />
    <glyph glyph-name="Lcommaaccent" unicode="&#x13b;" horiz-adv-x="364" 
d="M359 0h-324v700h138v-602h186v-98zM229 -43v-95l-51 -86h-56l36 91h-35v90h106z" />
    <glyph glyph-name="lcommaaccent" unicode="&#x13c;" horiz-adv-x="188" 
d="M158 0h-128v700h128v-700zM141 -43v-95l-51 -86h-56l36 91h-35v90h106z" />
    <glyph glyph-name="Lcaron" unicode="&#x13d;" horiz-adv-x="364" 
d="M341 700v-119l-65 -108h-54l45 117h-41v110h115zM359 0h-324v700h138v-602h186v-98z" />
    <glyph glyph-name="lcaron" unicode="&#x13e;" horiz-adv-x="267" 
d="M307 700v-119l-65 -108h-54l45 117h-42v110h116zM158 0h-128v700h128v-700z" />
    <glyph glyph-name="Lslash" unicode="&#x141;" horiz-adv-x="424" 
d="M420 0h-324v239l-106 -82v103l106 82v358h138v-270l136 101v-103l-136 -101v-229h186v-98z" />
    <glyph glyph-name="lslash" unicode="&#x142;" horiz-adv-x="274" 
d="M202 0h-128v243l-79 -73v99l79 79v352h128v-248l77 85v-112l-77 -89v-336z" />
    <glyph glyph-name="Nacute" unicode="&#x143;" horiz-adv-x="414" 
d="M379 0h-122l-98 363h-3l7 -80v-283h-128v700h122l98 -375h4l-8 74v301h128v-700zM83 730l-18 48l244 109l37 -98z" />
    <glyph glyph-name="nacute" unicode="&#x144;" horiz-adv-x="365" 
d="M340 0h-128v385q0 31 -5 39q-6 10 -21 10t-23 -18q-5 -12 -5 -31v-385h-128v512h121l3 -48q16 27 40 42q25 16 59 16q36 0 61 -23q26 -26 26 -102v-397zM109 546l-35 47l148 148l68 -80z" />
    <glyph glyph-name="Ncommaaccent" unicode="&#x145;" horiz-adv-x="414" 
d="M379 0h-122l-98 363h-3l7 -80v-283h-128v700h122l98 -375h4l-8 74v301h128v-700zM254 -43v-95l-51 -86h-56l36 91h-35v90h106z" />
    <glyph glyph-name="ncommaaccent" unicode="&#x146;" horiz-adv-x="365" 
d="M340 0h-128v385q0 31 -5 39q-6 10 -21 10t-23 -18q-5 -12 -5 -31v-385h-128v512h121l3 -48q16 27 40 42q25 16 59 16q36 0 61 -23q26 -26 26 -102v-397zM230 -43v-95l-51 -86h-56l36 91h-35v90h106z" />
    <glyph glyph-name="Ncaron" unicode="&#x147;" horiz-adv-x="414" 
d="M379 0h-122l-98 363h-3l7 -80v-283h-128v700h122l98 -375h4l-8 74v301h128v-700zM63 869l142 -58l141 58v-60l-141 -89l-142 89v60z" />
    <glyph glyph-name="ncaron" unicode="&#x148;" horiz-adv-x="365" 
d="M340 0h-128v385q0 31 -5 39q-6 10 -21 10t-23 -18q-5 -12 -5 -31v-385h-128v512h121l3 -48q16 27 40 42q25 16 59 16q36 0 61 -23q26 -26 26 -102v-397zM39 719l142 -58l141 58v-60l-141 -89l-142 89v60z" />
    <glyph glyph-name="Omacron" unicode="&#x14c;" horiz-adv-x="412" 
d="M380 546v-392q0 -40 -8.5 -69t-37.5 -54q-46 -41 -128 -41q-83 0 -128 41q-46 42 -46 123v392q0 81 46 123q45 41 128 41q82 0 128 -41q29 -25 37.5 -54t8.5 -69zM242 151v398q0 23 -4 35q-8 21 -32 21t-32 -21q-4 -12 -4 -35v-398q0 -23 4 -35q8 -21 32 -21t32 21
q4 12 4 35zM71 760v78h256v-78h-256z" />
    <glyph glyph-name="omacron" unicode="&#x14d;" horiz-adv-x="360" 
d="M153 390v-268q0 -20 5 -27q7 -11 22 -11t22 11q5 7 5 27v268q0 20 -5 27q-7 11 -22 11t-22 -11q-5 -7 -5 -27zM335 375v-238q0 -70 -34 -105q-40 -42 -121 -42t-121 42q-34 35 -34 105v238q0 70 34 105q40 42 121 42t121 -42q34 -35 34 -105zM44 601v78h256v-78h-256z
" />
    <glyph glyph-name="Obreve" unicode="&#x14e;" horiz-adv-x="412" 
d="M380 546v-392q0 -40 -8.5 -69t-37.5 -54q-46 -41 -128 -41q-83 0 -128 41q-46 42 -46 123v392q0 81 46 123q45 41 128 41q82 0 128 -41q29 -25 37.5 -54t8.5 -69zM242 151v398q0 23 -4 35q-8 21 -32 21t-32 -21q-4 -12 -4 -35v-398q0 -23 4 -35q8 -21 32 -21t32 21
q4 12 4 35zM249 857h97q-2 -64 -52 -101q-38 -29 -94 -29t-94 29q-50 37 -52 101h97q-2 -25 8 -41q14 -22 42 -22q27 0 40 22q10 17 8 41z" />
    <glyph glyph-name="obreve" unicode="&#x14f;" horiz-adv-x="360" 
d="M153 390v-268q0 -20 5 -27q7 -11 22 -11t22 11q5 7 5 27v268q0 20 -5 27q-7 11 -22 11t-22 -11q-5 -7 -5 -27zM335 375v-238q0 -70 -34 -105q-40 -42 -121 -42t-121 42q-34 35 -34 105v238q0 70 34 105q40 42 121 42t121 -42q34 -35 34 -105zM223 700h97q-2 -64 -52 -101
q-38 -29 -94 -29t-94 29q-50 37 -52 101h97q-2 -25 8 -41q14 -22 42 -22q27 0 40 22q10 17 8 41z" />
    <glyph glyph-name="Ohungarumlaut" unicode="&#x150;" horiz-adv-x="412" 
d="M380 546v-392q0 -40 -8.5 -69t-37.5 -54q-46 -41 -128 -41q-83 0 -128 41q-46 42 -46 123v392q0 81 46 123q45 41 128 41q82 0 128 -41q29 -25 37.5 -54t8.5 -69zM242 151v398q0 23 -4 35q-8 21 -32 21t-32 -21q-4 -12 -4 -35v-398q0 -23 4 -35q8 -21 32 -21t32 21
q4 12 4 35zM138 725l-41 36l91 114l60 -55zM293 725l-41 36l91 114l60 -55z" />
    <glyph glyph-name="ohungarumlaut" unicode="&#x151;" horiz-adv-x="360" 
d="M153 390v-268q0 -20 5 -27q7 -11 22 -11t22 11q5 7 5 27v268q0 20 -5 27q-7 11 -22 11t-22 -11q-5 -7 -5 -27zM335 375v-238q0 -70 -34 -105q-40 -42 -121 -42t-121 42q-34 35 -34 105v238q0 70 34 105q40 42 121 42t121 -42q34 -35 34 -105zM118 550l-41 36l91 114
l60 -55zM273 550l-41 36l91 114l60 -55z" />
    <glyph glyph-name="OE" unicode="&#x152;" horiz-adv-x="574" 
d="M569 0h-293q-33 -10 -72 -10q-83 0 -128 41q-46 42 -46 123v392q0 81 46 123q46 41 128 41q40 0 72 -10h277v-98h-175v-168h132v-98h-132v-238h191v-98zM168 549v-398q0 -23 4 -35q8 -21 32 -21t32 21q4 12 4 35v398q0 23 -4 35q-8 21 -32 21t-32 -21q-4 -12 -4 -35z" />
    <glyph glyph-name="oe" unicode="&#x153;" horiz-adv-x="532" 
d="M153 390v-268q0 -20 5 -27q7 -11 22 -11t22 11q5 7 5 27v268q0 20 -5 27q-7 11 -22 11t-22 -11q-5 -7 -5 -27zM507 182v-54q0 -60 -29 -95q-36 -42 -116 -42q-56 0 -92 18q-38 -19 -90 -19q-81 0 -121 42q-34 35 -34 105v238q0 70 34 105q40 42 121 42q49 0 89 -19
q27 19 89 19q67 0 106 -32q43 -34 43 -112v-144h-172v-97q0 -30 6 -40q8 -12 24 -12q18 0 25 11q5 8 5 35v51h112zM387 314v77q0 20 -5 27q-6 10 -21 10q-13 0 -21 -10q-5 -7 -5 -28v-76h52z" />
    <glyph glyph-name="Racute" unicode="&#x154;" horiz-adv-x="422" 
d="M412 0h-154q-19 30 -19 83v167q0 35 -10 45q-11 11 -36 11h-19v-306h-139l1 700h232q65 0 98 -44q19 -26 19 -69v-142q0 -42 -34 -61q-21 -11 -57 -19v-6q28 -8 48 -21q17 -12 25.5 -31.5t9 -28t0.5 -29.5v-150q0 -50 6.5 -68t28.5 -24v-7zM174 411h29q21 0 31 10
q13 13 13 45v81q0 22 -6 37q-9 18 -34 18h-33v-191zM87 730l-18 48l244 109l37 -98z" />
    <glyph glyph-name="racute" unicode="&#x155;" horiz-adv-x="273" 
d="M158 0h-128v512h124v-52h3q15 26 33 40q26 22 60 22h15l-4 -175q-18 18 -43 18q-33 0 -47 -20q-13 -17 -13 -59v-286zM97 546l-35 47l148 148l68 -80z" />
    <glyph glyph-name="Rcommaaccent" unicode="&#x156;" horiz-adv-x="422" 
d="M412 0h-154q-19 30 -19 83v167q0 35 -10 45q-11 11 -36 11h-19v-306h-139l1 700h232q65 0 98 -44q19 -26 19 -69v-142q0 -42 -34 -61q-21 -11 -57 -19v-6q28 -8 48 -21q17 -12 25.5 -31.5t9 -28t0.5 -29.5v-150q0 -50 6.5 -68t28.5 -24v-7zM174 411h29q21 0 31 10
q13 13 13 45v81q0 22 -6 37q-9 18 -34 18h-33v-191zM258 -43v-95l-51 -86h-56l36 91h-35v90h106z" />
    <glyph glyph-name="rcommaaccent" unicode="&#x157;" horiz-adv-x="273" 
d="M158 0h-128v512h124v-52h3q15 26 33 40q26 22 60 22h15l-4 -175q-18 18 -43 18q-33 0 -47 -20q-13 -17 -13 -59v-286zM137 -45v-95l-51 -86h-56l36 91h-35v90h106z" />
    <glyph glyph-name="Rcaron" unicode="&#x158;" horiz-adv-x="422" 
d="M412 0h-154q-19 30 -19 83v167q0 35 -10 45q-11 11 -36 11h-19v-306h-139l1 700h232q65 0 98 -44q19 -26 19 -69v-142q0 -42 -34 -61q-21 -11 -57 -19v-6q28 -8 48 -21q17 -12 25.5 -31.5t9 -28t0.5 -29.5v-150q0 -50 6.5 -68t28.5 -24v-7zM174 411h29q21 0 31 10
q13 13 13 45v81q0 22 -6 37q-9 18 -34 18h-33v-191zM67 869l142 -58l141 58v-60l-141 -89l-142 89v60z" />
    <glyph glyph-name="rcaron" unicode="&#x159;" horiz-adv-x="273" 
d="M158 0h-128v512h124v-52h3q15 26 33 40q26 22 60 22h15l-4 -175q-18 18 -43 18q-33 0 -47 -20q-13 -17 -13 -59v-286zM-7 719l142 -58l141 58v-60l-141 -89l-142 89v60z" />
    <glyph glyph-name="Sacute" unicode="&#x15a;" horiz-adv-x="388" 
d="M20 222h138v-52q0 -45 6 -59q10 -23 33 -23q22 0 29 21q4 11 4 47v27q0 35 -9.5 55t-31.5 41l-95 91q-31 29 -48 62q-22 43 -22 111v27q0 58 41 99q42 41 131 41q85 0 128 -41q21 -19 31 -44.5t11.5 -42.5t1.5 -49v-43h-134v42q0 55 -7 66q-8 14 -28 14q-17 0 -27 -13
q-10 -12 -10 -40v-16q0 -46 42 -86l80 -77q43 -41 55 -60q29 -45 29 -123v-40q0 -28 -1 -42.5t-11.5 -39.5t-30.5 -45q-41 -40 -120 -40q-70 0 -119 32q-40 26 -53 62t-13 84v54zM107 730l-18 48l244 109l37 -98z" />
    <glyph glyph-name="sacute" unicode="&#x15b;" 
d="M15 138h126l-2 -18q-1 -19 8 -30q9 -10 23 -10q18 0 24 11q5 8 5 22q0 65 -42 93l-39 26q-33 23 -44 33q-24 22 -38 52q-16 33 -16 77q0 35 13 61q12 24 35 40q40 27 105 27q61 0 100 -31q43 -34 43 -98v-14h-114v18q0 16 -6 26q-6 11 -21 11q-12 0 -19 -7q-8 -8 -8 -27
q0 -25 12 -42q8 -10 47 -38l51 -35q36 -25 53 -59q14 -29 14 -99q0 -39 -24 -78q-23 -35 -55 -47q-30 -12 -77 -12q-33 0 -69 12q-33 11 -54 36q-31 41 -31 83v17zM117 546l-35 47l148 148l68 -80z" />
    <glyph glyph-name="Scircumflex" unicode="&#x15c;" horiz-adv-x="388" 
d="M20 222h138v-52q0 -45 6 -59q10 -23 33 -23q22 0 29 21q4 11 4 47v27q0 35 -9.5 55t-31.5 41l-95 91q-31 29 -48 62q-22 43 -22 111v27q0 58 41 99q42 41 131 41q85 0 128 -41q21 -19 31 -44.5t11.5 -42.5t1.5 -49v-43h-134v42q0 55 -7 66q-8 14 -28 14q-17 0 -27 -13
q-10 -12 -10 -40v-16q0 -46 42 -86l80 -77q43 -41 55 -60q29 -45 29 -123v-40q0 -28 -1 -42.5t-11.5 -39.5t-30.5 -45q-41 -40 -120 -40q-70 0 -119 32q-40 26 -53 62t-13 84v54zM50 730v60l142 89l141 -89v-60l-141 58z" />
    <glyph glyph-name="scircumflex" unicode="&#x15d;" 
d="M15 138h126l-2 -18q-1 -19 8 -30q9 -10 23 -10q18 0 24 11q5 8 5 22q0 65 -42 93l-39 26q-33 23 -44 33q-24 22 -38 52q-16 33 -16 77q0 35 13 61q12 24 35 40q40 27 105 27q61 0 100 -31q43 -34 43 -98v-14h-114v18q0 16 -6 26q-6 11 -21 11q-12 0 -19 -7q-8 -8 -8 -27
q0 -25 12 -42q8 -10 47 -38l51 -35q36 -25 53 -59q14 -29 14 -99q0 -39 -24 -78q-23 -35 -55 -47q-30 -12 -77 -12q-33 0 -69 12q-33 11 -54 36q-31 41 -31 83v17zM27 551v60l142 89l141 -89v-60l-141 58z" />
    <glyph glyph-name="Scedilla" unicode="&#x15e;" horiz-adv-x="388" 
d="M20 222h138v-52q0 -45 6 -59q10 -23 33 -23q22 0 29 21q4 11 4 47v27q0 35 -9.5 55t-31.5 41l-95 91q-31 29 -48 62q-22 43 -22 111v27q0 58 41 99q42 41 131 41q85 0 128 -41q21 -19 31 -44.5t11.5 -42.5t1.5 -49v-43h-134v42q0 55 -7 66q-8 14 -28 14q-17 0 -27 -13
q-10 -12 -10 -40v-16q0 -46 42 -86l80 -77q43 -41 55 -60q29 -45 29 -123v-40q0 -27 -1 -41.5t-11.5 -40t-30.5 -45.5q-41 -39 -97 -39v-23q46 3 73 -28q18 -18 18 -56q0 -33 -22 -57q-26 -27 -73 -27q-5 0 -50 3q-16 1 -32 5v58q12 -3 36 -7q30 -3 36 -3q16 0 23 12
q5 9 5 19q0 15 -7 24q-10 13 -32 13h-39v69q-45 7 -78 29q-40 26 -53 62.5t-13 83.5v54z" />
    <glyph glyph-name="Scedilla" unicode="&#xf6c1;" horiz-adv-x="388" 
d="M20 222h138v-52q0 -45 6 -59q10 -23 33 -23q22 0 29 21q4 11 4 47v27q0 35 -9.5 55t-31.5 41l-95 91q-31 29 -48 62q-22 43 -22 111v27q0 58 41 99q42 41 131 41q85 0 128 -41q21 -19 31 -44.5t11.5 -42.5t1.5 -49v-43h-134v42q0 55 -7 66q-8 14 -28 14q-17 0 -27 -13
q-10 -12 -10 -40v-16q0 -46 42 -86l80 -77q43 -41 55 -60q29 -45 29 -123v-40q0 -27 -1 -41.5t-11.5 -40t-30.5 -45.5q-41 -39 -97 -39v-23q46 3 73 -28q18 -18 18 -56q0 -33 -22 -57q-26 -27 -73 -27q-5 0 -50 3q-16 1 -32 5v58q12 -3 36 -7q30 -3 36 -3q16 0 23 12
q5 9 5 19q0 15 -7 24q-10 13 -32 13h-39v69q-45 7 -78 29q-40 26 -53 62.5t-13 83.5v54z" />
    <glyph glyph-name="scedilla" unicode="&#x15f;" 
d="M15 138h126l-2 -18q-1 -19 8 -30q9 -10 22 -10q17 0 23 11q5 7 5 19q0 68 -40 96l-39 26q-33 23 -44 33q-24 22 -38 52q-16 33 -16 77q0 35 13 61q12 24 35 40q40 27 105 27q61 0 100 -31q43 -34 43 -98v-14h-114v18q0 16 -6 26q-6 11 -21 11q-12 0 -19 -7q-8 -8 -8 -27
q0 -25 12 -42q8 -10 47 -38l51 -35q36 -25 53 -59q14 -29 14 -99q0 -39 -24 -78q-23 -35 -55 -47q-17 -6 -47 -10v-24q46 3 73 -28q18 -18 18 -56q0 -33 -22 -57q-26 -27 -73 -27q-5 0 -50 3q-16 1 -32 5v58q12 -3 36 -7q30 -3 36 -3q16 0 23 12q5 9 5 19q0 15 -7 24
q-10 13 -32 13h-39v69q-24 5 -35 9q-33 11 -54 36q-31 41 -31 83v17z" />
    <glyph glyph-name="scedilla" unicode="&#xf6c2;" 
d="M15 138h126l-2 -18q-1 -19 8 -30q9 -10 22 -10q17 0 23 11q5 7 5 19q0 68 -40 96l-39 26q-33 23 -44 33q-24 22 -38 52q-16 33 -16 77q0 35 13 61q12 24 35 40q40 27 105 27q61 0 100 -31q43 -34 43 -98v-14h-114v18q0 16 -6 26q-6 11 -21 11q-12 0 -19 -7q-8 -8 -8 -27
q0 -25 12 -42q8 -10 47 -38l51 -35q36 -25 53 -59q14 -29 14 -99q0 -39 -24 -78q-23 -35 -55 -47q-17 -6 -47 -10v-24q46 3 73 -28q18 -18 18 -56q0 -33 -22 -57q-26 -27 -73 -27q-5 0 -50 3q-16 1 -32 5v58q12 -3 36 -7q30 -3 36 -3q16 0 23 12q5 9 5 19q0 15 -7 24
q-10 13 -32 13h-39v69q-24 5 -35 9q-33 11 -54 36q-31 41 -31 83v17z" />
    <glyph glyph-name="Scaron" unicode="&#x160;" horiz-adv-x="388" 
d="M20 222h138v-52q0 -45 6 -59q10 -23 33 -23q22 0 29 21q4 11 4 47v27q0 35 -9.5 55t-31.5 41l-95 91q-31 29 -48 62q-22 43 -22 111v27q0 58 41 99q42 41 131 41q85 0 128 -41q21 -19 31 -44.5t11.5 -42.5t1.5 -49v-43h-134v42q0 55 -7 66q-8 14 -28 14q-17 0 -27 -13
q-10 -12 -10 -40v-16q0 -46 42 -86l80 -77q43 -41 55 -60q29 -45 29 -123v-40q0 -28 -1 -42.5t-11.5 -39.5t-30.5 -45q-41 -40 -120 -40q-70 0 -119 32q-40 26 -53 62t-13 84v54zM50 869l142 -58l141 58v-60l-141 -89l-142 89v60z" />
    <glyph glyph-name="scaron" unicode="&#x161;" 
d="M15 138h126l-2 -18q-1 -19 8 -30q9 -10 23 -10q18 0 24 11q5 8 5 22q0 65 -42 93l-39 26q-33 23 -44 33q-24 22 -38 52q-16 33 -16 77q0 35 13 61q12 24 35 40q40 27 105 27q61 0 100 -31q43 -34 43 -98v-14h-114v18q0 16 -6 26q-6 11 -21 11q-12 0 -19 -7q-8 -8 -8 -27
q0 -25 12 -42q8 -10 47 -38l51 -35q36 -25 53 -59q14 -29 14 -99q0 -39 -24 -78q-23 -35 -55 -47q-30 -12 -77 -12q-33 0 -69 12q-33 11 -54 36q-31 41 -31 83v17zM27 719l142 -58l141 58v-60l-141 -89l-142 89v60z" />
    <glyph glyph-name="Tcedilla" unicode="&#x162;" horiz-adv-x="320" 
d="M91 0v602h-86v98h310v-98h-86v-602h-37v-32q46 3 73 -28q18 -18 18 -56q0 -33 -22 -57q-26 -27 -73 -27q-5 0 -50 3q-16 1 -32 5v58q12 -3 36 -7q30 -3 36 -3q16 0 23 12q5 9 5 19q0 15 -7 24q-10 13 -32 13h-39v76h-37z" />
    <glyph glyph-name="tcedilla" unicode="&#x163;" horiz-adv-x="227" 
d="M215 90v-90q-11 0 -16 -1q-14 -2 -20 -2l-23 -1v-28q46 3 73 -28q18 -18 18 -56q0 -33 -22 -57q-26 -27 -73 -27q-5 0 -50 3q-16 1 -32 5v58q12 -3 36 -7q30 -3 36 -3q16 0 23 12q5 9 5 19q0 15 -7 24q-10 13 -32 13h-39v76l-17 10q-18 10 -22 33q-6 23 -6 52v327h-35v90
h35v188h128v-188h35v-90h-35v-297q0 -35 24 -35h16z" />
    <glyph glyph-name="Tcaron" unicode="&#x164;" horiz-adv-x="320" 
d="M229 0h-138v602h-86v98h310v-98h-86v-602zM17 869l142 -58l141 58v-60l-141 -89l-142 89v60z" />
    <glyph glyph-name="tcaron" unicode="&#x165;" horiz-adv-x="295" 
d="M335 700v-119l-65 -108h-54l45 117h-42v110h116zM207 90v-90q-6 0 -36 -3q-26 -3 -62 0q-30 5 -42 13q-15 11 -22 33q-6 23 -6 52v327h-35v90h35v188h128v-188h35v-90h-35v-297q0 -35 24 -35h16z" />
    <glyph glyph-name="Umacron" unicode="&#x16a;" horiz-adv-x="414" 
d="M381 700v-546q0 -89 -55 -131q-44 -33 -119 -33t-118 33q-56 42 -56 132v545h138v-550q0 -26 6 -44q8 -18 30 -18t30 18q6 18 6 44v550h138zM78 756v78h256v-78h-256z" />
    <glyph glyph-name="umacron" unicode="&#x16b;" horiz-adv-x="365" 
d="M25 512h128v-385q0 -23 3 -34q4 -15 19 -15q17 0 26 22q6 18 6 40v372h128v-512h-124v48l-6 3q-14 -30 -34 -45q-21 -16 -59 -16t-61 23q-26 26 -26 98v401zM49 601v78h256v-78h-256z" />
    <glyph glyph-name="Ubreve" unicode="&#x16c;" horiz-adv-x="414" 
d="M381 700v-546q0 -89 -55 -131q-44 -33 -119 -33t-118 33q-56 42 -56 132v545h138v-550q0 -26 6 -44q8 -18 30 -18t30 18q6 18 6 44v550h138zM252 858h97q-2 -64 -52 -101q-38 -29 -94 -29t-94 29q-50 37 -52 101h97q-2 -25 8 -41q14 -22 42 -22q27 0 40 22q10 17 8 41z
" />
    <glyph glyph-name="ubreve" unicode="&#x16d;" horiz-adv-x="365" 
d="M25 512h128v-385q0 -23 3 -34q4 -15 19 -15q17 0 26 22q6 18 6 40v372h128v-512h-124v48l-6 3q-14 -30 -34 -45q-21 -16 -59 -16t-61 23q-26 26 -26 98v401zM225 700h97q-2 -64 -52 -101q-38 -29 -94 -29t-94 29q-50 37 -52 101h97q-2 -25 8 -41q14 -22 42 -22
q27 0 40 22q10 17 8 41z" />
    <glyph glyph-name="Uring" unicode="&#x16e;" horiz-adv-x="414" 
d="M381 700v-546q0 -89 -55 -131q-44 -33 -119 -33t-118 33q-56 42 -56 132v545h138v-550q0 -26 6 -44q8 -18 30 -18t30 18q6 18 6 44v550h138zM149 821q0 -23 15.5 -38t37.5 -15t37.5 15t15.5 38t-15.5 38t-37.5 15t-37.5 -15t-15.5 -38zM95 821q0 45 31 76t76 31t76 -31
t31 -76t-31 -76t-76 -31t-76 31t-31 76z" />
    <glyph glyph-name="uring" unicode="&#x16f;" horiz-adv-x="365" 
d="M25 512h128v-385q0 -23 3 -34q4 -15 19 -15q17 0 26 22q6 18 6 40v372h128v-512h-124v48l-6 3q-14 -30 -34 -45q-21 -16 -59 -16t-61 23q-26 26 -26 98v401zM124 638q0 -22 15 -37.5t38 -15.5t38 15.5t15 37.5t-15 37.5t-38 15.5t-38 -15.5t-15 -37.5zM70 638q0 45 31 76
t76 31t76 -31t31 -76t-31 -76t-76 -31t-76 31t-31 76z" />
    <glyph glyph-name="Uhungarumlaut" unicode="&#x170;" horiz-adv-x="414" 
d="M381 700v-546q0 -89 -55 -131q-44 -33 -119 -33t-118 33q-56 42 -56 132v545h138v-550q0 -26 6 -44q8 -18 30 -18t30 18q6 18 6 44v550h138zM138 726l-41 36l91 114l60 -55zM293 726l-41 36l91 114l60 -55z" />
    <glyph glyph-name="uhungarumlaut" unicode="&#x171;" horiz-adv-x="365" 
d="M25 512h128v-385q0 -23 3 -34q4 -15 19 -15q17 0 26 22q6 18 6 40v372h128v-512h-124v48l-6 3q-14 -30 -34 -45q-21 -16 -59 -16t-61 23q-26 26 -26 98v401zM98 550l-41 36l91 114l60 -55zM253 550l-41 36l91 114l60 -55z" />
    <glyph glyph-name="Uogonek" unicode="&#x172;" horiz-adv-x="414" 
d="M381 700v-546q0 -126 -103 -154q-17 -21 -40 -55q-25 -36 -25 -56q0 -16 10 -24q13 -10 45 -10h19v-55h-35q-64 0 -92 21q-30 23 -30 59q0 29 24 69q15 22 37 41q-62 4 -102 33q-56 42 -56 132v545h138v-550q0 -33 5 -44q7 -18 31 -18q23 0 30 18q6 16 6 44v550h138z" />
    <glyph glyph-name="uogonek" unicode="&#x173;" horiz-adv-x="365" 
d="M25 512h128v-388q0 -25 4 -34q5 -12 18 -12q18 0 26 22q6 18 6 40v372h128v-512q-17 -21 -40 -55q-25 -36 -25 -56q0 -16 10 -24q13 -10 45 -10h19v-55h-35q-64 0 -92 21q-30 23 -30 59q0 29 24 69q17 26 49 51h-49v48l-6 3q-14 -30 -34 -45q-21 -16 -59 -16t-61 23
q-26 26 -26 98v401z" />
    <glyph glyph-name="Ydieresis" unicode="&#x178;" horiz-adv-x="396" 
d="M267 0h-138v308l-119 392h138l50 -218l5 28l45 190h138l-119 -392v-308zM58 748v115h107v-115h-107zM228 748v115h107v-115h-107z" />
    <glyph glyph-name="Zacute" unicode="&#x179;" horiz-adv-x="367" 
d="M347 0h-332v110l200 492h-165v98h297v-103l-200 -499h200v-98zM97 728l-18 48l244 109l37 -98z" />
    <glyph glyph-name="zacute" unicode="&#x17a;" horiz-adv-x="320" 
d="M305 0h-293v100l157 322h-143v90h279v-100l-157 -322h157v-90zM117 544l-35 47l148 148l68 -80z" />
    <glyph glyph-name="Zdotaccent" unicode="&#x17b;" horiz-adv-x="367" 
d="M347 0h-332v110l200 492h-165v98h297v-103l-200 -499h200v-98zM266 742h-139v122h139v-122z" />
    <glyph glyph-name="zdotaccent" unicode="&#x17c;" horiz-adv-x="320" 
d="M305 0h-293v100l157 322h-143v90h279v-100l-157 -322h157v-90zM233 575h-139v122h139v-122z" />
    <glyph glyph-name="Zcaron" unicode="&#x17d;" horiz-adv-x="367" 
d="M347 0h-332v110l200 492h-165v98h297v-103l-200 -499h200v-98zM47 868l142 -58l141 58v-60l-141 -89l-142 89v60z" />
    <glyph glyph-name="zcaron" unicode="&#x17e;" horiz-adv-x="320" 
d="M305 0h-293v100l157 322h-143v90h279v-100l-157 -322h157v-90zM17 719l142 -58l141 58v-60l-141 -89l-142 89v60z" />
    <glyph glyph-name="Schwa" unicode="&#x18f;" horiz-adv-x="412" 
d="M32 369h210v180q0 23 -4 35q-8 21 -32 21t-32 -21q-4 -12 -4 -35v-83h-138v80q0 40 8.5 69t37.5 54q46 41 128 41q83 0 128 -41q46 -42 46 -123v-392q0 -81 -46 -123q-45 -41 -128 -41q-82 0 -128 41q-29 25 -37.5 54t-8.5 69v215zM170 271v-120q0 -23 4 -35
q8 -21 32 -21t32 21q4 12 4 35v120h-72z" />
    <glyph glyph-name="florin" unicode="&#x192;" horiz-adv-x="331" 
d="M225 477v-50h52v-83h-52v-253q0 -57 -7 -94t-30 -69q-50 -71 -149 -71h-29v76h23q46 0 62 32q11 21 11 103v276h-57v83h57v38q0 109 38 162q51 70 168 70h9v-76h-14q-54 0 -72 -44q-10 -24 -10 -100z" />
    <glyph glyph-name="Icaron" unicode="&#x1cf;" horiz-adv-x="208" 
d="M35 0v700h138v-700h-138zM-39 869l142 -58l141 58v-60l-141 -89l-142 89v60z" />
    <glyph glyph-name="icaron" unicode="&#x1d0;" horiz-adv-x="188" 
d="M158 0h-128v512h128v-512zM-48 719l142 -58l141 58v-60l-141 -89l-142 89v60z" />
    <glyph glyph-name="eturn" unicode="&#x1dd;" horiz-adv-x="350" 
d="M25 331v64q0 51 29 85q36 42 116 42q81 0 118 -38t37 -114v-241q0 -70 -42 -105q-39 -34 -109 -34q-66 0 -106 33q-43 35 -43 112v143h172v106q0 23 -6 32q-8 12 -24 12q-18 0 -25 -11q-5 -7 -5 -29v-57h-112zM145 198v-77q0 -20 5 -27q6 -10 21 -10q13 0 21 10q5 7 5 28
v76h-52z" />
    <glyph glyph-name="Gcaron" unicode="&#x1e6;" horiz-adv-x="412" 
d="M380 479h-138v70q0 23 -4 35q-8 21 -32 21t-32 -21q-4 -12 -4 -35v-398q0 -23 4 -35q8 -21 32 -21t32 21q4 12 4 35v94h-40v94h178v-185q0 -40 -8.5 -69t-37.5 -54q-46 -41 -128 -41q-83 0 -128 41q-46 42 -46 123v392q0 81 46 123q45 41 128 41q82 0 128 -41
q29 -25 37.5 -54t8.5 -69v-67zM62 869l142 -58l141 58v-60l-141 -89l-142 89v60z" />
    <glyph glyph-name="gcaron" unicode="&#x1e7;" horiz-adv-x="365" 
d="M25 13h128v-13q0 -17 5 -25q8 -11 22 -11q15 0 22 11q5 9 5 25v114h-3q-9 -27 -27 -44q-23 -22 -63 -22q-47 0 -70 34q-19 27 -19 80v252q0 67 42 93q23 15 54 15q37 0 61 -26q20 -20 30 -57h3v70h120v-476q0 -74 -28 -106q-37 -43 -120 -43q-88 0 -129 43q-28 31 -33 86
zM153 376v-182q0 -27 4 -39q7 -15 23 -15q17 0 23 24q4 15 4 46v157q0 27 -7 43q-8 19 -24 19q-14 0 -19 -15q-4 -10 -4 -38zM39 719l142 -58l141 58v-60l-141 -89l-142 89v60z" />
    <glyph glyph-name="Scommaaccent" unicode="&#x218;" horiz-adv-x="388" 
d="M20 222h138v-52q0 -45 6 -59q10 -23 33 -23q22 0 29 21q4 11 4 47v27q0 35 -9.5 55t-31.5 41l-95 91q-31 29 -48 62q-22 43 -22 111v27q0 58 41 99q42 41 131 41q85 0 128 -41q21 -19 31 -44.5t11.5 -42.5t1.5 -49v-43h-134v42q0 55 -7 66q-8 14 -28 14q-17 0 -27 -13
q-10 -12 -10 -40v-16q0 -46 42 -86l80 -77q43 -41 55 -60q29 -45 29 -123v-40q0 -28 -1 -42.5t-11.5 -39.5t-30.5 -45q-41 -40 -120 -40q-70 0 -119 32q-40 26 -53 62t-13 84v54zM241 -43v-95l-51 -86h-56l36 91h-35v90h106z" />
    <glyph glyph-name="scommaaccent" unicode="&#x219;" 
d="M15 138h126l-2 -18q-1 -19 8 -30q9 -10 23 -10q18 0 24 11q5 8 5 22q0 65 -42 93l-39 26q-33 23 -44 33q-24 22 -38 52q-16 33 -16 77q0 35 13 61q12 24 35 40q40 27 105 27q61 0 100 -31q43 -34 43 -98v-14h-114v18q0 16 -6 26q-6 11 -21 11q-12 0 -19 -7q-8 -8 -8 -27
q0 -25 12 -42q8 -10 47 -38l51 -35q36 -25 53 -59q14 -29 14 -99q0 -39 -24 -78q-23 -35 -55 -47q-30 -12 -77 -12q-33 0 -69 12q-33 11 -54 36q-31 41 -31 83v17zM217 -43v-95l-51 -86h-56l36 91h-35v90h106z" />
    <glyph glyph-name="Tcommaaccent" unicode="&#x21a;" horiz-adv-x="320" 
d="M229 0h-138v602h-86v98h310v-98h-86v-602zM208 -43v-95l-51 -86h-56l36 91h-35v90h106z" />
    <glyph glyph-name="tcommaaccent" unicode="&#x21b;" horiz-adv-x="217" 
d="M207 90v-90q-6 0 -36 -3q-26 -3 -62 0q-30 5 -42 13q-15 11 -22 33q-6 23 -6 52v327h-35v90h35v188h128v-188h35v-90h-35v-297q0 -35 24 -35h16zM177 -43v-95l-51 -86h-56l36 91h-35v90h106z" />
    <glyph glyph-name="Ecedilla" unicode="&#x228;" horiz-adv-x="369" 
d="M35 0v700h313v-98h-175v-168h132v-98h-132v-238h191v-98h-159v-32q46 3 73 -28q18 -18 18 -56q0 -33 -22 -57q-26 -27 -73 -27q-5 0 -50 3q-16 1 -32 5v58q12 -3 36 -7q30 -3 36 -3q16 0 23 12q5 9 5 19q0 15 -7 24q-10 13 -32 13h-39v76h-106z" />
    <glyph glyph-name="ecedilla" unicode="&#x229;" horiz-adv-x="350" 
d="M325 181v-64q0 -51 -29 -85q-33 -39 -92 -41v-23q46 3 73 -28q18 -18 18 -56q0 -33 -22 -57q-26 -27 -73 -27q-5 0 -50 3q-16 1 -32 5v58q12 -3 36 -7q30 -3 36 -3q16 0 23 12q5 9 5 19q0 15 -7 24q-10 13 -32 13h-39v68q-51 8 -78 36q-37 38 -37 114v241q0 70 42 105
q39 34 109 34q66 0 106 -33q43 -35 43 -112v-143h-172v-106q0 -23 6 -32q8 -12 24 -12q18 0 25 11q5 9 5 29v57h112zM205 314v77q0 20 -5 27q-6 10 -21 10q-13 0 -21 -10q-5 -7 -5 -28v-76h52z" />
    <glyph glyph-name="schwa" unicode="&#x259;" horiz-adv-x="350" 
d="M25 331v64q0 51 29 85q36 42 116 42q81 0 118 -38t37 -114v-241q0 -70 -42 -105q-39 -34 -109 -34q-66 0 -106 33q-43 35 -43 112v143h172v106q0 23 -6 32q-8 12 -24 12q-18 0 -25 -11q-5 -7 -5 -29v-57h-112zM145 198v-77q0 -20 5 -27q6 -10 21 -10q13 0 21 10q5 7 5 28
v76h-52z" />
    <glyph glyph-name="afii57929" unicode="&#x2bc;" horiz-adv-x="179" 
d="M149 700v-119l-65 -108h-54l45 117h-42v110h116z" />
    <glyph glyph-name="circumflex" unicode="&#x2c6;" 
d="M28 551v60l142 89l141 -89v-60l-141 58z" />
    <glyph glyph-name="caron" unicode="&#x2c7;" 
d="M28 719l142 -58l141 58v-60l-141 -89l-142 89v60z" />
    <glyph glyph-name="breve" unicode="&#x2d8;" 
d="M219 700h97q-2 -64 -52 -101q-38 -29 -94 -29t-94 29q-50 37 -52 101h97q-2 -25 8 -41q14 -22 42 -22q27 0 40 22q10 17 8 41z" />
    <glyph glyph-name="dotaccent" unicode="&#x2d9;" 
d="M240 578h-139v122h139v-122z" />
    <glyph glyph-name="ring" unicode="&#x2da;" 
d="M117 634q0 -22 15.5 -37.5t37.5 -15.5t37.5 15.5t15.5 37.5t-15.5 37.5t-37.5 15.5t-37.5 -15.5t-15.5 -37.5zM63 634q0 45 31 76t76 31t76 -31t31 -76t-31 -76t-76 -31t-76 31t-31 76z" />
    <glyph glyph-name="ogonek" unicode="&#x2db;" 
d="M249 -145v-55h-35q-64 0 -92 21q-30 22 -30 59q0 34 23 69q22 29 50 51h75q-32 -38 -42 -53q-23 -33 -23 -58q0 -15 10 -24q13 -10 45 -10h19z" />
    <glyph glyph-name="tilde" unicode="&#x2dc;" 
d="M26 579l-9 78q22 22 49 34q19 9 44 9q22 0 44 -11l46 -22q31 -14 43 -14q19 0 48 24l15 13l17 -70q-18 -18 -42 -32q-20 -12 -42 -12q-11 0 -27 4q-14 4 -31 12l-40 18q-24 12 -45 12q-19 0 -34 -9q-19 -10 -36 -34z" />
    <glyph glyph-name="hungarumlaut" unicode="&#x2dd;" 
d="M58 550l-41 36l91 114l60 -55zM213 550l-41 36l91 114l60 -55z" />
    <glyph glyph-name="acutecomb" unicode="&#x301;" horiz-adv-x="2" 
d="M-217 546l-35 47l148 148l68 -80z" />
    <glyph glyph-name="Delta" unicode="&#x394;" horiz-adv-x="384" 
d="M374 0h-364l67 700h232zM158 98h68l-31 495h-4z" />
    <glyph glyph-name="Delta" unicode="&#x2206;" horiz-adv-x="384" 
d="M374 0h-364l67 700h232zM158 98h68l-31 495h-4z" />
    <glyph glyph-name="Omega" unicode="&#x3a9;" horiz-adv-x="412" 
d="M285 99h95v-99h-156v169q9 5 14 17v2q1 2 1.5 4.5t1 6.5t1 10t0.5 12v328q0 23 -4 35q-8 21 -32 21t-32 -21q-4 -12 -4 -35v-328q0 -23 4 -35q3 -10 14 -17v-169h-156v99h95q-25 9 -49 32q-46 47 -46 123v292q0 81 46 123q45 41 128 41q82 0 128 -41q29 -25 37.5 -54
t8.5 -69v-292q0 -41 -8.5 -68t-37.5 -55q-23 -22 -49 -32z" />
    <glyph glyph-name="Omega" unicode="&#x2126;" horiz-adv-x="412" 
d="M285 99h95v-99h-156v169q9 5 14 17v2q1 2 1.5 4.5t1 6.5t1 10t0.5 12v328q0 23 -4 35q-8 21 -32 21t-32 -21q-4 -12 -4 -35v-328q0 -23 4 -35q3 -10 14 -17v-169h-156v99h95q-25 9 -49 32q-46 47 -46 123v292q0 81 46 123q45 41 128 41q82 0 128 -41q29 -25 37.5 -54
t8.5 -69v-292q0 -41 -8.5 -68t-37.5 -55q-23 -22 -49 -32z" />
    <glyph glyph-name="pi" unicode="&#x3c0;" horiz-adv-x="547" 
d="M473 0h-128v422h-52v-422h-128v420q-20 -4 -31 -22q-14 -21 -14 -72v-27h-110v37q0 80 39 125q44 51 116 51h372v-90h-64v-422z" />
    <glyph glyph-name="afii10023" unicode="&#x401;" horiz-adv-x="369" 
d="M53 745v115h107v-115h-107zM224 745v115h107v-115h-107zM35 0v700h313v-98h-175v-168h132v-98h-132v-238h191v-98h-329z" />
    <glyph glyph-name="afii10051" unicode="&#x402;" horiz-adv-x="504" 
d="M346 0v229q0 39 -8 55q-13 28 -48 28h-34v-312h-138v602h-114v98h386v-98h-134v-192h46q77 0 120 -28q62 -41 62 -138v-244h-138z" />
    <glyph glyph-name="afii10052" unicode="&#x403;" horiz-adv-x="350" 
d="M173 0h-138v700h311v-98h-173v-602zM87 730l-18 48l244 109l37 -98z" />
    <glyph glyph-name="afii10053" unicode="&#x404;" horiz-adv-x="412" 
d="M380 498h-138v51q0 23 -4 35q-8 21 -32 21t-32 -21q-4 -12 -4 -35v-127h136v-98h-136v-173q0 -23 4 -35q8 -21 32 -21t32 21q4 12 4 35v98h138v-95q0 -40 -8.5 -69t-37.5 -54q-46 -41 -128 -41q-83 0 -128 41q-46 42 -46 123v392q0 81 46 123q45 41 128 41q82 0 128 -41
q29 -25 37.5 -54t8.5 -69v-48z" />
    <glyph glyph-name="afii10054" unicode="&#x405;" horiz-adv-x="388" 
d="M20 222h138v-52q0 -45 6 -59q10 -23 33 -23q22 0 29 21q4 11 4 47v27q0 35 -9.5 55t-31.5 41l-95 91q-31 29 -48 62q-22 43 -22 111v27q0 58 41 99q42 41 131 41q85 0 128 -41q21 -19 31 -44.5t11.5 -42.5t1.5 -49v-43h-134v42q0 55 -7 66q-8 14 -28 14q-17 0 -27 -13
q-10 -12 -10 -40v-16q0 -46 42 -86l80 -77q43 -41 55 -60q29 -45 29 -123v-40q0 -28 -1 -42.5t-11.5 -39.5t-30.5 -45q-41 -40 -120 -40q-70 0 -119 32q-40 26 -53 62t-13 84v54z" />
    <glyph glyph-name="afii10055" unicode="&#x406;" horiz-adv-x="208" 
d="M35 0v700h138v-700h-138z" />
    <glyph glyph-name="afii10056" unicode="&#x407;" horiz-adv-x="272" 
d="M67 0v700h138v-700h-138zM15 745v115h97v-115h-97zM160 745v115h97v-115h-97z" />
    <glyph glyph-name="afii10057" unicode="&#x408;" horiz-adv-x="285" 
d="M5 0v98h56q37 0 45 11q6 9 6 33v558h138v-567q0 -54 -21 -84q-35 -49 -117 -49h-107z" />
    <glyph glyph-name="afii10058" unicode="&#x409;" horiz-adv-x="634" 
d="M266 0v602h-60v-232v-19q0 -75 -1.5 -114t-12 -92.5t-32.5 -86.5q-37 -58 -129 -58h-27v102q28 2 47 25q13 16 19.5 45t7 49.5t0.5 67.5v411h326v-291h72q24 0 37.5 -1t40 -14t43.5 -39t17 -76v-156q0 -49 -21 -78q-32 -45 -84 -45h-243zM404 98h35q25 0 33 21q4 10 4 45
v81q0 30 -8 45q-12 21 -37 21h-27v-213z" />
    <glyph glyph-name="afii10059" unicode="&#x40a;" horiz-adv-x="613" 
d="M245 431v269h138v-291h72q24 0 37.5 -1t40 -14t43.5 -39t17 -76v-156q0 -49 -21 -78q-32 -45 -84 -45h-243v336h-72v-336h-138v700h138v-269h72zM383 98h35q25 0 33 21q4 10 4 45v81q0 30 -8 45q-12 21 -37 21h-27v-213z" />
    <glyph glyph-name="afii10060" unicode="&#x40b;" horiz-adv-x="504" 
d="M274 -1v91q11 -7 28 -7q16 0 27 10q17 15 17 48v88q0 39 -8 55q-13 28 -48 28h-40v-312h-138v602h-108v98h386v-98h-140v-192h52q77 0 120 -28q62 -40 62 -146v-79q0 -98 -45 -139q-36 -33 -94 -33q-36 0 -71 14z" />
    <glyph glyph-name="afii10061" unicode="&#x40c;" horiz-adv-x="413" 
d="M403 0h-148q-5 16 -8 32q-4 18 -4 39v195q0 28 -5 38q-8 15 -29 15h-41v-319h-138v700h138v-283h43q10 0 16 4.5t8 16t2.5 16t0.5 17.5v180q0 20 4 31t14 18h134v-4q-12 -10 -15 -21q-3 -12 -3 -41v-157q0 -41 -10 -59q-19 -32 -61 -36v-4q48 -3 69 -36q11 -16 11 -67
v-191q0 -30 5 -47q7 -21 17 -33v-4zM94 731l-18 48l244 109l37 -98z" />
    <glyph glyph-name="afii10062" unicode="&#x40e;" horiz-adv-x="395" 
d="M29 0v98h23q35 0 53 14q21 16 28 52l13 67l-141 469h133l65 -224l55 224h132l-139 -569q-1 -5 -4 -18t-4.5 -18.5t-5 -16t-6.5 -16t-8 -14t-12 -14.5t-15 -12q-15 -11 -34.5 -16t-31 -5.5t-39.5 -0.5h-62zM255 857h97q-2 -64 -52 -101q-38 -29 -94 -29t-94 29
q-50 37 -52 101h97q-2 -25 8 -41q14 -22 42 -22q27 0 40 22q10 17 8 41z" />
    <glyph glyph-name="afii10145" unicode="&#x40f;" horiz-adv-x="418" 
d="M383 700v-700h-127v-130h-94v130h-127v700h138v-602h72v602h138z" />
    <glyph glyph-name="afii10017" unicode="&#x410;" horiz-adv-x="384" 
d="M374 0h-143l-8 89h-62l-8 -89h-143l67 700h232zM165 187h54l-24 406h-4z" />
    <glyph glyph-name="afii10018" unicode="&#x411;" horiz-adv-x="404" 
d="M361 700v-98h-188v-193h72q24 0 37.5 -1t40 -14t43.5 -39t17 -76v-156q0 -49 -21 -78q-32 -45 -84 -45h-243v700h326zM173 98h35q25 0 33 21q4 10 4 45v81q0 30 -8 45q-12 21 -37 21h-27v-213z" />
    <glyph glyph-name="afii10019" unicode="&#x412;" horiz-adv-x="406" 
d="M30 0v700h246q54 0 83 -37q23 -31 23 -85v-87q0 -48 -15 -72t-45 -33q30 -7 47 -31q17 -25 17 -76v-156q0 -48 -21 -77q-33 -46 -105 -46h-230zM168 98h43q25 0 33 21q4 12 4 53v93q0 30 -8 45q-12 21 -37 21h-35v-233zM168 429h37q20 0 31 18q8 14 8 43v66q0 23 -9 34
q-11 12 -31 12h-36v-173z" />
    <glyph glyph-name="afii10020" unicode="&#x413;" horiz-adv-x="350" 
d="M173 0h-138v700h311v-98h-173v-602z" />
    <glyph glyph-name="afii10021" unicode="&#x414;" horiz-adv-x="481" 
d="M471 -130h-94v130h-274l1 -130h-94v228h22q37 65 52.5 142t15.5 206v254h331v-602h40v-228zM168 98h125v504h-70v-179q0 -209 -55 -325z" />
    <glyph glyph-name="afii10022" unicode="&#x415;" horiz-adv-x="369" 
d="M35 0v700h313v-98h-175v-168h132v-98h-132v-238h191v-98h-329z" />
    <glyph glyph-name="afii10024" unicode="&#x416;" horiz-adv-x="627" 
d="M383 0h-139v319h-40q-21 0 -29 -15q-5 -10 -5 -38v-195q0 -21 -4 -39q-3 -16 -8 -32h-148v4q10 12 17 33q5 17 5 47v191q0 51 11 67q21 33 69 36v4q-42 4 -61 36q-10 18 -10 59v157q0 29 -3 41q-2 6 -15 23v2h134q10 -7 14 -18t4 -31v-180v-3q0 -15 1 -23.5t7 -18
t19 -9.5h42v283h139v-283h42q10 0 16 4.5t8 16t2.5 16t0.5 17.5v180q0 20 4 31t14 18h134v-3q-10 -9 -14 -20q-4 -12 -4 -43v-157q0 -41 -10 -59q-19 -32 -61 -36v-4q48 -3 69 -36q11 -16 11 -67v-191q0 -30 5 -47q7 -21 17 -33v-4h-148q-5 16 -8 32q-4 18 -4 39v195
q0 28 -5 38q-8 15 -29 15h-40v-319z" />
    <glyph glyph-name="afii10025" unicode="&#x417;" horiz-adv-x="396" 
d="M371 231v-73q0 -80 -31 -118q-41 -50 -145 -50q-93 0 -138 54q-37 45 -37 116v60h138v-63q0 -41 8 -54q9 -15 29 -15q22 0 32 16q6 12 6 45v92q0 44 -14 60q-19 22 -69 22h-33v92h53q33 0 46 19q10 14 10 43v83q0 25 -7 37q-9 15 -28 15t-28 -16q-7 -14 -7 -43v-47h-134
v59q0 75 51 113q44 32 122 32q75 0 118 -32q51 -38 51 -118v-84q0 -45 -28 -73q-20 -20 -55 -29v-3q34 -8 58 -32q32 -34 32 -108z" />
    <glyph glyph-name="afii10026" unicode="&#x418;" horiz-adv-x="418" 
d="M383 0h-138v328l4 51l-76 -272v-107h-138v700h138v-322l-4 -57l76 270v109h138v-700z" />
    <glyph glyph-name="afii10027" unicode="&#x419;" horiz-adv-x="418" 
d="M383 0h-138v328l4 51l-76 -272v-107h-138v700h138v-322l-4 -57l76 270v109h138v-700zM255 857h91q-2 -65 -49 -101q-37 -29 -88 -29t-88 29q-47 36 -49 101h91q-3 -23 7 -41q12 -22 40 -22q25 0 38 22q10 18 7 41z" />
    <glyph glyph-name="afii10028" unicode="&#x41a;" horiz-adv-x="413" 
d="M403 0h-148q-5 16 -8 32q-4 18 -4 39v195q0 28 -5 38q-8 15 -29 15h-41v-319h-138v700h138v-283h43q10 0 16 4.5t8 16t2.5 16t0.5 17.5v180q0 20 4 31t14 18h134v-4q-12 -10 -15 -21q-3 -12 -3 -41v-157q0 -41 -10 -59q-19 -32 -61 -36v-4q48 -3 69 -36q11 -16 11 -67
v-191q0 -30 5 -47q7 -21 17 -33v-4z" />
    <glyph glyph-name="afii10029" unicode="&#x41b;" horiz-adv-x="445" 
d="M410 0h-138v602h-60v-232v-19q0 -75 -1.5 -114t-12 -92.5t-32.5 -86.5q-37 -58 -129 -58h-27v102q28 2 47 25q13 16 19.5 45t7 49.5t0.5 67.5v411h326v-700z" />
    <glyph glyph-name="afii10030" unicode="&#x41c;" horiz-adv-x="564" 
d="M321 0h-78l-72 347h-4l6 -93v-254h-138v700h170l75 -401h4l75 401h170v-700h-138v254l6 93h-4z" />
    <glyph glyph-name="afii10031" unicode="&#x41d;" horiz-adv-x="418" 
d="M245 336h-72v-336h-138v700h138v-269h72v269h138v-700h-138v336z" />
    <glyph glyph-name="afii10032" unicode="&#x41e;" horiz-adv-x="412" 
d="M380 546v-392q0 -40 -8.5 -69t-37.5 -54q-46 -41 -128 -41q-83 0 -128 41q-46 42 -46 123v392q0 81 46 123q45 41 128 41q82 0 128 -41q29 -25 37.5 -54t8.5 -69zM242 151v398q0 23 -4 35q-8 21 -32 21t-32 -21q-4 -12 -4 -35v-398q0 -23 4 -35q8 -21 32 -21t32 21
q4 12 4 35z" />
    <glyph glyph-name="afii10033" unicode="&#x41f;" horiz-adv-x="418" 
d="M383 0h-138v602h-72v-602h-138v700h348v-700z" />
    <glyph glyph-name="afii10034" unicode="&#x420;" horiz-adv-x="398" 
d="M173 0h-138v700h209q75 0 112 -42q27 -31 27 -111v-105q0 -84 -28 -116q-32 -35 -117 -37q-39 -2 -65 5v-294zM173 392h34q24 0 33 20q5 12 5 49v79q0 34 -8 47q-9 15 -28 15h-36v-210z" />
    <glyph glyph-name="afii10035" unicode="&#x421;" horiz-adv-x="405" 
d="M380 479h-138v70q0 23 -4 35q-8 21 -32 21t-32 -21q-4 -12 -4 -35v-398q0 -23 4 -35q8 -21 32 -21t32 21q4 12 4 35v110h138v-107q0 -40 -8.5 -69t-37.5 -54q-46 -41 -128 -41q-83 0 -128 41q-46 42 -46 123v392q0 81 46 123q45 41 128 41q82 0 128 -41q29 -25 37.5 -54
t8.5 -69v-67z" />
    <glyph glyph-name="afii10036" unicode="&#x422;" horiz-adv-x="320" 
d="M229 0h-138v602h-86v98h310v-98h-86v-602z" />
    <glyph glyph-name="afii10037" unicode="&#x423;" horiz-adv-x="395" 
d="M29 0v98h23q35 0 53 14q21 16 28 52l13 67l-141 469h133l65 -224l55 224h132l-139 -569q-1 -5 -4 -18t-4.5 -18.5t-5 -16t-6.5 -16t-8 -14t-12 -14.5t-15 -12q-15 -11 -34.5 -16t-31 -5.5t-39.5 -0.5h-62z" />
    <glyph glyph-name="afii10038" unicode="&#x424;" horiz-adv-x="588" 
d="M363 0h-138v107h-92q-60 0 -90 33q-28 32 -28 99v226q0 67 28 99q30 33 90 33h92v103h138v-103h92q60 0 90 -33q28 -32 28 -99v-226q0 -67 -28 -99q-30 -33 -90 -33h-92v-107zM363 205h25q22 0 36 14q11 12 11 51v164q0 39 -11 51q-14 14 -36 14h-25v-294zM225 205v294
h-25q-22 0 -36 -14q-11 -12 -11 -51v-164q0 -39 11 -51q14 -14 36 -14h25z" />
    <glyph glyph-name="afii10039" unicode="&#x425;" horiz-adv-x="416" 
d="M406 0h-145l-44 158l-7 41h-4l-7 -41l-44 -158h-145l128 377l-106 323h134l40 -145h4l40 145h134l-106 -322z" />
    <glyph glyph-name="afii10040" unicode="&#x426;" horiz-adv-x="422" 
d="M417 -130h-94v130h-288v700h138v-602h72v602h138v-602h34v-228z" />
    <glyph glyph-name="afii10041" unicode="&#x427;" horiz-adv-x="408" 
d="M373 0h-138v304h-118q-43 0 -71 36q-14 17 -17.5 35t-3.5 57v268h138v-253q0 -19 3 -28q5 -17 28 -17h41v298h138v-700z" />
    <glyph glyph-name="afii10042" unicode="&#x428;" horiz-adv-x="628" 
d="M593 0h-558v700h138v-602h72v602h138v-602h72v602h138v-700z" />
    <glyph glyph-name="afii10043" unicode="&#x429;" horiz-adv-x="631" 
d="M35 0v700h138v-602h72v602h138v-602h72v602h138v-602h34v-228h-94v130h-498z" />
    <glyph glyph-name="afii10044" unicode="&#x42a;" horiz-adv-x="471" 
d="M241 700v-291h72q86 0 121 -54q17 -27 17 -81v-146q0 -53 -21 -83q-32 -45 -84 -45h-243v602h-98v98h236zM241 98h35q25 0 33 21q4 10 4 45v81q0 30 -8 45q-12 21 -37 21h-27v-213z" />
    <glyph glyph-name="afii10045" unicode="&#x42b;" horiz-adv-x="597" 
d="M173 700v-291h72q86 0 121 -54q17 -27 17 -81v-146q0 -53 -21 -83q-32 -45 -84 -45h-243v700h138zM173 98h35q25 0 33 21q4 10 4 45v81q0 30 -8 45q-12 21 -37 21h-27v-213zM424 0v700h138v-700h-138z" />
    <glyph glyph-name="afii10046" unicode="&#x42c;" horiz-adv-x="403" 
d="M173 700v-291h72q86 0 121 -54q17 -27 17 -81v-146q0 -53 -21 -83q-32 -45 -84 -45h-243v700h138zM173 98h35q25 0 33 21q4 10 4 45v81q0 30 -8 45q-12 21 -37 21h-27v-213z" />
    <glyph glyph-name="afii10047" unicode="&#x42d;" horiz-adv-x="405" 
d="M25 498v48q0 40 8.5 69t37.5 54q46 41 128 41q83 0 128 -41q46 -42 46 -123v-392q0 -81 -46 -123q-45 -41 -128 -41q-82 0 -128 41q-29 25 -37.5 54t-8.5 69v95h138v-98q0 -23 4 -35q8 -21 32 -21t32 21q4 12 4 35v173h-136v98h136v127q0 23 -4 35q-8 21 -32 21t-32 -21
q-4 -12 -4 -35v-51h-138z" />
    <glyph glyph-name="afii10048" unicode="&#x42e;" horiz-adv-x="614" 
d="M582 546v-392q0 -40 -8.5 -69t-37.5 -54q-46 -41 -128 -41q-83 0 -128 41q-46 42 -46 123v179h-61v-333h-138v700h138v-269h61v115q0 81 46 123q45 41 128 41q82 0 128 -41q29 -25 37.5 -54t8.5 -69zM444 151v398q0 23 -4 35q-8 21 -32 21t-32 -21q-4 -12 -4 -35v-398
q0 -23 4 -35q8 -21 32 -21t32 21q4 12 4 35z" />
    <glyph glyph-name="afii10049" unicode="&#x42f;" horiz-adv-x="416" 
d="M5 0v7q22 6 28.5 24t6.5 68v150q0 66 35 89q20 13 48 21v6q-36 8 -57 19q-34 19 -34 64v139q0 44 19 70q31 43 98 43h232v-700h-138v306h-19q-25 0 -36 -12q-10 -11 -10 -47v-164q0 -52 -19 -83h-154zM243 411v191h-37q-22 0 -31 -16q-5 -9 -5 -35v-90q0 -25 13 -40
q10 -10 31 -10h29z" />
    <glyph glyph-name="afii10065" unicode="&#x430;" horiz-adv-x="356" 
d="M331 0h-108l-14 38q-14 -21 -31 -33q-22 -15 -58 -15q-56 0 -83 37q-22 30 -22 87v24q0 79 58 124q38 30 130 60v69q0 20 -4 28q-6 13 -23 13t-23 -13q-4 -8 -4 -28v-46h-124v50q0 56 28 86q39 41 123 41q83 0 123 -41q32 -33 32 -92v-389zM203 127v121q-34 -12 -49 -40
q-11 -19 -11 -55v-30q0 -25 5 -37q9 -16 25 -16q17 0 25 15q5 10 5 42z" />
    <glyph glyph-name="afii10066" unicode="&#x431;" horiz-adv-x="360" 
d="M335 365v-228q0 -25 -1.5 -39.5t-9 -33t-23.5 -34.5q-40 -40 -121 -40t-121 40q-34 34 -34 107v380q0 77 43 114q31 26 86 26h46q27 0 45 20q10 11 10 23h80q2 -53 -16 -87q-30 -56 -103 -56h-54q-29 0 -49.5 -13t-28.5 -31q-8 -19 -6 -53h3q28 52 106 52q72 0 107 -29
q26 -22 33.5 -49.5t7.5 -68.5zM207 118v266q0 19 -4 27q-5 11 -23 11t-23 -11q-4 -8 -4 -27v-266q0 -19 4 -27q5 -11 23 -11t23 11q4 8 4 27z" />
    <glyph glyph-name="afii10067" unicode="&#x432;" horiz-adv-x="364" 
d="M30 0v512h180q83 0 113 -35q21 -23 21 -58v-48q0 -37 -11 -57q-14 -24 -43 -41l4 -1q4 -2 8 -3.5t10 -5t10 -7.5q11 -9 16 -21.5t5.5 -20.5t0.5 -26v-73q0 -60 -20 -87q-5 -7 -10 -12t-12 -8l-10.5 -4.5t-12 -2.5t-10.5 -1h-11.5h-10.5h-217zM158 84h26q18 0 26 11
q6 9 6 36v54q0 26 -9 36q-8 9 -30 9h-19v-146zM158 312h27q15 0 24 9q7 8 7 29v41q0 19 -5 26q-7 11 -24 11h-29v-116z" />
    <glyph glyph-name="afii10068" unicode="&#x433;" horiz-adv-x="279" 
d="M158 0h-128v512h246v-90h-118v-422z" />
    <glyph glyph-name="afii10069" unicode="&#x434;" horiz-adv-x="418" 
d="M408 -110h-90v110h-218v-110h-90v200h23q19 38 32 85q14 56 14 124v213h294v-422h35v-200zM245 90v332h-48v-129q0 -57 -12 -119q-9 -44 -25 -84h85z" />
    <glyph glyph-name="afii10070" unicode="&#x435;" horiz-adv-x="360" 
d="M335 160v-43q0 -48 -32 -85q-39 -42 -123 -42q-75 0 -114 40q-41 42 -41 118v210q0 81 35 119q42 45 119 45q76 0 119 -45q18 -18 26.5 -41.5t9.5 -36.5t1 -41v-130h-182v-114q0 -10 7 -21q7 -9 22 -9q17 0 23 9q6 8 6 24v43h124zM207 308v83q0 16 -5 26q-7 11 -23 11
q-14 0 -21 -11q-5 -8 -5 -27v-82h54z" />
    <glyph glyph-name="afii10072" unicode="&#x436;" horiz-adv-x="555" 
d="M550 0h-138q-4 10 -8 23q-4 12 -4 29v131q0 21 -5 28q-8 11 -29 11h-24v-222h-129v222h-24q-21 0 -29 -11q-5 -7 -5 -28v-131q0 -17 -4 -29q-4 -13 -8 -23h-138v3q13 11 17 24q5 13 5 34v140q0 36 11 50q12 16 39 25v3q-24 9 -36 26q-10 14 -10 43v115q0 24 -3 30t-15 17
v2h128q10 -6 14 -14q4 -7 4 -23v-124q0 -9 0.5 -13t2.5 -11.5t8 -11t16 -3.5h27v200h129v-200h27q13 0 19.5 7.5t7 13.5t0.5 18v124q0 16 4 23q4 8 14 14h128v-2q-12 -11 -15 -17t-3 -30v-115q0 -29 -10 -43q-12 -17 -36 -26v-3q27 -9 39 -25q11 -14 11 -50v-140
q0 -21 5 -34q4 -13 17 -24v-3z" />
    <glyph glyph-name="afii10073" unicode="&#x437;" horiz-adv-x="349" 
d="M15 361v17q0 68 34 103q40 41 121 41q80 0 123 -41q32 -31 32 -79v-35q0 -45 -16 -65q-19 -24 -54 -29q30 -7 50 -26q24 -23 24 -71v-47q0 -55 -23 -88q-36 -51 -128 -51q-82 0 -126 42q-37 37 -37 103v39h128v-55q0 -23 8 -31q7 -8 21 -8q15 0 22 7t7 29v72q0 18 -5 25
q-7 10 -23 10h-50v90h44q18 0 25 11q5 9 5 26v43q0 22 -5 30q-6 9 -21 9q-12 0 -20 -8q-8 -10 -8 -30v-33h-128z" />
    <glyph glyph-name="afii10074" unicode="&#x438;" horiz-adv-x="370" 
d="M340 0h-128v163l3 57l-57 -101v-119h-128v512h128v-152l-3 -48l57 94v106h128v-512z" />
    <glyph glyph-name="afii10075" unicode="&#x439;" horiz-adv-x="370" 
d="M340 0h-128v163l3 57l-57 -101v-119h-128v512h128v-152l-3 -48l57 94v106h128v-512zM234 700h97q-2 -64 -52 -101q-38 -29 -94 -29t-94 29q-50 37 -52 101h97q-2 -25 8 -41q14 -22 42 -22q27 0 40 22q10 17 8 41z" />
    <glyph glyph-name="afii10076" unicode="&#x43a;" horiz-adv-x="371" 
d="M366 0h-138q-4 10 -8 23q-4 12 -4 29v131q0 21 -5 28q-8 11 -29 11h-24v-222h-128v512h128v-200h27q13 0 19.5 7.5t7 13.5t0.5 18v124q0 16 4 23q4 8 14 14h128v-2q-12 -11 -15 -17t-3 -30v-115q0 -29 -10 -43q-12 -17 -36 -26v-3q27 -9 39 -25q11 -14 11 -50v-140
q0 -21 5 -34q4 -13 17 -24v-3z" />
    <glyph glyph-name="afii10077" unicode="&#x43b;" horiz-adv-x="390" 
d="M360 0h-128v422h-48q0 -198 -9 -266q-9 -67 -35 -105q-36 -51 -109 -51h-21v100h7q26 0 41 27q16 30 16 180v205h286v-512z" />
    <glyph glyph-name="afii10078" unicode="&#x43c;" horiz-adv-x="540" 
d="M510 0h-122v300h-4l-86 -300h-56l-86 300h-4v-300h-122v512h148l92 -312l92 312h148v-512z" />
    <glyph glyph-name="afii10079" unicode="&#x43d;" horiz-adv-x="370" 
d="M340 0h-128v234h-54v-234h-128v512h128v-188h54v188h128v-512z" />
    <glyph glyph-name="afii10080" unicode="&#x43e;" horiz-adv-x="360" 
d="M153 390v-268q0 -20 5 -27q7 -11 22 -11t22 11q5 7 5 27v268q0 20 -5 27q-7 11 -22 11t-22 -11q-5 -7 -5 -27zM335 375v-238q0 -70 -34 -105q-40 -42 -121 -42t-121 42q-34 35 -34 105v238q0 70 34 105q40 42 121 42t121 -42q34 -35 34 -105z" />
    <glyph glyph-name="afii10081" unicode="&#x43f;" horiz-adv-x="368" 
d="M338 0h-128v422h-52v-422h-128v512h308v-512z" />
    <glyph glyph-name="afii10082" unicode="&#x440;" horiz-adv-x="365" 
d="M158 -150h-128v662h128v-55q9 17 27 37q26 28 69 28q32 0 58 -27q28 -29 28 -82v-299q0 -66 -21 -93q-24 -31 -65 -31q-42 0 -68 28q-15 15 -28 38v-206zM158 384v-232q0 -31 5 -50q7 -27 21 -27q17 0 22 12q6 12 6 39v253q0 28 -3 40q-4 16 -20 16q-13 0 -22 -11
q-9 -12 -9 -40z" />
    <glyph glyph-name="afii10083" unicode="&#x441;" horiz-adv-x="351" 
d="M331 196v-42q0 -73 -13 -99q-31 -65 -136 -65q-100 0 -137 64q-20 35 -20 106v207q0 67 25 101q39 54 128 54q91 0 128 -54q25 -35 25 -118v-35h-124v61q0 30 -6 41q-7 11 -21 11t-21 -11q-6 -11 -6 -41v-234q0 -34 6 -45q7 -13 23 -13t23 12q6 11 6 46v54h120z" />
    <glyph glyph-name="afii10084" unicode="&#x442;" horiz-adv-x="296" 
d="M212 0h-128v422h-80v90h288v-90h-80v-422z" />
    <glyph glyph-name="afii10085" unicode="&#x443;" horiz-adv-x="348" 
d="M19 -148v90h52q36 0 49 24q11 20 2 55l-118 491h128l44 -270h4l36 270h128l-103 -538q-10 -55 -43 -87q-17 -16 -35.5 -24t-32.5 -9.5t-39 -1.5h-72z" />
    <glyph glyph-name="afii10086" unicode="&#x444;" horiz-adv-x="538" 
d="M333 -150h-128v213q-8 -32 -29.5 -52.5t-53.5 -20.5q-50 0 -76 33q-21 27 -21 67v333q0 52 29 77q26 22 67 22q33 0 59 -27q18 -19 25 -38v205h128v-205q9 21 24 38q24 27 60 27q42 0 67 -22q29 -25 29 -77v-333q0 -44 -21 -70q-25 -30 -76 -30q-32 0 -53.5 20.5
t-29.5 52.5v-213zM333 384v-236q0 -33 3 -48q6 -25 24 -25q16 0 23 15q4 8 4 39v250q0 32 -6 43q-7 13 -21 13q-12 0 -18 -11q-9 -15 -9 -40zM205 148v236q0 25 -9 40q-6 11 -18 11q-14 0 -21 -13q-6 -11 -6 -43v-250q0 -31 4 -39q7 -15 23 -15q18 0 24 25q3 15 3 48z" />
    <glyph glyph-name="afii10087" unicode="&#x445;" horiz-adv-x="354" 
d="M177 395l37 117h128l-93 -236l101 -276h-128l-45 144l-45 -144h-128l100 276l-92 236h128z" />
    <glyph glyph-name="afii10088" unicode="&#x446;" horiz-adv-x="382" 
d="M30 0v512h128v-422h54v422h128v-422h38v-200h-94v110h-254z" />
    <glyph glyph-name="afii10089" unicode="&#x447;" horiz-adv-x="360" 
d="M330 0h-128v176h-96q-47 0 -69 28q-17 21 -17 67v241h128v-221q0 -25 33 -25h21v246h128v-512z" />
    <glyph glyph-name="afii10090" unicode="&#x448;" horiz-adv-x="548" 
d="M518 0h-488v512h128v-422h52v422h128v-422h52v422h128v-512z" />
    <glyph glyph-name="afii10091" unicode="&#x449;" horiz-adv-x="556" 
d="M458 0h-428v511h126v-421h52v422h128v-422h52v422h126v-422h38v-200h-94v110z" />
    <glyph glyph-name="afii10092" unicode="&#x44a;" horiz-adv-x="420" 
d="M89 0v422h-85v90h213v-163h71q57 0 88 -29q14 -13 21 -32t7.5 -31.5t0.5 -38.5v-109q0 -37 -9 -55.5t-28 -31.5q-7 -5 -13.5 -8.5t-11.5 -5.5t-12 -4t-11 -2.5t-11.5 -1t-10.5 -0.5h-11h-10h-188zM217 90h24q20 0 29 13q7 9 7 40v62q0 31 -5 38q-7 16 -29 16h-26v-169z
" />
    <glyph glyph-name="afii10093" unicode="&#x44b;" horiz-adv-x="534" 
d="M504 0h-128v512h128v-512zM30 0v512h128v-163h71q57 0 88 -29q14 -13 21 -32t7.5 -31.5t0.5 -38.5v-109q0 -37 -9 -55.5t-28 -31.5q-7 -5 -13.5 -8.5t-11.5 -5.5t-12 -4t-11 -2.5t-11.5 -1t-10.5 -0.5h-11h-10h-188zM158 90h24q20 0 29 13q7 9 7 40v62q0 31 -5 38
q-7 16 -29 16h-26v-169z" />
    <glyph glyph-name="afii10094" unicode="&#x44c;" horiz-adv-x="361" 
d="M30 0v512h128v-163h71q57 0 88 -29q14 -13 21 -32t7.5 -31.5t0.5 -38.5v-109q0 -37 -9 -55.5t-28 -31.5q-7 -5 -13.5 -8.5t-11.5 -5.5t-12 -4t-11 -2.5t-11.5 -1t-10.5 -0.5h-11h-10h-188zM158 90h24q20 0 29 13q7 9 7 40v59q0 29 -5 40q-7 17 -29 17h-26v-169z" />
    <glyph glyph-name="afii10095" unicode="&#x44d;" horiz-adv-x="355" 
d="M330 383v-252q0 -26 -2 -43t-14 -39t-35 -36q-35 -23 -104 -23q-67 0 -104 26q-51 35 -51 107v62h124v-59q0 -15 5 -30q7 -12 24 -12q16 0 23 11q6 10 6 32v108h-119v84h119v71q0 20 -5 27q-8 11 -24 11q-17 0 -24 -11q-5 -7 -5 -27v-23h-120v28q0 68 54 102q38 25 98 25
q63 0 102 -26q52 -34 52 -113z" />
    <glyph glyph-name="afii10096" unicode="&#x44e;" horiz-adv-x="540" 
d="M515 385v-258q0 -21 -1 -32.5t-9 -30.5t-24 -34q-42 -40 -118 -40t-118 40q-16 15 -24 34t-9 30.5t-1 32.5v104h-65v-231h-116v500h116v-179h65v64q0 21 1 32.5t9 30.5t24 34q42 40 118 40t118 -40q16 -15 24 -34t9 -30.5t1 -32.5zM327 383v-254q0 -19 5 -29
q9 -16 31 -16t31 16q5 10 5 29v254q0 19 -5 29q-9 16 -31 16t-31 -16q-5 -10 -5 -29z" />
    <glyph glyph-name="afii10097" unicode="&#x44f;" horiz-adv-x="366" 
d="M336 0h-128v201h-17q-14 0 -21.5 -9t-8 -16.5t-0.5 -20.5v-99q0 -39 -22 -56h-131v2q14 18 18 27q7 14 7 51v85q0 40 19 61q16 17 39 25q-33 12 -47 27q-22 22 -22 67v60q0 52 40 82q33 25 86 25h188v-512zM208 291v131h-19q-20 0 -29 -8q-10 -10 -10 -32v-31
q0 -23 5 -35q10 -25 30 -25h23z" />
    <glyph glyph-name="afii10071" unicode="&#x451;" horiz-adv-x="360" 
d="M314 580h-112v120h112v-120zM152 579h-112v121h112v-121zM335 160v-43q0 -48 -32 -85q-39 -42 -123 -42q-75 0 -114 40q-41 42 -41 118v210q0 81 35 119q42 45 119 45q76 0 119 -45q18 -18 26.5 -41.5t9.5 -36.5t1 -41v-130h-182v-114q0 -10 7 -21q7 -9 22 -9q17 0 23 9
q6 8 6 24v43h124zM207 308v83q0 16 -5 26q-7 11 -23 11q-15 0 -21 -11q-5 -9 -5 -27v-82h54z" />
    <glyph glyph-name="afii10099" unicode="&#x452;" horiz-adv-x="370" 
d="M272 -134h-131q25 14 47 42q1 1 4 5t4 5.5t3.5 5t3 6t2.5 7t2.5 8.5t1.5 9.5t1.5 12t0.5 14.5l1 404q0 31 -5 38q-6 11 -18 11q-16 0 -24 -18q-7 -14 -7 -39v-377h-128v569h-83v74h83v57h128v-57h116v-74h-116v-115q17 28 42 47q27 21 60 21q36 0 57 -23q23 -24 23 -98
v-401q0 -29 -16 -68q-14 -36 -52 -66z" />
    <glyph glyph-name="afii10100" unicode="&#x453;" horiz-adv-x="279" 
d="M158 0h-128v512h246v-90h-118v-422zM107 546l-35 47l148 148l68 -80z" />
    <glyph glyph-name="afii10101" unicode="&#x454;" horiz-adv-x="355" 
d="M25 131v252q0 79 52 113q39 26 102 26q60 0 98 -25q54 -34 54 -102v-28h-120v23q0 20 -5 27q-7 11 -24 11q-16 0 -24 -11q-5 -7 -5 -27v-71h119v-84h-119v-108q0 -22 6 -32q7 -11 23 -11q17 0 24 12q5 15 5 30v59h124v-62q0 -72 -51 -107q-37 -26 -104 -26q-70 0 -104 23
q-23 14 -35 36t-14 39t-2 43z" />
    <glyph glyph-name="afii10102" unicode="&#x455;" 
d="M15 138h126l-2 -18q-1 -19 8 -30q9 -10 23 -10q18 0 24 11q5 8 5 22q0 65 -42 93l-39 26q-33 23 -44 33q-24 22 -38 52q-16 33 -16 77q0 35 13 61q12 24 35 40q40 27 105 27q61 0 100 -31q43 -34 43 -98v-14h-114v18q0 16 -6 26q-6 11 -21 11q-12 0 -19 -7q-8 -8 -8 -27
q0 -25 12 -42q8 -10 47 -38l51 -35q36 -25 53 -59q14 -29 14 -99q0 -39 -24 -78q-23 -35 -55 -47q-30 -12 -77 -12q-33 0 -69 12q-33 11 -54 36q-31 41 -31 83v17z" />
    <glyph glyph-name="afii10103" unicode="&#x456;" horiz-adv-x="188" 
d="M158 0h-128v512h128v-512zM158 572h-128v128h128v-128z" />
    <glyph glyph-name="afii10104" unicode="&#x457;" horiz-adv-x="268" 
d="M196 0h-128v512h128v-512zM258 580h-97v120h97v-120zM107 580h-97v120h97v-120z" />
    <glyph glyph-name="afii10105" unicode="&#x458;" horiz-adv-x="188" 
d="M-63 -148v90h61q32 0 32 37v533h128v-552q0 -56 -19 -79q-24 -29 -83 -29h-119zM158 572h-128v128h128v-128z" />
    <glyph glyph-name="afii10106" unicode="&#x459;" horiz-adv-x="562" 
d="M226 0v422h-48q0 -198 -9 -266q-9 -67 -35 -105q-36 -51 -109 -51h-21v100h7q26 0 41 27q16 30 16 180v205h286v-163h71q57 0 88 -29q14 -13 21 -32t7.5 -31.5t0.5 -38.5v-109q0 -37 -9 -55.5t-28 -31.5q-7 -5 -13.5 -8.5t-11.5 -5.5t-12 -4t-11 -2.5t-11.5 -1
t-10.5 -0.5h-11h-10h-188zM354 90h24q20 0 29 13q7 9 7 40v62q0 31 -5 38q-7 16 -29 16h-26v-169z" />
    <glyph glyph-name="afii10107" unicode="&#x45a;" horiz-adv-x="548" 
d="M212 0v234h-54v-234h-128v512h128v-188h54v188h128v-163h71q57 0 88 -29q14 -13 21 -32t7.5 -31.5t0.5 -38.5v-109q0 -37 -9 -55.5t-28 -31.5q-7 -5 -13.5 -8.5t-11.5 -5.5t-12 -4t-11 -2.5t-11.5 -1t-10.5 -0.5h-11h-10h-188zM340 90h24q20 0 29 13q7 9 7 40v62
q0 31 -5 38q-7 16 -29 16h-26v-169z" />
    <glyph glyph-name="afii10108" unicode="&#x45b;" horiz-adv-x="370" 
d="M340 0h-128v385q0 31 -5 38q-6 11 -18 11q-16 0 -24 -18q-7 -14 -7 -39v-377h-128v569h-83v74h83v57h128v-57h116v-74h-116v-115q17 28 42 47q27 21 60 21q36 0 57 -23q23 -24 23 -98v-401z" />
    <glyph glyph-name="afii10109" unicode="&#x45c;" horiz-adv-x="371" 
d="M366 0h-138q-4 10 -8 23q-4 12 -4 29v131q0 21 -5 28q-8 11 -29 11h-24v-222h-128v512h128v-200h27q13 0 19.5 7.5t7 13.5t0.5 18v124q0 16 4 23q4 8 14 14h128v-2q-12 -11 -15 -17t-3 -30v-115q0 -29 -10 -43q-12 -17 -36 -26v-3q27 -9 39 -25q11 -14 11 -50v-140
q0 -21 5 -34q4 -13 17 -24v-3zM137 545l-35 47l148 148l68 -80z" />
    <glyph glyph-name="afii10110" unicode="&#x45e;" horiz-adv-x="348" 
d="M19 -148v90h52q36 0 49 24q11 20 2 55l-118 491h128l44 -270h4l36 270h128l-103 -538q-10 -55 -43 -87q-17 -16 -35.5 -24t-32.5 -9.5t-39 -1.5h-72zM219 700h97q-2 -64 -52 -101q-38 -29 -94 -29t-94 29q-50 37 -52 101h97q-2 -25 8 -41q14 -22 42 -22q27 0 40 22
q10 17 8 41z" />
    <glyph glyph-name="afii10193" unicode="&#x45f;" horiz-adv-x="364" 
d="M30 0v512h116v-422h72v422h116v-512h-98v-150h-108v150h-98z" />
    <glyph glyph-name="afii10146" unicode="&#x462;" horiz-adv-x="487" 
d="M252 700v-76h128v-98h-128v-117h72q24 0 37.5 -1t40 -14t43.5 -39t17 -76v-156q0 -49 -21 -78q-32 -45 -84 -45h-243v526h-110v98h110v76h138zM252 98h35q25 0 33 21q4 10 4 45v81q0 30 -8 45q-12 21 -37 21h-27v-213z" />
    <glyph glyph-name="afii10194" unicode="&#x463;" horiz-adv-x="425" 
d="M89 0v422h-85v90h85v188h128v-188h105v-90h-105v-73h71q57 0 88 -29q14 -13 21 -32t7.5 -31.5t0.5 -38.5v-109q0 -37 -9 -55.5t-28 -31.5q-7 -5 -13.5 -8.5t-11.5 -5.5t-12 -4t-11 -2.5t-11.5 -1t-10.5 -0.5h-11h-10h-188zM217 90h24q20 0 29 13q7 9 7 40v62q0 31 -5 38
q-7 16 -29 16h-26v-169z" />
    <glyph glyph-name="afii10147" unicode="&#x472;" horiz-adv-x="412" 
d="M380 546v-392q0 -40 -8.5 -69t-37.5 -54q-46 -41 -128 -41q-83 0 -128 41q-46 42 -46 123v392q0 81 46 123q45 41 128 41q82 0 128 -41q29 -25 37.5 -54t8.5 -69zM242 321h-72v-170q0 -23 4 -35q8 -21 32 -21t32 21q4 12 4 35v170zM170 419h72v130q0 23 -4 35
q-8 21 -32 21t-32 -21q-4 -12 -4 -35v-130z" />
    <glyph glyph-name="afii10195" unicode="&#x473;" horiz-adv-x="360" 
d="M207 232h-54v-110q0 -20 5 -27q7 -11 22 -11t22 11q5 7 5 27v110zM153 312h54v78q0 20 -5 27q-7 11 -22 11t-22 -11q-5 -7 -5 -27v-78zM335 375v-238q0 -70 -34 -105q-40 -42 -121 -42t-121 42q-34 35 -34 105v238q0 70 34 105q40 42 121 42t121 -42q34 -35 34 -105z" />
    <glyph glyph-name="afii10148" unicode="&#x474;" horiz-adv-x="426" 
d="M295 0h-184l-106 700h142l54 -484l43 388q5 52 46 76q35 20 91 20h40v-98h-14q-9 0 -23 -8q-14 -11 -17 -32z" />
    <glyph glyph-name="afii10196" unicode="&#x475;" horiz-adv-x="365" 
d="M255 0h-147l-103 512h128l37 -262l4 -46h3l3 46l26 174q8 51 46 71q29 17 88 17h20v-94h-10q-16 0 -26 -10q-8 -7 -14 -37z" />
    <glyph glyph-name="afii10050" unicode="&#x490;" horiz-adv-x="350" 
d="M173 0h-138v700h213v118h98v-216h-173v-602z" />
    <glyph glyph-name="afii10098" unicode="&#x491;" horiz-adv-x="280" 
d="M158 0h-128v512h147v102h99v-192h-118v-422z" />
    <glyph glyph-name="cyrGebar" unicode="&#x492;" horiz-adv-x="381" 
d="M205 0h-138v326h-77v98h77v276h311v-98h-173v-178h134v-98h-134v-326z" />
    <glyph glyph-name="cyrgebar" unicode="&#x493;" horiz-adv-x="318" 
d="M170 0h-128v191h-32v87h32v234h265v-90h-137v-144h138v-87h-138v-191z" />
    <glyph glyph-name="cyrGehook" unicode="&#x494;" horiz-adv-x="432" 
d="M173 0h-138v700h311v-98h-173v-192h52q77 0 120 -28q62 -40 62 -146v-79q0 -98 -45 -139q-36 -33 -94 -33q-36 0 -71 14v91q11 -7 28 -7q16 0 27 10q17 15 17 48v88q0 39 -8 55q-13 28 -48 28h-40v-312z" />
    <glyph glyph-name="cyrgehook" unicode="&#x495;" horiz-adv-x="355" 
d="M158 0h-128v512h265v-90h-137v-170q4 15 16 27q29 29 71 29q51 0 73 -36q17 -28 17 -74v-207q0 -33 -16 -75q-16 -39 -53 -66h-107q10 13 21 25t15 17q24 31 24 64v210q0 29 -6 37q-8 12 -24 12q-15 0 -22 -10q-9 -13 -9 -35v-170z" />
    <glyph glyph-name="cyrZhedesc" unicode="&#x496;" horiz-adv-x="659" 
d="M383 0h-139v319h-40q-21 0 -29 -15q-5 -10 -5 -38v-195q0 -21 -4 -39q-3 -16 -8 -32h-148v4q10 12 17 33q5 17 5 47v191q0 51 11 67q21 33 69 36v4q-42 4 -61 36q-10 18 -10 59v157q0 29 -3 41q-2 6 -15 23v2h134q10 -7 14 -18t4 -31v-180v-3q0 -15 1 -23.5t7 -18
t19 -9.5h42v283h139v-283h42q10 0 16 4.5t8 16t2.5 16t0.5 17.5v180q0 20 4 31t14 18h134v-3q-10 -9 -14 -20q-4 -12 -4 -43v-157q0 -41 -10 -59q-19 -32 -61 -36v-4q48 -3 69 -36q11 -16 11 -67l-1 -177h55v-246h-117v148h-63q-5 16 -8 32q-4 18 -4 39v195q0 28 -5 38
q-8 15 -29 15h-40v-319z" />
    <glyph glyph-name="cyrzhedesc" unicode="&#x497;" horiz-adv-x="585" 
d="M213 0v222h-24q-21 0 -29 -11q-5 -7 -5 -28v-131q0 -17 -4 -29q-4 -13 -8 -23h-138v3q13 11 17 24q5 13 5 34v140q0 36 11 50q12 16 39 25v3q-24 9 -36 26q-10 14 -10 43v115q0 24 -3 30t-15 17v2h128q10 -6 14 -14q4 -7 4 -23v-124q0 -9 0.5 -13t2.5 -11.5t8 -11
t16 -3.5h27v200h129v-200h27q13 0 19.5 7.5t7 13.5t0.5 18v124q0 16 4 23q4 8 14 14h128v-2q-12 -11 -15 -17t-3 -30v-115q0 -29 -10 -43q-12 -17 -36 -26v-3q27 -9 39 -25q11 -14 11 -50v-123h52v-188h-94v110h-74q-4 10 -8 23q-4 12 -4 29v131q0 21 -5 28q-8 11 -29 11
h-24v-222h-129z" />
    <glyph glyph-name="cyrZetail" unicode="&#x498;" horiz-adv-x="396" 
d="M371 231v-73q0 -80 -31 -118q-35 -42 -96 -48v-122h-94v123q-60 8 -93 51q-16 20 -26.5 52.5t-10.5 63.5v60h138v-63q0 -40 8 -54q9 -15 29 -15q24 0 32 16q6 12 6 45v92q0 44 -14 60q-19 22 -69 22h-33v92h53q33 0 46 19q10 14 10 43v83q0 23 -6 37q-8 15 -29 15
t-29 -15q-6 -12 -6 -37v-54h-134v59q0 75 51 113q44 32 122 32q79 0 120 -32q49 -38 49 -113v-89q0 -45 -28 -73q-20 -20 -55 -29v-3q37 -8 58 -32q32 -36 32 -108z" />
    <glyph glyph-name="cyrzetail" unicode="&#x499;" horiz-adv-x="349" 
d="M15 361v17q0 68 34 103q40 41 121 41q80 0 123 -41q32 -31 32 -79v-35q0 -45 -16 -65q-19 -24 -54 -29q30 -7 50 -26q24 -23 24 -71v-47q0 -55 -23 -88q-25 -34 -73 -45v-146h-108v146q-44 8 -73 36q-37 37 -37 103v39h128v-55q0 -23 8 -31q7 -8 21 -8q15 0 22 7t7 29v72
q0 18 -5 25q-7 10 -23 10h-50v90h44q18 0 25 11q5 9 5 26v51q0 15 -5 22q-7 9 -22 9q-13 0 -19 -8q-8 -10 -8 -30v-33h-128z" />
    <glyph glyph-name="cyrKadesc" unicode="&#x49a;" horiz-adv-x="445" 
d="M169 0h-139v700h139v-283h42q10 0 16 4.5t8 16t2.5 16t0.5 17.5v180q0 20 4 31t14 18h134v-3q-10 -9 -14 -20q-4 -12 -4 -43v-157q0 -41 -10 -59q-19 -32 -61 -36v-4q48 -3 69 -36q11 -16 11 -67v-177h54v-246h-117v148h-63q-5 16 -8 32q-4 18 -4 39v195q0 28 -5 38
q-8 15 -29 15h-40v-319z" />
    <glyph glyph-name="cyrkadesc" unicode="&#x49b;" horiz-adv-x="402" 
d="M303 0h-74q-4 10 -8 23q-4 12 -4 29v131q0 21 -5 28q-8 11 -29 11h-24v-222h-129v512h129v-200h27q13 0 19.5 7.5t7 13.5t0.5 18v124q0 16 4 23q4 8 14 14h128v-2q-12 -11 -15 -17t-3 -30v-115q0 -29 -10 -43q-12 -17 -36 -26v-3q27 -9 39 -25q11 -14 11 -50v-123h52
v-188h-94v110z" />
    <glyph glyph-name="cyrKavertbar" unicode="&#x49c;" horiz-adv-x="555" 
d="M173 0h-138v700h138v-283h50v214h99v-214h36q27 0 27 54v180q0 20 4 31t14 18h134v-4q-12 -10 -15 -21q-3 -12 -3 -41v-157q0 -41 -10 -59q-19 -32 -61 -36v-4q48 -3 69 -36q11 -16 11 -67v-191q0 -30 5 -47q7 -21 17 -33v-4h-148q-5 16 -8 32q-4 18 -4 39v195
q0 28 -5 38q-8 15 -29 15h-34v-208h-99v208h-50v-319z" />
    <glyph glyph-name="cyrkavertbar" unicode="&#x49d;" horiz-adv-x="473" 
d="M146 0h-116v512h116v-197h44v158h71v-161h26q13 0 19.5 7.5t7 13.5t0.5 18v124q0 16 4 23q4 8 14 14h128v-2q-12 -11 -15 -17t-3 -30v-115q0 -29 -10 -43q-12 -17 -36 -26v-3q27 -9 39 -25q11 -14 11 -50v-140q0 -21 5 -34q4 -13 17 -24v-3h-138q-4 10 -8 23q-4 12 -4 29
v131q0 21 -5 28q-8 11 -29 11h-23v-152h-71v151h-44v-221z" />
    <glyph glyph-name="cyrKaback" unicode="&#x4a0;" horiz-adv-x="489" 
d="M484 0h-148q-5 16 -8 32q-4 18 -4 39v195q0 28 -5 38q-8 15 -29 15h-41v-319h-138v602h-106v98h244v-283h43q10 0 16 4.5t8 16t2.5 16t0.5 17.5v180q0 20 4 31t14 18h134v-4q-12 -10 -15 -21q-3 -12 -3 -41v-157q0 -41 -10 -59q-19 -32 -61 -36v-4q48 -3 69 -36
q11 -16 11 -67v-191q0 -30 5 -47q7 -21 17 -33v-4z" />
    <glyph glyph-name="cyrkaback" unicode="&#x4a1;" horiz-adv-x="440" 
d="M435 0h-138q-4 10 -8 23q-4 12 -4 29v131q0 21 -5 28q-8 11 -29 11h-24v-222h-128v418h-94v94h222v-200h27q13 0 19.5 7.5t7 13.5t0.5 18v124q0 16 4 23q4 8 14 14h128v-2q-12 -11 -15 -17t-3 -30v-115q0 -29 -10 -43q-12 -17 -36 -26v-3q27 -9 39 -25q11 -14 11 -50
v-140q0 -21 5 -34q4 -13 17 -24v-3z" />
    <glyph glyph-name="cyrEndesc" unicode="&#x4a2;" horiz-adv-x="426" 
d="M245 336h-72v-336h-138v700h138v-269h72v269h138v-602h40v-228h-94v130h-84v336z" />
    <glyph glyph-name="cyrendesc" unicode="&#x4a3;" horiz-adv-x="400" 
d="M340 90h50v-240h-108v150h-70v234h-54v-234h-128v512h128v-188h54v188h128v-422z" />
    <glyph glyph-name="cyrEnGe" unicode="&#x4a4;" horiz-adv-x="560" 
d="M245 336h-72v-336h-138v700h138v-269h72v269h311v-98h-173v-602h-138v336z" />
    <glyph glyph-name="cyrenge" unicode="&#x4a5;" horiz-adv-x="462" 
d="M340 422v-422h-128v234h-54v-234h-128v512h128v-188h54v188h246v-90h-118z" />
    <glyph glyph-name="cyrEstail" unicode="&#x4aa;" horiz-adv-x="405" 
d="M380 479h-138v70q0 23 -4 35q-8 21 -32 21t-32 -21q-4 -12 -4 -35v-398q0 -23 4 -35q8 -21 32 -21t32 21q4 12 4 35v110h138v-107q0 -40 -9 -69t-37 -54q-30 -26 -78 -37v-124h-94v123q-53 9 -84 38q-46 42 -46 123v392q0 81 46 123q45 41 128 41q82 0 128 -41
q29 -25 37.5 -54t8.5 -69v-67z" />
    <glyph glyph-name="cyrestail" unicode="&#x4ab;" horiz-adv-x="351" 
d="M331 196v-42q0 -73 -13 -99q-21 -46 -77 -58v-147h-108v144q-57 8 -88 61q-20 34 -20 105v207q0 67 25 101q39 54 128 54q91 0 128 -54q25 -35 25 -118v-35h-124v61q0 30 -6 41q-7 11 -21 11t-21 -11q-6 -11 -6 -41v-234q0 -36 7 -46q8 -12 22 -12q15 0 22 12q7 13 7 46
v54h120z" />
    <glyph glyph-name="cyrstraightU" unicode="&#x4ae;" horiz-adv-x="396" 
d="M267 0h-138v308l-119 392h138l50 -218l5 28l45 190h138l-119 -392v-308z" />
    <glyph glyph-name="cyrstraightu" unicode="&#x4af;" horiz-adv-x="352" 
d="M240 -188h-128v308l-108 392h128l38 -200l6 -39l5 39l39 200h128l-108 -392v-308z" />
    <glyph glyph-name="cyrstraightUbar" unicode="&#x4b0;" horiz-adv-x="386" 
d="M262 0h-138v178h-109v98h109v32l-119 392h138l50 -218l5 28l45 190h138l-119 -392v-32h109v-98h-109v-178z" />
    <glyph glyph-name="cyrstraightubar" unicode="&#x4b1;" horiz-adv-x="352" 
d="M240 -188h-128v189h-104v90h104v29l-108 392h128l38 -200l6 -39l5 39l39 200h128l-108 -392v-29h104v-90h-104v-189z" />
    <glyph glyph-name="cyrHadesc" unicode="&#x4b2;" horiz-adv-x="434" 
d="M256 0l-44 158l-7 41h-4l-7 -41l-44 -158h-145l128 377l-106 323h134l40 -145h4l40 145h134l-106 -322l94 -280h62v-228h-94v130h-79z" />
    <glyph glyph-name="cyrhadesc" unicode="&#x4b3;" horiz-adv-x="371" 
d="M177 395l37 117h128l-93 -236l68 -186h50v-240h-108v150h-37l-45 144l-45 -144h-128l100 276l-92 236h128z" />
    <glyph glyph-name="cyrChedesc" unicode="&#x4b6;" horiz-adv-x="421" 
d="M235 0v304h-118q-43 0 -71 36q-14 17 -17.5 35t-3.5 57v268h138v-253q0 -19 3 -28q5 -17 28 -17h41v298h138v-602h44v-228h-94v130h-88z" />
    <glyph glyph-name="cyrchedesc" unicode="&#x4b7;" horiz-adv-x="396" 
d="M330 90h51v-240h-108v150h-71v176h-96q-47 0 -69 28q-17 21 -17 67v241h128v-221q0 -25 33 -25h21v246h128v-422z" />
    <glyph glyph-name="cyrChevertbar" unicode="&#x4b8;" horiz-adv-x="531" 
d="M496 0h-138v304h-50v-175h-92v175h-57q-47 0 -70.5 8.5t-41.5 31.5q-4 5 -8 10.5t-6.5 10t-4.5 11t-3.5 10.5t-2.5 12.5t-1.5 12t-0.5 14v14.5v17v18v226h138v-228q0 -37 3 -45q8 -25 38 -25h17v190h92v-190h50v298h138v-700z" />
    <glyph glyph-name="cyrchevertbar" unicode="&#x4b9;" horiz-adv-x="467" 
d="M437 0h-128v176h-34v-100h-86v100h-83q-47 0 -69 28q-17 21 -17 67v241h128v-221q0 -25 33 -25h8v147h86v-147h34v246h128v-512z" />
    <glyph glyph-name="cyrH" unicode="&#x4ba;" horiz-adv-x="419" 
d="M389 0h-138v380q0 26 -7 37q-9 13 -27 13q-26 0 -37 -32q-7 -20 -7 -52v-346h-138v700h138v-233q13 16 31 30q39 29 78 29q55 0 83 -40q24 -35 24 -83v-403z" />
    <glyph glyph-name="cyrh" unicode="&#x4bb;" horiz-adv-x="370" 
d="M340 0h-128v385q0 31 -5 38q-6 11 -18 11q-16 0 -24 -18q-7 -14 -7 -39v-377h-128v700h128v-246q17 28 42 47q28 21 62 21t55 -23q23 -24 23 -98v-401z" />
    <glyph glyph-name="cyrI" unicode="&#x4c0;" horiz-adv-x="188" 
d="M158 0h-128v700h128v-700z" />
    <glyph glyph-name="cyrKahook" unicode="&#x4c3;" horiz-adv-x="425" 
d="M35 0v700h138v-283h43q10 0 16 4.5t8 16t2.5 16t0.5 17.5v180q0 20 4 31t14 18h134v-4q-12 -10 -15 -21q-3 -12 -3 -41v-157q0 -41 -10 -59q-19 -32 -61 -36v-4q48 -3 69 -36q11 -16 11 -67l-1 -275q0 -38 -15 -70q-12 -27 -26 -42t-42 -23q-57 -15 -113 -6v85h17
q24 0 34 22q8 20 8 52v248q0 28 -5 38q-8 15 -29 15h-41v-319h-138z" />
    <glyph glyph-name="cyrkahook" unicode="&#x4c4;" horiz-adv-x="368" 
d="M158 0h-128v512h128v-200h27q13 0 19.5 7.5t7 13.5t0.5 18v124q0 16 4 23q4 8 14 14h128v-2q-12 -11 -15 -17t-3 -30v-115q0 -29 -10 -43q-12 -17 -36 -26v-3q27 -9 39 -25q11 -14 11 -50v-201q0 -63 -11 -100q-11 -34 -26.5 -49t-43.5 -24q-37 -11 -101 -11v90h17
q6 0 13 3.5t15.5 21t8.5 48.5v204q0 21 -5 28q-8 11 -29 11h-24v-222z" />
    <glyph glyph-name="cyrEnhook" unicode="&#x4c7;" horiz-adv-x="418" 
d="M245 336h-72v-336h-138v700h138v-269h72v269h138l-1 -700q0 -33 -15 -70q-12 -28 -27 -43t-41 -22q-57 -15 -113 -6v85h17q24 0 34 22q8 20 8 52v318z" />
    <glyph glyph-name="cyrenhook" unicode="&#x4c8;" horiz-adv-x="370" 
d="M158 -184v90h17q6 0 13 3.5t15.5 21t8.5 48.5v255h-54v-234h-128v512h128v-188h54v188h128v-512q0 -61 -11 -100q-10 -35 -27 -50.5t-43 -22.5q-37 -11 -101 -11z" />
    <glyph glyph-name="cyrAcyrbreve" unicode="&#x4d0;" horiz-adv-x="384" 
d="M374 0h-143l-8 89h-62l-8 -89h-143l67 700h232zM165 187h54l-24 406h-4zM235 857h97q-2 -64 -52 -101q-38 -29 -94 -29t-94 29q-50 37 -52 101h97q-2 -25 8 -41q14 -22 42 -22q27 0 40 22q10 17 8 41z" />
    <glyph glyph-name="cyracyrbreve" unicode="&#x4d1;" horiz-adv-x="356" 
d="M331 0h-108l-14 38q-14 -21 -31 -33q-22 -15 -58 -15q-56 0 -83 37q-22 30 -22 87v24q0 79 58 124q38 30 130 60v69q0 20 -4 28q-6 13 -23 13t-23 -13q-4 -8 -4 -28v-46h-124v50q0 56 28 86q39 41 123 41q83 0 123 -41q32 -33 32 -92v-389zM203 127v121q-34 -12 -49 -40
q-11 -19 -11 -55v-30q0 -25 5 -37q9 -16 25 -16q17 0 25 15q5 10 5 42zM221 700h97q-2 -64 -52 -101q-38 -29 -94 -29t-94 29q-50 37 -52 101h97q-2 -25 8 -41q14 -22 42 -22q27 0 40 22q10 17 8 41z" />
    <glyph glyph-name="cyrAdieresis" unicode="&#x4d2;" horiz-adv-x="384" 
d="M374 0h-143l-8 89h-62l-8 -89h-143l67 700h232zM165 187h54l-24 406h-4zM60 745v115h107v-115h-107zM230 745v115h107v-115h-107z" />
    <glyph glyph-name="cyradieresis" unicode="&#x4d3;" horiz-adv-x="356" 
d="M331 0h-108l-14 38q-14 -21 -31 -33q-22 -15 -58 -15q-56 0 -83 37q-22 30 -22 87v24q0 79 58 124q38 30 130 60v69q0 20 -4 28q-6 13 -23 13t-23 -13q-4 -8 -4 -28v-46h-124v50q0 56 28 86q39 41 123 41q83 0 123 -41q32 -33 32 -92v-389zM203 127v121q-34 -12 -49 -40
q-11 -19 -11 -55v-30q0 -25 5 -37q9 -16 25 -16q17 0 25 15q5 10 5 42zM309 590h-107v120h107v-120zM142 590h-107v120h107v-120z" />
    <glyph glyph-name="cyrAE" unicode="&#x4d4;" horiz-adv-x="596" 
d="M591 0h-329v89h-80l-14 -89h-138l114 700h431v-98h-175v-168h132v-98h-132v-238h191v-98zM198 187h64v406h-4z" />
    <glyph glyph-name="cyrae" unicode="&#x4d5;" horiz-adv-x="548" 
d="M518 181v-64q0 -51 -29 -85q-36 -42 -116 -42q-31 0 -53.5 5.5t-30.5 10t-25 16.5l-14 10l-20 -13q-17 -11 -37 -18q-28 -11 -58 -11q-56 0 -83 37q-22 30 -22 87v24q0 79 58 124q38 30 130 60v69q0 20 -4 28q-6 13 -23 13t-23 -13q-4 -8 -4 -28v-46h-124v50q0 56 28 86
q39 41 123 41q56 0 92 -18q37 18 86 18q65 0 106 -33q43 -35 43 -112v-143h-172v-106q0 -23 6 -32q8 -12 24 -12q18 0 25 11q5 9 5 29v57h112zM218 127v121q-34 -12 -49 -40q-11 -19 -11 -55v-30q0 -25 5 -37q9 -16 25 -16q18 0 25 15q5 10 5 42zM398 314v77q0 20 -5 27
q-6 10 -21 10q-14 0 -21 -10q-5 -7 -5 -28v-76h52z" />
    <glyph glyph-name="cyrIecyrbreve" unicode="&#x4d6;" horiz-adv-x="369" 
d="M35 0v700h313v-98h-175v-168h132v-98h-132v-238h191v-98h-329zM238 859h97q-2 -64 -52 -101q-38 -29 -94 -29t-94 29q-50 37 -52 101h97q-2 -25 8 -41q14 -22 42 -22q27 0 40 22q10 17 8 41z" />
    <glyph glyph-name="cyriecyrbreve" unicode="&#x4d7;" horiz-adv-x="360" 
d="M335 160v-43q0 -48 -32 -85q-39 -42 -123 -42q-75 0 -114 40q-41 42 -41 118v210q0 81 35 119q42 45 119 45q76 0 119 -45q18 -18 26.5 -41.5t9.5 -36.5t1 -41v-130h-182v-114q0 -10 7 -21q7 -9 22 -9q17 0 23 9q6 8 6 24v43h124zM207 308v83q0 16 -5 26q-7 11 -23 11
q-14 0 -21 -11q-5 -8 -5 -27v-82h54zM223 700h97q-2 -64 -52 -101q-38 -29 -94 -29t-94 29q-50 37 -52 101h97q-2 -25 8 -41q14 -22 42 -22q27 0 40 22q10 17 8 41z" />
    <glyph glyph-name="cyrinvE" unicode="&#x4d8;" horiz-adv-x="412" 
d="M32 369h210v180q0 23 -4 35q-8 21 -32 21t-32 -21q-4 -12 -4 -35v-83h-138v80q0 40 8.5 69t37.5 54q46 41 128 41q83 0 128 -41q46 -42 46 -123v-392q0 -81 -46 -123q-45 -41 -128 -41q-82 0 -128 41q-29 25 -37.5 54t-8.5 69v215zM170 271v-120q0 -23 4 -35
q8 -21 32 -21t32 21q4 12 4 35v120h-72z" />
    <glyph glyph-name="cyrinve" unicode="&#x4d9;" horiz-adv-x="350" 
d="M25 331v64q0 51 29 85q36 42 116 42q81 0 118 -38t37 -114v-241q0 -70 -42 -105q-39 -34 -109 -34q-66 0 -106 33q-43 35 -43 112v143h172v106q0 23 -6 32q-8 12 -24 12q-18 0 -25 -11q-5 -7 -5 -29v-57h-112zM145 198v-77q0 -20 5 -27q6 -10 21 -10q13 0 21 10q5 7 5 28
v76h-52z" />
    <glyph glyph-name="cyrinvEdieresis" unicode="&#x4da;" horiz-adv-x="412" 
d="M32 369h210v180q0 23 -4 35q-8 21 -32 21t-32 -21q-4 -12 -4 -35v-83h-138v80q0 40 8.5 69t37.5 54q46 41 128 41q83 0 128 -41q46 -42 46 -123v-392q0 -81 -46 -123q-45 -41 -128 -41q-82 0 -128 41q-29 25 -37.5 54t-8.5 69v215zM170 271v-120q0 -23 4 -35
q8 -21 32 -21t32 21q4 12 4 35v120h-72zM65 744v115h107v-115h-107zM235 744v115h107v-115h-107z" />
    <glyph glyph-name="cyrinvedieresis" unicode="&#x4db;" horiz-adv-x="350" 
d="M25 331v64q0 51 29 85q36 42 116 42q81 0 118 -38t37 -114v-241q0 -70 -42 -105q-39 -34 -109 -34q-66 0 -106 33q-43 35 -43 112v143h172v106q0 23 -6 32q-8 12 -24 12q-18 0 -25 -11q-5 -7 -5 -29v-57h-112zM145 198v-77q0 -20 5 -27q6 -10 21 -10q13 0 21 10q5 7 5 28
v76h-52zM306 577h-107v120h107v-120zM139 577h-107v120h107v-120z" />
    <glyph glyph-name="cyrZhedieresis" unicode="&#x4dc;" horiz-adv-x="627" 
d="M383 0h-139v319h-40q-21 0 -29 -15q-5 -10 -5 -38v-195q0 -21 -4 -39q-3 -16 -8 -32h-148v4q10 12 17 33q5 17 5 47v191q0 51 11 67q21 33 69 36v4q-42 4 -61 36q-10 18 -10 59v157q0 29 -3 41q-2 6 -15 23v2h134q10 -7 14 -18t4 -31v-180v-3q0 -15 1 -23.5t7 -18
t19 -9.5h42v283h139v-283h42q10 0 16 4.5t8 16t2.5 16t0.5 17.5v180q0 20 4 31t14 18h134v-3q-10 -9 -14 -20q-4 -12 -4 -43v-157q0 -41 -10 -59q-19 -32 -61 -36v-4q48 -3 69 -36q11 -16 11 -67v-191q0 -30 5 -47q7 -21 17 -33v-4h-148q-5 16 -8 32q-4 18 -4 39v195
q0 28 -5 38q-8 15 -29 15h-40v-319zM173 745v115h107v-115h-107zM343 745v115h107v-115h-107z" />
    <glyph glyph-name="cyrzhedieresis" unicode="&#x4dd;" horiz-adv-x="555" 
d="M550 0h-138q-4 10 -8 23q-4 12 -4 29v131q0 21 -5 28q-8 11 -29 11h-24v-222h-129v222h-24q-21 0 -29 -11q-5 -7 -5 -28v-131q0 -17 -4 -29q-4 -13 -8 -23h-138v3q13 11 17 24q5 13 5 34v140q0 36 11 50q12 16 39 25v3q-24 9 -36 26q-10 14 -10 43v115q0 24 -3 30t-15 17
v2h128q10 -6 14 -14q4 -7 4 -23v-124q0 -9 0.5 -13t2.5 -11.5t8 -11t16 -3.5h27v200h129v-200h27q13 0 19.5 7.5t7 13.5t0.5 18v124q0 16 4 23q4 8 14 14h128v-2q-12 -11 -15 -17t-3 -30v-115q0 -29 -10 -43q-12 -17 -36 -26v-3q27 -9 39 -25q11 -14 11 -50v-140
q0 -21 5 -34q4 -13 17 -24v-3zM415 581h-107v120h107v-120zM248 581h-107v120h107v-120z" />
    <glyph glyph-name="cyrZedieresis" unicode="&#x4de;" horiz-adv-x="396" 
d="M371 231v-73q0 -80 -31 -118q-41 -50 -145 -50q-93 0 -138 54q-37 45 -37 116v60h138v-63q0 -41 8 -54q9 -15 29 -15q22 0 32 16q6 12 6 45v92q0 44 -14 60q-19 22 -69 22h-33v92h53q33 0 46 19q10 14 10 43v83q0 25 -7 37q-9 15 -28 15t-28 -16q-7 -14 -7 -43v-47h-134
v59q0 75 51 113q44 32 122 32q75 0 118 -32q51 -38 51 -118v-84q0 -45 -28 -73q-20 -20 -55 -29v-3q34 -8 58 -32q32 -34 32 -108zM48 742v115h107v-115h-107zM218 742v115h107v-115h-107z" />
    <glyph glyph-name="cyrzedieresis" unicode="&#x4df;" horiz-adv-x="349" 
d="M15 361v17q0 68 34 103q40 41 121 41q80 0 123 -41q32 -31 32 -79v-35q0 -45 -16 -65q-19 -24 -54 -29q30 -7 50 -26q24 -23 24 -71v-47q0 -55 -23 -88q-36 -51 -128 -51q-82 0 -126 42q-37 37 -37 103v39h128v-55q0 -23 8 -31q7 -8 21 -8q15 0 22 7t7 29v72q0 18 -5 25
q-7 10 -23 10h-50v90h44q18 0 25 11q5 9 5 26v43q0 22 -5 30q-6 9 -21 9q-12 0 -20 -8q-8 -10 -8 -30v-33h-128zM307 580h-107v120h107v-120zM140 580h-107v120h107v-120z" />
    <glyph glyph-name="cyrImacron" unicode="&#x4e2;" horiz-adv-x="418" 
d="M383 0h-138v328l4 51l-76 -272v-107h-138v700h138v-322l-4 -57l76 270v109h138v-700zM82 759v78h256v-78h-256z" />
    <glyph glyph-name="cyrimacron" unicode="&#x4e3;" horiz-adv-x="370" 
d="M340 0h-128v163l3 57l-57 -101v-119h-128v512h128v-152l-3 -48l57 94v106h128v-512zM54 602v78h256v-78h-256z" />
    <glyph glyph-name="cyrIdieresis" unicode="&#x4e4;" horiz-adv-x="418" 
d="M383 0h-138v328l4 51l-76 -272v-107h-138v700h138v-322l-4 -57l76 270v109h138v-700zM71 746v115h107v-115h-107zM241 746v115h107v-115h-107z" />
    <glyph glyph-name="cyridieresis" unicode="&#x4e5;" horiz-adv-x="370" 
d="M340 0h-128v163l3 57l-57 -101v-119h-128v512h128v-152l-3 -48l57 94v106h128v-512zM322 575h-107v120h107v-120zM155 575h-107v120h107v-120z" />
    <glyph glyph-name="cyrOdieresis" unicode="&#x4e6;" horiz-adv-x="412" 
d="M380 546v-392q0 -40 -8.5 -69t-37.5 -54q-46 -41 -128 -41q-83 0 -128 41q-46 42 -46 123v392q0 81 46 123q45 41 128 41q82 0 128 -41q29 -25 37.5 -54t8.5 -69zM242 151v398q0 23 -4 35q-8 21 -32 21t-32 -21q-4 -12 -4 -35v-398q0 -23 4 -35q8 -21 32 -21t32 21
q4 12 4 35zM69 745v115h107v-115h-107zM239 745v115h107v-115h-107z" />
    <glyph glyph-name="cyrodieresis" unicode="&#x4e7;" horiz-adv-x="360" 
d="M153 390v-268q0 -20 5 -27q7 -11 22 -11t22 11q5 7 5 27v268q0 20 -5 27q-7 11 -22 11t-22 -11q-5 -7 -5 -27zM335 375v-238q0 -70 -34 -105q-40 -42 -121 -42t-121 42q-34 35 -34 105v238q0 70 34 105q40 42 121 42t121 -42q34 -35 34 -105zM315 580h-107v120h107v-120z
M148 580h-107v120h107v-120z" />
    <glyph glyph-name="cyrObar" unicode="&#x4e8;" horiz-adv-x="412" 
d="M380 546v-392q0 -40 -8.5 -69t-37.5 -54q-46 -41 -128 -41q-83 0 -128 41q-46 42 -46 123v392q0 81 46 123q45 41 128 41q82 0 128 -41q29 -25 37.5 -54t8.5 -69zM242 321h-72v-170q0 -23 4 -35q8 -21 32 -21t32 21q4 12 4 35v170zM170 419h72v130q0 23 -4 35
q-8 21 -32 21t-32 -21q-4 -12 -4 -35v-130z" />
    <glyph glyph-name="cyrobar" unicode="&#x4e9;" horiz-adv-x="360" 
d="M207 232h-54v-110q0 -20 5 -27q7 -11 22 -11t22 11q5 7 5 27v110zM153 312h54v78q0 20 -5 27q-7 11 -22 11t-22 -11q-5 -7 -5 -27v-78zM335 375v-238q0 -70 -34 -105q-40 -42 -121 -42t-121 42q-34 35 -34 105v238q0 70 34 105q40 42 121 42t121 -42q34 -35 34 -105z" />
    <glyph glyph-name="cyrObardieresis" unicode="&#x4ea;" horiz-adv-x="412" 
d="M380 546v-392q0 -40 -8.5 -69t-37.5 -54q-46 -41 -128 -41q-83 0 -128 41q-46 42 -46 123v392q0 81 46 123q45 41 128 41q82 0 128 -41q29 -25 37.5 -54t8.5 -69zM242 321h-72v-170q0 -23 4 -35q8 -21 32 -21t32 21q4 12 4 35v170zM170 419h72v130q0 23 -4 35
q-8 21 -32 21t-32 -21q-4 -12 -4 -35v-130zM73 745v115h107v-115h-107zM243 745v115h107v-115h-107z" />
    <glyph glyph-name="cyrobardieresis" unicode="&#x4eb;" horiz-adv-x="360" 
d="M207 232h-54v-110q0 -20 5 -27q7 -11 22 -11t22 11q5 7 5 27v110zM153 312h54v78q0 20 -5 27q-7 11 -22 11t-22 -11q-5 -7 -5 -27v-78zM335 375v-238q0 -70 -34 -105q-40 -42 -121 -42t-121 42q-34 35 -34 105v238q0 70 34 105q40 42 121 42t121 -42q34 -35 34 -105z
M316 578h-107v120h107v-120zM149 578h-107v120h107v-120z" />
    <glyph glyph-name="cyrUmacron" unicode="&#x4ee;" horiz-adv-x="395" 
d="M29 0v98h23q35 0 53 14q21 16 28 52l13 67l-141 469h133l65 -224l55 224h132l-139 -569q-1 -5 -4 -18t-4.5 -18.5t-5 -16t-6.5 -16t-8 -14t-12 -14.5t-15 -12q-15 -11 -34.5 -16t-31 -5.5t-39.5 -0.5h-62zM70 759v78h256v-78h-256z" />
    <glyph glyph-name="cyrumacron" unicode="&#x4ef;" horiz-adv-x="348" 
d="M19 -148v90h52q36 0 49 24q11 20 2 55l-118 491h128l44 -270h4l36 270h128l-103 -538q-10 -55 -43 -87q-17 -16 -35.5 -24t-32.5 -9.5t-39 -1.5h-72zM41 599v78h256v-78h-256z" />
    <glyph glyph-name="cyrUdieresis" unicode="&#x4f0;" horiz-adv-x="395" 
d="M29 0v98h23q35 0 53 14q21 16 28 52l13 67l-141 469h133l65 -224l55 224h132l-139 -569q-1 -5 -4 -18t-4.5 -18.5t-5 -16t-6.5 -16t-8 -14t-12 -14.5t-15 -12q-15 -11 -34.5 -16t-31 -5.5t-39.5 -0.5h-62zM60 745v115h107v-115h-107zM230 745v115h107v-115h-107z" />
    <glyph glyph-name="cyrudieresis" unicode="&#x4f1;" horiz-adv-x="348" 
d="M19 -148v90h52q36 0 49 24q11 20 2 55l-118 491h128l44 -270h4l36 270h128l-103 -538q-10 -55 -43 -87q-17 -16 -35.5 -24t-32.5 -9.5t-39 -1.5h-72zM309 579h-107v120h107v-120zM142 579h-107v120h107v-120z" />
    <glyph glyph-name="cyrUdblacute" unicode="&#x4f2;" horiz-adv-x="395" 
d="M29 0v98h23q35 0 53 14q21 16 28 52l13 67l-141 469h133l65 -224l55 224h132l-139 -569q-1 -5 -4 -18t-4.5 -18.5t-5 -16t-6.5 -16t-8 -14t-12 -14.5t-15 -12q-15 -11 -34.5 -16t-31 -5.5t-39.5 -0.5h-62zM118 725l-41 36l91 114l60 -55zM273 725l-41 36l91 114l60 -55z
" />
    <glyph glyph-name="cyrudblacute" unicode="&#x4f3;" horiz-adv-x="348" 
d="M19 -148v90h52q36 0 49 24q11 20 2 55l-118 491h128l44 -270h4l36 270h128l-103 -538q-10 -55 -43 -87q-17 -16 -35.5 -24t-32.5 -9.5t-39 -1.5h-72zM98 550l-41 36l91 114l60 -55zM253 550l-41 36l91 114l60 -55z" />
    <glyph glyph-name="cyrChedieresis" unicode="&#x4f4;" horiz-adv-x="408" 
d="M373 0h-138v304h-118q-43 0 -71 36q-14 17 -17.5 35t-3.5 57v268h138v-253q0 -19 3 -28q5 -17 28 -17h41v298h138v-700zM64 740v115h107v-115h-107zM234 740v115h107v-115h-107z" />
    <glyph glyph-name="cyrchedieresis" unicode="&#x4f5;" horiz-adv-x="360" 
d="M330 0h-128v176h-96q-47 0 -69 28q-17 21 -17 67v241h128v-221q0 -25 33 -25h21v246h128v-512zM312 580h-107v120h107v-120zM145 580h-107v120h107v-120z" />
    <glyph glyph-name="cyrYerudieresis" unicode="&#x4f8;" horiz-adv-x="597" 
d="M173 700v-291h72q86 0 121 -54q17 -27 17 -81v-146q0 -53 -21 -83q-32 -45 -84 -45h-243v700h138zM173 98h35q25 0 33 21q4 10 4 45v81q0 30 -8 45q-12 21 -37 21h-27v-213zM424 0v700h138v-700h-138zM158 745v115h107v-115h-107zM328 745v115h107v-115h-107z" />
    <glyph glyph-name="cyryerudieresis" unicode="&#x4f9;" horiz-adv-x="534" 
d="M504 0h-128v512h128v-512zM30 0v512h128v-163h71q57 0 88 -29q14 -13 21 -32t7.5 -31.5t0.5 -38.5v-109q0 -37 -9 -55.5t-28 -31.5q-7 -5 -13.5 -8.5t-11.5 -5.5t-12 -4t-11 -2.5t-11.5 -1t-10.5 -0.5h-11h-10h-188zM158 90h24q20 0 29 13q7 9 7 40v62q0 31 -5 38
q-7 16 -29 16h-26v-169zM401 581h-107v120h107v-120zM234 581h-107v120h107v-120z" />
    <glyph glyph-name="endash" unicode="&#x2013;" horiz-adv-x="478" 
d="M10 215v83h458v-83h-458z" />
    <glyph glyph-name="emdash" unicode="&#x2014;" horiz-adv-x="714" 
d="M10 215v83h694v-83h-694z" />
    <glyph glyph-name="quoteleft" unicode="&#x2018;" horiz-adv-x="216" 
d="M117 700h83l-88 -132h66v-148h-148v148z" />
    <glyph glyph-name="quoteright" unicode="&#x2019;" horiz-adv-x="216" 
d="M99 420h-83l88 132h-66v148h148v-148z" />
    <glyph glyph-name="quotesinglbase" unicode="&#x201a;" horiz-adv-x="216" 
d="M99 -132h-83l88 132h-66v148h148v-148z" />
    <glyph glyph-name="quotedblleft" unicode="&#x201c;" horiz-adv-x="410" 
d="M311 700h83l-88 -132h66v-148h-148v148zM117 700h83l-88 -132h66v-148h-148v148z" />
    <glyph glyph-name="quotedblright" unicode="&#x201d;" horiz-adv-x="410" 
d="M99 420h-83l88 132h-66v148h148v-148zM293 420h-83l88 132h-66v148h148v-148z" />
    <glyph glyph-name="quotedblbase" unicode="&#x201e;" horiz-adv-x="410" 
d="M99 -132h-83l88 132h-66v148h148v-148zM293 -132h-83l88 132h-66v148h148v-148z" />
    <glyph glyph-name="dagger" unicode="&#x2020;" horiz-adv-x="416" 
d="M262 -165h-107v580h-140v94h140v191h107v-191h139v-94h-139v-580z" />
    <glyph glyph-name="daggerdbl" unicode="&#x2021;" horiz-adv-x="416" 
d="M262 -165h-107v205h-140v94h140v281h-140v94h140v191h107v-191h139v-94h-139v-281h139v-94h-139v-205z" />
    <glyph glyph-name="bullet" unicode="&#x2022;" horiz-adv-x="286" 
d="M30 397q0 47 33 80t80 33t80 -33t33 -80t-33 -80t-80 -33t-80 33t-33 80z" />
    <glyph glyph-name="ellipsis" unicode="&#x2026;" horiz-adv-x="594" 
d="M30 0v148h138v-148h-138zM228 0v148h138v-148h-138zM426 0v148h138v-148h-138z" />
    <glyph glyph-name="perthousand" unicode="&#x2030;" horiz-adv-x="1020" 
d="M281 562v-66q0 -25 -0.5 -35t-7 -29.5t-19.5 -34.5q-34 -39 -104 -39q-68 0 -103 39q-13 15 -19.5 34.5t-7 29.5t-0.5 35v66q0 25 0.5 35t7 29.5t19.5 34.5q35 39 103 39q70 0 104 -39q13 -15 19.5 -34.5t7 -29.5t0.5 -35zM121 587v-116q0 -20 5 -28q8 -12 24 -12
q18 0 25 12q5 8 5 28v116q0 20 -5 28q-7 12 -25 12q-16 0 -24 -12q-5 -8 -5 -28zM246 0h-90l302 700h89zM682 205v-66v-6q0 -64 -26 -93q-35 -39 -104 -39q-70 0 -104 39q-13 15 -19.5 34.5t-7 29.5t-0.5 35v66q0 25 0.5 35t7 29.5t19.5 34.5q34 39 104 39q69 0 104 -39
q13 -14 19 -34t6.5 -30t0.5 -35zM522 230v-116q0 -20 5 -28q7 -12 25 -12q15 0 24 12q6 9 6 28v116q0 19 -6 28q-9 12 -24 12q-18 0 -25 -12q-5 -8 -5 -28zM1000 205v-66q0 -25 -0.5 -35t-7 -29.5t-19.5 -34.5q-35 -39 -103 -39q-70 0 -104 39q-13 15 -19.5 34.5t-7 29.5
t-0.5 35v66q0 25 0.5 35t7 29.5t19.5 34.5q34 39 104 39q68 0 103 -39q13 -15 19.5 -34.5t7 -29.5t0.5 -35zM840 230v-116q0 -20 5 -28q7 -12 25 -12q16 0 24 12q5 8 5 28v116q0 20 -5 28q-8 12 -24 12q-18 0 -25 -12q-5 -8 -5 -28z" />
    <glyph glyph-name="guilsinglleft" unicode="&#x2039;" horiz-adv-x="288" 
d="M278 0h-113l-155 256l155 256h113l-130 -256z" />
    <glyph glyph-name="guilsinglright" unicode="&#x203a;" horiz-adv-x="288" 
d="M10 0l130 256l-130 256h113l155 -256l-155 -256h-113z" />
    <glyph glyph-name="fraction" unicode="&#x2044;" horiz-adv-x="401" 
d="M94 0h-89l301 700h90z" />
    <glyph glyph-name="Euro" unicode="&#x20ac;" horiz-adv-x="492" 
d="M467 525h-138v24q0 23 -4 35q-8 21 -32 21t-32 -21q-4 -12 -4 -35v-92h182l-46 -76h-136v-71h101l-43 -76h-58v-83q0 -23 4 -35q8 -21 32 -21t32 21q4 12 4 35v35h138v-32q0 -40 -8.5 -69t-37.5 -54q-46 -41 -128 -41q-83 0 -128 41q-46 42 -46 123v80h-114l47 76h67v71
h-114l47 76h67v89q0 81 46 123q45 41 128 41q82 0 128 -41q29 -25 37.5 -54t8.5 -69v-21z" />
    <glyph glyph-name="afii61352" unicode="&#x2116;" horiz-adv-x="745" 
d="M413 0h-130l-112 385l6 -90v-147q0 -68 -23 -100q-34 -48 -108 -48h-41v105h9q12 0 22 10q13 13 13 42v543h130l112 -407l-6 85v194q0 67 28 96q31 32 93 32h52v-105h-11q-34 0 -34 -52v-543zM459 0v88h261v-88h-261zM720 354v-66q0 -62 -27 -95q-36 -43 -104 -43
q-69 0 -104 43q-26 32 -26 95v66q0 63 26 95q35 43 104 43q68 0 104 -43q27 -33 27 -95zM566 379v-116q0 -20 4 -28q6 -12 19 -12q16 0 20 12q3 7 3 28v116q0 21 -3 28q-4 12 -20 12q-13 0 -19 -12q-4 -8 -4 -28z" />
    <glyph glyph-name="published" unicode="&#x2117;" horiz-adv-x="614" 
d="M416 0h-218q-91 0 -136 59q-30 39 -30 112v358q0 73 30 112q45 59 136 59h218q91 0 136 -59q30 -39 30 -112v-358q0 -73 -30 -112q-45 -59 -136 -59zM112 534v-368q0 -44 15 -65q22 -31 67 -31h226q45 0 67 31q15 21 15 65v368q0 44 -15 65q-22 31 -67 31h-226
q-45 0 -67 -31q-15 -21 -15 -65zM270 109h-84v482h140q19 0 43.5 -8t37.5 -21q24 -24 24 -77v-72q0 -56 -24 -80q-25 -25 -75 -25q-24 -1 -62 3v-202zM270 379h44q21 0 29 14q5 10 5 35v55q0 20 -9 30q-10 10 -31 10h-38v-144z" />
    <glyph glyph-name="trademark" unicode="&#x2122;" horiz-adv-x="442" 
d="M113 450h-56v204h-53v46h161v-46h-52v-204zM412 450h-54v194h-2l-37 -194h-44l-36 194h-2v-194h-55v250h91l25 -152l23 152h91v-250z" />
    <glyph glyph-name="partialdiff" unicode="&#x2202;" horiz-adv-x="374" 
d="M160 390v-268q0 -20 5 -27q7 -11 22 -11t22 11q5 7 5 27v268q0 20 -5 27q-7 11 -22 11t-22 -11q-5 -7 -5 -27zM342 485v-348q0 -70 -34 -105q-40 -42 -121 -42t-121 42q-34 35 -34 105v238q0 70 34 105q39 42 121 42q46 0 74 -37q2 45 -15 77q-28 53 -113 53h-71v85h85
q128 0 174 -96q21 -44 21 -119z" />
    <glyph glyph-name="product" unicode="&#x220f;" horiz-adv-x="418" 
d="M383 0h-138v602h-72v-602h-138v700h348v-700z" />
    <glyph glyph-name="summation" unicode="&#x2211;" horiz-adv-x="344" 
d="M10 0l151 391l-151 309h313v-98h-150l107 -211l-118 -293h177v-98h-329z" />
    <glyph glyph-name="minus" unicode="&#x2212;" horiz-adv-x="572" 
d="M40 315v76h492v-76h-492z" />
    <glyph glyph-name="division" unicode="&#x2215;" horiz-adv-x="470" 
d="M95 -160h-90l370 860h90z" />
    <glyph glyph-name="radical" unicode="&#x221a;" horiz-adv-x="613" 
d="M407 699h201v-59h-150l-170 -641l-65 1l-97 350l-121 1v66h174l73 -292z" />
    <glyph glyph-name="infinity" unicode="&#x221e;" horiz-adv-x="782" 
d="M273 177h-77q-74 0 -109 27q-47 35 -47 110t47 110q35 27 109 27h77q78 0 118 -58q40 58 118 58h77q74 0 109 -27q47 -35 47 -110t-47 -110q-35 -27 -109 -27h-77q-77 0 -118 56q-39 -56 -118 -56zM282 364h-93q-24 0 -38 -8q-21 -13 -21 -42t21 -42q14 -8 38 -8h93
q28 0 46 14q16 14 16 36t-16 36q-18 14 -46 14zM593 364h-92q-32 0 -50 -17q-14 -11 -14 -33q0 -23 17 -36q18 -14 46 -14h93q24 0 38 8q21 12 21 42t-21 42q-14 8 -38 8z" />
    <glyph glyph-name="integral" unicode="&#x222b;" horiz-adv-x="331" 
d="M225 477v-386q0 -57 -7 -94t-30 -69q-50 -71 -149 -71h-29v76h23q46 0 62 32q11 21 11 103v397q0 109 38 162q51 70 168 70h9v-76h-14q-54 0 -72 -44q-10 -24 -10 -100z" />
    <glyph glyph-name="approxequal" unicode="&#x2248;" horiz-adv-x="572" 
d="M40 350v76q38 31 80 45q30 11 63 11q30 0 73 -15l69 -26q48 -18 71 -18q28 0 67 16q44 18 69 32v-76q-37 -18 -67 -29q-39 -15 -74 -15q-32 0 -89 21l-80 29q-27 9 -51 9q-28 0 -61 -14q-37 -16 -70 -46zM40 190v76q38 31 80 45q30 11 63 11q30 0 73 -15l69 -26
q48 -18 71 -18q28 0 67 16q44 18 69 32v-76q-37 -18 -67 -29q-39 -15 -74 -15q-32 0 -89 21l-80 29q-27 9 -51 9q-28 0 -61 -14q-37 -16 -70 -46z" />
    <glyph glyph-name="notequal" unicode="&#x2260;" horiz-adv-x="572" 
d="M205 101h-62l57 133h-160v76h193l31 71h-224v76h257l57 135h63l-58 -135h173v-76h-206l-31 -71h237v-76h-270z" />
    <glyph glyph-name="lessequal" unicode="&#x2264;" horiz-adv-x="420" 
d="M380 278v-76l-340 179v60l340 179v-76l-257 -133zM380 108v-76l-340 179v76z" />
    <glyph glyph-name="greaterequal" unicode="&#x2265;" horiz-adv-x="420" 
d="M40 278v-76l340 179v60l-340 179v-76l257 -133zM40 108v-76l340 179v76z" />
    <glyph glyph-name="lozenge" unicode="&#x25ca;" horiz-adv-x="400" 
d="M30 354l170 287l170 -287l-170 -287zM287 354l-87 158l-87 -158l87 -158z" />
    <glyph glyph-name="accent" unicode="&#xf400;" horiz-adv-x="2" 
d="M-217 546l-35 47l148 148l68 -80z" />
    <glyph glyph-name="Accent" unicode="&#xf401;" horiz-adv-x="2" 
d="M-300 730l-18 48l244 109l37 -98z" />
    <glyph glyph-name="Breve" unicode="&#xf406;" 
d="M219 857h97q-2 -64 -52 -101q-38 -29 -94 -29t-94 29q-50 37 -52 101h97q-2 -25 8 -41q14 -22 42 -22q27 0 40 22q10 17 8 41z" />
    <glyph glyph-name="Cedilla" unicode="&#xf407;" 
d="M82 -192v58q12 -3 36 -7q30 -3 36 -3q16 0 23 12q5 9 5 19q0 15 -7 24q-10 13 -32 13h-39v76h64v-32q46 3 73 -28q18 -18 18 -56q0 -33 -22 -57q-26 -27 -73 -27q-5 0 -50 3q-16 1 -32 5z" />
    <glyph glyph-name="Circumflex" unicode="&#xf408;" 
d="M28 730v60l142 89l141 -89v-60l-141 58z" />
    <glyph glyph-name="Commaaccent" unicode="&#xf409;" horiz-adv-x="167" 
d="M137 -43v-95l-51 -86h-56l36 91h-35v90h106z" />
    <glyph glyph-name="Apostrophe" unicode="&#xf40a;" horiz-adv-x="179" 
d="M149 700v-119l-65 -108h-54l45 117h-42v110h116z" />
    <glyph glyph-name="Dotaccent" unicode="&#xf40b;" 
d="M240 746h-139v122h139v-122z" />
    <glyph glyph-name="Ring" unicode="&#xf40c;" 
d="M117 807q0 -23 15.5 -38t37.5 -15t37.5 15t15.5 38t-15.5 38t-37.5 15t-37.5 -15t-15.5 -38zM63 807q0 45 31 76t76 31t76 -31t31 -76t-31 -76t-76 -31t-76 31t-31 76z" />
    <glyph glyph-name="Tilde" unicode="&#xf40d;" 
d="M26 733l-9 78q23 23 48 34q21 9 49 9q18 0 40 -11l58 -29q19 -10 39 -7q21 4 40 23l15 14l17 -70q-19 -23 -42 -34q-20 -10 -37 -10q-26 0 -61 16l-52 23q-18 7 -36 7q-15 0 -33 -9q-22 -13 -36 -34z" />
    <glyph glyph-name="Ogonek" unicode="&#xf40e;" 
d="M249 -145v-55h-35q-64 0 -92 21q-30 21 -30 59q0 33 24 69q17 26 49 51h75q-23 -26 -41 -55q-24 -40 -24 -56t10 -24q13 -10 45 -10h19z" />
    <glyph glyph-name="Udotaccent" unicode="&#xf47e;" horiz-adv-x="414" 
d="M381 700v-546q0 -89 -55 -131q-44 -33 -119 -33t-118 33q-56 42 -56 132v545h138v-550q0 -26 6 -44q8 -18 30 -18t30 18q6 18 6 44v550h138zM278 738h-139v122h139v-122z" />
    <glyph glyph-name="udotaccent" unicode="&#xf47f;" horiz-adv-x="365" 
d="M25 512h128v-385q0 -23 3 -34q4 -15 19 -15q17 0 26 22q6 18 6 40v372h128v-512h-124v48l-6 3q-14 -30 -34 -45q-21 -16 -59 -16t-61 23q-26 26 -26 98v401zM247 576h-139v122h139v-122z" />
    <glyph glyph-name="Acedilla" unicode="&#xf481;" horiz-adv-x="384" 
d="M374 0h-143l-8 89h-62l-8 -89h-143l67 700h232zM165 187h54l-24 406h-4zM134 -192v58q12 -3 36 -7q30 -3 36 -3q16 0 23 12q5 9 5 19q0 15 -7 24q-10 13 -32 13h-39v76h64v-32q46 3 73 -28q18 -18 18 -56q0 -33 -22 -57q-26 -27 -73 -27q-5 0 -50 3q-16 1 -32 5z" />
    <glyph glyph-name="acedilla" unicode="&#xf482;" horiz-adv-x="356" 
d="M266 0h-43l-14 38q-14 -21 -31 -33q-22 -15 -58 -15q-56 0 -83 37q-22 30 -22 87v24q0 79 58 124q38 30 130 60v69q0 20 -4 28q-6 13 -23 13t-23 -13q-4 -8 -4 -28v-46h-124v50q0 56 28 86q39 41 123 41q83 0 123 -41q32 -33 32 -92v-421q45 3 72 -28q18 -18 18 -56
q0 -33 -22 -57q-26 -27 -73 -27q-5 0 -50 3q-16 1 -32 5v58q12 -3 36 -7q30 -3 36 -3q16 0 23 12q5 9 5 19q0 15 -7 24q-10 13 -32 13h-39v76zM203 127v121q-34 -12 -49 -40q-11 -19 -11 -55v-30q0 -25 5 -37q9 -16 25 -16q17 0 25 15q5 10 5 42z" />
    <glyph glyph-name="cyrTecedilla" unicode="&#xf4c4;" horiz-adv-x="320" 
d="M91 0v602h-86v98h310v-98h-86v-602h-37v-32q46 3 73 -28q18 -18 18 -56q0 -33 -22 -57q-26 -27 -73 -27q-5 0 -50 3q-16 1 -32 5v58q12 -3 36 -7q30 -3 36 -3q16 0 23 12q5 9 5 19q0 15 -7 24q-10 13 -32 13h-39v76h-37z" />
    <glyph glyph-name="cyrtecedilla" unicode="&#xf4c5;" horiz-adv-x="296" 
d="M84 0v422h-80v90h288v-90h-80v-422h-32v-32q46 3 73 -28q18 -18 18 -56q0 -33 -22 -57q-26 -27 -73 -27q-5 0 -50 3q-16 1 -32 5v58q12 -3 36 -7q30 -3 36 -3q16 0 23 12q5 9 5 19q0 15 -7 24q-10 13 -32 13h-39v76h-32z" />
    <glyph glyph-name="cyrChehook" unicode="&#xf4c6;" horiz-adv-x="408" 
d="M235 304h-118q-43 0 -71 36q-14 17 -17.5 35t-3.5 57v268h138v-253q0 -19 3 -28q5 -17 28 -17h41v298h138v-687q0 -28 -16 -65q-11 -26 -25.5 -41.5t-42.5 -23.5q-50 -15 -128 -6v85h32q24 0 34 22q8 20 8 52v268z" />
    <glyph glyph-name="cyrchehook" unicode="&#xf4c7;" horiz-adv-x="360" 
d="M148 -184v90h17q6 0 13 3.5t15.5 21t8.5 48.5v197h-96q-47 0 -69 28q-17 21 -17 67v241h128v-221q0 -25 33 -25h21v246h128v-512q0 -63 -11 -100q-11 -34 -26.5 -49t-43.5 -24q-37 -11 -101 -11z" />
    <glyph glyph-name="cyrEscedilla" unicode="&#xf4c8;" horiz-adv-x="405" 
d="M380 479h-138v70q0 23 -4 35q-8 21 -32 21t-32 -21q-4 -12 -4 -35v-398q0 -23 4 -35q8 -21 32 -21t32 21q4 12 4 35v110h138v-107q0 -40 -9 -69t-37 -54q-38 -33 -100 -40v-23q46 3 73 -28q18 -18 18 -56q0 -33 -22 -57q-26 -27 -73 -27q-5 0 -50 3q-16 1 -32 5v58
q12 -3 36 -7q30 -3 36 -3q16 0 23 12q5 9 5 19q0 15 -7 24q-10 13 -32 13h-39v68q-58 7 -92 39q-46 42 -46 123v392q0 81 46 123q45 41 128 41q82 0 128 -41q29 -25 37.5 -54t8.5 -69v-67z" />
    <glyph glyph-name="cyrescedilla" unicode="&#xf4c9;" horiz-adv-x="351" 
d="M331 196v-42q0 -73 -13 -99q-12 -25 -41.5 -44t-70.5 -20v-23q46 3 73 -28q18 -18 18 -56q0 -33 -22 -57q-26 -27 -73 -27q-5 0 -50 3q-16 1 -32 5v58q12 -3 36 -7q30 -3 36 -3q16 0 23 12q5 9 5 19q0 15 -7 24q-10 13 -32 13h-39v68q-64 6 -97 63q-20 34 -20 105v207
q0 67 25 101q39 54 128 54q91 0 128 -54q25 -35 25 -118v-35h-124v61q0 30 -6 41q-7 11 -21 11t-21 -11q-6 -11 -6 -41v-234q0 -36 7 -46q8 -12 22 -12q15 0 22 12q7 13 7 46v54h120z" />
    <glyph glyph-name="cyrUacute" unicode="&#xf4cc;" horiz-adv-x="395" 
d="M29 0v98h23q35 0 53 14q21 16 28 52l13 67l-141 469h133l65 -224l55 224h132l-139 -569q-1 -5 -4 -18t-4.5 -18.5t-5 -16t-6.5 -16t-8 -14t-12 -14.5t-15 -12q-15 -11 -34.5 -16t-31 -5.5t-39.5 -0.5h-62zM107 730l-18 48l244 109l37 -98z" />
    <glyph glyph-name="cyruacute" unicode="&#xf4cd;" horiz-adv-x="348" 
d="M19 -148v90h52q36 0 49 24q11 20 2 55l-118 491h128l44 -270h4l36 270h128l-103 -538q-10 -55 -43 -87q-17 -16 -35.5 -24t-32.5 -9.5t-39 -1.5h-72zM137 546l-35 47l148 148l68 -80z" />
    <glyph glyph-name="dotlessj" unicode="&#xf6be;" horiz-adv-x="188" 
d="M-63 -148v90h61q32 0 32 37v533h128v-552q0 -56 -19 -79q-24 -29 -83 -29h-119z" />
    <glyph glyph-name="commaaccent" unicode="&#xf6c3;" horiz-adv-x="167" 
d="M137 -43v-95l-51 -86h-56l36 91h-35v90h106z" />
    <glyph glyph-name="Acute" unicode="&#xf6c9;" 
d="M47 730l-18 48l244 109l37 -98z" />
    <glyph glyph-name="Caron" unicode="&#xf6ca;" 
d="M28 869l142 -58l141 58v-60l-141 -89l-142 89v60z" />
    <glyph glyph-name="Dieresis" unicode="&#xf6cb;" 
d="M32 745v115h107v-115h-107zM202 745v115h107v-115h-107z" />
    <glyph glyph-name="Grave" unicode="&#xf6ce;" 
d="M292 730l-263 59l37 98l244 -109z" />
    <glyph glyph-name="Hungarumlaut" unicode="&#xf6cf;" 
d="M58 725l-41 36l91 114l60 -55zM213 725l-41 36l91 114l60 -55z" />
    <glyph glyph-name="Macron" unicode="&#xf6d0;" 
d="M42 762v78h256v-78h-256z" />
    <glyph glyph-name="cyrBreve" unicode="&#xf6d1;" 
d="M219 857h97q-2 -64 -52 -101q-38 -29 -94 -29t-94 29q-50 37 -52 101h97q-2 -25 8 -41q14 -22 42 -22q27 0 40 22q10 17 8 41z" />
    <glyph glyph-name="cyrbreve" unicode="&#xf6d4;" 
d="M219 700h97q-2 -64 -52 -101q-38 -29 -94 -29t-94 29q-50 37 -52 101h97q-2 -25 8 -41q14 -22 42 -22q27 0 40 22q10 17 8 41z" />
    <glyph glyph-name="commainferior" unicode="&#xf6e1;" horiz-adv-x="167" 
d="M137 -43v-95l-51 -86h-56l36 91h-35v90h106z" />
    <glyph glyph-name="commasuperior" unicode="&#xf6e2;" horiz-adv-x="179" 
d="M149 700v-119l-65 -108h-54l45 117h-42v110h116z" />
    <glyph glyph-name="hyphenminus" horiz-adv-x="248" 
d="M10 215v83h228v-83h-228z" />
    <glyph glyph-name="nbspace" horiz-adv-x="233" 
 />
    <glyph glyph-name="mu1" horiz-adv-x="374" 
d="M158 -150h-128v662h128v-366q0 -36 5 -54q6 -18 22 -18q21 0 27 23q4 13 4 47v368h128v-512h-95l-12 42q-13 -37 -35 -47q-31 -14 -44 16v-161z" />
    <glyph glyph-name="dotlessi1" horiz-adv-x="188" 
d="M158 0h-128v512h128v-512z" />
    </font>
</defs>
</svg>
