<?xml version="1.0" encoding="utf-8"?>
<!-- Generator: Adobe Illustrator 19.2.1, SVG Export Plug-In . SVG Version: 6.00 Build 0)  -->
<svg version="1.1" id="Layer_1" xmlns="http://www.w3.org/2000/svg" xmlns:xlink="http://www.w3.org/1999/xlink" x="0px" y="0px"
	 width="100px" height="66px" viewBox="0 0 100 66" style="enable-background:new 0 0 100 66;" xml:space="preserve">
<style type="text/css">
	.st0{fill:#F8C73F;}
	.st1{fill:#231F20;}
</style>
<g>
	<circle class="st0" cx="56" cy="29.8" r="27.9"/>
	<path class="st1" d="M56,59.3c-16.3,0-29.6-13.3-29.6-29.6C26.5,13.5,39.7,0.2,56,0.2c16.3,0,29.6,13.3,29.6,29.6
		C85.6,46.1,72.3,59.3,56,59.3z M56,3.5c-14.5,0-26.3,11.8-26.3,26.3c0,14.5,11.8,26.3,26.3,26.3c14.5,0,26.3-11.8,26.3-26.3
		C82.4,15.3,70.5,3.5,56,3.5z"/>
	<g>
		<path class="st0" d="M83.5,34.5H49.8c-1.2-9.2-9.1-16.3-18.6-16.3c-9.7,0-17.7,7.4-18.7,16.9C6.2,36.7,1.6,42.5,1.6,49.3
			c0,8.2,6.7,14.9,14.8,14.9h67.1c8.2,0,14.9-6.6,14.9-14.9S91.7,34.5,83.5,34.5z"/>
		<path class="st1" d="M83.5,65.8H16.5C7.4,65.8,0,58.4,0,49.3c0-7,4.5-13.3,11.1-15.5c1.5-9.9,10-17.3,20.1-17.3
			c10.2,0,18.9,7.6,20.2,17.8c0.1,0.9-0.5,1.7-1.4,1.8c-0.9,0.1-1.7-0.5-1.8-1.4c-1.1-8.5-8.4-14.9-17-14.9
			c-8.9,0-16.2,6.6-17.1,15.4c-0.1,0.7-0.5,1.2-1.2,1.4c-5.7,1.6-9.7,6.8-9.7,12.8c0,7.3,5.9,13.2,13.2,13.2h67.1
			c7.3,0,13.2-5.9,13.2-13.2c0-7.3-5.9-13.2-13.2-13.2l-1.1,0.2c-0.9,0.1-1.7-0.5-1.8-1.4C80.5,34,81.1,33.2,82,33l1.3-0.2
			c0,0,0,0,0,0c9.3,0,16.7,7.4,16.7,16.4C100,58.4,92.6,65.8,83.5,65.8z"/>
	</g>
</g>
</svg>
