<?xml version="1.0" encoding="utf-8"?>
<!-- Generator: Adobe Illustrator 19.2.1, SVG Export Plug-In . SVG Version: 6.00 Build 0)  -->
<svg version="1.1" id="Layer_1" xmlns="http://www.w3.org/2000/svg" xmlns:xlink="http://www.w3.org/1999/xlink" x="0px" y="0px"
	 width="75.3px" height="95.5px" viewBox="0 0 75.3 95.5" style="enable-background:new 0 0 75.3 95.5;" xml:space="preserve">
<style type="text/css">
	.st0{fill:none;stroke:#414A45;stroke-linecap:round;stroke-linejoin:round;stroke-miterlimit:10;}
	.st1{fill:#FFFFFF;}
	.st2{fill:#FAC83C;}
</style>
<g>
	<g>
		<g>
			<path d="M30.7,50.1H7.1c-0.3,0-0.5-0.2-0.5-0.5s0.2-0.5,0.5-0.5h23.6c0.3,0,0.5,0.2,0.5,0.5C31.2,49.9,31,50.1,30.7,50.1z"/>
			<path d="M43.6,50.1h-7.3c-0.3,0-0.5-0.2-0.5-0.5s0.2-0.5,0.5-0.5h7.4c0.3,0,0.5,0.2,0.5,0.5C44.1,49.9,43.9,50.1,43.6,50.1z"/>
			<path d="M57.1,50.1h-8c-0.3,0-0.5-0.2-0.5-0.5s0.2-0.5,0.5-0.5h8c9.3,0,16.9-7,16.9-15.5c0-8.6-7.6-15.5-16.9-15.5
				c-0.3,0-0.5-0.2-0.5-0.5s0.2-0.5,0.5-0.5C67,17.1,75,24.5,75,33.6S67,50.1,57.1,50.1z"/>
			<path d="M59.7,17.6c-0.3,0-0.5-0.2-0.5-0.5c0-8.7-7.1-15.8-15.8-15.8c-7.6,0-14.1,5.4-15.5,12.9c-0.1,0.3-0.3,0.5-0.6,0.4
				c-0.3,0-0.5-0.3-0.4-0.6c1.5-7.9,8.4-13.7,16.5-13.7c9.3,0,16.8,7.5,16.8,16.8C60.2,17.4,60,17.6,59.7,17.6z"/>
			<path d="M19.4,45.2c-9.3,0-16.8-7.5-16.8-16.8s7.5-16.8,16.8-16.8c2.9,0,5.8,0.8,8.3,2.2c5.2,3,8.5,8.6,8.5,14.6
				c0,0.3-0.2,0.5-0.5,0.5s-0.5-0.2-0.5-0.5c0-5.7-3.1-10.9-8-13.7c-2.4-1.3-5.1-2-7.8-2c-8.7,0-15.8,7.1-15.8,15.8
				s7.1,15.8,15.8,15.8c0.3,0,0.5,0.2,0.5,0.5C19.9,44.9,19.7,45.2,19.4,45.2z"/>
			<path class="st0" d="M32.4,44.7"/>
			<path class="st0" d="M19.2,44.7"/>
			<path class="st0" d="M35.8,44.7"/>
		</g>
		<g>
			<path d="M33.3,59.6c-0.3,0-0.5-0.2-0.5-0.5V35.6c0-0.3,0.2-0.5,0.5-0.5s0.5,0.2,0.5,0.5v23.5C33.8,59.4,33.6,59.6,33.3,59.6z"/>
			<path d="M37.5,39.7c-0.1,0-0.3,0-0.4-0.1l-3.8-3.8l-3.8,3.8c-0.2,0.2-0.5,0.2-0.7,0s-0.2-0.5,0-0.7l4.2-4.2
				c0.2-0.2,0.5-0.2,0.7,0l4.2,4.2c0.2,0.2,0.2,0.5,0,0.7C37.8,39.7,37.7,39.7,37.5,39.7z"/>
		</g>
		<g>
			<path d="M47.1,58c-0.3,0-0.5-0.2-0.5-0.5V34c0-0.3,0.2-0.5,0.5-0.5s0.5,0.2,0.5,0.5v23.5C47.6,57.8,47.4,58,47.1,58z"/>
			<path d="M47.1,58.6c-0.1,0-0.3,0-0.4-0.1l-4.2-4.2c-0.2-0.2-0.2-0.5,0-0.7s0.5-0.2,0.7,0l3.8,3.8l3.8-3.8c0.2-0.2,0.5-0.2,0.7,0
				s0.2,0.5,0,0.7l-4.2,4.2C47.4,58.6,47.3,58.6,47.1,58.6z"/>
		</g>
	</g>
	<g>
		<g>
			<g>
				<path class="st1" d="M44.1,94.7c-1.8,0-1.8-4.1-1.8-4.1v-5.1h-6.5v5.1c0,0,0,4.1-1.8,4.1H44.1z"/>
			</g>
		</g>
		<g>
			<g>
				<path d="M44.1,95.2h-10v-1c0.2,0,0.3-0.1,0.4-0.2c0.7-0.7,0.8-2.8,0.8-3.4V85h7.5v5.6c0,0.7,0.1,2.7,0.8,3.4
					c0.1,0.1,0.3,0.2,0.4,0.2L44.1,95.2L44.1,95.2z M35.6,94.2h7c-0.7-1.3-0.8-3.4-0.8-3.6V86h-5.5v4.6
					C36.4,90.8,36.4,92.8,35.6,94.2z"/>
			</g>
		</g>
		<g>
			<path class="st1" d="M60.8,87.7c0,0.6-0.5,1-1,1H18.5c-0.6,0-1-0.5-1-1V62.3c0-0.6,0.5-1,1-1h41.3c0.6,0,1,0.5,1,1V87.7z"/>
			<path d="M59.8,89.2H18.5c-0.8,0-1.5-0.7-1.5-1.5V62.3c0-0.8,0.7-1.5,1.5-1.5h41.3c0.8,0,1.5,0.7,1.5,1.5v25.3
				C61.3,88.5,60.6,89.2,59.8,89.2z M18.5,61.8c-0.3,0-0.5,0.2-0.5,0.5v25.3c0,0.3,0.2,0.5,0.5,0.5h41.3c0.3,0,0.5-0.2,0.5-0.5V62.3
				c0-0.3-0.2-0.5-0.5-0.5H18.5z"/>
		</g>
		<g id="XMLID_41_">
			<rect x="19.1" y="63" class="st2" width="40" height="22.2"/>
		</g>
		<g id="XMLID_40_">
			<path d="M59.6,85.8h-41V62.5h41V85.8z M19.6,84.8h39V63.5h-39V84.8z"/>
		</g>
		<rect x="37.5" y="86.2" width="3.2" height="1"/>
	</g>
	<path class="st0" d="M56.9,88.7"/>
	<rect x="0.3" y="51.7" width="21.8" height="1"/>
</g>
</svg>
