<?xml version="1.0" encoding="utf-8"?>
<!-- Generator: Adobe Illustrator 19.2.1, SVG Export Plug-In . SVG Version: 6.00 Build 0)  -->
<svg version="1.1" id="Layer_1" xmlns="http://www.w3.org/2000/svg" xmlns:xlink="http://www.w3.org/1999/xlink" x="0px" y="0px"
	 width="1000px" height="243px" viewBox="0 0 1000 243" style="enable-background:new 0 0 1000 243;" xml:space="preserve">
<style type="text/css">
	.st0{opacity:0.5;fill:#FAC83C;}
	.st1{fill:#FAC83C;}
	.st2{fill:#FFFFFF;}
	.st3{fill:#030000;}
	.st4{fill:#FFCB3D;}
	.st5{clip-path:url(#SVGID_2_);fill:#FFCB3D;}
</style>
<g>
	<path class="st0" d="M976.8,191.7c0,18.5-6.4,35.4-17.1,48.8H691.1c-0.2-0.2-0.3-0.5-0.5-0.7h-30.7c-0.1,0.2-0.2,0.5-0.4,0.7H387.7
		c-0.1-0.2-0.2-0.5-0.4-0.7h-21.7c-0.1,0.2-0.3,0.5-0.4,0.7H44c-4.3-11.1-6.7-23.1-6.7-35.8c0-54.2,43.9-98.2,98.2-98.2
		c17.3,0,33.5,4.5,47.6,12.3c19.9-27.4,52.2-45.2,88.7-45.2c14.8,0,29,3,41.9,8.3c11.3-20.1,32.9-33.7,57.6-33.7
		c15.3,0,29.4,5.2,40.6,14c28.1-29.6,67.8-48.1,111.8-48.1c46.6,0,88.4,20.7,116.7,53.5c10.5-7,23-11,36.5-11
		c25.8,0,48.2,14.8,59.1,36.5c11.1-4.3,23.1-6.7,35.8-6.7c33.6,0,63.2,16.9,80.9,42.6c12.9-9.5,28.9-15.2,46.2-15.2
		C941.9,113.6,976.8,148.6,976.8,191.7z M751.4,24.5c-9.7,0-17.6,7.9-17.6,17.6s7.9,17.6,17.6,17.6S769,51.8,769,42.1
		S761.1,24.5,751.4,24.5z M711.5,19c-5.9,0-10.6,4.7-10.6,10.6c0,5.9,4.7,10.6,10.6,10.6c5.9,0,10.6-4.7,10.6-10.6
		C722.1,23.8,717.4,19,711.5,19z M289.9,41.4c-5.9,0-10.6,4.8-10.6,10.6s4.7,10.6,10.6,10.6c5.9,0,10.6-4.7,10.6-10.6
		S295.8,41.4,289.9,41.4z M410.3,3.9c-7.4,0-13.4,6-13.4,13.4c0,7.4,6,13.4,13.4,13.4c7.4,0,13.4-6,13.4-13.4
		C423.7,9.9,417.7,3.9,410.3,3.9z M440,0.7c-3.6,0-6.4,2.9-6.4,6.4c0,3.6,2.9,6.4,6.4,6.4c3.6,0,6.4-2.9,6.4-6.4
		C446.5,3.5,443.6,0.7,440,0.7z"/>
	<rect x="11.3" y="238.6" width="988.7" height="3.8"/>
	<g>
		<g>
			<polygon class="st1" points="213.3,119.9 199.1,131.6 197.7,109.7 			"/>
			<path d="M199.1,133.5c-0.3,0-0.5-0.1-0.8-0.2c-0.7-0.3-1.1-0.9-1.1-1.6l-1.4-22c0-0.7,0.3-1.4,0.9-1.8c0.6-0.4,1.4-0.3,2,0.1
				l15.6,10.3c0.5,0.3,0.8,0.9,0.8,1.5c0,0.6-0.2,1.2-0.7,1.6l-14.2,11.7C200,133.4,199.5,133.5,199.1,133.5z M199.9,113.3l0.9,14.5
				l9.4-7.7L199.9,113.3z"/>
		</g>
		<g>
			<polygon class="st2" points="197.7,109.7 226,128.3 263.6,79.7 			"/>
			<path d="M226,130.2c-0.4,0-0.7-0.1-1-0.3l-28.3-18.6c-0.6-0.4-0.9-1-0.8-1.7c0.1-0.7,0.5-1.3,1.1-1.6l65.9-30
				c0.8-0.4,1.7-0.1,2.3,0.5c0.5,0.7,0.5,1.6,0,2.3l-37.6,48.6C227.2,130,226.6,130.2,226,130.2z M201.6,110l24,15.8l31.8-41.2
				L201.6,110z"/>
		</g>
		<g>
			<polygon class="st2" points="187.5,104 169.8,93.8 263.6,79.7 			"/>
			<path d="M187.5,105.9c-0.3,0-0.7-0.1-0.9-0.3l-17.7-10.2c-0.7-0.4-1.1-1.2-0.9-2c0.1-0.8,0.8-1.4,1.6-1.5l93.8-14.1
				c1-0.2,1.9,0.5,2.1,1.4c0.2,1-0.3,1.9-1.3,2.2l-76.1,24.3C187.9,105.9,187.7,105.9,187.5,105.9z M175.5,94.9l12.3,7.1l52.9-16.9
				L175.5,94.9z"/>
		</g>
		<g>
			<polygon class="st1" points="199.1,131.6 197.7,109.7 263.6,79.7 187.5,104 			"/>
			<path d="M199.1,133.5c-0.7,0-1.4-0.4-1.7-1.2l-11.6-27.6c-0.2-0.5-0.2-1,0-1.5c0.2-0.5,0.6-0.8,1.1-1L263,77.9
				c1-0.3,2,0.2,2.3,1.1c0.4,0.9-0.1,2-1,2.4l-64.7,29.4l1.3,20.7c0.1,0.9-0.6,1.7-1.5,2C199.4,133.5,199.3,133.5,199.1,133.5z
				 M190.1,105.2l6.5,15.4l-0.7-10.8c0-0.8,0.4-1.5,1.1-1.8l36.7-16.7L190.1,105.2z"/>
		</g>
	</g>
	<g>
		<g>
			<path class="st2" d="M256.3,150.9H138.5c-3.1,0-5.6,2.5-5.6,5.6v52.7c0,3.1,2.5,5.6,5.6,5.6h8.9l9.4,10.8l9.4-10.8h90
				c3.1,0,5.6-2.5,5.6-5.6v-52.7C261.9,153.4,259.3,150.9,256.3,150.9z"/>
			<path d="M156.8,227.4L156.8,227.4c-0.5,0-1.1-0.2-1.4-0.6l-8.9-10.1h-8c-4.1,0-7.5-3.3-7.5-7.5v-52.7c0-4.1,3.3-7.5,7.5-7.5
				h117.8c4.1,0,7.5,3.3,7.5,7.5v52.7c0,4.1-3.3,7.5-7.5,7.5h-89.1l-8.9,10.1C157.9,227.2,157.4,227.4,156.8,227.4z M138.5,152.8
				c-2,0-3.7,1.7-3.7,3.7v52.7c0,2,1.7,3.7,3.7,3.7h8.9c0.5,0,1.1,0.2,1.4,0.6l8,9.2l8-9.2c0.4-0.4,0.9-0.6,1.4-0.6h90
				c2,0,3.7-1.7,3.7-3.7v-52.7c0-2-1.7-3.7-3.7-3.7H138.5z"/>
		</g>
		<g>
			<path class="st1" d="M187.7,166.1c-5-5-13.2-5-18.2,0c-5-5-13.2-5-18.2,0c-5,5-5,13.2,0,18.2l18.2,18.2l18.2-18.2h0
				C192.7,179.3,192.7,171.2,187.7,166.1z"/>
			<path d="M169.5,204.5L169.5,204.5c-0.5,0-1-0.2-1.3-0.6l-18.2-18.2c-5.8-5.8-5.8-15.1,0-20.9c2.8-2.8,6.5-4.3,10.4-4.3
				c3.3,0,6.5,1.1,9.1,3.1c2.6-2,5.8-3.1,9.1-3.1c3.9,0,7.7,1.5,10.4,4.3c5.8,5.8,5.8,15.1,0,20.9l-18.2,18.2
				C170.4,204.3,170,204.5,169.5,204.5z M160.3,164.3c-2.9,0-5.7,1.1-7.8,3.2c-4.3,4.3-4.3,11.3,0,15.6l16.9,16.9l16.9-16.9
				c4.3-4.3,4.3-11.3,0-15.6c-2.1-2.1-4.8-3.2-7.8-3.2c-2.9,0-5.7,1.1-7.8,3.2c-0.4,0.4-0.8,0.6-1.3,0.6h0c-0.5,0-1-0.2-1.3-0.6
				C166,165.4,163.3,164.3,160.3,164.3z"/>
		</g>
		<path d="M212.4,200.5v-25.6h-9.3v-3.4c1.2,0,2.4-0.1,3.5-0.3c1.1-0.2,2.2-0.5,3.1-1c0.9-0.5,1.7-1.2,2.3-2.1
			c0.6-0.9,1.1-2,1.3-3.3h3.3v35.7H212.4z"/>
		<path d="M228.6,169.1l-1.9,10.3l0.1,0.1c0.8-0.9,1.8-1.5,3-1.9c1.2-0.4,2.4-0.6,3.7-0.6c1.6,0,3.1,0.3,4.5,0.8
			c1.4,0.5,2.6,1.3,3.7,2.3c1,1,1.9,2.3,2.5,3.8c0.6,1.5,0.9,3.3,0.9,5.4c0,1.5-0.3,3-0.8,4.4c-0.5,1.4-1.3,2.7-2.3,3.8
			c-1,1.1-2.3,2-3.9,2.6c-1.6,0.7-3.4,1-5.5,1c-1.5,0-3-0.2-4.4-0.7c-1.4-0.5-2.6-1.1-3.6-2c-1-0.9-1.9-1.9-2.5-3.2
			c-0.6-1.3-0.9-2.7-1-4.3h4.3c0.1,0.9,0.3,1.8,0.7,2.5c0.4,0.8,0.9,1.5,1.6,2.1c0.7,0.6,1.4,1,2.3,1.4c0.9,0.3,1.9,0.5,3,0.5
			c1,0,2-0.2,2.9-0.5c0.9-0.4,1.7-0.9,2.4-1.6c0.7-0.7,1.2-1.6,1.6-2.6c0.4-1.1,0.6-2.3,0.6-3.7c0-1.2-0.2-2.3-0.6-3.3
			c-0.4-1-0.9-1.8-1.6-2.6c-0.7-0.7-1.6-1.3-2.5-1.7c-1-0.4-2.1-0.6-3.3-0.6c-1.4,0-2.7,0.3-3.8,0.9c-1.1,0.6-2.1,1.4-2.9,2.4
			l-3.7-0.2l3.3-18.6H243v3.8H228.6z"/>
	</g>
	<g>
		<path class="st1" d="M91,70.9c-0.2,2.2-0.7,4.2-1.6,6.1c2.6,5.7,8.2,9.8,14.8,10.4C103.9,79.5,98.4,72.9,91,70.9z"/>
		<path d="M104.2,89.3c-0.1,0-0.1,0-0.2,0c-7.1-0.6-13.4-5-16.4-11.5c-0.2-0.5-0.2-1.1,0-1.6c0.8-1.7,1.3-3.5,1.4-5.4
			c0-0.6,0.3-1.1,0.8-1.4c0.5-0.3,1-0.4,1.6-0.3c8.3,2.2,14.2,9.5,14.6,18.2c0,0.5-0.2,1.1-0.6,1.4
			C105.2,89.1,104.7,89.3,104.2,89.3z M91.5,77c2.2,4.2,6.1,7.1,10.6,8.2c-1-5.2-4.6-9.6-9.5-11.7C92.3,74.7,92,75.8,91.5,77z"/>
	</g>
	<g>
		<path class="st1" d="M87.8,70.4c-0.5,0-1-0.1-1.5-0.1c-9.4,0-17.1,7.3-17.9,16.5c1.5,0.4,3,0.6,4.6,0.6c7.2,0,13.4-4.3,16.3-10.5
			c0.9-1.9,1.4-3.9,1.6-6.1C90,70.7,88.9,70.5,87.8,70.4z"/>
		<path d="M73.1,89.4c-1.7,0-3.4-0.2-5.1-0.7c-0.9-0.2-1.5-1.1-1.4-2c0.8-10.2,9.5-18.3,19.7-18.3c0.5,0,1.1,0,1.6,0.1
			c1.2,0.1,2.4,0.3,3.5,0.6c0.9,0.2,1.5,1.1,1.4,2c-0.2,2.3-0.8,4.6-1.7,6.7C87.9,84.8,80.8,89.4,73.1,89.4z M70.6,85.4
			c0.9,0.1,1.7,0.2,2.6,0.2c6.2,0,11.9-3.7,14.6-9.4c0.6-1.2,1-2.5,1.2-3.8c-0.4-0.1-0.8-0.1-1.2-0.2c-0.4,0-0.9-0.1-1.3-0.1
			C78.6,72.2,71.9,77.9,70.6,85.4z"/>
	</g>
	<g>
		<path class="st2" d="M101.6,104.3c7.1,2.4,9.6,9.1,9.6,17H61.6c0-7.9,2.4-14.7,9.6-17H101.6z"/>
		<path d="M111.1,123.2H61.6c-1,0-1.9-0.8-1.9-1.9c0-12.6,5.9-17.2,10.9-18.8c0.2-0.1,0.4-0.1,0.6-0.1h30.4c0.2,0,0.4,0,0.6,0.1
			c5,1.6,10.9,6.2,10.9,18.8C113,122.4,112.2,123.2,111.1,123.2z M63.5,119.5h45.7c-0.4-7-3.1-11.5-8-13.2H71.5
			C66.6,108,63.9,112.4,63.5,119.5z"/>
	</g>
	<g>
		<path class="st2" d="M96.5,153.2c0-0.1,0-0.2,0-0.3c-3.1,0.6-6.3,0.9-9.6,0.9c-3.4,0-6.6-0.3-9.8-0.9c0,0.1,0,0.2,0,0.4v23.1h19.5
			L96.5,153.2z"/>
		<path d="M96.5,178.2H77.1c-1,0-1.9-0.8-1.9-1.9v-23.1c0-0.1,0-0.2,0-0.3c0-0.6,0.3-1.1,0.7-1.5c0.4-0.3,1-0.5,1.5-0.4
			c6.3,1.2,12.5,1.2,18.8,0c0.5-0.1,1.1,0,1.5,0.4c0.4,0.4,0.7,0.9,0.7,1.4c0,0.2,0,0.3,0,0.4l0,23.1
			C98.4,177.3,97.6,178.2,96.5,178.2z M79,174.4h15.7l0-19.3c-5.3,0.7-10.4,0.7-15.7,0L79,174.4z"/>
	</g>
	<g>
		<path class="st2" d="M77.1,176.3v38.5c0,5.4,4.4,9.7,9.7,9.7c5.4,0,9.7-4.4,9.7-9.7v-38.5H77.1z"/>
		<path d="M86.8,226.4L86.8,226.4c-6.4,0-11.6-5.2-11.6-11.6v-38.5c0-1,0.8-1.9,1.9-1.9h19.5c1,0,1.9,0.8,1.9,1.9v38.5
			C98.4,221.2,93.2,226.4,86.8,226.4z M79,178.2v36.6c0,4.3,3.5,7.8,7.8,7.8c4.3,0,7.9-3.5,7.9-7.8v-36.6H79z"/>
	</g>
	<g>
		<path class="st1" d="M86.9,46.2c-29.7,0-53.8,24.1-53.8,53.7c0,29.7,24.1,53.8,53.8,53.8c29.7,0,53.7-24.1,53.7-53.8
			C140.6,70.3,116.6,46.2,86.9,46.2z M86.9,141.2c-22.7,0-41.2-18.4-41.2-41.2c0-22.7,18.4-41.2,41.2-41.2
			c22.7,0,41.2,18.4,41.2,41.2C128.1,122.7,109.6,141.2,86.9,141.2z"/>
		<path d="M86.9,155.6L86.9,155.6c-30.7,0-55.6-25-55.6-55.6c0-14.9,5.8-28.8,16.3-39.3C58.1,50.1,72,44.3,86.9,44.3c0,0,0,0,0,0
			c30.7,0,55.6,25,55.6,55.6C142.5,130.7,117.6,155.6,86.9,155.6z M86.9,48.1c-13.9,0-26.9,5.4-36.7,15.2C40.4,73.1,35,86.1,35,100
			c0,28.6,23.3,51.9,51.9,51.9c28.6,0,51.9-23.3,51.9-51.9C138.8,71.4,115.5,48.1,86.9,48.1z M86.9,143c-23.7,0-43.1-19.3-43.1-43.1
			c0-23.7,19.3-43.1,43.1-43.1c11.5,0,22.3,4.5,30.4,12.6c8.1,8.1,12.6,18.9,12.6,30.4c0,11.5-4.5,22.3-12.6,30.4
			C109.2,138.6,98.4,143,86.9,143z M86.9,60.7c-21.7,0-39.3,17.6-39.3,39.3c0,21.7,17.6,39.3,39.3,39.3c10.5,0,20.4-4.1,27.8-11.5
			c7.4-7.4,11.5-17.3,11.5-27.8c0-10.5-4.1-20.4-11.5-27.8C107.3,64.8,97.4,60.7,86.9,60.7z"/>
	</g>
	<g>
		<path class="st2" d="M89.4,77c-2.8,6.2-9,10.5-16.3,10.5c-1.6,0-3.2-0.2-4.6-0.6c0,0.5-0.1,0.9-0.1,1.4v6.6
			c0,9.9,8,17.9,17.9,17.9c9.9,0,17.9-8,17.9-17.9v-6.6c0-0.3,0-0.6,0-0.8C97.6,86.9,92.1,82.8,89.4,77z"/>
		<path d="M86.3,114.7c-10.9,0-19.8-8.9-19.8-19.8v-6.6c0-0.5,0-1,0.1-1.5c0-0.6,0.3-1.1,0.8-1.4c0.5-0.3,1-0.4,1.6-0.3
			c1.4,0.4,2.8,0.6,4.2,0.6c6.2,0,11.9-3.7,14.6-9.4c0.3-0.7,1-1.1,1.7-1.1c0.7,0,1.4,0.4,1.7,1.1c2.4,5.3,7.5,8.8,13.3,9.3
			c0.9,0.1,1.7,0.8,1.7,1.8l0,0.3c0,0.2,0,0.4,0,0.7v6.6C106.2,105.8,97.3,114.7,86.3,114.7z M70.3,89.1v5.7c0,8.8,7.2,16,16,16
			c8.8,0,16-7.2,16-16v-5.8c-5.3-0.9-9.9-3.9-13-8.3C85.2,86.8,77.9,90.3,70.3,89.1z"/>
	</g>
	<rect x="76.7" y="90.8" width="5.8" height="3.8"/>
	<rect x="90.3" y="90.8" width="5.8" height="3.8"/>
	<path d="M86.1,106.4c-1.6,0-3.2-0.4-4.6-1.3l2-3.2c2.1,1.3,4.9,0.8,6.5-1l2.9,2.5C91.1,105.3,88.7,106.4,86.1,106.4z"/>
	<g>
		<g>
			<polygon class="st1" points="951.3,210.1 976.2,225.3 951.3,240.5 884.3,240.5 884.3,210.1 			"/>
			<path d="M951.3,242.3h-66.9c-1,0-1.9-0.8-1.9-1.9v-30.4c0-1,0.8-1.9,1.9-1.9h66.9c0.3,0,0.7,0.1,1,0.3l24.9,15.2
				c0.6,0.3,0.9,1,0.9,1.6c0,0.7-0.3,1.3-0.9,1.6l-24.9,15.2C951.9,242.2,951.6,242.3,951.3,242.3z M886.2,238.6h64.5l21.8-13.3
				l-21.8-13.3h-64.5V238.6z"/>
		</g>
		<g>
			<path class="st1" d="M871.6,210.1h-8c-4.9,0-8.9,4-8.9,8.9v12.6c0,4.9,4,8.9,8.9,8.9h8V210.1z"/>
			<path d="M871.6,242.3h-8c-5.9,0-10.8-4.8-10.8-10.8V219c0-5.9,4.8-10.8,10.8-10.8h8c1,0,1.9,0.8,1.9,1.9v30.4
				C873.5,241.5,872.6,242.3,871.6,242.3z M863.6,211.9c-3.9,0-7,3.1-7,7v12.6c0,3.9,3.1,7,7,7h6.1v-26.6H863.6z"/>
		</g>
		<g>
			<polygon class="st2" points="951.3,240.5 939.6,225.3 951.3,210.1 976.2,225.3 			"/>
			<path d="M951.3,242.3c-0.6,0-1.1-0.3-1.5-0.7l-11.7-15.2c-0.5-0.7-0.5-1.6,0-2.3l11.7-15.2c0.6-0.8,1.7-1,2.5-0.5l24.9,15.2
				c0.6,0.3,0.9,1,0.9,1.6c0,0.7-0.3,1.3-0.9,1.6l-24.9,15.2C951.9,242.3,951.6,242.3,951.3,242.3z M942,225.3l9.7,12.7l20.8-12.7
				l-20.8-12.7L942,225.3z"/>
		</g>
		<g>
			<rect x="871.6" y="210.1" class="st2" width="12.7" height="30.4"/>
			<path d="M884.3,242.3h-12.7c-1,0-1.9-0.8-1.9-1.9v-30.4c0-1,0.8-1.9,1.9-1.9h12.7c1,0,1.9,0.8,1.9,1.9v30.4
				C886.2,241.5,885.4,242.3,884.3,242.3z M873.5,238.6h9v-26.6h-9V238.6z"/>
		</g>
		<path d="M949.8,241.6l-11.1-14.5h-54.3v-3.8h55.3c0.6,0,1.1,0.3,1.5,0.7l11.7,15.2L949.8,241.6z"/>
		<rect x="935.8" y="215.8" transform="matrix(0.6086 -0.7935 0.7935 0.6086 197.3129 835.3405)" width="19.2" height="3.8"/>
		<rect x="959.3" y="216.1" width="3.8" height="18.3"/>
	</g>
	<g>
		<path class="st2" d="M59.6,190.8c0,0-12.9,16.7-28.9,16.7c-15.9,0-28.9-16.7-28.9-16.7S14.8,174,30.7,174
			C46.7,174,59.6,190.8,59.6,190.8z"/>
		<path d="M30.7,209.3c-16.7,0-29.8-16.7-30.4-17.4c-0.5-0.7-0.5-1.6,0-2.3c0.6-0.7,13.7-17.4,30.4-17.4c16.7,0,29.8,16.7,30.4,17.4
			c0.5,0.7,0.5,1.6,0,2.3C60.6,192.6,47.4,209.3,30.7,209.3z M4.3,190.8c3.2,3.7,14,14.8,26.4,14.8c12.5,0,23.2-11.1,26.4-14.8
			c-3.2-3.7-14-14.8-26.4-14.8C18.3,175.9,7.6,187.1,4.3,190.8z"/>
	</g>
	<g>
		<circle class="st1" cx="30.7" cy="190.7" r="16.3"/>
		<path d="M30.7,209c-10,0-18.2-8.2-18.2-18.2c0-10,8.2-18.2,18.2-18.2c10,0,18.2,8.2,18.2,18.2C49,200.8,40.8,209,30.7,209z
			 M30.7,176.3c-8,0-14.4,6.5-14.4,14.4c0,8,6.5,14.4,14.4,14.4c8,0,14.4-6.5,14.4-14.4C45.2,182.8,38.7,176.3,30.7,176.3z"/>
	</g>
	<path d="M30.8,198.2c-4.1,0-7.4-3.3-7.4-7.4c0-4.1,3.3-7.4,7.4-7.4c4.1,0,7.4,3.3,7.4,7.4C38.2,194.8,34.8,198.2,30.8,198.2z
		 M30.8,187.1c-2,0-3.7,1.6-3.7,3.7c0,2,1.6,3.7,3.7,3.7c2,0,3.7-1.6,3.7-3.7C34.4,188.7,32.8,187.1,30.8,187.1z"/>
	<g>
		<rect x="77.1" y="176.3" class="st1" width="19.5" height="11.9"/>
		<path d="M96.5,190.1H77.1c-1,0-1.9-0.8-1.9-1.9v-11.9c0-1,0.8-1.9,1.9-1.9h19.5c1,0,1.9,0.8,1.9,1.9v11.9
			C98.4,189.2,97.6,190.1,96.5,190.1z M79,186.3h15.7v-8.2H79V186.3z"/>
	</g>
	<g>
		<rect x="866.4" y="62.3" width="25.3" height="3.8"/>
		<rect x="866.4" y="76.4" width="74.3" height="3.8"/>
		<rect x="866.4" y="85.9" width="74.3" height="3.8"/>
		<rect x="866.4" y="95.3" width="55.6" height="3.8"/>
		<g>
			<rect x="815.2" y="120.2" class="st1" width="41.8" height="40.9"/>
			<path d="M856.9,163h-41.8c-1,0-1.9-0.8-1.9-1.9v-40.9c0-1,0.8-1.9,1.9-1.9h41.8c1,0,1.9,0.8,1.9,1.9v40.9
				C858.8,162.1,858,163,856.9,163z M817.1,159.2h38v-37.1h-38V159.2z"/>
		</g>
		<g>
			<g>
				<path class="st2" d="M845.1,146.5c4.3,1.4,7.3,5.4,7.3,10.1v4.4h-32.8v-4.4c0-4.7,3.1-8.7,7.3-10.1H845.1z"/>
				<path d="M852.4,163h-32.8c-1,0-1.9-0.8-1.9-1.9v-4.4c0-5.4,3.5-10.2,8.6-11.9c0.2-0.1,0.4-0.1,0.6-0.1h18.1c0.2,0,0.4,0,0.6,0.1
					c5.2,1.7,8.6,6.5,8.6,11.9v4.4C854.3,162.1,853.5,163,852.4,163z M821.6,159.2h29v-2.6c0-3.7-2.3-7-5.8-8.2h-17.5
					c-3.5,1.3-5.8,4.5-5.8,8.2V159.2z"/>
			</g>
		</g>
		<rect x="866.4" y="121.7" width="47.5" height="3.8"/>
		<rect x="866.4" y="135.9" width="74.3" height="3.8"/>
		<rect x="866.4" y="145.3" width="74.3" height="3.8"/>
		<rect x="866.4" y="154.8" width="37.1" height="3.8"/>
		<g>
			<path class="st2" d="M837.9,130.2c-1.7,3.7-5.4,6.2-9.7,6.2c-1,0-1.9-0.1-2.8-0.4c0,0.3,0,0.6,0,0.8v4c0,5.9,4.8,10.7,10.7,10.7
				c5.9,0,10.7-4.8,10.7-10.7v-4c0-0.2,0-0.3,0-0.5C842.8,136.1,839.5,133.7,837.9,130.2z"/>
			<path d="M836.1,153.4c-6.9,0-12.6-5.6-12.6-12.6v-4c0-0.3,0-0.7,0-1c0-0.6,0.3-1.1,0.8-1.4c0.5-0.3,1-0.4,1.6-0.3
				c4.3,1.2,8.5-1,10.3-4.8c0.3-0.7,1-1.1,1.7-1.1s1.4,0.4,1.7,1.1c1.3,2.9,4.1,4.8,7.3,5.1c1,0.1,1.7,0.9,1.7,1.8l0,0.2
				c0,0.1,0,0.3,0,0.4v4C848.6,147.8,843,153.4,836.1,153.4z M827.3,138.3v2.6c0,4.8,3.9,8.8,8.8,8.8c4.8,0,8.8-3.9,8.8-8.8V138
				c-2.7-0.6-5.2-2.1-7-4.3C835.3,136.9,831.4,138.6,827.3,138.3z"/>
		</g>
		<path d="M846.7,138.3c-0.1,0-0.1,0-0.2,0c-4.5-0.4-8.5-3.2-10.4-7.3c-0.2-0.5-0.2-1.1,0-1.6c0.4-0.9,0.7-1.9,0.8-3
			c0-0.6,0.3-1.1,0.8-1.4c0.5-0.3,1-0.4,1.6-0.3c5.3,1.4,9,6.1,9.3,11.5c0,0.5-0.2,1.1-0.6,1.4C847.7,138.1,847.2,138.3,846.7,138.3
			z M840,130.2c1,1.7,2.5,3.1,4.4,3.8c-0.7-2-2.2-3.7-4-4.7C840.2,129.5,840.1,129.9,840,130.2z"/>
		<path d="M828.2,138.4c-1.1,0-2.2-0.1-3.2-0.4c-0.9-0.2-1.5-1.1-1.4-2c0.5-6.5,6-11.6,12.5-11.6c0.4,0,0.7,0,1,0.1
			c0.7,0.1,1.5,0.2,2.2,0.4c0.9,0.2,1.5,1.1,1.4,2c-0.1,1.5-0.5,2.9-1.1,4.3C837.6,135.5,833.1,138.4,828.2,138.4z M827.6,134.6
			c3.7,0.3,7.1-1.8,8.6-5.1c0.2-0.4,0.4-0.8,0.5-1.3C832.5,127.8,828.7,130.7,827.6,134.6z"/>
		<g>
			<rect x="815.2" y="60" class="st1" width="41.8" height="40.9"/>
			<path d="M856.9,102.8h-41.8c-1,0-1.9-0.8-1.9-1.9V60c0-1,0.8-1.9,1.9-1.9h41.8c1,0,1.9,0.8,1.9,1.9v40.9
				C858.8,101.9,858,102.8,856.9,102.8z M817.1,99h38V61.9h-38V99z"/>
		</g>
		<g>
			<g>
				<g>
					<path class="st2" d="M845.1,86.3c4.3,1.4,7.3,5.4,7.3,10.1v4.4h-32.8v-4.4c0-4.7,3.1-8.7,7.3-10.1H845.1z"/>
					<path d="M852.4,102.8h-32.8c-1,0-1.9-0.8-1.9-1.9v-4.4c0-5.4,3.5-10.2,8.6-11.9c0.2-0.1,0.4-0.1,0.6-0.1h18.1
						c0.2,0,0.4,0,0.6,0.1c5.2,1.7,8.6,6.5,8.6,11.9v4.4C854.3,101.9,853.5,102.8,852.4,102.8z M821.6,99h29v-2.6
						c0-3.7-2.3-7-5.8-8.2h-17.5c-3.5,1.3-5.8,4.5-5.8,8.2V99z"/>
				</g>
			</g>
			<g>
				<path class="st2" d="M837.9,70c-1.7,3.7-5.4,6.2-9.7,6.2c-1,0-1.9-0.1-2.8-0.4c0,0.3,0,0.6,0,0.8v4c0,5.9,4.8,10.7,10.7,10.7
					c5.9,0,10.7-4.8,10.7-10.7v-4c0-0.2,0-0.3,0-0.5C842.8,75.9,839.5,73.5,837.9,70z"/>
				<path d="M836.1,93.2c-6.9,0-12.6-5.6-12.6-12.6v-4c0-0.3,0-0.7,0-1c0-0.6,0.3-1.1,0.8-1.4c0.5-0.3,1-0.4,1.6-0.3
					c4.3,1.1,8.5-1,10.3-4.8c0.3-0.7,1-1.1,1.7-1.1s1.4,0.4,1.7,1.1c1.3,2.9,4.1,4.8,7.3,5.1c1,0.1,1.7,0.9,1.7,1.8l0,0.2
					c0,0.1,0,0.3,0,0.4v4C848.6,87.6,843,93.2,836.1,93.2z M827.3,78.1v2.6c0,4.8,3.9,8.8,8.8,8.8c4.8,0,8.8-3.9,8.8-8.8v-2.8
					c-2.7-0.6-5.2-2.1-7-4.3C835.3,76.7,831.4,78.4,827.3,78.1z"/>
			</g>
			<path d="M846.7,78.1c-0.1,0-0.1,0-0.2,0c-4.5-0.4-8.5-3.2-10.4-7.3c-0.2-0.5-0.2-1.1,0-1.6c0.4-0.9,0.7-1.9,0.8-3
				c0-0.6,0.3-1.1,0.8-1.4c0.5-0.3,1-0.4,1.6-0.3c5.3,1.4,9,6.1,9.3,11.5c0,0.5-0.2,1.1-0.6,1.4C847.7,77.9,847.2,78.1,846.7,78.1z
				 M840,70c1,1.7,2.5,3.1,4.4,3.8c-0.7-2-2.2-3.7-4-4.7C840.2,69.3,840.1,69.7,840,70z"/>
			<path d="M828.2,78.2c-1.1,0-2.2-0.1-3.3-0.4c-0.9-0.2-1.5-1.1-1.4-2c0.5-6.5,6-11.6,12.5-11.6c0.4,0,0.7,0,1,0.1
				c0.7,0.1,1.5,0.2,2.2,0.4c0.9,0.2,1.5,1.1,1.4,2c-0.1,1.5-0.5,2.9-1.1,4.3C837.6,75.3,833.1,78.2,828.2,78.2z M827.6,74.4
				c3.7,0.3,7.1-1.8,8.6-5.1c0.2-0.4,0.4-0.8,0.5-1.3c-0.2,0-0.4,0-0.6,0C832.1,67.9,828.7,70.6,827.6,74.4z"/>
		</g>
	</g>
	<g>
		<g>
			<rect x="291.3" y="118.3" class="st2" width="139.4" height="108.2"/>
			<path d="M430.7,227.9H291.3c-0.8,0-1.4-0.6-1.4-1.4V118.3c0-0.8,0.6-1.4,1.4-1.4h139.4c0.8,0,1.4,0.6,1.4,1.4v108.2
				C432.1,227.3,431.5,227.9,430.7,227.9z M292.7,225.1h136.6V119.7H292.7V225.1z"/>
		</g>
		<g>
			<rect x="303.3" y="133" class="st1" width="39.6" height="39.6"/>
			<path d="M342.9,173.9h-39.6c-0.8,0-1.4-0.6-1.4-1.4V133c0-0.8,0.6-1.4,1.4-1.4h39.6c0.8,0,1.4,0.6,1.4,1.4v39.6
				C344.3,173.3,343.7,173.9,342.9,173.9z M304.7,171.1h36.8v-36.8h-36.8V171.1z"/>
		</g>
		<g>
			<rect x="291.3" y="101.7" class="st1" width="139.4" height="16.6"/>
			<path d="M430.7,119.7H291.3c-0.8,0-1.4-0.6-1.4-1.4v-16.6c0-0.8,0.6-1.4,1.4-1.4h139.4c0.8,0,1.4,0.6,1.4,1.4v16.6
				C432.1,119.1,431.5,119.7,430.7,119.7z M292.7,116.9h136.6v-13.8H292.7V116.9z"/>
		</g>
		<rect x="299.1" y="109.1" width="4.3" height="2.8"/>
		<rect x="308.3" y="109.1" width="4.3" height="2.8"/>
		<rect x="317.6" y="109.1" width="4.3" height="2.8"/>
		<rect x="365.7" y="109.1" width="56.3" height="2.8"/>
		<g>
			<rect x="358.2" y="133" class="st1" width="18.2" height="18.2"/>
			<path d="M376.5,152.6h-18.2c-0.8,0-1.4-0.6-1.4-1.4V133c0-0.8,0.6-1.4,1.4-1.4h18.2c0.8,0,1.4,0.6,1.4,1.4v18.2
				C377.9,152,377.2,152.6,376.5,152.6z M359.6,149.8h15.5v-15.5h-15.5V149.8z"/>
		</g>
		<rect x="303.3" y="185.7" width="39.6" height="2.8"/>
		<rect x="382.4" y="134.1" width="37.3" height="2.8"/>
		<rect x="382.4" y="142.6" width="19.7" height="2.8"/>
		<g>
			<rect x="358.2" y="162.4" class="st1" width="18.2" height="18.2"/>
			<path d="M376.5,182.1h-18.2c-0.8,0-1.4-0.6-1.4-1.4v-18.2c0-0.8,0.6-1.4,1.4-1.4h18.2c0.8,0,1.4,0.6,1.4,1.4v18.2
				C377.9,181.5,377.2,182.1,376.5,182.1z M359.6,179.3h15.5v-15.5h-15.5V179.3z"/>
		</g>
		<rect x="382.4" y="163.6" width="37.3" height="2.8"/>
		<rect x="382.4" y="172.1" width="27.7" height="2.8"/>
		<g>
			<rect x="358.2" y="191.9" class="st1" width="18.2" height="18.2"/>
			<path d="M376.5,211.6h-18.2c-0.8,0-1.4-0.6-1.4-1.4v-18.2c0-0.8,0.6-1.4,1.4-1.4h18.2c0.8,0,1.4,0.6,1.4,1.4v18.2
				C377.9,210.9,377.2,211.6,376.5,211.6z M359.6,208.8h15.5v-15.5h-15.5V208.8z"/>
		</g>
		<rect x="382.4" y="193" width="37.3" height="2.8"/>
		<rect x="382.4" y="201.6" width="27.7" height="2.8"/>
		<rect x="303.3" y="196.2" width="39.6" height="2.8"/>
		<rect x="303.3" y="206.7" width="39.6" height="2.8"/>
		<g>
			<g>
				<g>
					<path class="st2" d="M331.7,158.2c4,1.3,6.9,5.1,6.9,9.6v4.2h-31v-4.2c0-4.5,2.9-8.3,6.9-9.6H331.7z"/>
					<path d="M338.6,173.4h-31c-0.8,0-1.4-0.6-1.4-1.4v-4.2c0-5,3.2-9.3,7.9-10.9c0.1,0,0.3-0.1,0.4-0.1h17.1c0.1,0,0.3,0,0.4,0.1
						c4.7,1.6,7.9,5.9,7.9,10.9v4.2C340,172.7,339.4,173.4,338.6,173.4z M309,170.6h28.2v-2.8c0-3.7-2.3-6.9-5.8-8.2h-16.7
						c-3.5,1.2-5.8,4.5-5.8,8.2V170.6z"/>
				</g>
			</g>
			<g>
				<path class="st2" d="M324.8,142.8c-1.6,3.5-5.1,5.9-9.2,5.9c-0.9,0-1.8-0.1-2.6-0.4c0,0.3,0,0.5,0,0.8v3.7
					c0,5.6,4.5,10.1,10.1,10.1c5.6,0,10.1-4.5,10.1-10.1v-3.7c0-0.2,0-0.3,0-0.5C329.5,148.3,326.3,146,324.8,142.8z"/>
				<path d="M323.1,164.3c-6.3,0-11.5-5.2-11.5-11.5v-3.7c0-0.3,0-0.6,0-0.9c0-0.4,0.2-0.8,0.6-1c0.3-0.2,0.8-0.3,1.2-0.2
					c4.3,1.1,8.4-1,10.2-4.8c0.2-0.5,0.7-0.8,1.3-0.8c0.5,0,1,0.3,1.3,0.8c1.3,2.9,4.1,4.8,7.2,5c0.7,0.1,1.3,0.6,1.3,1.3l0,0.2
					c0,0.1,0,0.2,0,0.4v3.7C334.6,159.2,329.5,164.3,323.1,164.3z M314.4,150v2.9c0,4.8,3.9,8.7,8.7,8.7c4.8,0,8.7-3.9,8.7-8.7v-3
					c-2.8-0.5-5.3-2.1-7-4.4C322.5,148.7,318.5,150.5,314.4,150z"/>
			</g>
			<path d="M333.2,150c0,0-0.1,0-0.1,0c-4.1-0.3-7.8-2.9-9.5-6.6c-0.2-0.4-0.2-0.8,0-1.2c0.4-0.9,0.7-1.9,0.8-2.9
				c0-0.4,0.2-0.8,0.6-1c0.3-0.2,0.8-0.3,1.2-0.2c4.8,1.3,8.3,5.5,8.5,10.5c0,0.4-0.1,0.8-0.4,1.1C333.9,149.9,333.6,150,333.2,150z
				 M326.4,142.7c1.1,2,3,3.5,5.1,4.2c-0.6-2.5-2.4-4.6-4.7-5.7C326.7,141.8,326.6,142.3,326.4,142.7z"/>
			<path d="M315.7,150.1c-1,0-2-0.1-3-0.4c-0.6-0.2-1.1-0.8-1-1.5c0.5-5.9,5.5-10.6,11.4-10.6c0.3,0,0.6,0,1,0
				c0.7,0.1,1.4,0.2,2,0.4c0.6,0.2,1.1,0.8,1,1.5c-0.1,1.4-0.4,2.7-1,3.9C324.2,147.4,320.1,150.1,315.7,150.1z M314.6,147.2
				c3.8,0.5,7.4-1.6,8.9-5c0.3-0.6,0.5-1.1,0.6-1.7c-0.1,0-0.2,0-0.3,0c-0.2,0-0.5,0-0.7,0C319,140.4,315.5,143.3,314.6,147.2z"/>
		</g>
	</g>
	<g>
		<g>
			<rect x="455.9" y="43" class="st2" width="136.4" height="159.3"/>
			<path d="M592.3,204.3H455.9c-1.1,0-2-0.9-2-2V43c0-1.1,0.9-2,2-2h136.4c1.1,0,2,0.9,2,2v159.3
				C594.3,203.4,593.4,204.3,592.3,204.3z M457.9,200.3h132.4V45H457.9V200.3z"/>
		</g>
		<g>
			<rect x="455.9" y="180.8" class="st1" width="136.4" height="21.5"/>
			<path d="M592.3,204.3H455.9c-1.1,0-2-0.9-2-2v-21.5c0-1.1,0.9-2,2-2h136.4c1.1,0,2,0.9,2,2v21.5
				C594.3,203.4,593.4,204.3,592.3,204.3z M457.9,200.3h132.4v-17.5H457.9V200.3z"/>
		</g>
		<g>
			<rect x="455.9" y="67.9" class="st1" width="136.4" height="41.2"/>
			<path d="M592.3,111H455.9c-1.1,0-2-0.9-2-2V67.9c0-1.1,0.9-2,2-2h136.4c1.1,0,2,0.9,2,2V109C594.3,110.1,593.4,111,592.3,111z
				 M457.9,107h132.4V69.9H457.9V107z"/>
		</g>
		<g>
			<rect x="455.9" y="26.5" class="st1" width="136.4" height="16.5"/>
			<path d="M592.3,45H455.9c-1.1,0-2-0.9-2-2V26.5c0-1.1,0.9-2,2-2h136.4c1.1,0,2,0.9,2,2V43C594.3,44.1,593.4,45,592.3,45z
				 M457.9,41h132.4V28.5H457.9V41z"/>
		</g>
		<rect x="455.9" y="41" width="136.4" height="4"/>
		<rect x="465.9" y="32.6" width="4.6" height="4"/>
		<rect x="475.4" y="32.6" width="4.6" height="4"/>
		<rect x="484.8" y="32.6" width="4.6" height="4"/>
		<rect x="524.1" y="32.6" width="55.2" height="4"/>
		<g>
			<rect x="465.9" y="52" class="st1" width="30.6" height="8.2"/>
			<path d="M496.5,62.1h-30.6c-1.1,0-2-0.9-2-2V52c0-1.1,0.9-2,2-2h30.6c1.1,0,2,0.9,2,2v8.2C498.5,61.2,497.6,62.1,496.5,62.1z
				 M467.9,58.1h26.6V54h-26.6V58.1z"/>
		</g>
		<rect x="507.8" y="54.1" width="75.5" height="4"/>
		<rect x="491.8" y="80.8" width="64.7" height="4"/>
		<rect x="472.6" y="93" width="103" height="4"/>
		<g>
			<rect x="465.4" y="123.7" class="st1" width="32.6" height="30.6"/>
			<path d="M498,156.3h-32.6c-1.1,0-2-0.9-2-2v-30.6c0-1.1,0.9-2,2-2H498c1.1,0,2,0.9,2,2v30.6C500,155.4,499.1,156.3,498,156.3z
				 M467.4,152.3H496v-26.6h-28.6V152.3z"/>
		</g>
		<g>
			<rect x="507.8" y="123.7" class="st1" width="32.6" height="30.6"/>
			<path d="M540.4,156.3h-32.6c-1.1,0-2-0.9-2-2v-30.6c0-1.1,0.9-2,2-2h32.6c1.1,0,2,0.9,2,2v30.6
				C542.4,155.4,541.5,156.3,540.4,156.3z M509.8,152.3h28.6v-26.6h-28.6V152.3z"/>
		</g>
		<g>
			<rect x="550.2" y="123.7" class="st1" width="32.6" height="30.6"/>
			<path d="M582.8,156.3h-32.6c-1.1,0-2-0.9-2-2v-30.6c0-1.1,0.9-2,2-2h32.6c1.1,0,2,0.9,2,2v30.6
				C584.8,155.4,583.9,156.3,582.8,156.3z M552.2,152.3h28.6v-26.6h-28.6V152.3z"/>
		</g>
		<rect x="465.4" y="163.1" width="32.6" height="4"/>
		<rect x="507.8" y="163.1" width="32.6" height="4"/>
		<rect x="550.2" y="163.1" width="32.6" height="4"/>
		<rect x="465.4" y="189.4" width="75" height="4"/>
		<rect x="558" y="189.5" width="25.1" height="4"/>
	</g>
	<g>
		<g>
			<rect x="636.8" y="17.8" class="st2" width="77.5" height="9.2"/>
			<path d="M714.3,28.9L714.3,28.9l-77.5,0c-1,0-1.9-0.8-1.9-1.9v-9.2c0-1,0.8-1.9,1.9-1.9h77.5c1,0,1.9,0.8,1.9,1.9V27
				c0,0.5-0.2,1-0.6,1.3C715.3,28.7,714.8,28.9,714.3,28.9z M638.7,25.1l73.7,0v-5.4h-73.7V25.1z"/>
		</g>
		<rect x="636.8" y="25.1" width="77.5" height="3.8"/>
		<g>
			<rect x="636.8" y="27" class="st1" width="77.5" height="60.4"/>
			<path d="M714.3,89.3h-77.5c-1,0-1.9-0.8-1.9-1.9V27c0-1,0.8-1.9,1.9-1.9h77.5c1,0,1.9,0.8,1.9,1.9v60.4
				C716.2,88.5,715.3,89.3,714.3,89.3z M638.7,85.5h73.7V28.9h-73.7V85.5z"/>
		</g>
		<rect x="651.8" y="54.4" transform="matrix(0.3855 -0.9227 0.9227 0.3855 363.2193 657.8971)" width="47.6" height="3.8"/>
		<path d="M690.5,70.4l-2.7-2.7l11.5-11.5l-11.5-11.5l2.7-2.7l12.8,12.8c0.7,0.7,0.7,1.9,0,2.7L690.5,70.4z"/>
		<path d="M660.5,70.4l-12.8-12.8c-0.4-0.4-0.6-0.8-0.6-1.3s0.2-1,0.6-1.3l12.8-12.8l2.7,2.7l-11.5,11.5l11.5,11.5L660.5,70.4z"/>
	</g>
	<g>
		<rect x="624.6" y="126.3" class="st2" width="153.8" height="107.8"/>
		<g>
			<path class="st2" d="M714.7,223.8v4.5h-27.5v-4.5h-90.7c0,0-0.6,6.5,0,8.6c0.5,1.7,3.7,6.1,3.7,6.1h201.5c0,0,3.2-4.3,3.7-6.1
				c0.6-2.1,0-8.6,0-8.6H714.7z"/>
			<path d="M801.7,240.5H600.2c-0.6,0-1.2-0.3-1.6-0.8c-0.8-1.1-3.4-4.8-4-6.7c-0.6-2.3-0.2-8.2-0.1-9.3c0.1-1,0.9-1.8,2-1.8h90.7
				c1.1,0,2,0.9,2,2v2.6h23.5v-2.6c0-1.1,0.9-2,2-2h90.7c1,0,1.9,0.8,2,1.8c0.1,1.2,0.6,7-0.1,9.3c-0.5,1.9-3.2,5.6-4,6.7
				C803,240.2,802.4,240.5,801.7,240.5z M601.2,236.5h199.5c1.3-1.8,2.6-3.9,2.8-4.6c0.3-0.9,0.2-3.7,0.1-6.1h-86.9v2.6
				c0,1.1-0.9,2-2,2h-27.5c-1.1,0-2-0.9-2-2v-2.6h-86.9c-0.1,2.4-0.2,5.2,0.1,6.1C598.7,232.6,600,234.7,601.2,236.5z"/>
		</g>
		<g>
			<path class="st2" d="M648.5,198.4c0,2.8,2.3,5.1,5.1,5.1h43.3c2.8,0,5.1-2.3,5.1-5.1v-9.6h-53.5V198.4z"/>
			<path d="M696.9,205.5h-43.3c-3.9,0-7.1-3.2-7.1-7.1v-9.6c0-1.1,0.9-2,2-2H702c1.1,0,2,0.9,2,2v9.6
				C703.9,202.3,700.8,205.5,696.9,205.5z M650.5,190.8v7.6c0,1.7,1.4,3.1,3.1,3.1h43.3c1.7,0,3.1-1.4,3.1-3.1v-7.6H650.5z"/>
		</g>
		<g>
			<path class="st2" d="M702,112.2c0-2.8-2.3-5.1-5.1-5.1h-43.3c-2.8,0-5.1,2.3-5.1,5.1v7.9H702V112.2z"/>
			<path d="M702,122.1h-53.5c-1.1,0-2-0.9-2-2v-7.9c0-3.9,3.2-7.1,7.1-7.1h43.3c3.9,0,7.1,3.2,7.1,7.1v7.9
				C703.9,121.2,703,122.1,702,122.1z M650.5,118.1H700v-5.9c0-1.7-1.4-3.1-3.1-3.1h-43.3c-1.7,0-3.1,1.4-3.1,3.1V118.1z"/>
		</g>
		<g>
			<rect x="648.5" y="120.1" class="st1" width="53.5" height="68.8"/>
			<path d="M702,190.8h-53.5c-1.1,0-2-0.9-2-2v-68.8c0-1.1,0.9-2,2-2H702c1.1,0,2,0.9,2,2v68.8C703.9,190,703,190.8,702,190.8z
				 M650.5,186.9H700v-64.8h-49.5V186.9z"/>
		</g>
		<g>
			<path class="st1" d="M648.5,120.3h-23c-4,0-7.3,3.3-7.3,7.3v32.1v64.1H631v-56.7v-33.9h17.5V120.3z"/>
			<path d="M631,225.8h-12.8c-1.1,0-2-0.9-2-2v-96.2c0-5.1,4.2-9.3,9.3-9.3h23c1.1,0,2,0.9,2,2v12.8c0,1.1-0.9,2-2,2H633v88.7
				C633,224.9,632.1,225.8,631,225.8z M620.1,221.8h8.9v-88.7c0-1.1,0.9-2,2-2h15.5v-8.9h-21c-2.9,0-5.3,2.4-5.3,5.3V221.8z"/>
		</g>
		<g>
			<path class="st1" d="M776.5,120.3H702v12.8h69v33.9v56.7h12.8v-64.1v-32.1C783.8,123.6,780.5,120.3,776.5,120.3z"/>
			<path d="M783.8,225.8H771c-1.1,0-2-0.9-2-2v-88.7h-67c-1.1,0-2-0.9-2-2v-12.8c0-1.1,0.9-2,2-2h74.5c5.1,0,9.3,4.2,9.3,9.3v96.2
				C785.8,224.9,784.9,225.8,783.8,225.8z M772.9,221.8h8.9v-94.2c0-2.9-2.4-5.3-5.3-5.3h-72.5v8.9h67c1.1,0,2,0.9,2,2V221.8z"/>
		</g>
		<rect x="669.8" y="194.2" width="10.8" height="4"/>
		<rect x="658.6" y="147.9" transform="matrix(0.7071 -0.7071 0.7071 0.7071 90.1885 517.4828)" width="22.3" height="4"/>
		<rect x="655.7" y="154.1" transform="matrix(0.7071 -0.7071 0.7071 0.7071 87.8497 524.3126)" width="42.3" height="4"/>
		<g>
			<rect x="714.2" y="155.9" width="41.8" height="4"/>
			<g>
				<polygon points="720.4,163.3 715,157.9 720.4,152.5 715.8,152.5 710.4,157.9 715.8,163.3 				"/>
			</g>
		</g>
		<g>
			<rect x="714.2" y="176.6" width="41.8" height="4"/>
			<g>
				<polygon points="749.9,183.9 755.3,178.5 749.9,173.2 754.5,173.2 759.8,178.5 754.5,183.9 				"/>
			</g>
		</g>
	</g>
	<g>
		<rect x="289.9" y="54.1" class="st3" width="142.2" height="37.4"/>
		<rect x="300.5" y="68.7" class="st4" width="8.5" height="8.5"/>
		<rect x="311.4" y="68.7" class="st4" width="8.5" height="8.5"/>
		<rect x="322.2" y="68.7" class="st4" width="8.5" height="8.5"/>
		<g>
			<defs>
				<rect id="SVGID_1_" x="289.9" y="54.1" width="142.2" height="37.4"/>
			</defs>
			<clipPath id="SVGID_2_">
				<use xlink:href="#SVGID_1_"  style="overflow:visible;"/>
			</clipPath>
			<path class="st5" d="M338.7,78.4V67.1h3.1c0.7,0,1.4,0.3,1.7,0.7c0.5,0.6,0.5,1.2,0.5,1.8v1.7c0,0.5,0,1.3-0.5,1.9
				c-0.3,0.3-0.8,0.6-1.6,0.6c-0.4,0-0.9,0-1.4-0.1v4.7H338.7z M341.5,72.1L341.5,72.1c0.3,0,0.5,0,0.6-0.3c0-0.1,0.1-0.2,0.1-0.8
				v-1.2c0-0.3,0-0.5-0.2-0.7c-0.2-0.3-0.5-0.3-0.7-0.3h-0.8v3.4H341.5z"/>
			<path class="st5" d="M348.6,78.4c-0.3-0.5-0.3-0.9-0.3-1.3v-2.5c0-0.3,0-0.7-0.3-0.9c-0.2-0.2-0.5-0.2-0.6-0.2h-0.7v4.9h-1.8
				V67.1h3c1,0,1.6,0.3,1.9,0.7c0.3,0.4,0.5,1.1,0.5,1.6v1.3c0,0.4-0.1,0.9-0.5,1.4c-0.2,0.2-0.5,0.4-0.9,0.4v0.1
				c0.1,0,0.4,0.1,0.7,0.4c0.5,0.4,0.6,1,0.6,1.4v2.4c0,1,0.1,1.3,0.5,1.5v0.1H348.6z M347.5,71.8L347.5,71.8c0.2,0,0.5,0,0.7-0.2
				c0.3-0.2,0.3-0.5,0.3-0.7v-1.2c0-0.5-0.1-0.7-0.1-0.8c-0.2-0.2-0.4-0.3-0.6-0.3h-1v3.1H347.5z"/>
			<path class="st5" d="M356.9,75.9c0,0.6,0,1.3-0.8,2c-0.7,0.6-1.4,0.7-2,0.7c-0.6,0-1.4-0.1-2-0.7c-0.7-0.6-0.8-1.3-0.8-2v-6.3
				c0-0.6,0-1.3,0.8-2c0.6-0.6,1.4-0.7,2-0.7c0.6,0,1.4,0.1,2,0.7c0.7,0.6,0.8,1.3,0.8,2V75.9z M353.1,75.8L353.1,75.8
				c0,0.3,0,0.6,0.2,0.8c0.2,0.3,0.6,0.3,0.8,0.3c0.2,0,0.6,0,0.8-0.3c0.2-0.2,0.2-0.5,0.2-0.8v-6.2c0-0.3,0-0.6-0.2-0.8
				c-0.2-0.3-0.6-0.3-0.8-0.3c-0.2,0-0.6,0-0.8,0.3c-0.2,0.2-0.2,0.5-0.2,0.8V75.8z"/>
			<path class="st5" d="M361.6,73.7h-1v-1.6h2.9v6.2h-1.5v-1.1h0c-0.1,0.3-0.3,0.7-0.5,0.9c-0.3,0.3-0.8,0.4-1.2,0.4
				c-0.7,0-1.2-0.1-1.7-0.7c-0.5-0.6-0.6-1.2-0.6-1.9v-6.4c0-0.9,0.2-1.6,0.9-2.1c0.6-0.5,1.3-0.6,1.9-0.6c0.9,0,1.6,0.2,2.1,0.7
				c0.3,0.3,0.7,0.9,0.7,1.9v1.2h-1.8v-1.1c0-0.3,0-0.6-0.2-0.9c-0.1-0.1-0.3-0.2-0.7-0.2c-0.2,0-0.5,0-0.7,0.3
				c-0.2,0.2-0.2,0.5-0.2,0.8v6.2c0,0.2,0,0.6,0.2,0.8c0.1,0.2,0.4,0.4,0.8,0.4c0.4,0,0.6-0.2,0.7-0.3c0.1-0.1,0.2-0.4,0.2-0.8V73.7
				z"/>
			<path class="st5" d="M368.3,78.4c-0.3-0.5-0.3-0.9-0.3-1.3v-2.5c0-0.3,0-0.7-0.3-0.9c-0.2-0.2-0.5-0.2-0.7-0.2h-0.7v4.9h-1.8
				V67.1h3c1,0,1.6,0.3,1.9,0.7c0.3,0.4,0.5,1.1,0.5,1.6v1.3c0,0.4-0.1,0.9-0.5,1.4c-0.2,0.2-0.5,0.4-0.9,0.4v0.1
				c0.1,0,0.4,0.1,0.7,0.4c0.5,0.4,0.6,1,0.6,1.4v2.4c0,1,0.1,1.3,0.5,1.5v0.1H368.3z M367.1,71.8L367.1,71.8c0.2,0,0.5,0,0.7-0.2
				c0.2-0.2,0.3-0.5,0.3-0.7v-1.2c0-0.5-0.1-0.7-0.1-0.8c-0.2-0.2-0.4-0.3-0.6-0.3h-1v3.1H367.1z"/>
			<polygon class="st5" points="371,67.1 375.7,67.1 375.7,68.7 372.8,68.7 372.8,71.4 375,71.4 375,73 372.8,73 372.8,76.8 
				375.9,76.8 375.9,78.4 371,78.4 			"/>
			<path class="st5" d="M378.3,74.6v1c0,0.5,0,0.8,0.1,0.9c0.2,0.4,0.5,0.4,0.8,0.4c0.2,0,0.5,0,0.7-0.2c0.2-0.2,0.2-0.6,0.2-0.8
				v-0.7c0-0.4-0.2-0.9-0.6-1.3l-1.9-1.7c-0.3-0.3-0.6-0.5-0.8-0.9c-0.3-0.5-0.4-0.9-0.4-1.4V69c0-0.5,0.3-1.1,0.6-1.4
				c0.6-0.6,1.7-0.7,2.1-0.7c0.6,0,1.4,0.1,2,0.7c0.6,0.6,0.7,1.3,0.7,1.7v1.1H380v-0.9c0-0.3,0-0.5-0.2-0.8
				c-0.2-0.2-0.4-0.3-0.6-0.3c-0.2,0-0.5,0.1-0.7,0.2c-0.2,0.2-0.2,0.4-0.2,0.6v0.5c0,0.4,0.1,0.6,0.5,0.9l1.9,1.7
				c0.6,0.6,1.3,1.2,1.3,2.4v1.3c0,0.5-0.1,1.2-0.6,1.7c-0.6,0.6-1.3,0.7-2,0.7c-0.6,0-1.3-0.1-1.9-0.5c-0.8-0.6-1-1.4-1-2v-1.4
				H378.3z"/>
			<path class="st5" d="M384.6,74.6v1c0,0.5,0.1,0.8,0.1,0.9c0.2,0.4,0.5,0.4,0.8,0.4c0.2,0,0.5,0,0.7-0.2c0.2-0.2,0.2-0.6,0.2-0.8
				v-0.7c0-0.4-0.2-0.9-0.6-1.3l-1.9-1.7c-0.3-0.3-0.5-0.5-0.8-0.9c-0.3-0.5-0.4-0.9-0.4-1.4V69c0-0.5,0.3-1.1,0.6-1.4
				c0.7-0.6,1.7-0.7,2.1-0.7c0.6,0,1.4,0.1,2,0.7c0.6,0.6,0.6,1.3,0.6,1.7v1.1h-1.8v-0.9c0-0.3,0-0.5-0.2-0.8
				c-0.2-0.2-0.4-0.3-0.6-0.3c-0.2,0-0.5,0.1-0.7,0.2c-0.2,0.2-0.2,0.4-0.2,0.6v0.5c0,0.4,0.1,0.6,0.4,0.9l1.9,1.7
				c0.6,0.6,1.2,1.2,1.2,2.4v1.3c0,0.5-0.1,1.2-0.6,1.7c-0.6,0.6-1.3,0.7-2,0.7c-0.6,0-1.3-0.1-1.9-0.5c-0.8-0.6-1-1.4-1-2v-1.4
				H384.6z"/>
			<rect x="389.1" y="67.1" class="st5" width="1.8" height="11.2"/>
			<path class="st5" d="M397.6,75.9c0,0.6,0,1.3-0.8,2c-0.7,0.6-1.4,0.7-2,0.7c-0.6,0-1.4-0.1-2-0.7c-0.7-0.6-0.8-1.3-0.8-2v-6.3
				c0-0.6,0-1.3,0.8-2c0.6-0.6,1.4-0.7,2-0.7c0.6,0,1.4,0.1,2,0.7c0.7,0.6,0.8,1.3,0.8,2V75.9z M393.9,75.8L393.9,75.8
				c0,0.3,0,0.6,0.2,0.8c0.2,0.3,0.6,0.3,0.8,0.3c0.2,0,0.5,0,0.8-0.3c0.2-0.2,0.2-0.5,0.2-0.8v-6.2c0-0.3,0-0.6-0.2-0.8
				c-0.2-0.3-0.6-0.3-0.8-0.3c-0.2,0-0.6,0-0.8,0.3c-0.2,0.2-0.2,0.5-0.2,0.8V75.8z"/>
			<polygon class="st5" points="402.4,78.4 400.4,71.7 400.4,71.8 400.5,73 400.5,78.4 398.6,78.4 398.6,67.1 400.7,67.1 
				402.5,73.5 402.6,73.5 402.5,72.3 402.5,67.1 404.3,67.1 404.3,78.4 			"/>
			<path class="st5" d="M414.6,76c0,0.6-0.1,1.2-0.7,1.8c-0.5,0.4-1.2,0.7-2.1,0.7c-0.7,0-1.5-0.2-2-0.7c-0.7-0.6-0.8-1.4-0.8-2.1
				v-6.2c0-0.7,0.1-1.3,0.8-1.9c0.6-0.6,1.3-0.7,2-0.7c0.8,0,1.5,0.3,1.9,0.7c0.7,0.6,0.8,1.5,0.8,2.1v1.2h-1.8v-1.4
				c0-0.3,0-0.5-0.2-0.7c-0.2-0.2-0.4-0.3-0.7-0.3c-0.3,0-0.5,0.1-0.7,0.2c-0.2,0.2-0.3,0.5-0.3,0.8v6.3c0,0.3,0,0.5,0.2,0.8
				c0.2,0.2,0.5,0.3,0.8,0.3c0.2,0,0.5,0,0.7-0.3c0.2-0.2,0.2-0.5,0.2-0.7v-1.8h1.8V76z"/>
			<path class="st5" d="M419.5,78.4l-0.3-2.1h-2l-0.3,2.1H415l2.1-11.2h2.2l2.1,11.2H419.5z M419,74.7L419,74.7l-0.8-4.5h0l-0.8,4.5
				H419z"/>
		</g>
	</g>
</g>
</svg>
