<?xml version="1.0" encoding="utf-8"?>
<!-- Generator: Adobe Illustrator 21.1.0, SVG Export Plug-In . SVG Version: 6.00 Build 0)  -->
<svg version="1.1" id="Layer_1" xmlns="http://www.w3.org/2000/svg" xmlns:xlink="http://www.w3.org/1999/xlink" x="0px" y="0px"
	 viewBox="0 0 143 53" style="enable-background:new 0 0 143 53;" xml:space="preserve">
<style type="text/css">
	.st0{fill:#CFCFCF;}
	.st1{fill:#FFFFFF;}
	.st2{fill:#020300;}
</style>
<g>
	<g>
		<path class="st0" d="M140.4,22.9l2.5-12.6h-16.7l-0.3,1.5c-0.7-0.7-1.9-1.5-3.8-1.5h-9.3l1.4-7.5h-8.7l-0.5,0.1H98l-1.4,7.5H81.7
			l-0.2,1.1c-0.9-0.7-2.2-1.1-3.8-1.1H42.5l1.4-7.4h-9.3l-1.4,7.5c-1.8,0.1-4.1,0.4-6.1,1.8l2.2-11.6L27,0.4c-0.2,0-0.4,0-0.7-0.1
			c-0.7-0.1-1.6-0.1-2.1-0.1C12.6,0.2,3.1,9.3,0.4,22.8l0,0.1c-0.3,1.9-0.7,6.8,0.7,12.6C2.4,41,6.4,46.4,9.4,49
			c3.4,2.8,5.3,3.8,5.3,3.8S7.1,39.5,9.3,27.4h5.3l-1.4,7.4h9.7l0,0h21.7l2.9-15.2h3.2l-2.9,15.2l-0.1,0.1l-14.7,0l-3.2,14.1h15.7
			l0.1,0H58l0.8-2.5l1.4,2.5h2.5l0,0c0.1,0,0.3,0,0.4,0h6.5c0.4,0,1.1,0,1.5,0l3.7,0h5.7c0.2-0.7,0.5-1.7,0.6-2l0.9,2h9.4l0.2,0
			l0.2,0h7.4l3.9-14.1h35l1.1-6.1h-3.7C139.1,27,140.1,24,140.4,22.9z M16.2,18.9h-5c0.7-1.7,1.7-3.7,2.9-5.5
			c0.8-1.2,2.2-2.8,3.8-3.8L16.2,18.9z"/>
		<path class="st1" d="M14.7,52.9C14.7,52.9,14.7,52.9,14.7,52.9c-0.1,0-2-1-5.4-3.8C6.2,46.5,2.3,41,1,35.5
			c-1.6-6.4-0.9-11.7-0.7-12.6l0-0.1C2.9,9.2,12.5,0.1,24.2,0.1c0.6,0,1.4,0.1,2.1,0.1c0.3,0,0.5,0,0.7,0.1l2.3,0.2
			c0,0,0.1,0,0.1,0.1c0,0,0,0.1,0,0.1l-2.1,11.3c1.5-1,3.4-1.5,5.8-1.7l1.4-7.4c0-0.1,0.1-0.1,0.1-0.1h9.3c0,0,0.1,0,0.1,0
			c0,0,0,0.1,0,0.1l-1.4,7.3h35c1.6,0,2.8,0.3,3.8,1l0.2-0.9c0-0.1,0.1-0.1,0.1-0.1h14.8l1.4-7.3c0-0.1,0.1-0.1,0.1-0.1h7.1l0.5-0.1
			l8.7,0c0,0,0.1,0,0.1,0c0,0,0,0.1,0,0.1l-1.4,7.4h9.1c1.9,0,3,0.7,3.7,1.4l0.2-1.2c0-0.1,0.1-0.1,0.1-0.1h16.7c0,0,0.1,0,0.1,0
			c0,0,0,0.1,0,0.1l-2.5,12.6c0,0,0,0,0,0c-0.3,1.1-1.2,3.9-4.3,5.6h3.2c0,0,0.1,0,0.1,0c0,0,0,0.1,0,0.1l-1.1,6.1
			c0,0.1-0.1,0.1-0.1,0.1h-34.9l-3.9,14c0,0.1-0.1,0.1-0.1,0.1H82.2c-0.1,0-0.1,0-0.1-0.1l-0.8-1.7c-0.1,0.4-0.3,1.1-0.5,1.7
			c0,0.1-0.1,0.1-0.1,0.1l-9.4,0c-0.2,0-0.4,0-0.7,0c-0.3,0-0.6,0-0.8,0h-6.5c-0.1,0-0.3,0-0.4,0c0,0,0,0-0.1,0h-2.5
			c0,0-0.1,0-0.1-0.1l-1.3-2.2l-0.7,2.2c0,0.1-0.1,0.1-0.1,0.1l-28.3,0c0,0-0.1,0-0.1-0.1c0,0,0-0.1,0-0.1l3.2-14h-9.9c0,0,0,0,0,0
			h-9.7c0,0-0.1,0-0.1,0c0,0,0-0.1,0-0.1l1.4-7.2h-5c-2.1,11.9,5.3,25.1,5.4,25.2C14.8,52.7,14.8,52.8,14.7,52.9
			C14.8,52.9,14.7,52.9,14.7,52.9z M24.2,0.4c-11.5,0-21,9-23.6,22.4l0,0.1c-0.2,1-0.8,6.1,0.7,12.5c1.3,5.4,5.1,10.8,8.3,13.4
			c2.5,2,4.1,3.1,4.8,3.5c-1.2-2.4-7.1-14.2-5.2-25.1c0-0.1,0.1-0.1,0.1-0.1h5.3c0,0,0.1,0,0.1,0s0,0.1,0,0.1l-1.4,7.2h9.5
			c0,0,0,0,0,0h21.6l2.9-15.1c0-0.1,0.1-0.1,0.1-0.1h3.2c0,0,0.1,0,0.1,0c0,0,0,0.1,0,0.1l-2.9,15.2c0,0,0,0.1-0.1,0.1l-0.1,0.1
			c0,0,0,0-0.1,0l-14.6,0l-3.1,13.8l28,0l0.7-2.4c0-0.1,0.1-0.1,0.1-0.1c0.1,0,0.1,0,0.1,0.1l1.4,2.4h2.4c0,0,0,0,0.1,0
			c0.1,0,0.3,0,0.4,0h6.5c0.2,0,0.5,0,0.8,0c0.3,0,0.5,0,0.7,0l3.7,0h5.6c0.2-0.7,0.5-1.6,0.6-1.9c0-0.1,0.1-0.1,0.1-0.1
			c0.1,0,0.1,0,0.1,0.1l0.9,1.9h17l3.9-14c0-0.1,0.1-0.1,0.1-0.1h34.9l1.1-5.8h-3.5c-0.1,0-0.1,0-0.1-0.1s0-0.1,0.1-0.1
			c3.4-1.6,4.3-4.5,4.6-5.7l2.5-12.4h-16.4l-0.3,1.4c0,0,0,0.1-0.1,0.1c0,0-0.1,0-0.1,0c-0.6-0.7-1.8-1.5-3.7-1.5h-9.3
			c0,0-0.1,0-0.1,0c0,0,0-0.1,0-0.1l1.4-7.4h-8.5L105.1,3l-7,0l-1.4,7.3c0,0.1-0.1,0.1-0.1,0.1H81.8l-0.2,1c0,0,0,0.1-0.1,0.1
			c0,0-0.1,0-0.1,0c-0.9-0.7-2.1-1.1-3.8-1.1H42.5c0,0-0.1,0-0.1,0c0,0,0-0.1,0-0.1L43.7,3h-9.1l-1.4,7.4c0,0.1-0.1,0.1-0.1,0.1
			c-2.5,0.1-4.5,0.7-6,1.8c0,0-0.1,0-0.1,0c0,0-0.1-0.1-0.1-0.1l2.2-11.4L27,0.6c-0.2,0-0.4,0-0.7-0.1C25.6,0.5,24.8,0.4,24.2,0.4z
			 M44.7,34.7l2.9,0l0,0l2.9-14.9h-3L44.7,34.7z M140.4,22.9L140.4,22.9L140.4,22.9z M16.2,19.1h-5c0,0-0.1,0-0.1-0.1
			c0,0,0-0.1,0-0.1c0.7-1.9,1.8-3.9,2.9-5.5c0.9-1.2,2.2-2.9,3.8-3.9c0,0,0.1,0,0.1,0c0,0,0.1,0.1,0.1,0.1L16.3,19
			C16.3,19,16.2,19.1,16.2,19.1z M11.4,18.8h4.7l1.7-8.9c-1.5,1-2.7,2.5-3.5,3.6C13.1,15.1,12.1,17,11.4,18.8z"/>
	</g>
	<g>
		<path class="st2" d="M51.8,17.5l1-5.2H41.7l-3.9,20.4h5.1l3.5-18.3h2.3l-0.6,3.2H51.8z M36.2,4.9l-1.4,7.4c-4.2,0-8.3,0.6-9.4,6.7
			l-2.6,13.7h13.3l5.3-27.8H36.2z M31.3,30.7h-3.1l2.3-11.9c0.5-2.6,1.5-4.4,3.9-4.4L31.3,30.7z M111.8,4.8h-5L106,9h5L111.8,4.8z
			 M122.1,12.3h-9.8l-3.9,20.4h5.2l3.5-18.3h3.2l-3.5,18.3h5.1l3.1-16.5C125.5,13.9,124.4,12.3,122.1,12.3 M99.7,4.9l-5.3,27.8h5.1
			l5.3-27.8H99.7z M54.1,12.3l-3.9,20.4h12.4l0.5-2h-7.6l0.6-2.8c2.5,0,7.6-0.7,8.5-5.3l2-10.2H54.1z M60,22.3
			c-0.5,2.4-1,3.1-3.5,3.1l2.1-11h2.9L60,22.3z M127.8,12.3L124,32.7h12.6l0.4-2h-7.7l0.5-2.8c2.5,0,7.6-0.7,8.6-5.3l2-10.2H127.8z
			 M133.8,22.3c-0.5,2.4-1,3.1-3.5,3.1l2.1-11.1h3L133.8,22.3z M105.4,12.3l-3.9,20.4h5l3.9-20.4H105.4z M83.4,12.3l-0.4,2h7.6
			L89.9,18c-4.2,0-7.7,0.7-8.9,6.8l-1.5,7.9l-0.1,0h12.9l4-20.4H83.4z M87.5,30.7l-3,0l1.2-6.1c0.5-2.6,1.4-4.2,3.9-4.2L87.5,30.7z
			 M77.6,12.3h-9.5l-3.8,20.4h5l3.5-18.3h3.4l-3.5,18.3h5l3.2-16.5C81.3,13.5,80.4,12.3,77.6,12.3"/>
		<path class="st2" d="M24.2,2.3C14.3,2.3,5,10,2.5,23.2c-0.1,0.4-1,5.6,0.6,11.8c1.1,4.1,3.3,8.6,7.5,12.5C8.4,43.6,7.5,39,7.2,35
			c-0.3-4.5,0.1-8.2,0.4-9.7H17l-1.4,7.4h5.5l5.7-30.2C26.2,2.4,24.9,2.3,24.2,2.3 M17.9,21H8.5c0.8-4.2,5.8-14.2,12.1-14.2L17.9,21
			z"/>
		<path class="st2" d="M44.6,36.6l-0.7,2.8h-6.3l-0.4,1.4h4.3c1.3,0,2,0.5,2,1.5c0,0.2-0.2,1-0.5,2.2c-0.3,1.1-0.7,1.8-1.2,2.3
			c-0.5,0.4-1.3,0.6-2.4,0.6h-7.2l0.8-2.9h6.8l0.4-1.4h-4.3c-0.9,0-1.4-0.1-1.7-0.4c-0.2-0.2-0.3-0.5-0.3-0.9c0-0.2,0.2-1,0.5-2.4
			c0.3-1,0.7-1.7,1.2-2.2c0.5-0.4,1.3-0.6,2.4-0.6H44.6z"/>
		<polygon class="st2" points="55.7,36.6 54.9,39.3 51.6,39.3 49.5,47.3 46.2,47.3 48.3,39.3 45,39.3 45.8,36.6 		"/>
		<path class="st2" d="M66.5,37.8c0,0.2,0,0.5-0.1,0.8c-0.3,1.1-0.5,1.8-0.7,2c-0.3,0.6-0.9,1-1.7,1.2c0.7,0.2,1.1,0.6,1.1,1.3
			c0,0.2,0,0.4-0.1,0.6L64,47.3h-3.3l1.2-4.4h-3.7L57,47.3h-3.3l2.9-10.7h8.1C65.9,36.6,66.5,37,66.5,37.8 M62.8,39.3h-3.7l-0.4,1.6
			h3.7L62.8,39.3z"/>
		<path class="st2" d="M77.7,38.2c0,0.3-0.1,0.7-0.2,1.2l-1.4,5c-0.3,1.1-0.8,1.9-1.4,2.3c-0.6,0.4-1.5,0.6-2.7,0.6h-3.7
			c-0.8,0-1.4-0.1-1.8-0.2c-0.6-0.2-0.9-0.7-0.9-1.4c0-0.3,0.1-0.8,0.2-1.3l1.4-5c0.3-1.1,0.8-1.8,1.4-2.2c0.6-0.4,1.5-0.5,2.6-0.5
			H75c0.8,0,1.4,0.1,1.8,0.2C77.4,37,77.7,37.5,77.7,38.2 M74.2,39.3h-3.7l-1.4,5h3.7L74.2,39.3z"/>
		<polygon class="st2" points="89.8,36.6 86.9,47.3 83.2,47.3 81.3,41.8 79.8,47.3 76.6,47.3 79.5,36.6 83.2,36.6 85.1,42 
			86.6,36.6 		"/>
		<path class="st2" d="M100.8,36.6l-0.7,2.8h-6.5l-1.4,5h3.7l0.9-3.5h3.3l-0.9,3.5c-0.3,1.2-0.8,1.9-1.4,2.3
			c-0.6,0.4-1.5,0.6-2.7,0.6h-3.7c-0.8,0-1.4-0.1-1.8-0.2c-0.6-0.2-1-0.7-1-1.3c0-0.4,0.1-0.8,0.2-1.4l1.4-5
			c0.3-1.1,0.8-1.9,1.4-2.3c0.6-0.3,1.4-0.5,2.6-0.5H100.8z"/>
	</g>
</g>
</svg>
