<?xml version="1.0" encoding="utf-8"?>
<!-- Generator: Adobe Illustrator 21.1.0, SVG Export Plug-In . SVG Version: 6.00 Build 0)  -->
<svg version="1.1" id="Layer_1" xmlns="http://www.w3.org/2000/svg" xmlns:xlink="http://www.w3.org/1999/xlink" x="0px" y="0px"
	 viewBox="0 0 118 15" style="enable-background:new 0 0 118 15;" xml:space="preserve">
<style type="text/css">
	.st0{fill:#FFFFFF;}
</style>
<g>
	<path class="st0" d="M3.2,5.4h1.2l0.5-3.5h1.3L5.8,5.4h1.1v1.5H5.5L5.4,8.3h1.1v1.5H5.2l-0.5,3.6H3.4l0.5-3.6H2.8l-0.5,3.6H0.9
		l0.5-3.6H0V8.3h1.5l0.2-1.4H0.3V5.4h1.6l0.5-3.5h1.4L3.2,5.4z M4.2,6.9H3.1L2.9,8.3H4L4.2,6.9z"/>
	<path class="st0" d="M8.1,1.5h4.2c2.1,0,2.9,1.4,2.9,2.9c0,1.1-0.6,2.4-1.6,2.6c1.2,0.5,1.8,1.3,1.8,2.9c0,2.1-0.9,3.5-2.7,3.5H8.1
		V1.5z M10.4,6.3h1.2c1,0,1.4-0.6,1.4-1.6c0-1-0.3-1.5-1.4-1.5h-1.2V6.3z M10.4,11.7h1.5c0.8,0,1.3-0.5,1.3-1.9
		c0-1.2-0.4-1.8-1.3-1.8h-1.5V11.7z"/>
	<path class="st0" d="M21.8,5.4V5.1c0-1.5-0.4-2-1.3-2c-1,0-1.4,0.5-1.4,2v4.7c0,1.6,0.4,2.1,1.4,2.1c0.9,0,1.4-0.5,1.4-2.1V9.2H24
		v0.5c0,2.2-0.8,4-3.6,4c-3,0-3.7-1.9-3.7-4V5.4c0-2.8,1.3-4.1,3.7-4.1c2.3,0,3.6,1.3,3.6,3.5v0.6H21.8z"/>
	<path class="st0" d="M32,1.5v1.8h-4.1v2.8h3.8v1.8h-3.8v3.7H32v1.8h-6.4V1.5H32z"/>
	<path class="st0" d="M38,13.4h-2.3V3.3h-2.8V1.5h7.9v1.8H38V13.4z"/>
	<path class="st0" d="M44.2,6.1h1.9c1.9,0,3,1.8,3,3.5c0,2.3-1,3.8-2.8,3.8h-4.4V1.5h2.3V6.1z M44.2,11.7h1.3c0.8,0,1.3-0.5,1.3-1.9
		c0-1.2-0.5-2-1.3-2h-1.3V11.7z M53.1,13.4h-2.3V1.5h2.3V13.4z"/>
	<path class="st0" d="M58.4,1.5L60,9.3l1.6-7.8h3.6v11.9h-2.1V2.6h0l-2.3,10.8h-1.6L56.9,2.6h0v10.8h-2.1V1.5H58.4z"/>
	<path class="st0" d="M70.7,1.3c2.3,0,3.8,1,3.8,4.1v4.3c0,3-1.5,4-3.8,4c-2.3,0-3.9-1-3.9-4V5.4C66.8,2.4,68.4,1.3,70.7,1.3z
		 M69.1,5.1V10c0,1.2,0.5,1.9,1.6,1.9c1,0,1.5-0.7,1.5-1.9V5.1c0-1.3-0.5-2-1.5-2C69.6,3.1,69.1,3.8,69.1,5.1z"/>
	<path class="st0" d="M78.1,1.5l2.7,5.2V1.5h2.3v5.2l2.7-5.2h2.6l-3,5.2l3.1,6.8H86l-2-4.8l-0.9,1.2v3.6h-2.3V9.8L80,8.7l-2,4.8
		h-2.5l3.1-6.8l-3-5.2H78.1z"/>
	<path class="st0" d="M96,1.5v1.8h-4.1v2.8h3.8v1.8h-3.8v3.7H96v1.8h-6.4V1.5H96z"/>
	<path class="st0" d="M97.4,13.4V1.5h2.3v10.1h2.4V1.5h2.3v10.1h2.4V1.5h2.3v11.9H97.4z"/>
	<path class="st0" d="M113.1,6.1h1.9c1.9,0,3,1.8,3,3.5c0,2.3-1,3.8-2.8,3.8h-4.4V1.5h2.3V6.1z M113.1,11.7h1.3
		c0.8,0,1.3-0.5,1.3-1.9c0-1.2-0.5-2-1.3-2h-1.3V11.7z"/>
</g>
</svg>
