<?xml version="1.0" encoding="utf-8"?>
<!-- Generator: Adobe Illustrator 19.2.1, SVG Export Plug-In . SVG Version: 6.00 Build 0)  -->
<svg version="1.1" id="Layer_1" xmlns="http://www.w3.org/2000/svg" xmlns:xlink="http://www.w3.org/1999/xlink" x="0px" y="0px"
	 width="240px" height="180px" viewBox="0 0 240 180" style="enable-background:new 0 0 240 180;" xml:space="preserve">
<style type="text/css">
	.st0{fill-rule:evenodd;clip-rule:evenodd;fill:#FFFFFF;}
</style>
<path class="st0" d="M207.7,59.9c0.8-3,1.2-6.1,1.2-9.3c0-19.6-15.9-35.4-35.5-35.4c-8.5,0-16.3,3-22.4,7.9
	c-6.4-9.6-17.4-15.9-29.8-15.9c-4.7,0-9.2,0.9-13.3,2.6C104.3,3.9,97.9,0,90.5,0c-9.2,0-16.9,6.1-19.5,14.4c-0.6,0-1.1,0-1.7,0
	c-19.8,0-35.9,16-35.9,35.8c0,1.1,0.1,2.3,0.2,3.4C14.7,55.9,0,72,0,91.6c0,21.2,17.2,38.3,38.4,38.3c0.5,0,1,0,1.4,0
	c-0.5,2.3-0.7,4.7-0.7,7.1c0,19.8,16.1,35.8,35.9,35.8c10.1,0,19.3-4.2,25.8-11c4.1,10.6,14.4,18.1,26.4,18.1
	c11.9,0,22.1-7.4,26.3-17.8c4.2,1.7,8.8,2.7,13.6,2.7c19.2,0,34.8-15.3,35.4-34.3c0.7,0,1.3,0.1,2,0.1c19.6,0,35.5-15.9,35.5-35.4
	C240,76.7,225.8,61.5,207.7,59.9z"/>
</svg>
