<?xml version="1.0" encoding="utf-8"?>
<!-- Generator: Adobe Illustrator 19.2.1, SVG Export Plug-In . SVG Version: 6.00 Build 0)  -->
<svg version="1.1" id="Layer_1" xmlns="http://www.w3.org/2000/svg" xmlns:xlink="http://www.w3.org/1999/xlink" x="0px" y="0px"
	 width="86px" height="36px" viewBox="0 0 86 36" style="enable-background:new 0 0 86 36;" xml:space="preserve">
<style type="text/css">
	.st0{clip-path:url(#SVGID_2_);fill:#FFFFFF;}
	.st1{clip-path:url(#SVGID_4_);fill:#FFFFFF;}
	.st2{clip-path:url(#SVGID_6_);fill:#FFFFFF;}
	.st3{clip-path:url(#SVGID_8_);fill:#FFFFFF;}
	.st4{clip-path:url(#SVGID_10_);fill:#FFFFFF;}
	.st5{clip-path:url(#SVGID_12_);fill:#FFFFFF;}
	.st6{clip-path:url(#SVGID_14_);fill:#FFFFFF;}
	.st7{clip-path:url(#SVGID_16_);fill:#FFFFFF;}
	.st8{clip-path:url(#SVGID_18_);fill:#FFFFFF;}
	.st9{clip-path:url(#SVGID_20_);fill:#FFFFFF;}
	.st10{clip-path:url(#SVGID_22_);fill:#FFFFFF;}
	.st11{clip-path:url(#SVGID_24_);fill:#FFFFFF;}
	.st12{clip-path:url(#SVGID_26_);fill:#FFFFFF;}
	.st13{clip-path:url(#SVGID_28_);fill:#FFFFFF;}
	.st14{clip-path:url(#SVGID_30_);fill:#FFFFFF;}
	.st15{clip-path:url(#SVGID_32_);fill:#FFFFFF;}
	.st16{clip-path:url(#SVGID_34_);fill:#FFFFFF;}
	.st17{clip-path:url(#SVGID_36_);fill:#FFFFFF;}
	.st18{clip-path:url(#SVGID_38_);fill:#FFFFFF;}
	.st19{clip-path:url(#SVGID_40_);fill:#FFFFFF;}
	.st20{clip-path:url(#SVGID_42_);fill:#FFFFFF;}
	.st21{clip-path:url(#SVGID_44_);fill:#FFFFFF;}
	.st22{clip-path:url(#SVGID_46_);fill:#FFFFFF;}
	.st23{clip-path:url(#SVGID_48_);fill:#FFFFFF;}
	.st24{clip-path:url(#SVGID_50_);fill:#FFFFFF;}
	.st25{clip-path:url(#SVGID_52_);fill:#FFFFFF;}
	.st26{clip-path:url(#SVGID_54_);fill:#FFFFFF;}
	.st27{clip-path:url(#SVGID_56_);fill:#FFFFFF;}
	.st28{clip-path:url(#SVGID_58_);fill:#FFFFFF;}
	.st29{clip-path:url(#SVGID_60_);fill:#FFFFFF;}
	.st30{clip-path:url(#SVGID_62_);fill:#FFFFFF;}
	.st31{clip-path:url(#SVGID_64_);fill:#FFFFFF;}
	.st32{clip-path:url(#SVGID_66_);fill:#FFFFFF;}
	.st33{clip-path:url(#SVGID_68_);fill:#FFFFFF;}
</style>
<g>
	<g>
		<defs>
			<path id="SVGID_1_" d="M27.1,27.5c0.1,0.1,0.2,0.2,0.3,0.2c0.1-0.1,0.2-0.2,0.2-0.3c1.5-1.9,0.8-4-1.6-4.7
				c-0.1,0-0.2-0.1-0.3-0.1C25.2,24.3,25.7,26.2,27.1,27.5"/>
		</defs>
		<use xlink:href="#SVGID_1_"  style="overflow:visible;fill:#FFFFFF;"/>
		<clipPath id="SVGID_2_">
			<use xlink:href="#SVGID_1_"  style="overflow:visible;"/>
		</clipPath>
		<rect x="25.2" y="22.6" class="st0" width="3.8" height="5.1"/>
	</g>
	<g>
		<defs>
			<path id="SVGID_3_" d="M35.9,22.8c-2.4,0.7-3.1,2.8-1.6,4.7c0.1,0.1,0.1,0.2,0.2,0.3c0.1-0.1,0.2-0.2,0.3-0.2
				c1.4-1.3,1.8-3.2,1.5-4.8C36.1,22.7,36,22.7,35.9,22.8"/>
		</defs>
		<use xlink:href="#SVGID_3_"  style="overflow:visible;fill:#FFFFFF;"/>
		<clipPath id="SVGID_4_">
			<use xlink:href="#SVGID_3_"  style="overflow:visible;"/>
		</clipPath>
		<rect x="32.8" y="22.7" class="st1" width="3.8" height="5.1"/>
	</g>
	<g>
		<defs>
			<path id="SVGID_5_" d="M28.3,28c-0.1,0.1-0.1,0.2-0.2,0.3c1.7,1,3.9,1,5.6,0c-0.1-0.1-0.1-0.2-0.2-0.3c-0.7-1-1.7-1.5-2.6-1.5
				C30,26.6,29,27,28.3,28"/>
		</defs>
		<use xlink:href="#SVGID_5_"  style="overflow:visible;fill:#FFFFFF;"/>
		<clipPath id="SVGID_6_">
			<use xlink:href="#SVGID_5_"  style="overflow:visible;"/>
		</clipPath>
		<rect x="28.1" y="26.6" class="st2" width="5.6" height="2.7"/>
	</g>
	<g>
		<defs>
			<polygon id="SVGID_7_" points="22.3,19.2 19.1,22.7 16,19.2 14,19.2 14,28.5 16.4,28.5 16.4,22.7 19,25.6 19.3,25.6 21.9,22.7 
				21.9,28.5 24.3,28.5 24.3,19.2 			"/>
		</defs>
		<use xlink:href="#SVGID_7_"  style="overflow:visible;fill:#FFFFFF;"/>
		<clipPath id="SVGID_8_">
			<use xlink:href="#SVGID_7_"  style="overflow:visible;"/>
		</clipPath>
		<rect x="14" y="19.2" class="st3" width="10.4" height="9.3"/>
	</g>
	<g>
		<defs>
			<path id="SVGID_9_" d="M40.9,19.1L40.9,19.1c-0.8,0-1.4,0.1-2,0.3c-0.5,0.2-1,0.5-1.3,0.9c-0.3,0.4-0.5,0.9-0.5,1.4
				c0,0.5,0.1,0.9,0.3,1.2c0.2,0.3,0.4,0.6,0.7,0.8c0.3,0.2,0.6,0.4,1,0.6c0.3,0.2,0.7,0.3,1,0.4c0.3,0.1,0.7,0.2,1,0.3
				c0.3,0.1,0.5,0.2,0.7,0.4c0.2,0.1,0.3,0.3,0.3,0.5c0,0.3-0.1,0.5-0.4,0.6c-0.2,0.1-0.6,0.2-1.1,0.2c-0.3,0-0.7,0-1-0.1
				c-0.3-0.1-0.7-0.2-1-0.4c-0.4-0.2-0.8-0.4-1.2-0.7v2c0.2,0.1,0.5,0.2,0.7,0.3c0.2,0.1,0.5,0.2,0.8,0.3c0.3,0.1,0.6,0.1,0.9,0.2
				c0.3,0,0.7,0.1,1.1,0.1c0.5,0,1-0.1,1.5-0.2c0.5-0.1,0.8-0.3,1.2-0.5c0.3-0.2,0.6-0.5,0.8-0.9c0.2-0.3,0.3-0.7,0.3-1.2
				c0-0.5-0.1-0.9-0.3-1.2c-0.2-0.3-0.4-0.6-0.7-0.8c-0.3-0.2-0.6-0.4-1-0.6c-0.3-0.2-0.7-0.3-1-0.4c-0.3-0.1-0.7-0.2-1-0.4
				c-0.3-0.1-0.5-0.2-0.7-0.4c-0.2-0.1-0.3-0.3-0.3-0.5c0-0.2,0.1-0.4,0.4-0.6c0.3-0.1,0.6-0.2,1-0.2c0.3,0,0.6,0,0.8,0.1
				c0.3,0.1,0.6,0.1,1,0.3c0.4,0.1,0.8,0.3,1.2,0.5v-1.8c-0.4-0.2-0.8-0.3-1.1-0.4c-0.4-0.1-0.7-0.2-1.1-0.2
				C41.6,19.1,41.2,19.1,40.9,19.1L40.9,19.1z"/>
		</defs>
		<use xlink:href="#SVGID_9_"  style="overflow:visible;fill:#FFFFFF;"/>
		<clipPath id="SVGID_10_">
			<use xlink:href="#SVGID_9_"  style="overflow:visible;"/>
		</clipPath>
		<rect x="37.2" y="19.1" class="st4" width="7.4" height="9.5"/>
	</g>
	<g>
		<defs>
			<polygon id="SVGID_11_" points="51.3,19.2 48.3,23.4 48.3,23.4 48.3,19.2 45.9,19.2 45.9,28.5 48.3,28.5 48.3,24.1 52.1,28.5 
				55.1,28.5 50.8,23.6 54,19.2 			"/>
		</defs>
		<use xlink:href="#SVGID_11_"  style="overflow:visible;fill:#FFFFFF;"/>
		<clipPath id="SVGID_12_">
			<use xlink:href="#SVGID_11_"  style="overflow:visible;"/>
		</clipPath>
		<rect x="45.9" y="19.2" class="st5" width="9.2" height="9.3"/>
	</g>
	<g>
		<defs>
			<polygon id="SVGID_13_" points="60.6,19.2 58.2,24.5 55.7,19.2 53,19.2 57.7,28.6 58.8,28.6 63.2,19.2 			"/>
		</defs>
		<use xlink:href="#SVGID_13_"  style="overflow:visible;fill:#FFFFFF;"/>
		<clipPath id="SVGID_14_">
			<use xlink:href="#SVGID_13_"  style="overflow:visible;"/>
		</clipPath>
		<rect x="53" y="19.2" class="st6" width="10.2" height="9.4"/>
	</g>
	<g>
		<defs>
			<path id="SVGID_15_" d="M66.4,21.4L68,25h-3L66.4,21.4z M65,19.2l-3.9,9.3h2.5l0.7-1.8h4.3l0.8,1.8H72l-4.3-9.3H65z"/>
		</defs>
		<use xlink:href="#SVGID_15_"  style="overflow:visible;fill:#FFFFFF;"/>
		<clipPath id="SVGID_16_">
			<use xlink:href="#SVGID_15_"  style="overflow:visible;"/>
		</clipPath>
		<rect x="61.1" y="19.2" class="st7" width="11" height="9.3"/>
	</g>
	<g>
		<defs>
			<path id="SVGID_17_" d="M31,32.3c-0.1,0-0.2,0.1-0.3,0.2c-0.1,0.1-0.2,0.1-0.2,0.2c-0.1-0.1-0.2-0.3-0.3-0.3
				c-0.1-0.1-0.3-0.1-0.4-0.1h0c-0.1,0-0.2,0-0.4,0.1c-0.1,0.1-0.2,0.2-0.4,0.3v-0.3h-0.5v2.4H29v-1.8c0.1-0.1,0.1-0.1,0.2-0.2
				c0.1,0,0.1-0.1,0.2-0.1c0.1,0,0.1,0,0.2,0c0.1,0,0.2,0,0.2,0.1c0.1,0,0.1,0.1,0.2,0.2c0,0.1,0.1,0.2,0.1,0.3v1.5h0.5v-1.8
				c0.1-0.1,0.2-0.2,0.3-0.2c0.1-0.1,0.2-0.1,0.3-0.1c0.1,0,0.2,0,0.3,0.1c0.1,0,0.1,0.1,0.2,0.2c0,0.1,0.1,0.2,0.1,0.3v1.5h0.5
				v-1.5v0c0-0.2,0-0.4-0.1-0.5c-0.1-0.1-0.2-0.3-0.3-0.3c-0.1-0.1-0.3-0.1-0.4-0.1C31.2,32.2,31.1,32.3,31,32.3"/>
		</defs>
		<use xlink:href="#SVGID_17_"  style="overflow:visible;fill:#FFFFFF;"/>
		<clipPath id="SVGID_18_">
			<use xlink:href="#SVGID_17_"  style="overflow:visible;"/>
		</clipPath>
		<rect x="28.5" y="32.2" class="st8" width="3.7" height="2.5"/>
	</g>
	<g>
		<defs>
			<path id="SVGID_19_" d="M33.5,32.8c0.1-0.1,0.3-0.2,0.5-0.2c0.2,0,0.3,0.1,0.4,0.2c0.1,0.1,0.2,0.3,0.2,0.4h-1.3
				C33.3,33.1,33.3,32.9,33.5,32.8 M33.3,32.4c-0.2,0.1-0.3,0.2-0.4,0.4c-0.1,0.2-0.2,0.4-0.2,0.6c0,0.2,0,0.3,0.1,0.5
				c0.1,0.2,0.1,0.3,0.2,0.4c0.1,0.1,0.2,0.2,0.4,0.3c0.2,0.1,0.3,0.1,0.5,0.1c0.1,0,0.3,0,0.4,0c0.1,0,0.2-0.1,0.3-0.1
				c0.1,0,0.2-0.1,0.3-0.2V34c-0.1,0.1-0.3,0.2-0.4,0.2c-0.1,0-0.3,0.1-0.4,0.1c-0.2,0-0.4-0.1-0.6-0.2c-0.1-0.1-0.2-0.3-0.3-0.5H35
				v0c0-0.3,0-0.5-0.1-0.7c-0.1-0.2-0.2-0.3-0.4-0.4c-0.2-0.1-0.4-0.1-0.6-0.1C33.7,32.2,33.5,32.3,33.3,32.4"/>
		</defs>
		<use xlink:href="#SVGID_19_"  style="overflow:visible;fill:#FFFFFF;"/>
		<clipPath id="SVGID_20_">
			<use xlink:href="#SVGID_19_"  style="overflow:visible;"/>
		</clipPath>
		<rect x="32.7" y="32.2" class="st9" width="2.3" height="2.5"/>
	</g>
	<g>
		<defs>
			<path id="SVGID_21_" d="M35.2,32.7L35.2,32.7l0.4,0.1V34c0,0.1,0,0.3,0.1,0.4c0.1,0.1,0.2,0.2,0.3,0.3c0.1,0.1,0.3,0.1,0.5,0.1
				c0.1,0,0.1,0,0.2,0c0.1,0,0.1,0,0.2-0.1c0.1,0,0.1-0.1,0.2-0.1v-0.4c-0.1,0.1-0.2,0.1-0.3,0.1c-0.1,0-0.2,0-0.3,0
				c-0.1,0-0.1,0-0.2,0c-0.1,0-0.1-0.1-0.1-0.1c0-0.1-0.1-0.1-0.1-0.2v-1.2h0.8v-0.4h-0.8v-0.5L35.2,32.7z"/>
		</defs>
		<use xlink:href="#SVGID_21_"  style="overflow:visible;fill:#FFFFFF;"/>
		<clipPath id="SVGID_22_">
			<use xlink:href="#SVGID_21_"  style="overflow:visible;"/>
		</clipPath>
		<rect x="35.2" y="31.8" class="st10" width="1.9" height="3"/>
	</g>
	<g>
		<defs>
			<path id="SVGID_23_" d="M38.7,32.2c-0.1,0-0.2,0-0.4,0.1c-0.1,0.1-0.2,0.3-0.4,0.5h0v-0.6h-0.5v2.4h0.5v-1.3c0-0.1,0-0.3,0.1-0.4
				c0.1-0.1,0.1-0.2,0.2-0.3c0.1-0.1,0.2-0.1,0.3-0.1c0,0,0.1,0,0.1,0c0.1,0,0.1,0,0.2,0.1c0.1,0,0.1,0.1,0.2,0.1l0.3-0.4
				c-0.1-0.1-0.2-0.2-0.3-0.2C38.9,32.3,38.8,32.2,38.7,32.2L38.7,32.2z"/>
		</defs>
		<use xlink:href="#SVGID_23_"  style="overflow:visible;fill:#FFFFFF;"/>
		<clipPath id="SVGID_24_">
			<use xlink:href="#SVGID_23_"  style="overflow:visible;"/>
		</clipPath>
		<rect x="37.4" y="32.2" class="st11" width="1.8" height="2.5"/>
	</g>
	<g>
		<defs>
			<path id="SVGID_25_" d="M40.4,34.2c-0.1-0.1-0.2-0.2-0.3-0.3C40,33.8,40,33.6,40,33.5c0-0.2,0-0.3,0.1-0.4
				c0.1-0.1,0.2-0.2,0.3-0.3c0.1-0.1,0.3-0.1,0.4-0.1c0.2,0,0.3,0,0.4,0.1c0.1,0.1,0.2,0.2,0.3,0.3c0.1,0.1,0.1,0.3,0.1,0.4
				c0,0.2,0,0.3-0.1,0.5c-0.1,0.1-0.2,0.2-0.3,0.3c-0.1,0.1-0.3,0.1-0.5,0.1C40.7,34.3,40.5,34.3,40.4,34.2 M40.8,32.2
				c-0.2,0-0.4,0-0.5,0.1c-0.2,0.1-0.3,0.2-0.4,0.3c-0.1,0.1-0.2,0.2-0.3,0.4c-0.1,0.1-0.1,0.3-0.1,0.5v0c0,0.2,0.1,0.5,0.2,0.7
				c0.1,0.2,0.3,0.3,0.5,0.5c0.2,0.1,0.4,0.2,0.7,0.2c0.3,0,0.5-0.1,0.7-0.2c0.2-0.1,0.4-0.3,0.5-0.4c0.1-0.2,0.2-0.4,0.2-0.7
				c0-0.2-0.1-0.5-0.2-0.6c-0.1-0.2-0.3-0.3-0.5-0.4C41.3,32.3,41.1,32.2,40.8,32.2L40.8,32.2z"/>
		</defs>
		<use xlink:href="#SVGID_25_"  style="overflow:visible;fill:#FFFFFF;"/>
		<clipPath id="SVGID_26_">
			<use xlink:href="#SVGID_25_"  style="overflow:visible;"/>
		</clipPath>
		<rect x="39.5" y="32.2" class="st12" width="2.7" height="2.5"/>
	</g>
	<g>
		<defs>
			<path id="SVGID_27_" d="M43.4,34.3c-0.1,0-0.2,0-0.2-0.1v-1.5h0.5c0.2,0,0.3,0,0.4,0.1c0.1,0.1,0.2,0.2,0.3,0.3
				c0.1,0.1,0.1,0.3,0.1,0.4c0,0.2,0,0.3-0.1,0.4c-0.1,0.1-0.2,0.2-0.3,0.3c-0.1,0.1-0.3,0.1-0.4,0.1C43.6,34.3,43.5,34.3,43.4,34.3
				 M42.7,32.3V36h0.5v-1.3c0.1,0,0.2,0.1,0.3,0.1c0.1,0,0.2,0,0.2,0c0.3,0,0.5-0.1,0.7-0.2c0.2-0.1,0.3-0.3,0.5-0.4
				c0.1-0.2,0.2-0.4,0.2-0.6c0-0.4-0.1-0.7-0.4-0.9c-0.2-0.2-0.6-0.3-1.1-0.3H42.7z"/>
		</defs>
		<use xlink:href="#SVGID_27_"  style="overflow:visible;fill:#FFFFFF;"/>
		<clipPath id="SVGID_28_">
			<use xlink:href="#SVGID_27_"  style="overflow:visible;"/>
		</clipPath>
		<rect x="42.7" y="32.3" class="st13" width="2.3" height="3.7"/>
	</g>
	<g>
		<defs>
			<path id="SVGID_29_" d="M46.3,34.2c-0.1-0.1-0.2-0.2-0.3-0.3c-0.1-0.1-0.1-0.3-0.1-0.4c0-0.2,0-0.3,0.1-0.4
				c0.1-0.1,0.2-0.2,0.3-0.3c0.1-0.1,0.3-0.1,0.4-0.1c0.2,0,0.3,0,0.4,0.1c0.1,0.1,0.2,0.2,0.3,0.3c0.1,0.1,0.1,0.3,0.1,0.4
				c0,0.2,0,0.3-0.1,0.5c-0.1,0.1-0.2,0.2-0.3,0.3c-0.1,0.1-0.3,0.1-0.5,0.1C46.6,34.3,46.4,34.3,46.3,34.2 M46.7,32.2
				c-0.2,0-0.4,0-0.5,0.1c-0.2,0.1-0.3,0.2-0.4,0.3c-0.1,0.1-0.2,0.2-0.3,0.4c-0.1,0.1-0.1,0.3-0.1,0.5c0,0.2,0.1,0.5,0.2,0.7
				c0.1,0.2,0.3,0.3,0.5,0.5c0.2,0.1,0.4,0.2,0.7,0.2c0.3,0,0.5-0.1,0.7-0.2c0.2-0.1,0.4-0.3,0.5-0.4c0.1-0.2,0.2-0.4,0.2-0.7
				c0-0.2-0.1-0.5-0.2-0.6c-0.1-0.2-0.3-0.3-0.5-0.4C47.2,32.3,47,32.2,46.7,32.2L46.7,32.2z"/>
		</defs>
		<use xlink:href="#SVGID_29_"  style="overflow:visible;fill:#FFFFFF;"/>
		<clipPath id="SVGID_30_">
			<use xlink:href="#SVGID_29_"  style="overflow:visible;"/>
		</clipPath>
		<rect x="45.4" y="32.2" class="st14" width="2.7" height="2.5"/>
	</g>
	<g>
		<defs>
			<rect id="SVGID_31_" x="48.7" y="31" width="0.5" height="3.7"/>
		</defs>
		<use xlink:href="#SVGID_31_"  style="overflow:visible;fill:#FFFFFF;"/>
		<clipPath id="SVGID_32_">
			<use xlink:href="#SVGID_31_"  style="overflow:visible;"/>
		</clipPath>
		<rect x="48.7" y="31" class="st15" width="0.5" height="3.7"/>
	</g>
	<g>
		<defs>
			<path id="SVGID_33_" d="M49.9,34.7h0.5v-2.4h-0.5V34.7z M50,31.3c-0.1,0.1-0.1,0.1-0.1,0.2c0,0.1,0,0.1,0.1,0.2
				c0.1,0.1,0.1,0.1,0.2,0.1c0.1,0,0.2,0,0.2-0.1c0.1-0.1,0.1-0.1,0.1-0.2c0-0.1,0-0.1-0.1-0.2c-0.1-0.1-0.1-0.1-0.2-0.1
				C50.1,31.3,50,31.3,50,31.3"/>
		</defs>
		<use xlink:href="#SVGID_33_"  style="overflow:visible;fill:#FFFFFF;"/>
		<clipPath id="SVGID_34_">
			<use xlink:href="#SVGID_33_"  style="overflow:visible;"/>
		</clipPath>
		<rect x="49.9" y="31.3" class="st16" width="0.6" height="3.4"/>
	</g>
	<g>
		<defs>
			<path id="SVGID_35_" d="M50.8,32.7L50.8,32.7l0.4,0.1V34c0,0.1,0,0.3,0.1,0.4c0.1,0.1,0.2,0.2,0.3,0.3c0.1,0.1,0.3,0.1,0.5,0.1
				c0.1,0,0.1,0,0.2,0c0.1,0,0.1,0,0.2-0.1c0.1,0,0.1-0.1,0.2-0.1v-0.4c-0.1,0.1-0.2,0.1-0.3,0.1c-0.1,0-0.2,0-0.3,0
				c-0.1,0-0.1,0-0.2,0c-0.1,0-0.1-0.1-0.1-0.1c0-0.1-0.1-0.1-0.1-0.2v-1.2h0.8v-0.4h-0.8v-0.5L50.8,32.7z"/>
		</defs>
		<use xlink:href="#SVGID_35_"  style="overflow:visible;fill:#FFFFFF;"/>
		<clipPath id="SVGID_36_">
			<use xlink:href="#SVGID_35_"  style="overflow:visible;"/>
		</clipPath>
		<rect x="50.8" y="31.8" class="st17" width="1.9" height="3"/>
	</g>
	<g>
		<defs>
			<path id="SVGID_37_" d="M53.4,34.3c-0.1-0.1-0.1-0.1-0.1-0.2c0-0.1,0-0.2,0.1-0.2c0.1-0.1,0.2-0.1,0.3-0.2
				c0.1-0.1,0.3-0.1,0.4-0.1v0.7c-0.1,0.1-0.1,0.1-0.2,0.1c-0.1,0-0.1,0.1-0.2,0.1C53.6,34.4,53.5,34.4,53.4,34.3 M53.7,32.2
				c-0.2,0-0.3,0-0.5,0.1c-0.1,0.1-0.3,0.1-0.4,0.2v0.5c0.1-0.1,0.3-0.2,0.4-0.3c0.1-0.1,0.3-0.1,0.4-0.1c0.2,0,0.3,0,0.3,0.1
				c0.1,0.1,0.1,0.2,0.1,0.3v0.1l-0.4,0.2c-0.2,0.1-0.3,0.1-0.5,0.2c-0.1,0.1-0.2,0.1-0.3,0.2c-0.1,0.1-0.1,0.2-0.1,0.4
				c0,0.1,0,0.2,0.1,0.3c0.1,0.1,0.1,0.2,0.2,0.2c0.1,0.1,0.2,0.1,0.3,0.1c0.1,0,0.2,0,0.3-0.1c0.1,0,0.2-0.1,0.3-0.2
				c0,0.1,0.1,0.1,0.1,0.2c0.1,0,0.1,0.1,0.3,0.1c0.1,0,0.1,0,0.1,0c0,0,0.1,0,0.1-0.1c0.1,0,0.1-0.1,0.2-0.1v-0.3
				c-0.1,0-0.1,0.1-0.2,0.1c0,0-0.1,0-0.1,0c0,0-0.1,0-0.1,0c0,0,0-0.1,0-0.1V33c0-0.2,0-0.3-0.1-0.5c-0.1-0.1-0.2-0.2-0.3-0.3
				C54,32.3,53.9,32.2,53.7,32.2L53.7,32.2z"/>
		</defs>
		<use xlink:href="#SVGID_37_"  style="overflow:visible;fill:#FFFFFF;"/>
		<clipPath id="SVGID_38_">
			<use xlink:href="#SVGID_37_"  style="overflow:visible;"/>
		</clipPath>
		<rect x="52.8" y="32.2" class="st18" width="2.2" height="2.5"/>
	</g>
	<g>
		<defs>
			<path id="SVGID_39_" d="M56.3,32.3c-0.1,0.1-0.2,0.2-0.3,0.3h0v-0.3h-0.5v2.4h0.5V33c0.1-0.1,0.2-0.2,0.3-0.3
				c0.1-0.1,0.2-0.1,0.3-0.1c0.1,0,0.2,0,0.3,0.1c0.1,0,0.1,0.1,0.2,0.2c0,0.1,0.1,0.2,0.1,0.3v1.5h0.5v-1.5c0-0.2,0-0.4-0.1-0.5
				c-0.1-0.1-0.2-0.3-0.3-0.3c-0.1-0.1-0.3-0.1-0.4-0.1C56.5,32.2,56.4,32.3,56.3,32.3"/>
		</defs>
		<use xlink:href="#SVGID_39_"  style="overflow:visible;fill:#FFFFFF;"/>
		<clipPath id="SVGID_40_">
			<use xlink:href="#SVGID_39_"  style="overflow:visible;"/>
		</clipPath>
		<rect x="55.4" y="32.2" class="st19" width="2.1" height="2.5"/>
	</g>
	<g>
		<defs>
			<path id="SVGID_41_" d="M27.1,20.1c-0.5,0.5-0.9,1-1.1,1.6c0.1,0,0.2,0.1,0.3,0.1c2.4,0.8,4.2-0.5,4.2-2.9c0-0.1,0-0.2,0-0.3
				C29.2,18.7,28,19.2,27.1,20.1"/>
		</defs>
		<use xlink:href="#SVGID_41_"  style="overflow:visible;fill:#FFFFFF;"/>
		<clipPath id="SVGID_42_">
			<use xlink:href="#SVGID_41_"  style="overflow:visible;"/>
		</clipPath>
		<rect x="26" y="18.6" class="st20" width="4.6" height="4"/>
	</g>
	<g>
		<defs>
			<path id="SVGID_43_" d="M31.4,19c0,2.4,1.8,3.7,4.2,2.9c0.1,0,0.2-0.1,0.3-0.1c-0.3-0.6-0.7-1.2-1.2-1.6
				c-0.9-0.9-2.1-1.4-3.3-1.5C31.4,18.8,31.4,18.9,31.4,19"/>
		</defs>
		<use xlink:href="#SVGID_43_"  style="overflow:visible;fill:#FFFFFF;"/>
		<clipPath id="SVGID_44_">
			<use xlink:href="#SVGID_43_"  style="overflow:visible;"/>
		</clipPath>
		<rect x="31.4" y="18.6" class="st21" width="4.5" height="4"/>
	</g>
	<g>
		<defs>
			<path id="SVGID_45_" d="M24.4,8.9c0,2.4,2.2,4.4,4.9,4.4v0h0c0.1,0,0.3,0,0.4,0v-2.1c-0.1,0-0.3,0-0.4,0c-1.5,0-2.7-1-2.7-2.3
				c0-1.3,1.2-2.3,2.7-2.3c0.1,0,0.3,0,0.4,0V4.5c-0.1,0-0.3,0-0.4,0C26.7,4.5,24.4,6.5,24.4,8.9"/>
		</defs>
		<use xlink:href="#SVGID_45_"  style="overflow:visible;fill:#FFFFFF;"/>
		<clipPath id="SVGID_46_">
			<use xlink:href="#SVGID_45_"  style="overflow:visible;"/>
		</clipPath>
		<rect x="24.4" y="4.5" class="st22" width="5.4" height="8.8"/>
	</g>
	<g>
		<defs>
			<polygon id="SVGID_47_" points="5.5,2.2 2,6 2,2.2 0,2.2 0,10.9 2,10.9 2,8.2 3,7.2 5.8,10.9 8.3,10.9 4.4,5.9 8,2.2 			"/>
		</defs>
		<use xlink:href="#SVGID_47_"  style="overflow:visible;fill:#FFFFFF;"/>
		<clipPath id="SVGID_48_">
			<use xlink:href="#SVGID_47_"  style="overflow:visible;"/>
		</clipPath>
		<rect x="0" y="2.2" class="st23" width="8.3" height="8.7"/>
	</g>
	<g>
		<defs>
			<polygon id="SVGID_49_" points="21.1,2.2 21,7.6 16.8,2.2 15,2.2 15,10.9 16.9,10.9 16.9,5.4 21.3,10.9 23,10.9 23,2.2 			"/>
		</defs>
		<use xlink:href="#SVGID_49_"  style="overflow:visible;fill:#FFFFFF;"/>
		<clipPath id="SVGID_50_">
			<use xlink:href="#SVGID_49_"  style="overflow:visible;"/>
		</clipPath>
		<rect x="15" y="2.2" class="st24" width="8" height="8.7"/>
	</g>
	<g>
		<defs>
			<rect id="SVGID_51_" x="10.1" y="2.2" width="2" height="8.7"/>
		</defs>
		<use xlink:href="#SVGID_51_"  style="overflow:visible;fill:#FFFFFF;"/>
		<clipPath id="SVGID_52_">
			<use xlink:href="#SVGID_51_"  style="overflow:visible;"/>
		</clipPath>
		<rect x="10.1" y="2.2" class="st25" width="2" height="8.7"/>
	</g>
	<g>
		<defs>
			<path id="SVGID_53_" d="M30.2,0c-0.1,0-0.3,0-0.4,0v2.1c0.1,0,0.3,0,0.4,0c1.5,0,2.7,1,2.7,2.3c0,1.3-1.2,2.3-2.7,2.3
				c-0.1,0-0.3,0-0.4,0v2.1c0.1,0,0.3,0,0.4,0v0c2.7,0,4.9-2,4.9-4.4C35.2,2,33,0,30.2,0L30.2,0z"/>
		</defs>
		<use xlink:href="#SVGID_53_"  style="overflow:visible;fill:#FFFFFF;"/>
		<clipPath id="SVGID_54_">
			<use xlink:href="#SVGID_53_"  style="overflow:visible;"/>
		</clipPath>
		<rect x="29.8" y="0" class="st26" width="5.4" height="8.8"/>
	</g>
	<g>
		<defs>
			<path id="SVGID_55_" d="M49.3,4.6L49.3,4.6l1.2,2.7h-1.2h-1.2L49.3,4.6z M48.4,2.2l-3.8,8.7h2L47.4,9h1.9h1.9l0.8,1.9h2.1
				l-3.8-8.7H48.4z"/>
		</defs>
		<use xlink:href="#SVGID_55_"  style="overflow:visible;fill:#FFFFFF;"/>
		<clipPath id="SVGID_56_">
			<use xlink:href="#SVGID_55_"  style="overflow:visible;"/>
		</clipPath>
		<rect x="44.6" y="2.2" class="st27" width="9.5" height="8.7"/>
	</g>
	<g>
		<defs>
			<path id="SVGID_57_" d="M39,4.1h1.4c0.1,0,0.1,0,0.2,0c0.8,0,1.5,0.3,1.5,1.2c0,0.9-0.5,1.4-1.4,1.4h-0.1H39V4.1z M40.5,2.2h-3.6
				v8.7h2V8.3h1.5h0.3c1.7,0,3.2-1.3,3.3-2.9c0-1.6-1-3.2-3.1-3.2H40.5z"/>
		</defs>
		<use xlink:href="#SVGID_57_"  style="overflow:visible;fill:#FFFFFF;"/>
		<clipPath id="SVGID_58_">
			<use xlink:href="#SVGID_57_"  style="overflow:visible;"/>
		</clipPath>
		<rect x="36.9" y="2.2" class="st28" width="7.2" height="8.7"/>
	</g>
	<g>
		<defs>
			<path id="SVGID_59_" d="M58.1,3.9h1.6c0.1,0,0.1,0,0.2,0c0.9,0,1.7,0.3,1.7,1.2c0,0.9-0.5,1.4-1.6,1.4v0h-0.1h-1.7V3.9z
				 M59.9,2.2h-3.8v8.7h2V8.1h1.5l0.2,0.4l1.7,2.4h2.3l-2.2-3.1c1.1-0.4,1.9-1.4,1.9-2.6c0-1.6-1-3-3.1-3H59.9z"/>
		</defs>
		<use xlink:href="#SVGID_59_"  style="overflow:visible;fill:#FFFFFF;"/>
		<clipPath id="SVGID_60_">
			<use xlink:href="#SVGID_59_"  style="overflow:visible;"/>
		</clipPath>
		<rect x="56.1" y="2.2" class="st29" width="7.8" height="8.7"/>
	</g>
	<g>
		<defs>
			<polygon id="SVGID_61_" points="71.5,2.2 68,6 68,2.2 66,2.2 66,10.9 68,10.9 68,8.2 69,7.2 71.8,10.9 74.3,10.9 70.3,5.9 
				74,2.2 			"/>
		</defs>
		<use xlink:href="#SVGID_61_"  style="overflow:visible;fill:#FFFFFF;"/>
		<clipPath id="SVGID_62_">
			<use xlink:href="#SVGID_61_"  style="overflow:visible;"/>
		</clipPath>
		<rect x="66" y="2.2" class="st30" width="8.3" height="8.7"/>
	</g>
	<g>
		<defs>
			<path id="SVGID_63_" d="M80.5,6.8L80.5,6.8c-0.2,0-0.4,0.1-0.6,0.3c-0.2,0.2-0.2,0.4-0.2,0.7v0c0,0.3,0.1,0.5,0.3,0.7
				c0.2,0.2,0.4,0.3,0.6,0.3c0.2,0,0.4-0.1,0.6-0.3c0.2-0.2,0.3-0.4,0.3-0.7c0-0.3-0.1-0.5-0.3-0.7C81,6.9,80.8,6.8,80.5,6.8
				L80.5,6.8z"/>
		</defs>
		<use xlink:href="#SVGID_63_"  style="overflow:visible;fill:#FFFFFF;"/>
		<clipPath id="SVGID_64_">
			<use xlink:href="#SVGID_63_"  style="overflow:visible;"/>
		</clipPath>
		<rect x="79.7" y="6.8" class="st31" width="1.7" height="1.9"/>
	</g>
	<g>
		<defs>
			<path id="SVGID_65_" d="M80.5,4.4L80.5,4.4c-0.2,0-0.4,0.1-0.5,0.2c-0.1,0.1-0.2,0.3-0.2,0.5c0,0.2,0.1,0.4,0.2,0.5
				c0.1,0.1,0.3,0.2,0.6,0.2c0.2,0,0.4-0.1,0.5-0.2c0.1-0.1,0.2-0.3,0.2-0.5c0-0.2-0.1-0.4-0.2-0.5C80.9,4.5,80.7,4.4,80.5,4.4
				L80.5,4.4z"/>
		</defs>
		<use xlink:href="#SVGID_65_"  style="overflow:visible;fill:#FFFFFF;"/>
		<clipPath id="SVGID_66_">
			<use xlink:href="#SVGID_65_"  style="overflow:visible;"/>
		</clipPath>
		<rect x="79.8" y="4.4" class="st32" width="1.5" height="1.4"/>
	</g>
	<g>
		<defs>
			<path id="SVGID_67_" d="M79,9.5c-0.4-0.2-0.6-0.4-0.8-0.7c-0.2-0.3-0.3-0.6-0.3-1c0-0.4,0.1-0.7,0.3-0.9c0.2-0.2,0.4-0.4,0.8-0.6
				c-0.3-0.1-0.5-0.3-0.6-0.5c-0.2-0.2-0.3-0.5-0.3-0.8c0-0.5,0.3-0.9,0.8-1.3c0.4-0.3,0.9-0.4,1.6-0.4c0.9,0,1.5,0.2,1.9,0.5
				C82.7,4.1,83,4.5,83,5c0,0.3-0.1,0.5-0.2,0.8c-0.1,0.2-0.3,0.4-0.6,0.5c0.3,0.2,0.6,0.4,0.8,0.6c0.2,0.3,0.3,0.6,0.3,0.9
				c0,0.3-0.1,0.6-0.2,0.9c-0.1,0.3-0.3,0.5-0.5,0.6c-0.2,0.1-0.5,0.3-0.8,0.3c-0.3,0.1-0.7,0.1-1,0.1C79.9,9.7,79.4,9.6,79,9.5
				 M75.1,6.5c0,2.9,2.4,5.2,5.5,5.2c3,0,5.5-2.3,5.5-5.2c0-2.9-2.4-5.2-5.5-5.2C77.5,1.3,75.1,3.7,75.1,6.5"/>
		</defs>
		<use xlink:href="#SVGID_67_"  style="overflow:visible;fill:#FFFFFF;"/>
		<clipPath id="SVGID_68_">
			<use xlink:href="#SVGID_67_"  style="overflow:visible;"/>
		</clipPath>
		<rect x="75.1" y="1.3" class="st33" width="10.9" height="10.4"/>
	</g>
</g>
</svg>
