<?xml version="1.0" encoding="utf-8"?>
<!-- Generator: Adobe Illustrator 19.2.1, SVG Export Plug-In . SVG Version: 6.00 Build 0)  -->
<svg version="1.1" id="Layer_1" xmlns="http://www.w3.org/2000/svg" xmlns:xlink="http://www.w3.org/1999/xlink" x="0px" y="0px"
	 width="196px" height="99px" viewBox="0 0 196 99" style="enable-background:new 0 0 196 99;" xml:space="preserve">
<style type="text/css">
	.st0{fill:#FFFFFF;}
</style>
<g>
	<g>
		<path class="st0" d="M15.9,5.9c1.1-3,3.7-5.4,7-5.4c3.5,0,5.9,2.3,7,5.4l12.8,35.6c0.4,1,0.5,2,0.5,2.4c0,2.6-2.1,4.3-4.5,4.3
			c-2.7,0-4.1-1.4-4.8-3.4l-2-6.1H13.8l-2,6.1c-0.7,2-2,3.5-4.7,3.5c-2.6,0-4.8-2-4.8-4.6c0-1,0.3-1.8,0.5-2.2L15.9,5.9z M16.7,29.6
			h12.4l-6.1-19h-0.1L16.7,29.6z"/>
		<path class="st0" d="M47.8,17.2c0-2.3,1.8-4.1,4.1-4.1h15.8c2.4,0,4.5,1.1,4.5,4.1c0,2.9-2.1,4.1-4.5,4.1H57.2V43
			c0,3.1-2,5.2-4.7,5.2s-4.7-2.1-4.7-5.2V17.2z"/>
		<path class="st0" d="M74.4,19.1c-0.3-0.7-0.5-1.4-0.5-2.4c0-2.4,2.5-4.1,4.4-4.1c2.3,0,3.9,1.2,4.7,3.3l6.5,17.7l7-17.6
			c0.8-2.1,2.4-3.3,4.7-3.3c2,0,4.4,1.7,4.4,4.1c0,1-0.1,1.7-0.5,2.4L89.4,58.4c-0.8,2-2.2,3.7-4.4,3.7c-3.2,0-4.9-2-4.9-4.1
			c0-0.9,0.3-1.9,0.6-2.7l4.1-10.2L74.4,19.1z"/>
		<path class="st0" d="M110.3,42.6V17.9c0-3.1,2-5.2,4.7-5.2s4.7,2.1,4.7,5.2v21.7h9.5V17.9c0-3.1,2-5.2,4.7-5.2s4.7,2.1,4.7,5.2
			v21.7h9.5V17.9c0-3.1,2-5.2,4.7-5.2s4.7,2.1,4.7,5.2v24.7c0,3.1-2,5.2-4.7,5.2h-37.8C112.1,47.8,110.3,45.7,110.3,42.6z"/>
		<path class="st0" d="M176.3,48.6c-7.6,0-13-3.9-13-11.3c0-10.9,12.8-12.2,21.5-12.2v-2.6c0-1.8-1.5-2.5-4.1-2.5
			c-5.5,0-6.5,3.2-9,3.2c-2.9,0-4.1-2.1-4.1-4c0-3.8,7.5-7.1,13.1-7.1c8.7,0,13.5,3.7,13.5,10.5V43c0,2.7-1.8,5-4.6,5
			c-2,0-3.7-0.5-4.4-3.5C183.6,47.3,179.4,48.6,176.3,48.6z M178.1,40.8c4.9,0,7.1-2.6,7.1-7.1v-1.5c-5.7,0-12.8-0.6-12.8,5.2
			C172.3,39.9,175.3,40.8,178.1,40.8z"/>
	</g>
	<g>
		<path class="st0" d="M11.8,92.5c-1.2,0-2-0.9-2-2.3v-9.4H4.6v9.4c0,1.4-0.9,2.3-2,2.3c-1.2,0-2-0.9-2-2.3V79.5
			c0-1.4,0.9-2.3,2-2.3h9.4c1.2,0,2,0.9,2,2.3v10.7C13.8,91.6,13.1,92.5,11.8,92.5z"/>
		<path class="st0" d="M17.1,79.3c0-1.4,0.9-2.3,2-2.3s1.8,0.6,2,1.7c0.8-1.2,2.4-1.9,3.9-1.9c4.4,0,6.6,4.1,6.6,8.1
			c0,3.9-2.6,7.7-6.7,7.7c-1.3,0-2.7-0.5-3.7-1.4v5c0,1.4-0.9,2.3-2,2.3c-1.2,0-2-0.9-2-2.3L17.1,79.3L17.1,79.3z M24.4,88.9
			c2.1,0,3.2-2.2,3.2-4.1s-1-4.2-3.2-4.2s-3.2,2-3.2,4C21.2,86.7,22.2,88.9,24.4,88.9z"/>
		<path class="st0" d="M37.5,86.2c0.3,2,2,3,3.9,3c2.1,0,3.5-1.6,4.6-1.6c0.9,0,1.7,0.9,1.7,1.8c0,1.8-3.6,3.5-6.7,3.5
			c-4.6,0-7.7-3.3-7.7-7.9c0-4.1,3-7.9,7.3-7.9c4.4,0,7.3,4,7.3,7.4c0,1.2-0.5,1.8-1.8,1.8h-8.6V86.2z M44,83.4
			c-0.2-1.8-1.4-3.1-3.3-3.1c-1.8,0-3,1.4-3.2,3.1H44z"/>
		<path class="st0" d="M64.1,96.7c-1.2,0-2-0.9-2-2.3v-2h-8.7v2c0,1.4-0.9,2.3-2,2.3s-2-0.9-2-2.3V91c0-1.4,0.9-2.3,2-2.3h0.2
			c0.8-2.7,1-5.7,1-9.3c0-1.5,0.9-2.3,2-2.3h7.3c1.2,0,2,0.9,2,2.3v9.3h0.2c1.2,0,2,0.9,2,2.3v3.3C66.1,95.7,65.3,96.7,64.1,96.7z
			 M60,80.5h-3.5c-0.1,3.1-0.4,6-1,8.5H60V80.5z"/>
		<path class="st0" d="M78.3,81.4c-1,0-1.9-0.8-3.2-0.8c-2.3,0-3.4,2.1-3.4,4.2c0,2,1.2,4.1,3.4,4.1c1,0,2.6-0.9,3-0.9
			c1,0,1.8,0.8,1.8,1.8c0,2.1-3.5,2.8-5,2.8c-4.4,0-7.3-3.6-7.3-7.9c0-4.1,3-7.9,7.3-7.9c1.6,0,5,0.6,5,2.6
			C79.8,80.3,79.3,81.4,78.3,81.4z"/>
		<path class="st0" d="M85.5,80.8h-2.9c-1.1,0-1.8-0.7-1.8-1.8c0-1,0.8-1.8,1.8-1.8h9.8c1,0,2,0.5,2,1.8s-0.9,1.8-2,1.8h-2.9v9.4
			c0,1.4-0.9,2.3-2,2.3c-1.2,0-2-0.9-2-2.3V80.8z"/>
		<path class="st0" d="M101.6,92.7c-3.3,0-5.6-1.7-5.6-4.9c0-4.7,5.5-5.3,9.3-5.3v-1.1c0-0.8-0.7-1.1-1.8-1.1
			c-2.4,0-2.8,1.4-3.9,1.4c-1.3,0-1.8-0.9-1.8-1.7c0-1.6,3.3-3.1,5.7-3.1c3.8,0,5.9,1.6,5.9,4.6v8.9c0,1.2-0.8,2.2-2,2.2
			c-0.9,0-1.6-0.2-1.9-1.5C104.8,92.1,103,92.7,101.6,92.7z M102.3,89.3c2.1,0,3.1-1.1,3.1-3.1v-0.7c-2.5,0-5.6-0.3-5.6,2.2
			C99.9,88.9,101.1,89.3,102.3,89.3z"/>
		<path class="st0" d="M112.4,79.1c0-1,0.9-1.9,2-1.9h5.5c2.2,0,4,1.5,4,3.7c0,1.5-0.6,2.5-2,3.1v0.1c1.8,0.3,3.2,1.8,3.2,3.6
			c0,3-2,4.6-4.9,4.6h-5.8c-1,0-2-0.9-2-1.9C112.4,90.4,112.4,79.1,112.4,79.1z M116.4,83.2h1.6c1,0,1.7-0.6,1.7-1.7
			c0-1-0.8-1.5-1.7-1.5h-1.6V83.2z M116.4,89.5h2.5c1.1,0,2-0.7,2-1.8c0-1-0.8-1.7-2.2-1.7h-2.2v3.5H116.4z"/>
		<path class="st0" d="M131.9,77.2h7.5c1.2,0,2,0.9,2,2.3v10.7c0,1.4-0.9,2.3-2,2.3c-1.2,0-2-0.9-2-2.3v-9.4h-3.5V85
			c0,5-2.2,7.5-5.2,7.5c-1.1,0-1.8-0.9-1.8-1.8c0-0.7,0.5-1.4,1.2-1.7c0.8-0.3,1.7-1.1,1.7-3.5v-6C129.8,78.2,130.8,77.2,131.9,77.2
			z"/>
		<path class="st0" d="M144.4,82c0-3.3,2-4.8,5.3-4.8h4.2c1.2,0,2,0.9,2,2.3v10.7c0,1.4-0.9,2.3-2,2.3c-1.2,0-2-0.9-2-2.3v-3.6h-0.1
			l-4.3,5.2c-0.4,0.5-1,0.7-1.5,0.7c-1.1,0-1.9-1-1.9-2c0-0.4,0.1-0.8,0.5-1.1l3.2-3.5C145.9,85.5,144.4,84.2,144.4,82z M151.9,80.2
			h-1.4c-1.2,0-2,0.7-2,1.9c0,1.2,0.8,1.9,2,1.9h1.4V80.2z"/>
		<path class="st0" d="M162.4,86.2c0.3,2,2,3,3.9,3c2.1,0,3.5-1.6,4.6-1.6c0.9,0,1.7,0.9,1.7,1.8c0,1.8-3.6,3.5-6.7,3.5
			c-4.6,0-7.7-3.3-7.7-7.9c0-4.1,3-7.9,7.3-7.9c4.4,0,7.3,4,7.3,7.4c0,1.2-0.5,1.8-1.8,1.8h-8.6V86.2z M168.8,83.4
			c-0.2-1.8-1.4-3.1-3.3-3.1c-1.8,0-3,1.4-3.2,3.1H168.8z"/>
		<path class="st0" d="M178.8,80.8h-2.9c-1.1,0-1.8-0.7-1.8-1.8c0-1,0.8-1.8,1.8-1.8h9.8c1,0,2,0.5,2,1.8s-0.9,1.8-2,1.8h-2.9v9.4
			c0,1.4-0.9,2.3-2,2.3c-1.2,0-2-0.9-2-2.3L178.8,80.8L178.8,80.8z"/>
		<path class="st0" d="M191.1,90.5c0-1.2,1-2.2,2.2-2.2s2.2,1,2.2,2.2s-1,2.2-2.2,2.2S191.1,91.7,191.1,90.5z M191.1,73.7
			c0-1.2,0.9-1.9,2-1.9s2,0.8,2,1.9v10.9c0,1.2-0.9,1.9-2,1.9c-1.2,0-2-0.7-2-1.9V73.7z"/>
	</g>
</g>
</svg>
