<?xml version="1.0" encoding="utf-8"?>
<!-- Generator: Adobe Illustrator 19.2.1, SVG Export Plug-In . SVG Version: 6.00 Build 0)  -->
<svg version="1.1" id="Layer_1" xmlns="http://www.w3.org/2000/svg" xmlns:xlink="http://www.w3.org/1999/xlink" x="0px" y="0px"
	 width="360px" height="220px" viewBox="0 0 360 220" style="enable-background:new 0 0 360 220;" xml:space="preserve">
<style type="text/css">
	.st0{fill:#40C1F2;}
</style>
<g>
	<g>
		<path class="st0" d="M42.3,19.6c-4,0-7.6-3.1-12.7-3.1c-9.2,0-13.5,8.1-13.5,16.4c0,7.9,4.8,16.2,13.5,16.2c4,0,10-3.3,11.9-3.3
			c3.8,0,6.9,3.2,6.9,7c0,8.3-13.8,11.1-19.6,11.1C11.5,63.8,0,49.7,0,32.9C0,16.6,11.8,1.8,28.8,1.8c6.4,0,19.6,2.3,19.6,10.2
			C48.4,15.3,46.1,19.6,42.3,19.6z"/>
		<path class="st0" d="M67,38.2c1.1,7.9,7.7,11.6,15.2,11.6c8.3,0,14-6.5,18.2-6.5c3.5,0,6.6,3.5,6.6,6.9c0,6.9-14.3,13.6-26.2,13.6
			c-18.1,0-30.1-13.2-30.1-30.9c0-16.3,11.8-31.1,28.8-31.1c17.4,0,28.9,15.9,28.9,29.2c0,4.8-2.1,7.1-7,7.1H67z M92.2,27.5
			c-0.9-7-5.4-12.3-12.8-12.3c-7.1,0-11.9,5.5-12.7,12.3H92.2z"/>
		<path class="st0" d="M134.2,63.8c-12.9,0-22.2-6.6-22.2-19.2c0-18.5,21.8-20.9,36.6-20.9v-4.4c0-3.1-2.6-4.2-7-4.2
			c-9.4,0-11.1,5.5-15.3,5.5c-5,0-7-3.6-7-6.8c0-6.5,12.8-12.1,22.3-12.1c14.8,0,23.1,6.4,23.1,18v34.8c0,4.7-3.1,8.6-7.8,8.6
			c-3.5,0-6.4-0.9-7.6-5.9C146.5,61.6,139.5,63.8,134.2,63.8z M137.1,50.5c8.4,0,12.2-4.4,12.2-12.1v-2.6c-9.7,0-21.9-1-21.9,8.8
			C127.4,49,132.3,50.5,137.1,50.5z"/>
		<path class="st0" d="M218.1,63.2c-4.7,0-8-3.6-8-8.9V38.6h-20.8v15.6c0,5.4-3.3,8.9-8,8.9c-4.7,0-8-3.6-8-8.9V11.4
			c0-5.4,3.3-8.9,8-8.9c4.7,0,8,3.6,8,8.9v13.2h20.8V11.4c0-5.4,3.3-8.9,8-8.9c4.7,0,8,3.6,8,8.9v42.9
			C226.2,59.6,222.8,63.2,218.1,63.2z"/>
		<path class="st0" d="M275.3,19.6c-4,0-7.6-3.1-12.7-3.1c-9.2,0-13.5,8.1-13.5,16.4c0,7.9,4.8,16.2,13.5,16.2c4,0,10-3.3,11.9-3.3
			c3.8,0,6.9,3.2,6.9,7c0,8.3-13.8,11.1-19.6,11.1c-17.3,0-28.8-14.2-28.8-30.9c0-16.3,11.8-31.1,28.8-31.1
			c6.4,0,19.6,2.3,19.6,10.2C281.4,15.3,279.1,19.6,275.3,19.6z"/>
		<path class="st0" d="M287,53.6V11.4c0-5.4,3.3-8.9,8-8.9c4.7,0,8,3.6,8,8.9v13.2h11.4c12.5,0,21.5,5.9,21.5,18.9
			c0,12.1-8.1,19.1-20,19.1h-21C290.3,62.5,287,58.9,287,53.6z M303.1,49.2h10.6c3.7,0,6.3-2.3,6.3-6c0-3-2.3-5.4-6.9-5.4h-9.9V49.2
			z M343.9,11.4c0-5.4,3.3-8.9,8-8.9c4.7,0,8,3.6,8,8.9v42.9c0,5.4-3.3,8.9-8,8.9c-4.7,0-8-3.6-8-8.9V11.4z"/>
	</g>
	<g>
		<path class="st0" d="M49,148.4c-3.9,0-6.7-3-6.7-7.5v-6.7H13.5v6.7c0,4.5-2.8,7.5-6.7,7.5c-3.9,0-6.7-3-6.7-7.5v-11
			c0-4.5,2.8-7.5,6.7-7.5h0.7c2.5-8.8,3.4-18.9,3.4-30.5c0-4.9,2.8-7.5,6.7-7.5h23.9c3.9,0,6.7,3,6.7,7.5v30.5H49
			c3.9,0,6.7,3,6.7,7.5v11C55.8,145.4,53,148.4,49,148.4z M35.5,95.2H24c-0.3,10.3-1.3,19.9-3.5,27.9h15V95.2z"/>
		<path class="st0" d="M75.1,84.4H100c3.9,0,6.7,3,6.7,7.5v35.4c0,4.5-2.8,7.5-6.7,7.5c-3.9,0-6.7-3-6.7-7.5V96.1H81.9v13.9
			c0,16.4-7.2,24.6-17.2,24.6c-3.7,0-5.9-3-5.9-6c0-2.4,1.5-4.7,4.1-5.5c2.7-0.8,5.5-3.6,5.5-11.5V91.8
			C68.4,87.4,71.2,84.4,75.1,84.4z"/>
		<path class="st0" d="M113.8,100.2c0-10.9,6.6-15.8,17.4-15.8h13.9c3.9,0,6.7,3,6.7,7.5v35.4c0,4.5-2.8,7.5-6.7,7.5
			c-3.9,0-6.7-3-6.7-7.5v-12h-0.2l-14.3,17.3c-1.3,1.6-3.4,2.2-4.9,2.2c-3.7,0-6.4-3.2-6.4-6.5c0-1.2,0.5-2.5,1.7-3.7l10.7-11.4
			C118.7,111.5,113.8,107.3,113.8,100.2z M138.4,94h-4.6c-3.8,0-6.5,2.2-6.5,6.2c0,3.9,2.7,6.2,6.5,6.2h4.6V94z"/>
		<path class="st0" d="M236.4,134.7c-4.6,0-6.5-2.7-7-6l-3.5-24.6h-0.2l-7.6,25.8c-0.6,2-2.2,4.8-7,4.8c-4.7,0-6.4-2.7-7-4.8
			l-7.5-25.8h-0.2l-3.4,24.6c-0.5,3.3-2.4,6-7,6c-3.6,0-6.4-2.9-6.4-6.5c0-0.5,0-0.8,0.1-1.3l6.7-37.2c0.5-2.7,3.8-5.9,8.4-5.9
			c4.3,0,7.6,2.9,8.4,5.5l7.8,24.6h0.2l7.7-24.6c0.8-2.6,4.1-5.5,8.4-5.5c4.7,0,8,3.2,8.5,5.9l6.7,37.2c0.1,0.5,0.1,0.8,0.1,1.3
			C242.8,131.8,240.2,134.7,236.4,134.7z"/>
		<path class="st0" d="M265.9,135.3c-10.9,0-18.6-5.5-18.6-16.1c0-15.5,18.2-17.5,30.7-17.5V98c0-2.6-2.2-3.6-5.9-3.6
			c-7.9,0-9.3,4.6-12.8,4.6c-4.2,0-5.9-3-5.9-5.7c0-5.4,10.8-10.1,18.7-10.1c12.4,0,19.4,5.3,19.4,15.1v29.2c0,3.9-2.6,7.2-6.5,7.2
			c-2.9,0-5.3-0.7-6.4-5C276.2,133.4,270.4,135.3,265.9,135.3z M268.3,124c7,0,10.2-3.6,10.2-10.1v-2.2c-8.1,0-18.3-0.8-18.3,7.4
			C260.2,122.8,264.3,124,268.3,124z"/>
		<path class="st0" d="M353.6,134.7c-4.6,0-6.5-2.7-7-6l-3.5-24.6H343l-7.6,25.8c-0.6,2-2.2,4.8-7,4.8c-4.7,0-6.4-2.7-7-4.8
			l-7.5-25.8h-0.2l-3.4,24.6c-0.5,3.3-2.4,6-7,6c-3.6,0-6.4-2.9-6.4-6.5c0-0.5,0-0.8,0.1-1.3l6.7-37.2c0.5-2.7,3.8-5.9,8.4-5.9
			c4.3,0,7.6,2.9,8.4,5.5l7.8,24.6h0.2l7.7-24.6c0.8-2.6,4.1-5.5,8.4-5.5c4.7,0,8,3.2,8.5,5.9l6.7,37.2c0.1,0.5,0.1,0.8,0.1,1.3
			C360,131.8,357.4,134.7,353.6,134.7z"/>
	</g>
	<g>
		<path class="st0" d="M33.6,170.7c-3.2,0-6-2.5-10.1-2.5c-7.3,0-10.7,6.5-10.7,13c0,6.3,3.8,12.9,10.7,12.9c3.2,0,8-2.7,9.5-2.7
			c3,0,5.5,2.6,5.5,5.6c0,6.6-11,8.8-15.6,8.8C9.1,205.8,0,194.5,0,181.3c0-12.9,9.4-24.7,22.9-24.7c5.1,0,15.6,1.9,15.6,8.1
			C38.5,167.2,36.6,170.7,33.6,170.7z"/>
		<path class="st0" d="M109.8,218.2c-3.7,0-6.4-2.8-6.4-7.1v-6.4H76.1v6.4c0,4.3-2.7,7.1-6.4,7.1c-3.7,0-6.4-2.8-6.4-7.1v-10.5
			c0-4.3,2.7-7.1,6.4-7.1h0.7c2.4-8.3,3.2-17.9,3.2-28.9c0-4.6,2.7-7.1,6.4-7.1h22.7c3.7,0,6.4,2.8,6.4,7.1v28.9h0.7
			c3.7,0,6.4,2.8,6.4,7.1v10.5C116.2,215.4,113.6,218.2,109.8,218.2z M97.1,167.9H86.2c-0.3,9.8-1.2,18.9-3.3,26.4h14.2V167.9z"/>
		<path class="st0" d="M130,185.4c0.9,6.3,6.1,9.2,12.1,9.2c6.6,0,11.1-5.1,14.4-5.1c2.7,0,5.2,2.7,5.2,5.5
			c0,5.5-11.3,10.8-20.8,10.8c-14.4,0-23.9-10.5-23.9-24.6c0-12.9,9.4-24.7,22.9-24.7c13.8,0,23,12.6,23,23.2c0,3.8-1.7,5.7-5.6,5.7
			H130z M150,176.9c-0.7-5.6-4.3-9.8-10.2-9.8c-5.7,0-9.5,4.3-10.1,9.8H150z"/>
		<path class="st0" d="M178.2,168.8h-9c-3.5,0-5.6-2.1-5.6-5.6c0-3.2,2.4-5.6,5.6-5.6h30.7c3.3,0,6.1,1.5,6.1,5.6
			c0,4-2.8,5.6-6.1,5.6h-9v29.4c0,4.3-2.7,7.1-6.4,7.1c-3.7,0-6.4-2.8-6.4-7.1V168.8z"/>
		<path class="st0" d="M209.7,197.7v-33.5c0-4.3,2.7-7.1,6.4-7.1c3.7,0,6.4,2.8,6.4,7.1v10.5h9c9.9,0,17.1,4.7,17.1,15
			c0,9.6-6.5,15.2-15.9,15.2H216C212.3,204.7,209.7,201.9,209.7,197.7z M222.4,194.2h8.4c2.9,0,5-1.9,5-4.8c0-2.4-1.9-4.3-5.5-4.3
			h-7.9V194.2z"/>
		<path class="st0" d="M306.1,205.3c-4.3,0-6.2-2.6-6.6-5.7l-3.3-23.3H296l-7.2,24.5c-0.5,1.9-2.1,4.5-6.6,4.5c-4.4,0-6-2.6-6.6-4.5
			l-7.1-24.5h-0.2l-3.2,23.3c-0.4,3.1-2.3,5.7-6.6,5.7c-3.5,0-6-2.7-6-6.1c0-0.4,0-0.8,0.1-1.2l6.4-35.3c0.4-2.6,3.6-5.6,8-5.6
			c4.1,0,7.2,2.7,8,5.2l7.4,23.3h0.2l7.3-23.3c0.8-2.5,3.9-5.2,8-5.2c4.4,0,7.6,3,8.1,5.6l6.4,35.3c0.1,0.4,0.1,0.8,0.1,1.2
			C312.1,202.5,309.6,205.3,306.1,205.3z"/>
		<path class="st0" d="M353.6,205.3c-3.7,0-6.4-2.8-6.4-7.1v-18.8h-0.2l-17.5,23c-1.4,1.9-3,2.9-5.2,2.9c-3.7,0-6.4-2.8-6.4-7.1v-34
			c0-4.3,2.7-7.1,6.4-7.1c3.7,0,6.4,2.8,6.4,7.1v18.4h0.2l16.3-21.6c1.8-2.3,4-3.9,6.4-3.9c3.7,0,6.4,2.8,6.4,7.1v34
			C360,202.4,357.3,205.3,353.6,205.3z"/>
	</g>
</g>
</svg>
