<?xml version="1.0" encoding="utf-8"?>
<!-- Generator: Adobe Illustrator 19.2.1, SVG Export Plug-In . SVG Version: 6.00 Build 0)  -->
<svg version="1.1" id="Layer_1" xmlns="http://www.w3.org/2000/svg" xmlns:xlink="http://www.w3.org/1999/xlink" x="0px" y="0px"
	 width="180px" height="25px" viewBox="0 0 180 25" style="enable-background:new 0 0 180 25;" xml:space="preserve">
<style type="text/css">
	.st0{fill:#53B2E5;}
</style>
<g>
	<path class="st0" d="M0.2,5.8C0.1,5.5,0,5.1,0,4.7c0-1.1,1.1-1.8,2-1.8c1,0,1.8,0.6,2.1,1.5L7,12.3l3.1-7.9
		c0.4-0.9,1.1-1.5,2.1-1.5c0.9,0,2,0.8,2,1.8c0,0.4-0.1,0.8-0.2,1.1l-7,17.5c-0.4,0.9-1,1.7-2,1.7c-1.4,0-2.2-0.9-2.2-1.8
		c0-0.4,0.1-0.8,0.3-1.2l1.8-4.6L0.2,5.8z"/>
	<path class="st0" d="M20.2,19c-3,0-6-1.3-6-3.2c0-0.6,0.6-1.9,1.8-1.9c1.6,0,1.9,1.4,3.9,1.4c1.1,0,1.8-0.5,1.8-1.4
		c0-2.9-3.8-0.8-3.8-3.4c0-2.3,3.2-0.8,3.2-3c0-0.5-0.3-1-1.3-1c-1.4,0-2.6,1.2-3.4,1.2c-1,0-1.7-0.9-1.7-1.9c0-2.1,3.4-3,5.4-3
		c3.3,0,4.9,2,4.9,4.1c0,1.4-0.6,2.7-1.9,3.4c1.6,0.5,2.7,2.2,2.7,3.9C25.9,16.7,23.9,19,20.2,19z"/>
	<path class="st0" d="M39.1,18.8c-1.2,0-2.1-0.9-2.1-2.3v-4.1h-5.4v4.1c0,1.4-0.9,2.3-2.1,2.3c-1.2,0-2.1-0.9-2.1-2.3V5.2
		c0-1.4,0.9-2.3,2.1-2.3c1.2,0,2.1,0.9,2.1,2.3v3.4H37V5.2c0-1.4,0.9-2.3,2.1-2.3c1.2,0,2.1,0.9,2.1,2.3v11.2
		C41.2,17.9,40.3,18.8,39.1,18.8z"/>
	<path class="st0" d="M48.2,19c-3.4,0-5.8-1.7-5.8-5c0-4.9,5.7-5.5,9.6-5.5V7.3c0-0.8-0.7-1.1-1.8-1.1c-2.5,0-2.9,1.4-4,1.4
		c-1.3,0-1.8-0.9-1.8-1.8c0-1.7,3.4-3.2,5.8-3.2c3.9,0,6,1.7,6,4.7v9.1c0,1.2-0.8,2.2-2,2.2c-0.9,0-1.7-0.2-2-1.5
		C51.4,18.4,49.6,19,48.2,19z M49,15.5c2.2,0,3.2-1.1,3.2-3.2v-0.7c-2.5,0-5.7-0.3-5.7,2.3C46.4,15.1,47.7,15.5,49,15.5z"/>
	<path class="st0" d="M61.5,6.8h-3c-1.1,0-1.8-0.7-1.8-1.8c0-1.1,0.8-1.8,1.8-1.8h10.1c1.1,0,2,0.5,2,1.8c0,1.3-0.9,1.8-2,1.8h-3
		v9.7c0,1.4-0.9,2.3-2.1,2.3c-1.2,0-2.1-0.9-2.1-2.3V6.8z"/>
	<path class="st0" d="M71.4,16.3v-11c0-1.4,0.9-2.3,2.1-2.3c1.2,0,2.1,0.9,2.1,2.3v3.4h3c3.3,0,5.6,1.5,5.6,4.9c0,3.2-2.1,5-5.2,5
		h-5.5C72.2,18.6,71.4,17.7,71.4,16.3z M75.6,15.1h2.8c1,0,1.6-0.6,1.6-1.6c0-0.8-0.6-1.4-1.8-1.4h-2.6V15.1z"/>
	<path class="st0" d="M99.7,18.9c-3.3,0-5.3-1.9-6.2-4.5c-0.4-1.3-0.5-2.8-0.5-4.3c0-2.7,0.8-5.9,2.1-7.1c1.1-1,2.2-2,6.8-2.4
		c0.6-0.1,1.1-0.6,1.7-0.6c1,0,1.7,0.8,1.7,1.6c0,1-1,2.1-2.8,2.2c-1.6,0.1-3.7,0.3-5,1c-0.6,0.3-1.3,1.2-1.3,1.9l0.1,0.1
		C97,6,98.5,5.2,100,5.2c3.6,0,6.4,3.3,6.4,6.9C106.4,15.8,103.7,18.9,99.7,18.9z M99.7,8.3c-2,0-2.9,1.9-2.9,3.6s0.9,3.6,2.9,3.6
		c2,0,2.9-1.9,2.9-3.6S101.8,8.3,99.7,8.3z"/>
	<path class="st0" d="M120.2,11.8c0,3.9-2.6,7.1-6.6,7.1s-6.6-3.3-6.6-7.1c0-3.8,2.7-7.2,6.6-7.2C117.5,4.6,120.2,8.1,120.2,11.8z
		 M110.7,11.8c0,1.8,0.9,3.7,2.9,3.7c2,0,2.9-2,2.9-3.7c0-1.8-0.9-3.8-2.9-3.8S110.7,10,110.7,11.8z"/>
	<path class="st0" d="M124.4,4.9h6.8c1.1,0,1.8,0.8,1.8,2.1v9.7c0,1.2-0.8,2.1-1.8,2.1c-1.1,0-1.8-0.8-1.8-2.1V8.2h-3.1V12
		c0,4.5-2,6.8-4.7,6.8c-1,0-1.6-0.8-1.6-1.6c0-0.7,0.4-1.3,1.1-1.5c0.7-0.2,1.5-1,1.5-3.2V7C122.5,5.8,123.3,4.9,124.4,4.9z"/>
	<path class="st0" d="M135,16.6V6.8c0-1.2,0.8-2.1,1.8-2.1c1.1,0,1.8,0.8,1.8,2.1v3h2.6c2.9,0,5,1.4,5,4.3c0,2.8-1.9,4.4-4.6,4.4
		h-4.8C135.7,18.6,135,17.8,135,16.6z M138.7,15.6h2.4c0.8,0,1.4-0.5,1.4-1.4c0-0.7-0.5-1.2-1.6-1.2h-2.3V15.6z"/>
	<path class="st0" d="M147.1,16.6V6.8c0-1.2,0.8-2.1,1.8-2.1c1.1,0,1.8,0.8,1.8,2.1v8.5h3.8V6.8c0-1.2,0.8-2.1,1.8-2.1
		c1.1,0,1.8,0.8,1.8,2.1v8.5h3.8V6.8c0-1.2,0.8-2.1,1.8-2.1c1.1,0,1.8,0.8,1.8,2.1v9.7c0,1.2-0.8,2.1-1.8,2.1h-14.9
		C147.9,18.6,147.1,17.8,147.1,16.6z"/>
	<path class="st0" d="M170.5,13c0.3,1.8,1.8,2.7,3.5,2.7c1.9,0,3.2-1.5,4.2-1.5c0.8,0,1.5,0.8,1.5,1.6c0,1.6-3.3,3.1-6,3.1
		c-4.2,0-6.9-3-6.9-7.1c0-3.8,2.7-7.2,6.6-7.2c4,0,6.7,3.6,6.7,6.7c0,1.1-0.5,1.6-1.6,1.6H170.5z M176.3,10.5
		c-0.2-1.6-1.2-2.8-3-2.8c-1.6,0-2.7,1.3-2.9,2.8H176.3z"/>
</g>
</svg>
