<?xml version="1.0" encoding="utf-8"?>
<!-- Generator: Adobe Illustrator 19.2.1, SVG Export Plug-In . SVG Version: 6.00 Build 0)  -->
<svg version="1.1" id="Layer_1" xmlns="http://www.w3.org/2000/svg" xmlns:xlink="http://www.w3.org/1999/xlink" x="0px" y="0px"
	 width="196px" height="72px" viewBox="0 0 196 72" style="enable-background:new 0 0 196 72;" xml:space="preserve">
<style type="text/css">
	.st0{fill:#53B2E5;}
</style>
<g>
	<path class="st0" d="M1.2,3.2c0-1.3,0.7-2.3,2.3-2.3h7.6c6.2,0,9.4,4.3,9.4,8.3c0,3.8-2,6.7-4.8,7.6v0.1c4.2,0.4,7.5,4,7.5,8.6
		c0,5.5-4.1,10.2-11.4,10.2H3.5c-1.6,0-2.3-1-2.3-2.3V3.2z M5.5,15.6h4.9c3.7,0,5.8-2.4,5.8-5.6c0-3.1-1.8-5.4-5.6-5.4h-5V15.6z
		 M5.5,31.9h6.1c4.2,0,7.3-2.6,7.3-6.4c0-3.6-2.6-6.4-7.1-6.4H5.5V31.9z"/>
	<path class="st0" d="M33.2,33.3c0,1.7-0.8,2.6-2.1,2.6c-1.3,0-2.1-0.9-2.1-2.6V3.4c0-1.7,0.8-2.6,2.1-2.6h22.6
		c1.3,0,2.1,0.9,2.1,2.6v29.9c0,1.7-0.8,2.6-2.1,2.6c-1.3,0-2.1-0.9-2.1-2.6V4.6H33.2V33.3z"/>
	<path class="st0" d="M67.3,31.6h10.4c1.2,0,2.1,0.6,2.1,2c0,1.4-0.9,2-2.1,2H65.3c-1.6,0-2.3-1-2.3-2.3V3.2c0-1.3,0.7-2.3,2.3-2.3
		h12.4c1.2,0,2.1,0.6,2.1,2s-0.9,2-2.1,2H67.3v11.4h9.4c1.2,0,2.1,0.6,2.1,2c0,1.4-0.9,2-2.1,2h-9.4V31.6z"/>
	<path class="st0" d="M90.4,33.6c0,1.4-0.8,2.3-2.1,2.3s-2.1-0.9-2.1-2.3V3.2c0-1.3,0.7-2.3,2.3-2.3h8.5c7,0,11.3,4.9,11.3,10.9
		c0,6.1-4.8,10.8-11.1,10.8h-6.6V33.6z M90.4,18.9h6.3c4.2,0,7.1-3.2,7.1-7.1c0-3.4-2-7.2-7.3-7.2h-6.2V18.9z"/>
	<path class="st0" d="M112.9,3.2c0-1.3,0.7-2.3,2.3-2.3h7.6c6.2,0,9.4,4.3,9.4,8.3c0,3.8-2,6.7-4.8,7.6v0.1c4.2,0.4,7.5,4,7.5,8.6
		c0,5.5-4.1,10.2-11.4,10.2h-8.3c-1.6,0-2.3-1-2.3-2.3V3.2z M117.2,15.6h4.9c3.7,0,5.8-2.4,5.8-5.6c0-3.1-1.8-5.4-5.6-5.4h-5V15.6z
		 M117.2,31.9h6.1c4.2,0,7.3-2.6,7.3-6.4c0-3.6-2.6-6.4-7.1-6.4h-6.3V31.9z"/>
	<path class="st0" d="M142.8,0.6c1.3,0,2.1,0.9,2.1,2.3v12.2h6.1c7.8,0,11.6,4.3,11.6,10c0,6-4.1,10.5-11.4,10.5h-8.3
		c-1.6,0-2.3-1-2.3-2.3V2.9C140.6,1.4,141.4,0.6,142.8,0.6z M151.2,19.1h-6.3v12.6h6.1c4.2,0,7.3-2.4,7.3-6.5
		C158.2,21.5,155.6,19.1,151.2,19.1z M171.5,33.6c0,1.4-0.8,2.3-2.1,2.3s-2.1-0.9-2.1-2.3V2.9c0-1.4,0.8-2.3,2.1-2.3
		s2.1,0.9,2.1,2.3V33.6z"/>
	<path class="st0" d="M182.6,31.6H193c1.2,0,2.1,0.6,2.1,2c0,1.4-0.9,2-2.1,2h-12.4c-1.6,0-2.3-1-2.3-2.3V3.2c0-1.3,0.7-2.3,2.3-2.3
		H193c1.2,0,2.1,0.6,2.1,2s-0.9,2-2.1,2h-10.4v11.4h9.4c1.2,0,2.1,0.6,2.1,2c0,1.4-0.9,2-2.1,2h-9.4V31.6z"/>
	<path class="st0" d="M0,51.5c0-0.8,0.4-1.4,1.4-1.4H6c3.7,0,5.7,2.6,5.7,5c0,2.3-1.2,4.1-2.9,4.6v0.1c2.6,0.3,4.6,2.4,4.6,5.2
		c0,3.3-2.5,6.2-6.9,6.2h-5c-1,0-1.4-0.6-1.4-1.4V51.5z M2.6,59.1h3c2.2,0,3.5-1.5,3.5-3.4c0-1.9-1.1-3.3-3.4-3.3H2.6V59.1z M2.6,69
		h3.7c2.6,0,4.4-1.6,4.4-3.9c0-2.2-1.6-3.9-4.3-3.9H2.6V69z"/>
	<path class="st0" d="M27.8,70c0,0.9-0.5,1.4-1.3,1.4c-0.8,0-1.3-0.5-1.3-1.4V51.3c0-0.9,0.5-1.4,1.3-1.4c0.8,0,1.3,0.5,1.3,1.4v7.7
		l9.1-8.3c0.5-0.4,0.9-0.8,1.4-0.8c0.7,0,1.1,0.4,1.1,1.1c0,0.7-0.2,0.9-0.5,1.2l-8.7,7.8l9.5,9.1c0.4,0.4,0.5,0.7,0.5,1.1
		c0,0.6-0.6,1.2-1.3,1.2c-0.4,0-0.7-0.1-1.3-0.6l-9.9-9.7V70z"/>
	<path class="st0" d="M44.2,70.5c-0.2,0.6-0.6,1-1.3,1c-0.7,0-1.2-0.4-1.2-1.1c0-0.4,0.3-1,0.4-1.3l6.6-17.5
		c0.4-0.9,0.9-1.6,1.9-1.6c1,0,1.5,0.7,1.9,1.6L58.9,69c0.1,0.3,0.4,1,0.4,1.3c0,0.7-0.6,1.1-1.2,1.1c-0.7,0-1.1-0.4-1.3-1l-1.4-3.8
		h-9.8L44.2,70.5z M50.5,53L50.5,53l-4.1,11.4h8.2L50.5,53z"/>
	<path class="st0" d="M65.9,60.2c0-0.8,0.5-1,1.2-1.1c0.6-0.1,1.6-0.2,2.3-0.9c0.7-0.7,1-1.8,1-2.7c0-2.1-1.3-3.2-3.2-3.2
		c-2.6,0-3.1,1.5-4.3,1.5c-0.7,0-1.1-0.5-1.1-1.2c0-1.4,2.7-2.6,5.3-2.6c4,0,6.1,2.3,6.1,5.4c0,1.8-1,3.5-2.7,4.5
		c2.4,0.7,3.6,2.7,3.6,5c0,3.5-2.6,6.6-7.2,6.6c-2.8,0-5.9-1.1-5.9-2.6c0-0.7,0.4-1.3,1.1-1.3c0.9,0,2.1,1.6,4.8,1.6
		c2.7,0,4.3-1.9,4.3-4.1c0-2.9-1.7-3.8-4.3-3.8C66.4,61.3,65.9,61,65.9,60.2z"/>
	<path class="st0" d="M79,70.5c-0.2,0.6-0.6,1-1.3,1c-0.7,0-1.2-0.4-1.2-1.1c0-0.4,0.3-1,0.4-1.3l6.6-17.5c0.4-0.9,0.9-1.6,1.9-1.6
		c1,0,1.5,0.7,1.9,1.6L93.7,69c0.1,0.3,0.4,1,0.4,1.3c0,0.7-0.6,1.1-1.2,1.1c-0.7,0-1.1-0.4-1.3-1l-1.4-3.8h-9.8L79,70.5z M85.3,53
		L85.3,53l-4.1,11.4h8.2L85.3,53z"/>
	<path class="st0" d="M98,70.6c-0.5,0.7-0.9,0.8-1.3,0.8c-0.6,0-1.2-0.5-1.2-1.1c0-0.4,0.2-0.8,0.4-1.1l6.6-9.4L97,52.1
		c-0.3-0.4-0.4-0.8-0.4-1.1c0-0.7,0.5-1.1,1.2-1.1c0.4,0,0.8,0.1,1.3,0.8l5,7.2l5-7.2c0.5-0.7,0.9-0.8,1.3-0.8
		c0.6,0,1.2,0.4,1.2,1.1c0,0.3-0.1,0.7-0.4,1.1l-5.5,7.8l6.6,9.4c0.2,0.3,0.4,0.7,0.4,1.1c0,0.6-0.6,1.1-1.2,1.1
		c-0.4,0-0.8-0.1-1.3-0.8L104,62L98,70.6z"/>
	<path class="st0" d="M123.9,69.2c3.2,0,4.6-1.9,5.7-1.9c0.6,0,1,0.5,1,1.2c0,1.3-3,2.9-6.7,2.9c-6.1,0-9.3-5.3-9.3-10.7
		s3.1-10.7,9.4-10.7c3.7,0,6.1,2,6.1,3.1c0,0.7-0.4,1.2-1.1,1.2c-1.2,0-1.8-2.1-5-2.1c-4.7,0-6.6,4.5-6.6,8.5S119.4,69.2,123.9,69.2
		z"/>
	<path class="st0" d="M137.5,52.6h-3.9c-0.7,0-1.3-0.4-1.3-1.2c0-0.8,0.5-1.2,1.3-1.2h10.5c0.7,0,1.3,0.4,1.3,1.2
		c0,0.8-0.5,1.2-1.3,1.2h-3.9V70c0,0.9-0.5,1.4-1.3,1.4s-1.3-0.5-1.3-1.4V52.6z"/>
	<path class="st0" d="M147.2,70.5c-0.2,0.6-0.6,1-1.3,1c-0.7,0-1.2-0.4-1.2-1.1c0-0.4,0.3-1,0.4-1.3l6.6-17.5
		c0.4-0.9,0.9-1.6,1.9-1.6c1,0,1.5,0.7,1.9,1.6l6.6,17.5c0.1,0.3,0.4,1,0.4,1.3c0,0.7-0.6,1.1-1.2,1.1c-0.7,0-1.1-0.4-1.3-1
		l-1.4-3.8h-9.8L147.2,70.5z M153.5,53L153.5,53l-4.1,11.4h8.2L153.5,53z"/>
	<path class="st0" d="M167.7,69.9c0,1-0.5,1.6-1.3,1.6s-1.3-0.5-1.3-1.6V51.5c0-1,0.5-1.6,1.3-1.6s1.3,0.5,1.3,1.6v8h11.1v-8
		c0-1,0.5-1.6,1.3-1.6s1.3,0.5,1.3,1.6v18.3c0,1-0.5,1.6-1.3,1.6s-1.3-0.5-1.3-1.6v-8.1h-11.1V69.9z"/>
	<path class="st0" d="M188.4,68.8h6.3c0.7,0,1.3,0.4,1.3,1.2s-0.5,1.2-1.3,1.2h-7.5c-1,0-1.4-0.6-1.4-1.4V51.5
		c0-0.8,0.4-1.4,1.4-1.4h7.5c0.7,0,1.3,0.4,1.3,1.2c0,0.8-0.5,1.2-1.3,1.2h-6.3v6.9h5.7c0.7,0,1.3,0.4,1.3,1.2s-0.5,1.2-1.3,1.2
		h-5.7V68.8z"/>
</g>
</svg>
